M48
;DRILL file {KiCad 4.0.5+dfsg1-4} date Thu Sep 14 16:41:25 2017
;FORMAT={3:3/ absolute / metric / suppress leading zeros}
FMAT,2
METRIC,TZ
T1C0.330
T2C0.750
T3C1.000
%
G90
G05
M71
T1
X114500Y-97500
X115500Y-84250
X115500Y-88750
X125775Y-88700
X125800Y-84250
X126650Y-99000
X135350Y-74000
X135350Y-74000
X136000Y-88725
X136000Y-84275
X146000Y-93500
X146000Y-93500
T2
X100750Y-74000
X102750Y-74000
T3
X153000Y-98500
X155540Y-98500
X158080Y-98500
X160620Y-98500
X163160Y-98500
X165700Y-98500
T0
M30
