G04 #@! TF.FileFunction,Copper,L1,Top,Signal*
%FSLAX46Y46*%
G04 Gerber Fmt 4.6, Leading zero omitted, Abs format (unit mm)*
G04 Created by KiCad (PCBNEW 4.0.5+dfsg1-4) date Sat Sep 16 15:38:21 2017*
%MOMM*%
%LPD*%
G01*
G04 APERTURE LIST*
%ADD10C,0.100000*%
%ADD11R,1.700000X1.200000*%
%ADD12O,1.700000X1.200000*%
%ADD13R,1.100000X2.500000*%
%ADD14R,1.500000X1.300000*%
%ADD15R,1.300000X1.500000*%
%ADD16R,1.500000X1.500000*%
%ADD17R,1.700000X1.700000*%
%ADD18O,1.700000X1.700000*%
%ADD19C,0.685800*%
%ADD20C,0.685800*%
%ADD21C,0.635000*%
G04 APERTURE END LIST*
D10*
D11*
X95000000Y-87250000D03*
D12*
X95000000Y-85250000D03*
D13*
X160000000Y-78800000D03*
X158000000Y-78800000D03*
X156000000Y-78800000D03*
X154000000Y-78800000D03*
X152000000Y-78800000D03*
X150000000Y-78800000D03*
X148000000Y-78800000D03*
X146000000Y-78800000D03*
X146000000Y-94200000D03*
X148000000Y-94200000D03*
X150000000Y-94200000D03*
X152000000Y-94200000D03*
X154000000Y-94200000D03*
X156000000Y-94200000D03*
X158000000Y-94200000D03*
X160000000Y-94200000D03*
D14*
X152850000Y-74000000D03*
X150150000Y-74000000D03*
X156400000Y-74000000D03*
X159100000Y-74000000D03*
D15*
X142250000Y-94850000D03*
X142250000Y-92150000D03*
D16*
X131500000Y-88975000D03*
X131500000Y-84525000D03*
X135000000Y-88975000D03*
X135000000Y-84525000D03*
X131500000Y-96225000D03*
X131500000Y-91775000D03*
X135000000Y-96225000D03*
X135000000Y-91775000D03*
X131500000Y-81475000D03*
X131500000Y-77025000D03*
X135000000Y-81475000D03*
X135000000Y-77025000D03*
D17*
X148000000Y-98500000D03*
D18*
X150540000Y-98500000D03*
X153080000Y-98500000D03*
X155620000Y-98500000D03*
X158160000Y-98500000D03*
X160700000Y-98500000D03*
X163240000Y-98500000D03*
X165780000Y-98500000D03*
D19*
X131500000Y-86500000D03*
X131500000Y-77025000D03*
X131500000Y-96225000D03*
X159100000Y-74000000D03*
X148000000Y-93500000D03*
X146000000Y-93500000D03*
X146000000Y-93500000D03*
X150150000Y-74000000D03*
X156000000Y-93500000D03*
X160000000Y-79500000D03*
X154000000Y-79500000D03*
X154000000Y-93500000D03*
D20*
X97750000Y-85250000D02*
X95000000Y-85250000D01*
X139250000Y-98750000D02*
X108035800Y-98750000D01*
X108035800Y-98750000D02*
X97750000Y-88464200D01*
X97750000Y-88464200D02*
X97750000Y-85250000D01*
X156000000Y-79500000D02*
X156000000Y-82250000D01*
X161500000Y-85000000D02*
X161500000Y-95750000D01*
X141750000Y-98750000D02*
X139250000Y-98750000D01*
X156000000Y-82250000D02*
X158750000Y-82250000D01*
X158750000Y-82250000D02*
X161500000Y-85000000D01*
X167750000Y-99250000D02*
X166750000Y-100250000D01*
X161500000Y-95750000D02*
X162500000Y-96750000D01*
X162500000Y-96750000D02*
X166500000Y-96750000D01*
X166500000Y-96750000D02*
X167750000Y-98000000D01*
X167750000Y-98000000D02*
X167750000Y-99250000D01*
X143285000Y-100285000D02*
X141750000Y-98750000D01*
X166750000Y-100250000D02*
X159830000Y-100250000D01*
X159830000Y-100250000D02*
X158080000Y-98500000D01*
X158080000Y-98500000D02*
X156295000Y-100285000D01*
X156295000Y-100285000D02*
X143285000Y-100285000D01*
X150000000Y-93500000D02*
X150000000Y-93234138D01*
X150000000Y-93234138D02*
X148915862Y-92150000D01*
X148915862Y-92150000D02*
X143585800Y-92150000D01*
X143585800Y-92150000D02*
X142250000Y-92150000D01*
X142250000Y-92150000D02*
X140914200Y-92150000D01*
X140914200Y-92150000D02*
X139250000Y-93814200D01*
X139250000Y-93814200D02*
X139250000Y-98750000D01*
X155500000Y-76750000D02*
X156000000Y-77250000D01*
X156000000Y-77250000D02*
X156000000Y-79500000D01*
X147404178Y-76750000D02*
X155500000Y-76750000D01*
X146000000Y-78154178D02*
X147404178Y-76750000D01*
X146000000Y-79500000D02*
X146000000Y-78154178D01*
X131500000Y-86500000D02*
X131500000Y-84525000D01*
X131500000Y-88975000D02*
X131500000Y-86500000D01*
X131500000Y-81475000D02*
X131500000Y-77025000D01*
X131500000Y-84525000D02*
X131500000Y-80750000D01*
X131500000Y-91775000D02*
X131500000Y-88975000D01*
X131500000Y-96225000D02*
X131500000Y-91775000D01*
X138750000Y-82250000D02*
X138710800Y-82250000D01*
X138710800Y-82250000D02*
X136435800Y-84525000D01*
X136435800Y-84525000D02*
X135000000Y-84525000D01*
X148015862Y-81723850D02*
X147499101Y-82240611D01*
X147499101Y-82250000D02*
X138759389Y-82250000D01*
X138759389Y-82240611D02*
X138750000Y-82250000D01*
X150000000Y-79500000D02*
X150000000Y-79765862D01*
X150000000Y-79765862D02*
X148015862Y-81750000D01*
X135000000Y-88975000D02*
X135000000Y-84525000D01*
X135000000Y-91775000D02*
X136435800Y-91775000D01*
X136435800Y-91775000D02*
X137000000Y-91210800D01*
X137000000Y-91210800D02*
X137000000Y-86250000D01*
X137000000Y-86250000D02*
X140000000Y-83250000D01*
X140000000Y-83250000D02*
X148515861Y-83250000D01*
X148515861Y-83250000D02*
X149015862Y-82749999D01*
X149015862Y-82750000D02*
X152000000Y-79765862D01*
X152000000Y-79765862D02*
X152000000Y-79500000D01*
X135000000Y-96225000D02*
X135000000Y-91775000D01*
X148000000Y-79500000D02*
X148000000Y-79765862D01*
X148000000Y-79765862D02*
X146515862Y-81250000D01*
X146515862Y-81250000D02*
X144250000Y-81250000D01*
X144250000Y-81250000D02*
X143000000Y-80000000D01*
X143000000Y-80000000D02*
X143000000Y-78750000D01*
X143000000Y-78750000D02*
X141275000Y-77025000D01*
X141275000Y-77025000D02*
X135000000Y-77025000D01*
X135000000Y-77025000D02*
X135000000Y-81475000D01*
X156400000Y-74000000D02*
X152850000Y-74000000D01*
X158000000Y-79500000D02*
X158000000Y-77000000D01*
X158000000Y-77000000D02*
X156500000Y-75500000D01*
X156500000Y-75500000D02*
X156500000Y-74100000D01*
X156500000Y-74100000D02*
X156400000Y-74000000D01*
X145235800Y-96500000D02*
X149742081Y-96500000D01*
X149742081Y-96500000D02*
X150540000Y-97297919D01*
X150540000Y-97297919D02*
X150540000Y-98500000D01*
X142250000Y-94850000D02*
X143585800Y-94850000D01*
X143585800Y-94850000D02*
X145235800Y-96500000D01*
X152000000Y-97040000D02*
X152000000Y-96500000D01*
X152000000Y-96500000D02*
X152000000Y-93500000D01*
X150540000Y-98500000D02*
X152000000Y-97040000D01*
D21*
X152000000Y-95065000D02*
X152000000Y-93500000D01*
X160620000Y-98500000D02*
X158000000Y-95880000D01*
X158000000Y-95880000D02*
X158000000Y-93500000D01*
X160000000Y-95615014D02*
X160000000Y-93500000D01*
X162884986Y-98500000D02*
X160000000Y-95615014D01*
X163160000Y-98500000D02*
X162884986Y-98500000D01*
M02*
