M48
;DRILL file {KiCad 4.0.5+dfsg1-4} date Sat Sep 16 14:32:54 2017
;FORMAT={-:-/ absolute / inch / decimal}
FMAT,2
INCH,TZ
T1C0.013
T2C0.030
T3C0.039
%
G90
G05
M72
T1
X5.1772Y-3.0325
X5.1772Y-3.4055
X5.1772Y-3.7884
X5.748Y-3.6811
X5.748Y-3.6811
X5.8268Y-3.6811
X5.9114Y-2.9134
X6.063Y-3.1299
X6.063Y-3.6811
X6.1417Y-3.6811
X6.2638Y-2.9134
X6.2992Y-3.1299
T2
X3.7402Y-3.3563
X3.7402Y-3.435
T3
X5.8268Y-3.878
X5.9268Y-3.878
X6.0268Y-3.878
X6.1268Y-3.878
X6.2268Y-3.878
X6.3268Y-3.878
X6.4268Y-3.878
X6.5268Y-3.878
T0
M30
