G04 #@! TF.FileFunction,Profile,NP*
%FSLAX46Y46*%
G04 Gerber Fmt 4.6, Leading zero omitted, Abs format (unit mm)*
G04 Created by KiCad (PCBNEW 4.0.5+dfsg1-4) date Sat Sep 16 15:38:21 2017*
%MOMM*%
%LPD*%
G01*
G04 APERTURE LIST*
%ADD10C,0.100000*%
%ADD11C,0.150000*%
G04 APERTURE END LIST*
D10*
D11*
X162500000Y-77000000D02*
X169000000Y-77000000D01*
X162500000Y-96000000D02*
X162500000Y-77000000D01*
X169000000Y-96000000D02*
X162500000Y-96000000D01*
X169000000Y-99000000D02*
X169000000Y-96000000D01*
X91500000Y-99000000D02*
G75*
G03X93500000Y-101000000I2000000J0D01*
G01*
X93500000Y-72000000D02*
G75*
G03X91500000Y-74000000I0J-2000000D01*
G01*
X169000000Y-74000000D02*
G75*
G03X167000000Y-72000000I-2000000J0D01*
G01*
X167000000Y-101000000D02*
G75*
G03X169000000Y-99000000I0J2000000D01*
G01*
X141250000Y-73500000D02*
X136250000Y-73500000D01*
X141250000Y-99500000D02*
X136250000Y-99500000D01*
X141250000Y-101000000D02*
X167000000Y-101000000D01*
X91500000Y-74000000D02*
X91500000Y-99000000D01*
X136250000Y-72000000D02*
X93500000Y-72000000D01*
X136250000Y-73500000D02*
X136250000Y-72000000D01*
X141250000Y-72000000D02*
X141250000Y-73500000D01*
X167000000Y-72000000D02*
X141250000Y-72000000D01*
X169000000Y-77000000D02*
X169000000Y-74000000D01*
X141250000Y-99500000D02*
X141250000Y-101000000D01*
X136250000Y-101000000D02*
X136250000Y-99500000D01*
X93500000Y-101000000D02*
X136250000Y-101000000D01*
M02*
