G04 #@! TF.FileFunction,Legend,Top*
%FSLAX46Y46*%
G04 Gerber Fmt 4.6, Leading zero omitted, Abs format (unit mm)*
G04 Created by KiCad (PCBNEW 4.0.5+dfsg1-4) date Sat Sep 16 14:32:47 2017*
%MOMM*%
%LPD*%
G01*
G04 APERTURE LIST*
%ADD10C,0.100000*%
%ADD11C,0.150000*%
%ADD12C,0.300000*%
%ADD13C,0.127000*%
%ADD14C,0.010000*%
%ADD15C,0.152400*%
%ADD16C,0.120000*%
G04 APERTURE END LIST*
D10*
D11*
X140047619Y-93333334D02*
X140523810Y-93000000D01*
X140047619Y-92761905D02*
X141047619Y-92761905D01*
X141047619Y-93142858D01*
X141000000Y-93238096D01*
X140952381Y-93285715D01*
X140857143Y-93333334D01*
X140714286Y-93333334D01*
X140619048Y-93285715D01*
X140571429Y-93238096D01*
X140523810Y-93142858D01*
X140523810Y-92761905D01*
X141047619Y-93666667D02*
X141047619Y-94285715D01*
X140666667Y-93952381D01*
X140666667Y-94095239D01*
X140619048Y-94190477D01*
X140571429Y-94238096D01*
X140476190Y-94285715D01*
X140238095Y-94285715D01*
X140142857Y-94238096D01*
X140095238Y-94190477D01*
X140047619Y-94095239D01*
X140047619Y-93809524D01*
X140095238Y-93714286D01*
X140142857Y-93666667D01*
D12*
X103011162Y-82952001D02*
X103117600Y-83036667D01*
X103224038Y-83206001D01*
X103224038Y-83629334D01*
X103117600Y-83798667D01*
X103011162Y-83883334D01*
X102798286Y-83968001D01*
X102585410Y-83968001D01*
X102266095Y-83883334D01*
X100988838Y-82867334D01*
X100988838Y-83968001D01*
X103224038Y-85068667D02*
X103224038Y-85238000D01*
X103117600Y-85407334D01*
X103011162Y-85492000D01*
X102798286Y-85576667D01*
X102372533Y-85661334D01*
X101840343Y-85661334D01*
X101414590Y-85576667D01*
X101201714Y-85492000D01*
X101095276Y-85407334D01*
X100988838Y-85238000D01*
X100988838Y-85068667D01*
X101095276Y-84899334D01*
X101201714Y-84814667D01*
X101414590Y-84730000D01*
X101840343Y-84645334D01*
X102372533Y-84645334D01*
X102798286Y-84730000D01*
X103011162Y-84814667D01*
X103117600Y-84899334D01*
X103224038Y-85068667D01*
X100988838Y-87354667D02*
X100988838Y-86338667D01*
X100988838Y-86846667D02*
X103224038Y-86846667D01*
X102904724Y-86677333D01*
X102691848Y-86508000D01*
X102585410Y-86338667D01*
X103224038Y-87947333D02*
X103224038Y-89132666D01*
X100988838Y-88370666D01*
D13*
X93114096Y-72490071D02*
X93452763Y-73990071D01*
X93791429Y-72490071D01*
X94130096Y-73990071D02*
X94130096Y-72990071D01*
X94130096Y-72490071D02*
X94081715Y-72561500D01*
X94130096Y-72632929D01*
X94178477Y-72561500D01*
X94130096Y-72490071D01*
X94130096Y-72632929D01*
X94565525Y-73918643D02*
X94662287Y-73990071D01*
X94855811Y-73990071D01*
X94952572Y-73918643D01*
X95000953Y-73775786D01*
X95000953Y-73704357D01*
X94952572Y-73561500D01*
X94855811Y-73490071D01*
X94710668Y-73490071D01*
X94613906Y-73418643D01*
X94565525Y-73275786D01*
X94565525Y-73204357D01*
X94613906Y-73061500D01*
X94710668Y-72990071D01*
X94855811Y-72990071D01*
X94952572Y-73061500D01*
X95436382Y-73990071D02*
X95436382Y-72990071D01*
X95436382Y-72490071D02*
X95388001Y-72561500D01*
X95436382Y-72632929D01*
X95484763Y-72561500D01*
X95436382Y-72490071D01*
X95436382Y-72632929D01*
X95775049Y-72990071D02*
X96162097Y-72990071D01*
X95920192Y-72490071D02*
X95920192Y-73775786D01*
X95968573Y-73918643D01*
X96065335Y-73990071D01*
X96162097Y-73990071D01*
X97274858Y-73990071D02*
X97274858Y-72490071D01*
X97274858Y-73061500D02*
X97371620Y-72990071D01*
X97565143Y-72990071D01*
X97661905Y-73061500D01*
X97710286Y-73132929D01*
X97758667Y-73275786D01*
X97758667Y-73704357D01*
X97710286Y-73847214D01*
X97661905Y-73918643D01*
X97565143Y-73990071D01*
X97371620Y-73990071D01*
X97274858Y-73918643D01*
X98194096Y-73990071D02*
X98194096Y-72990071D01*
X98194096Y-72490071D02*
X98145715Y-72561500D01*
X98194096Y-72632929D01*
X98242477Y-72561500D01*
X98194096Y-72490071D01*
X98194096Y-72632929D01*
X98532763Y-72990071D02*
X98919811Y-72990071D01*
X98677906Y-72490071D02*
X98677906Y-73775786D01*
X98726287Y-73918643D01*
X98823049Y-73990071D01*
X98919811Y-73990071D01*
X99258477Y-73847214D02*
X99306858Y-73918643D01*
X99258477Y-73990071D01*
X99210096Y-73918643D01*
X99258477Y-73847214D01*
X99258477Y-73990071D01*
X99887430Y-73990071D02*
X99790668Y-73918643D01*
X99742287Y-73775786D01*
X99742287Y-72490071D01*
X100177715Y-72990071D02*
X100419620Y-73990071D01*
X100661524Y-72990071D02*
X100419620Y-73990071D01*
X100322858Y-74347214D01*
X100274477Y-74418643D01*
X100177715Y-74490071D01*
X101774286Y-72418643D02*
X100903429Y-74347214D01*
X102112953Y-72990071D02*
X102112953Y-74490071D01*
X102112953Y-73061500D02*
X102209715Y-72990071D01*
X102403238Y-72990071D01*
X102500000Y-73061500D01*
X102548381Y-73132929D01*
X102596762Y-73275786D01*
X102596762Y-73704357D01*
X102548381Y-73847214D01*
X102500000Y-73918643D01*
X102403238Y-73990071D01*
X102209715Y-73990071D01*
X102112953Y-73918643D01*
X103419238Y-73918643D02*
X103322476Y-73990071D01*
X103128953Y-73990071D01*
X103032191Y-73918643D01*
X102983810Y-73775786D01*
X102983810Y-73204357D01*
X103032191Y-73061500D01*
X103128953Y-72990071D01*
X103322476Y-72990071D01*
X103419238Y-73061500D01*
X103467619Y-73204357D01*
X103467619Y-73347214D01*
X102983810Y-73490071D01*
X104338476Y-73990071D02*
X104338476Y-73204357D01*
X104290095Y-73061500D01*
X104193333Y-72990071D01*
X103999810Y-72990071D01*
X103903048Y-73061500D01*
X104338476Y-73918643D02*
X104241714Y-73990071D01*
X103999810Y-73990071D01*
X103903048Y-73918643D01*
X103854667Y-73775786D01*
X103854667Y-73632929D01*
X103903048Y-73490071D01*
X103999810Y-73418643D01*
X104241714Y-73418643D01*
X104338476Y-73347214D01*
X104822286Y-72990071D02*
X104822286Y-74490071D01*
X104822286Y-73061500D02*
X104919048Y-72990071D01*
X105112571Y-72990071D01*
X105209333Y-73061500D01*
X105257714Y-73132929D01*
X105306095Y-73275786D01*
X105306095Y-73704357D01*
X105257714Y-73847214D01*
X105209333Y-73918643D01*
X105112571Y-73990071D01*
X104919048Y-73990071D01*
X104822286Y-73918643D01*
X105886667Y-73990071D02*
X105789905Y-73918643D01*
X105741524Y-73847214D01*
X105693143Y-73704357D01*
X105693143Y-73275786D01*
X105741524Y-73132929D01*
X105789905Y-73061500D01*
X105886667Y-72990071D01*
X106031809Y-72990071D01*
X106128571Y-73061500D01*
X106176952Y-73132929D01*
X106225333Y-73275786D01*
X106225333Y-73704357D01*
X106176952Y-73847214D01*
X106128571Y-73918643D01*
X106031809Y-73990071D01*
X105886667Y-73990071D01*
X107096190Y-73990071D02*
X107096190Y-72490071D01*
X107096190Y-73918643D02*
X106999428Y-73990071D01*
X106805905Y-73990071D01*
X106709143Y-73918643D01*
X106660762Y-73847214D01*
X106612381Y-73704357D01*
X106612381Y-73275786D01*
X106660762Y-73132929D01*
X106709143Y-73061500D01*
X106805905Y-72990071D01*
X106999428Y-72990071D01*
X107096190Y-73061500D01*
X107531619Y-72632929D02*
X107580000Y-72561500D01*
X107676762Y-72490071D01*
X107918666Y-72490071D01*
X108015428Y-72561500D01*
X108063809Y-72632929D01*
X108112190Y-72775786D01*
X108112190Y-72918643D01*
X108063809Y-73132929D01*
X107483238Y-73990071D01*
X108112190Y-73990071D01*
X108741143Y-72490071D02*
X108837904Y-72490071D01*
X108934666Y-72561500D01*
X108983047Y-72632929D01*
X109031428Y-72775786D01*
X109079809Y-73061500D01*
X109079809Y-73418643D01*
X109031428Y-73704357D01*
X108983047Y-73847214D01*
X108934666Y-73918643D01*
X108837904Y-73990071D01*
X108741143Y-73990071D01*
X108644381Y-73918643D01*
X108596000Y-73847214D01*
X108547619Y-73704357D01*
X108499238Y-73418643D01*
X108499238Y-73061500D01*
X108547619Y-72775786D01*
X108596000Y-72632929D01*
X108644381Y-72561500D01*
X108741143Y-72490071D01*
X110047428Y-73990071D02*
X109466857Y-73990071D01*
X109757143Y-73990071D02*
X109757143Y-72490071D01*
X109660381Y-72704357D01*
X109563619Y-72847214D01*
X109466857Y-72918643D01*
X110386095Y-72490071D02*
X111063428Y-72490071D01*
X110628000Y-73990071D01*
X97420001Y-75367071D02*
X97807049Y-75367071D01*
X97565144Y-76367071D02*
X97565144Y-75081357D01*
X97613525Y-74938500D01*
X97710287Y-74867071D01*
X97807049Y-74867071D01*
X98290858Y-76367071D02*
X98194096Y-76295643D01*
X98145715Y-76224214D01*
X98097334Y-76081357D01*
X98097334Y-75652786D01*
X98145715Y-75509929D01*
X98194096Y-75438500D01*
X98290858Y-75367071D01*
X98436000Y-75367071D01*
X98532762Y-75438500D01*
X98581143Y-75509929D01*
X98629524Y-75652786D01*
X98629524Y-76081357D01*
X98581143Y-76224214D01*
X98532762Y-76295643D01*
X98436000Y-76367071D01*
X98290858Y-76367071D01*
X99064953Y-76367071D02*
X99064953Y-75367071D01*
X99064953Y-75652786D02*
X99113334Y-75509929D01*
X99161715Y-75438500D01*
X99258477Y-75367071D01*
X99355238Y-75367071D01*
X100468000Y-76367071D02*
X100468000Y-75367071D01*
X100468000Y-75509929D02*
X100516381Y-75438500D01*
X100613143Y-75367071D01*
X100758285Y-75367071D01*
X100855047Y-75438500D01*
X100903428Y-75581357D01*
X100903428Y-76367071D01*
X100903428Y-75581357D02*
X100951809Y-75438500D01*
X101048571Y-75367071D01*
X101193714Y-75367071D01*
X101290476Y-75438500D01*
X101338857Y-75581357D01*
X101338857Y-76367071D01*
X101967810Y-76367071D02*
X101871048Y-76295643D01*
X101822667Y-76224214D01*
X101774286Y-76081357D01*
X101774286Y-75652786D01*
X101822667Y-75509929D01*
X101871048Y-75438500D01*
X101967810Y-75367071D01*
X102112952Y-75367071D01*
X102209714Y-75438500D01*
X102258095Y-75509929D01*
X102306476Y-75652786D01*
X102306476Y-76081357D01*
X102258095Y-76224214D01*
X102209714Y-76295643D01*
X102112952Y-76367071D01*
X101967810Y-76367071D01*
X102741905Y-76367071D02*
X102741905Y-75367071D01*
X102741905Y-75652786D02*
X102790286Y-75509929D01*
X102838667Y-75438500D01*
X102935429Y-75367071D01*
X103032190Y-75367071D01*
X103757904Y-76295643D02*
X103661142Y-76367071D01*
X103467619Y-76367071D01*
X103370857Y-76295643D01*
X103322476Y-76152786D01*
X103322476Y-75581357D01*
X103370857Y-75438500D01*
X103467619Y-75367071D01*
X103661142Y-75367071D01*
X103757904Y-75438500D01*
X103806285Y-75581357D01*
X103806285Y-75724214D01*
X103322476Y-75867071D01*
X105015809Y-76367071D02*
X105015809Y-75367071D01*
X105015809Y-74867071D02*
X104967428Y-74938500D01*
X105015809Y-75009929D01*
X105064190Y-74938500D01*
X105015809Y-74867071D01*
X105015809Y-75009929D01*
X105499619Y-75367071D02*
X105499619Y-76367071D01*
X105499619Y-75509929D02*
X105548000Y-75438500D01*
X105644762Y-75367071D01*
X105789904Y-75367071D01*
X105886666Y-75438500D01*
X105935047Y-75581357D01*
X105935047Y-76367071D01*
X106273714Y-75367071D02*
X106660762Y-75367071D01*
X106418857Y-76367071D02*
X106418857Y-75081357D01*
X106467238Y-74938500D01*
X106564000Y-74867071D01*
X106660762Y-74867071D01*
X107144571Y-76367071D02*
X107047809Y-76295643D01*
X106999428Y-76224214D01*
X106951047Y-76081357D01*
X106951047Y-75652786D01*
X106999428Y-75509929D01*
X107047809Y-75438500D01*
X107144571Y-75367071D01*
X107289713Y-75367071D01*
X107386475Y-75438500D01*
X107434856Y-75509929D01*
X107483237Y-75652786D01*
X107483237Y-76081357D01*
X107434856Y-76224214D01*
X107386475Y-76295643D01*
X107289713Y-76367071D01*
X107144571Y-76367071D01*
D14*
G36*
X130240455Y-96256894D02*
X130238706Y-96257656D01*
X130235998Y-96258653D01*
X130232874Y-96259691D01*
X130231488Y-96260136D01*
X130228647Y-96261050D01*
X130224406Y-96262417D01*
X130218819Y-96264219D01*
X130211943Y-96266438D01*
X130203831Y-96269056D01*
X130194539Y-96272055D01*
X130184123Y-96275418D01*
X130172636Y-96279126D01*
X130160135Y-96283162D01*
X130146675Y-96287509D01*
X130132310Y-96292147D01*
X130117096Y-96297061D01*
X130101088Y-96302231D01*
X130084340Y-96307640D01*
X130066909Y-96313270D01*
X130048849Y-96319104D01*
X130030215Y-96325123D01*
X130011062Y-96331310D01*
X129991446Y-96337646D01*
X129971422Y-96344115D01*
X129951044Y-96350699D01*
X129948271Y-96351595D01*
X129672244Y-96440772D01*
X129672244Y-96742358D01*
X129672243Y-96769238D01*
X129672241Y-96794571D01*
X129672236Y-96818397D01*
X129672229Y-96840757D01*
X129672220Y-96861690D01*
X129672208Y-96881237D01*
X129672194Y-96899438D01*
X129672177Y-96916333D01*
X129672158Y-96931963D01*
X129672135Y-96946368D01*
X129672109Y-96959588D01*
X129672080Y-96971664D01*
X129672048Y-96982636D01*
X129672013Y-96992543D01*
X129671973Y-97001427D01*
X129671930Y-97009328D01*
X129671884Y-97016285D01*
X129671833Y-97022340D01*
X129671778Y-97027532D01*
X129671718Y-97031901D01*
X129671655Y-97035489D01*
X129671587Y-97038334D01*
X129671514Y-97040479D01*
X129671436Y-97041962D01*
X129671354Y-97042824D01*
X129671266Y-97043105D01*
X129671252Y-97043100D01*
X129670718Y-97042404D01*
X129669281Y-97040469D01*
X129666974Y-97037340D01*
X129663830Y-97033061D01*
X129659881Y-97027676D01*
X129655159Y-97021229D01*
X129649697Y-97013766D01*
X129643527Y-97005330D01*
X129636681Y-96995965D01*
X129629193Y-96985716D01*
X129621093Y-96974628D01*
X129612415Y-96962744D01*
X129603191Y-96950110D01*
X129593453Y-96936768D01*
X129583235Y-96922765D01*
X129572567Y-96908144D01*
X129561483Y-96892949D01*
X129550015Y-96877225D01*
X129538195Y-96861016D01*
X129526056Y-96844366D01*
X129513630Y-96827320D01*
X129500950Y-96809923D01*
X129493254Y-96799363D01*
X129480440Y-96781782D01*
X129467861Y-96764531D01*
X129455549Y-96747653D01*
X129443538Y-96731193D01*
X129431858Y-96715195D01*
X129420543Y-96699702D01*
X129409625Y-96684759D01*
X129399137Y-96670411D01*
X129389110Y-96656701D01*
X129379576Y-96643673D01*
X129370570Y-96631372D01*
X129362122Y-96619843D01*
X129354265Y-96609128D01*
X129347031Y-96599272D01*
X129340454Y-96590320D01*
X129334564Y-96582316D01*
X129329395Y-96575303D01*
X129324979Y-96569327D01*
X129321348Y-96564430D01*
X129318535Y-96560658D01*
X129316572Y-96558054D01*
X129315491Y-96556663D01*
X129315279Y-96556429D01*
X129314461Y-96556667D01*
X129312186Y-96557377D01*
X129308504Y-96558541D01*
X129303469Y-96560143D01*
X129297134Y-96562166D01*
X129289549Y-96564594D01*
X129280769Y-96567408D01*
X129270845Y-96570593D01*
X129259829Y-96574131D01*
X129247775Y-96578006D01*
X129234733Y-96582200D01*
X129220758Y-96586698D01*
X129205901Y-96591481D01*
X129190214Y-96596534D01*
X129173750Y-96601839D01*
X129156562Y-96607379D01*
X129138701Y-96613139D01*
X129120221Y-96619100D01*
X129101173Y-96625245D01*
X129081610Y-96631559D01*
X129061584Y-96638024D01*
X129041148Y-96644623D01*
X129030414Y-96648090D01*
X129009792Y-96654750D01*
X128989557Y-96661283D01*
X128969759Y-96667671D01*
X128950452Y-96673899D01*
X128931688Y-96679948D01*
X128913518Y-96685804D01*
X128895996Y-96691448D01*
X128879173Y-96696864D01*
X128863102Y-96702036D01*
X128847835Y-96706946D01*
X128833424Y-96711577D01*
X128819921Y-96715914D01*
X128807379Y-96719938D01*
X128795850Y-96723634D01*
X128785386Y-96726984D01*
X128776039Y-96729972D01*
X128767862Y-96732581D01*
X128760907Y-96734795D01*
X128755226Y-96736595D01*
X128750871Y-96737966D01*
X128747895Y-96738892D01*
X128746350Y-96739354D01*
X128746129Y-96739405D01*
X128746355Y-96738617D01*
X128747324Y-96736932D01*
X128748755Y-96734816D01*
X128749387Y-96733946D01*
X128750916Y-96731845D01*
X128753305Y-96728565D01*
X128756517Y-96724157D01*
X128760512Y-96718674D01*
X128765254Y-96712167D01*
X128770705Y-96704689D01*
X128776826Y-96696290D01*
X128783581Y-96687023D01*
X128790931Y-96676939D01*
X128798839Y-96666091D01*
X128807267Y-96654530D01*
X128816177Y-96642308D01*
X128825532Y-96629476D01*
X128835293Y-96616087D01*
X128845423Y-96602192D01*
X128855884Y-96587843D01*
X128866638Y-96573092D01*
X128877648Y-96557991D01*
X128888875Y-96542591D01*
X128900283Y-96526944D01*
X128911833Y-96511103D01*
X128923488Y-96495118D01*
X128935209Y-96479042D01*
X128946959Y-96462927D01*
X128958700Y-96446823D01*
X128970395Y-96430784D01*
X128982006Y-96414861D01*
X128993494Y-96399105D01*
X129004823Y-96383568D01*
X129015954Y-96368303D01*
X129026849Y-96353361D01*
X129037472Y-96338794D01*
X129047783Y-96324654D01*
X129057746Y-96310991D01*
X129067323Y-96297860D01*
X129076475Y-96285310D01*
X129085165Y-96273394D01*
X129091280Y-96265010D01*
X129097410Y-96256604D01*
X128921674Y-96015612D01*
X128908907Y-95998104D01*
X128896381Y-95980923D01*
X128884127Y-95964113D01*
X128872178Y-95947720D01*
X128860567Y-95931786D01*
X128849324Y-95916358D01*
X128838484Y-95901479D01*
X128828077Y-95887193D01*
X128818137Y-95873545D01*
X128808696Y-95860580D01*
X128799786Y-95848341D01*
X128791439Y-95836873D01*
X128783688Y-95826221D01*
X128776565Y-95816429D01*
X128770102Y-95807541D01*
X128764331Y-95799602D01*
X128759286Y-95792655D01*
X128754998Y-95786747D01*
X128751499Y-95781920D01*
X128748822Y-95778219D01*
X128747000Y-95775689D01*
X128746064Y-95774374D01*
X128745938Y-95774185D01*
X128746550Y-95773760D01*
X128746724Y-95773750D01*
X128747528Y-95773991D01*
X128749791Y-95774704D01*
X128753459Y-95775871D01*
X128758481Y-95777476D01*
X128764803Y-95779501D01*
X128772375Y-95781931D01*
X128781143Y-95784748D01*
X128791056Y-95787935D01*
X128802060Y-95791475D01*
X128814103Y-95795352D01*
X128827134Y-95799548D01*
X128841099Y-95804047D01*
X128855947Y-95808832D01*
X128871625Y-95813886D01*
X128888080Y-95819192D01*
X128905261Y-95824734D01*
X128923115Y-95830494D01*
X128941590Y-95836455D01*
X128960633Y-95842602D01*
X128980192Y-95848916D01*
X129000214Y-95855381D01*
X129020648Y-95861980D01*
X129031426Y-95865462D01*
X129056072Y-95873423D01*
X129079252Y-95880910D01*
X129101013Y-95887937D01*
X129121397Y-95894518D01*
X129140452Y-95900668D01*
X129158221Y-95906401D01*
X129174750Y-95911731D01*
X129190084Y-95916672D01*
X129204268Y-95921239D01*
X129217346Y-95925446D01*
X129229365Y-95929307D01*
X129240369Y-95932837D01*
X129250402Y-95936049D01*
X129259511Y-95938958D01*
X129267740Y-95941578D01*
X129275134Y-95943924D01*
X129281738Y-95946010D01*
X129287598Y-95947849D01*
X129292758Y-95949457D01*
X129297263Y-95950847D01*
X129301159Y-95952034D01*
X129304490Y-95953033D01*
X129307301Y-95953856D01*
X129309639Y-95954519D01*
X129311546Y-95955035D01*
X129313070Y-95955420D01*
X129314254Y-95955687D01*
X129315144Y-95955851D01*
X129315785Y-95955925D01*
X129316221Y-95955925D01*
X129316498Y-95955863D01*
X129316662Y-95955756D01*
X129316666Y-95955751D01*
X129317225Y-95955013D01*
X129318687Y-95953036D01*
X129321018Y-95949865D01*
X129324186Y-95945545D01*
X129328159Y-95940120D01*
X129332905Y-95933634D01*
X129338391Y-95926133D01*
X129344584Y-95917659D01*
X129351452Y-95908259D01*
X129358963Y-95897976D01*
X129367084Y-95886855D01*
X129375782Y-95874940D01*
X129385025Y-95862277D01*
X129394781Y-95848909D01*
X129405016Y-95834881D01*
X129415700Y-95820237D01*
X129426798Y-95805022D01*
X129438279Y-95789281D01*
X129450110Y-95773058D01*
X129462258Y-95756397D01*
X129474692Y-95739343D01*
X129487378Y-95721941D01*
X129494919Y-95711595D01*
X129671847Y-95468862D01*
X129672244Y-95770719D01*
X129672641Y-96072575D01*
X129956559Y-96164284D01*
X129977185Y-96170947D01*
X129997425Y-96177488D01*
X130017227Y-96183888D01*
X130036539Y-96190132D01*
X130055308Y-96196202D01*
X130073483Y-96202081D01*
X130091011Y-96207753D01*
X130107840Y-96213200D01*
X130123917Y-96218406D01*
X130139190Y-96223354D01*
X130153607Y-96228026D01*
X130167116Y-96232405D01*
X130179664Y-96236476D01*
X130191199Y-96240220D01*
X130201669Y-96243621D01*
X130211022Y-96246662D01*
X130219204Y-96249325D01*
X130226165Y-96251595D01*
X130231851Y-96253454D01*
X130236211Y-96254885D01*
X130239191Y-96255871D01*
X130240741Y-96256395D01*
X130240964Y-96256479D01*
X130240455Y-96256894D01*
X130240455Y-96256894D01*
G37*
X130240455Y-96256894D02*
X130238706Y-96257656D01*
X130235998Y-96258653D01*
X130232874Y-96259691D01*
X130231488Y-96260136D01*
X130228647Y-96261050D01*
X130224406Y-96262417D01*
X130218819Y-96264219D01*
X130211943Y-96266438D01*
X130203831Y-96269056D01*
X130194539Y-96272055D01*
X130184123Y-96275418D01*
X130172636Y-96279126D01*
X130160135Y-96283162D01*
X130146675Y-96287509D01*
X130132310Y-96292147D01*
X130117096Y-96297061D01*
X130101088Y-96302231D01*
X130084340Y-96307640D01*
X130066909Y-96313270D01*
X130048849Y-96319104D01*
X130030215Y-96325123D01*
X130011062Y-96331310D01*
X129991446Y-96337646D01*
X129971422Y-96344115D01*
X129951044Y-96350699D01*
X129948271Y-96351595D01*
X129672244Y-96440772D01*
X129672244Y-96742358D01*
X129672243Y-96769238D01*
X129672241Y-96794571D01*
X129672236Y-96818397D01*
X129672229Y-96840757D01*
X129672220Y-96861690D01*
X129672208Y-96881237D01*
X129672194Y-96899438D01*
X129672177Y-96916333D01*
X129672158Y-96931963D01*
X129672135Y-96946368D01*
X129672109Y-96959588D01*
X129672080Y-96971664D01*
X129672048Y-96982636D01*
X129672013Y-96992543D01*
X129671973Y-97001427D01*
X129671930Y-97009328D01*
X129671884Y-97016285D01*
X129671833Y-97022340D01*
X129671778Y-97027532D01*
X129671718Y-97031901D01*
X129671655Y-97035489D01*
X129671587Y-97038334D01*
X129671514Y-97040479D01*
X129671436Y-97041962D01*
X129671354Y-97042824D01*
X129671266Y-97043105D01*
X129671252Y-97043100D01*
X129670718Y-97042404D01*
X129669281Y-97040469D01*
X129666974Y-97037340D01*
X129663830Y-97033061D01*
X129659881Y-97027676D01*
X129655159Y-97021229D01*
X129649697Y-97013766D01*
X129643527Y-97005330D01*
X129636681Y-96995965D01*
X129629193Y-96985716D01*
X129621093Y-96974628D01*
X129612415Y-96962744D01*
X129603191Y-96950110D01*
X129593453Y-96936768D01*
X129583235Y-96922765D01*
X129572567Y-96908144D01*
X129561483Y-96892949D01*
X129550015Y-96877225D01*
X129538195Y-96861016D01*
X129526056Y-96844366D01*
X129513630Y-96827320D01*
X129500950Y-96809923D01*
X129493254Y-96799363D01*
X129480440Y-96781782D01*
X129467861Y-96764531D01*
X129455549Y-96747653D01*
X129443538Y-96731193D01*
X129431858Y-96715195D01*
X129420543Y-96699702D01*
X129409625Y-96684759D01*
X129399137Y-96670411D01*
X129389110Y-96656701D01*
X129379576Y-96643673D01*
X129370570Y-96631372D01*
X129362122Y-96619843D01*
X129354265Y-96609128D01*
X129347031Y-96599272D01*
X129340454Y-96590320D01*
X129334564Y-96582316D01*
X129329395Y-96575303D01*
X129324979Y-96569327D01*
X129321348Y-96564430D01*
X129318535Y-96560658D01*
X129316572Y-96558054D01*
X129315491Y-96556663D01*
X129315279Y-96556429D01*
X129314461Y-96556667D01*
X129312186Y-96557377D01*
X129308504Y-96558541D01*
X129303469Y-96560143D01*
X129297134Y-96562166D01*
X129289549Y-96564594D01*
X129280769Y-96567408D01*
X129270845Y-96570593D01*
X129259829Y-96574131D01*
X129247775Y-96578006D01*
X129234733Y-96582200D01*
X129220758Y-96586698D01*
X129205901Y-96591481D01*
X129190214Y-96596534D01*
X129173750Y-96601839D01*
X129156562Y-96607379D01*
X129138701Y-96613139D01*
X129120221Y-96619100D01*
X129101173Y-96625245D01*
X129081610Y-96631559D01*
X129061584Y-96638024D01*
X129041148Y-96644623D01*
X129030414Y-96648090D01*
X129009792Y-96654750D01*
X128989557Y-96661283D01*
X128969759Y-96667671D01*
X128950452Y-96673899D01*
X128931688Y-96679948D01*
X128913518Y-96685804D01*
X128895996Y-96691448D01*
X128879173Y-96696864D01*
X128863102Y-96702036D01*
X128847835Y-96706946D01*
X128833424Y-96711577D01*
X128819921Y-96715914D01*
X128807379Y-96719938D01*
X128795850Y-96723634D01*
X128785386Y-96726984D01*
X128776039Y-96729972D01*
X128767862Y-96732581D01*
X128760907Y-96734795D01*
X128755226Y-96736595D01*
X128750871Y-96737966D01*
X128747895Y-96738892D01*
X128746350Y-96739354D01*
X128746129Y-96739405D01*
X128746355Y-96738617D01*
X128747324Y-96736932D01*
X128748755Y-96734816D01*
X128749387Y-96733946D01*
X128750916Y-96731845D01*
X128753305Y-96728565D01*
X128756517Y-96724157D01*
X128760512Y-96718674D01*
X128765254Y-96712167D01*
X128770705Y-96704689D01*
X128776826Y-96696290D01*
X128783581Y-96687023D01*
X128790931Y-96676939D01*
X128798839Y-96666091D01*
X128807267Y-96654530D01*
X128816177Y-96642308D01*
X128825532Y-96629476D01*
X128835293Y-96616087D01*
X128845423Y-96602192D01*
X128855884Y-96587843D01*
X128866638Y-96573092D01*
X128877648Y-96557991D01*
X128888875Y-96542591D01*
X128900283Y-96526944D01*
X128911833Y-96511103D01*
X128923488Y-96495118D01*
X128935209Y-96479042D01*
X128946959Y-96462927D01*
X128958700Y-96446823D01*
X128970395Y-96430784D01*
X128982006Y-96414861D01*
X128993494Y-96399105D01*
X129004823Y-96383568D01*
X129015954Y-96368303D01*
X129026849Y-96353361D01*
X129037472Y-96338794D01*
X129047783Y-96324654D01*
X129057746Y-96310991D01*
X129067323Y-96297860D01*
X129076475Y-96285310D01*
X129085165Y-96273394D01*
X129091280Y-96265010D01*
X129097410Y-96256604D01*
X128921674Y-96015612D01*
X128908907Y-95998104D01*
X128896381Y-95980923D01*
X128884127Y-95964113D01*
X128872178Y-95947720D01*
X128860567Y-95931786D01*
X128849324Y-95916358D01*
X128838484Y-95901479D01*
X128828077Y-95887193D01*
X128818137Y-95873545D01*
X128808696Y-95860580D01*
X128799786Y-95848341D01*
X128791439Y-95836873D01*
X128783688Y-95826221D01*
X128776565Y-95816429D01*
X128770102Y-95807541D01*
X128764331Y-95799602D01*
X128759286Y-95792655D01*
X128754998Y-95786747D01*
X128751499Y-95781920D01*
X128748822Y-95778219D01*
X128747000Y-95775689D01*
X128746064Y-95774374D01*
X128745938Y-95774185D01*
X128746550Y-95773760D01*
X128746724Y-95773750D01*
X128747528Y-95773991D01*
X128749791Y-95774704D01*
X128753459Y-95775871D01*
X128758481Y-95777476D01*
X128764803Y-95779501D01*
X128772375Y-95781931D01*
X128781143Y-95784748D01*
X128791056Y-95787935D01*
X128802060Y-95791475D01*
X128814103Y-95795352D01*
X128827134Y-95799548D01*
X128841099Y-95804047D01*
X128855947Y-95808832D01*
X128871625Y-95813886D01*
X128888080Y-95819192D01*
X128905261Y-95824734D01*
X128923115Y-95830494D01*
X128941590Y-95836455D01*
X128960633Y-95842602D01*
X128980192Y-95848916D01*
X129000214Y-95855381D01*
X129020648Y-95861980D01*
X129031426Y-95865462D01*
X129056072Y-95873423D01*
X129079252Y-95880910D01*
X129101013Y-95887937D01*
X129121397Y-95894518D01*
X129140452Y-95900668D01*
X129158221Y-95906401D01*
X129174750Y-95911731D01*
X129190084Y-95916672D01*
X129204268Y-95921239D01*
X129217346Y-95925446D01*
X129229365Y-95929307D01*
X129240369Y-95932837D01*
X129250402Y-95936049D01*
X129259511Y-95938958D01*
X129267740Y-95941578D01*
X129275134Y-95943924D01*
X129281738Y-95946010D01*
X129287598Y-95947849D01*
X129292758Y-95949457D01*
X129297263Y-95950847D01*
X129301159Y-95952034D01*
X129304490Y-95953033D01*
X129307301Y-95953856D01*
X129309639Y-95954519D01*
X129311546Y-95955035D01*
X129313070Y-95955420D01*
X129314254Y-95955687D01*
X129315144Y-95955851D01*
X129315785Y-95955925D01*
X129316221Y-95955925D01*
X129316498Y-95955863D01*
X129316662Y-95955756D01*
X129316666Y-95955751D01*
X129317225Y-95955013D01*
X129318687Y-95953036D01*
X129321018Y-95949865D01*
X129324186Y-95945545D01*
X129328159Y-95940120D01*
X129332905Y-95933634D01*
X129338391Y-95926133D01*
X129344584Y-95917659D01*
X129351452Y-95908259D01*
X129358963Y-95897976D01*
X129367084Y-95886855D01*
X129375782Y-95874940D01*
X129385025Y-95862277D01*
X129394781Y-95848909D01*
X129405016Y-95834881D01*
X129415700Y-95820237D01*
X129426798Y-95805022D01*
X129438279Y-95789281D01*
X129450110Y-95773058D01*
X129462258Y-95756397D01*
X129474692Y-95739343D01*
X129487378Y-95721941D01*
X129494919Y-95711595D01*
X129671847Y-95468862D01*
X129672244Y-95770719D01*
X129672641Y-96072575D01*
X129956559Y-96164284D01*
X129977185Y-96170947D01*
X129997425Y-96177488D01*
X130017227Y-96183888D01*
X130036539Y-96190132D01*
X130055308Y-96196202D01*
X130073483Y-96202081D01*
X130091011Y-96207753D01*
X130107840Y-96213200D01*
X130123917Y-96218406D01*
X130139190Y-96223354D01*
X130153607Y-96228026D01*
X130167116Y-96232405D01*
X130179664Y-96236476D01*
X130191199Y-96240220D01*
X130201669Y-96243621D01*
X130211022Y-96246662D01*
X130219204Y-96249325D01*
X130226165Y-96251595D01*
X130231851Y-96253454D01*
X130236211Y-96254885D01*
X130239191Y-96255871D01*
X130240741Y-96256395D01*
X130240964Y-96256479D01*
X130240455Y-96256894D01*
G36*
X130240455Y-91756894D02*
X130238706Y-91757656D01*
X130235998Y-91758653D01*
X130232874Y-91759691D01*
X130231488Y-91760136D01*
X130228647Y-91761050D01*
X130224406Y-91762417D01*
X130218819Y-91764219D01*
X130211943Y-91766438D01*
X130203831Y-91769056D01*
X130194539Y-91772055D01*
X130184123Y-91775418D01*
X130172636Y-91779126D01*
X130160135Y-91783162D01*
X130146675Y-91787509D01*
X130132310Y-91792147D01*
X130117096Y-91797061D01*
X130101088Y-91802231D01*
X130084340Y-91807640D01*
X130066909Y-91813270D01*
X130048849Y-91819104D01*
X130030215Y-91825123D01*
X130011062Y-91831310D01*
X129991446Y-91837646D01*
X129971422Y-91844115D01*
X129951044Y-91850699D01*
X129948271Y-91851595D01*
X129672244Y-91940772D01*
X129672244Y-92242358D01*
X129672243Y-92269238D01*
X129672241Y-92294571D01*
X129672236Y-92318397D01*
X129672229Y-92340757D01*
X129672220Y-92361690D01*
X129672208Y-92381237D01*
X129672194Y-92399438D01*
X129672177Y-92416333D01*
X129672158Y-92431963D01*
X129672135Y-92446368D01*
X129672109Y-92459588D01*
X129672080Y-92471664D01*
X129672048Y-92482636D01*
X129672013Y-92492543D01*
X129671973Y-92501427D01*
X129671930Y-92509328D01*
X129671884Y-92516285D01*
X129671833Y-92522340D01*
X129671778Y-92527532D01*
X129671718Y-92531901D01*
X129671655Y-92535489D01*
X129671587Y-92538334D01*
X129671514Y-92540479D01*
X129671436Y-92541962D01*
X129671354Y-92542824D01*
X129671266Y-92543105D01*
X129671252Y-92543100D01*
X129670718Y-92542404D01*
X129669281Y-92540469D01*
X129666974Y-92537340D01*
X129663830Y-92533061D01*
X129659881Y-92527676D01*
X129655159Y-92521229D01*
X129649697Y-92513766D01*
X129643527Y-92505330D01*
X129636681Y-92495965D01*
X129629193Y-92485716D01*
X129621093Y-92474628D01*
X129612415Y-92462744D01*
X129603191Y-92450110D01*
X129593453Y-92436768D01*
X129583235Y-92422765D01*
X129572567Y-92408144D01*
X129561483Y-92392949D01*
X129550015Y-92377225D01*
X129538195Y-92361016D01*
X129526056Y-92344366D01*
X129513630Y-92327320D01*
X129500950Y-92309923D01*
X129493254Y-92299363D01*
X129480440Y-92281782D01*
X129467861Y-92264531D01*
X129455549Y-92247653D01*
X129443538Y-92231193D01*
X129431858Y-92215195D01*
X129420543Y-92199702D01*
X129409625Y-92184759D01*
X129399137Y-92170411D01*
X129389110Y-92156701D01*
X129379576Y-92143673D01*
X129370570Y-92131372D01*
X129362122Y-92119843D01*
X129354265Y-92109128D01*
X129347031Y-92099272D01*
X129340454Y-92090320D01*
X129334564Y-92082316D01*
X129329395Y-92075303D01*
X129324979Y-92069327D01*
X129321348Y-92064430D01*
X129318535Y-92060658D01*
X129316572Y-92058054D01*
X129315491Y-92056663D01*
X129315279Y-92056429D01*
X129314461Y-92056667D01*
X129312186Y-92057377D01*
X129308504Y-92058541D01*
X129303469Y-92060143D01*
X129297134Y-92062166D01*
X129289549Y-92064594D01*
X129280769Y-92067408D01*
X129270845Y-92070593D01*
X129259829Y-92074131D01*
X129247775Y-92078006D01*
X129234733Y-92082200D01*
X129220758Y-92086698D01*
X129205901Y-92091481D01*
X129190214Y-92096534D01*
X129173750Y-92101839D01*
X129156562Y-92107379D01*
X129138701Y-92113139D01*
X129120221Y-92119100D01*
X129101173Y-92125245D01*
X129081610Y-92131559D01*
X129061584Y-92138024D01*
X129041148Y-92144623D01*
X129030414Y-92148090D01*
X129009792Y-92154750D01*
X128989557Y-92161283D01*
X128969759Y-92167671D01*
X128950452Y-92173899D01*
X128931688Y-92179948D01*
X128913518Y-92185804D01*
X128895996Y-92191448D01*
X128879173Y-92196864D01*
X128863102Y-92202036D01*
X128847835Y-92206946D01*
X128833424Y-92211577D01*
X128819921Y-92215914D01*
X128807379Y-92219938D01*
X128795850Y-92223634D01*
X128785386Y-92226984D01*
X128776039Y-92229972D01*
X128767862Y-92232581D01*
X128760907Y-92234795D01*
X128755226Y-92236595D01*
X128750871Y-92237966D01*
X128747895Y-92238892D01*
X128746350Y-92239354D01*
X128746129Y-92239405D01*
X128746355Y-92238617D01*
X128747324Y-92236932D01*
X128748755Y-92234816D01*
X128749387Y-92233946D01*
X128750916Y-92231845D01*
X128753305Y-92228565D01*
X128756517Y-92224157D01*
X128760512Y-92218674D01*
X128765254Y-92212167D01*
X128770705Y-92204689D01*
X128776826Y-92196290D01*
X128783581Y-92187023D01*
X128790931Y-92176939D01*
X128798839Y-92166091D01*
X128807267Y-92154530D01*
X128816177Y-92142308D01*
X128825532Y-92129476D01*
X128835293Y-92116087D01*
X128845423Y-92102192D01*
X128855884Y-92087843D01*
X128866638Y-92073092D01*
X128877648Y-92057991D01*
X128888875Y-92042591D01*
X128900283Y-92026944D01*
X128911833Y-92011103D01*
X128923488Y-91995118D01*
X128935209Y-91979042D01*
X128946959Y-91962927D01*
X128958700Y-91946823D01*
X128970395Y-91930784D01*
X128982006Y-91914861D01*
X128993494Y-91899105D01*
X129004823Y-91883568D01*
X129015954Y-91868303D01*
X129026849Y-91853361D01*
X129037472Y-91838794D01*
X129047783Y-91824654D01*
X129057746Y-91810991D01*
X129067323Y-91797860D01*
X129076475Y-91785310D01*
X129085165Y-91773394D01*
X129091280Y-91765010D01*
X129097410Y-91756604D01*
X128921674Y-91515612D01*
X128908907Y-91498104D01*
X128896381Y-91480923D01*
X128884127Y-91464113D01*
X128872178Y-91447720D01*
X128860567Y-91431786D01*
X128849324Y-91416358D01*
X128838484Y-91401479D01*
X128828077Y-91387193D01*
X128818137Y-91373545D01*
X128808696Y-91360580D01*
X128799786Y-91348341D01*
X128791439Y-91336873D01*
X128783688Y-91326221D01*
X128776565Y-91316429D01*
X128770102Y-91307541D01*
X128764331Y-91299602D01*
X128759286Y-91292655D01*
X128754998Y-91286747D01*
X128751499Y-91281920D01*
X128748822Y-91278219D01*
X128747000Y-91275689D01*
X128746064Y-91274374D01*
X128745938Y-91274185D01*
X128746550Y-91273760D01*
X128746724Y-91273750D01*
X128747528Y-91273991D01*
X128749791Y-91274704D01*
X128753459Y-91275871D01*
X128758481Y-91277476D01*
X128764803Y-91279501D01*
X128772375Y-91281931D01*
X128781143Y-91284748D01*
X128791056Y-91287935D01*
X128802060Y-91291475D01*
X128814103Y-91295352D01*
X128827134Y-91299548D01*
X128841099Y-91304047D01*
X128855947Y-91308832D01*
X128871625Y-91313886D01*
X128888080Y-91319192D01*
X128905261Y-91324734D01*
X128923115Y-91330494D01*
X128941590Y-91336455D01*
X128960633Y-91342602D01*
X128980192Y-91348916D01*
X129000214Y-91355381D01*
X129020648Y-91361980D01*
X129031426Y-91365462D01*
X129056072Y-91373423D01*
X129079252Y-91380910D01*
X129101013Y-91387937D01*
X129121397Y-91394518D01*
X129140452Y-91400668D01*
X129158221Y-91406401D01*
X129174750Y-91411731D01*
X129190084Y-91416672D01*
X129204268Y-91421239D01*
X129217346Y-91425446D01*
X129229365Y-91429307D01*
X129240369Y-91432837D01*
X129250402Y-91436049D01*
X129259511Y-91438958D01*
X129267740Y-91441578D01*
X129275134Y-91443924D01*
X129281738Y-91446010D01*
X129287598Y-91447849D01*
X129292758Y-91449457D01*
X129297263Y-91450847D01*
X129301159Y-91452034D01*
X129304490Y-91453033D01*
X129307301Y-91453856D01*
X129309639Y-91454519D01*
X129311546Y-91455035D01*
X129313070Y-91455420D01*
X129314254Y-91455687D01*
X129315144Y-91455851D01*
X129315785Y-91455925D01*
X129316221Y-91455925D01*
X129316498Y-91455863D01*
X129316662Y-91455756D01*
X129316666Y-91455751D01*
X129317225Y-91455013D01*
X129318687Y-91453036D01*
X129321018Y-91449865D01*
X129324186Y-91445545D01*
X129328159Y-91440120D01*
X129332905Y-91433634D01*
X129338391Y-91426133D01*
X129344584Y-91417659D01*
X129351452Y-91408259D01*
X129358963Y-91397976D01*
X129367084Y-91386855D01*
X129375782Y-91374940D01*
X129385025Y-91362277D01*
X129394781Y-91348909D01*
X129405016Y-91334881D01*
X129415700Y-91320237D01*
X129426798Y-91305022D01*
X129438279Y-91289281D01*
X129450110Y-91273058D01*
X129462258Y-91256397D01*
X129474692Y-91239343D01*
X129487378Y-91221941D01*
X129494919Y-91211595D01*
X129671847Y-90968862D01*
X129672244Y-91270719D01*
X129672641Y-91572575D01*
X129956559Y-91664284D01*
X129977185Y-91670947D01*
X129997425Y-91677488D01*
X130017227Y-91683888D01*
X130036539Y-91690132D01*
X130055308Y-91696202D01*
X130073483Y-91702081D01*
X130091011Y-91707753D01*
X130107840Y-91713200D01*
X130123917Y-91718406D01*
X130139190Y-91723354D01*
X130153607Y-91728026D01*
X130167116Y-91732405D01*
X130179664Y-91736476D01*
X130191199Y-91740220D01*
X130201669Y-91743621D01*
X130211022Y-91746662D01*
X130219204Y-91749325D01*
X130226165Y-91751595D01*
X130231851Y-91753454D01*
X130236211Y-91754885D01*
X130239191Y-91755871D01*
X130240741Y-91756395D01*
X130240964Y-91756479D01*
X130240455Y-91756894D01*
X130240455Y-91756894D01*
G37*
X130240455Y-91756894D02*
X130238706Y-91757656D01*
X130235998Y-91758653D01*
X130232874Y-91759691D01*
X130231488Y-91760136D01*
X130228647Y-91761050D01*
X130224406Y-91762417D01*
X130218819Y-91764219D01*
X130211943Y-91766438D01*
X130203831Y-91769056D01*
X130194539Y-91772055D01*
X130184123Y-91775418D01*
X130172636Y-91779126D01*
X130160135Y-91783162D01*
X130146675Y-91787509D01*
X130132310Y-91792147D01*
X130117096Y-91797061D01*
X130101088Y-91802231D01*
X130084340Y-91807640D01*
X130066909Y-91813270D01*
X130048849Y-91819104D01*
X130030215Y-91825123D01*
X130011062Y-91831310D01*
X129991446Y-91837646D01*
X129971422Y-91844115D01*
X129951044Y-91850699D01*
X129948271Y-91851595D01*
X129672244Y-91940772D01*
X129672244Y-92242358D01*
X129672243Y-92269238D01*
X129672241Y-92294571D01*
X129672236Y-92318397D01*
X129672229Y-92340757D01*
X129672220Y-92361690D01*
X129672208Y-92381237D01*
X129672194Y-92399438D01*
X129672177Y-92416333D01*
X129672158Y-92431963D01*
X129672135Y-92446368D01*
X129672109Y-92459588D01*
X129672080Y-92471664D01*
X129672048Y-92482636D01*
X129672013Y-92492543D01*
X129671973Y-92501427D01*
X129671930Y-92509328D01*
X129671884Y-92516285D01*
X129671833Y-92522340D01*
X129671778Y-92527532D01*
X129671718Y-92531901D01*
X129671655Y-92535489D01*
X129671587Y-92538334D01*
X129671514Y-92540479D01*
X129671436Y-92541962D01*
X129671354Y-92542824D01*
X129671266Y-92543105D01*
X129671252Y-92543100D01*
X129670718Y-92542404D01*
X129669281Y-92540469D01*
X129666974Y-92537340D01*
X129663830Y-92533061D01*
X129659881Y-92527676D01*
X129655159Y-92521229D01*
X129649697Y-92513766D01*
X129643527Y-92505330D01*
X129636681Y-92495965D01*
X129629193Y-92485716D01*
X129621093Y-92474628D01*
X129612415Y-92462744D01*
X129603191Y-92450110D01*
X129593453Y-92436768D01*
X129583235Y-92422765D01*
X129572567Y-92408144D01*
X129561483Y-92392949D01*
X129550015Y-92377225D01*
X129538195Y-92361016D01*
X129526056Y-92344366D01*
X129513630Y-92327320D01*
X129500950Y-92309923D01*
X129493254Y-92299363D01*
X129480440Y-92281782D01*
X129467861Y-92264531D01*
X129455549Y-92247653D01*
X129443538Y-92231193D01*
X129431858Y-92215195D01*
X129420543Y-92199702D01*
X129409625Y-92184759D01*
X129399137Y-92170411D01*
X129389110Y-92156701D01*
X129379576Y-92143673D01*
X129370570Y-92131372D01*
X129362122Y-92119843D01*
X129354265Y-92109128D01*
X129347031Y-92099272D01*
X129340454Y-92090320D01*
X129334564Y-92082316D01*
X129329395Y-92075303D01*
X129324979Y-92069327D01*
X129321348Y-92064430D01*
X129318535Y-92060658D01*
X129316572Y-92058054D01*
X129315491Y-92056663D01*
X129315279Y-92056429D01*
X129314461Y-92056667D01*
X129312186Y-92057377D01*
X129308504Y-92058541D01*
X129303469Y-92060143D01*
X129297134Y-92062166D01*
X129289549Y-92064594D01*
X129280769Y-92067408D01*
X129270845Y-92070593D01*
X129259829Y-92074131D01*
X129247775Y-92078006D01*
X129234733Y-92082200D01*
X129220758Y-92086698D01*
X129205901Y-92091481D01*
X129190214Y-92096534D01*
X129173750Y-92101839D01*
X129156562Y-92107379D01*
X129138701Y-92113139D01*
X129120221Y-92119100D01*
X129101173Y-92125245D01*
X129081610Y-92131559D01*
X129061584Y-92138024D01*
X129041148Y-92144623D01*
X129030414Y-92148090D01*
X129009792Y-92154750D01*
X128989557Y-92161283D01*
X128969759Y-92167671D01*
X128950452Y-92173899D01*
X128931688Y-92179948D01*
X128913518Y-92185804D01*
X128895996Y-92191448D01*
X128879173Y-92196864D01*
X128863102Y-92202036D01*
X128847835Y-92206946D01*
X128833424Y-92211577D01*
X128819921Y-92215914D01*
X128807379Y-92219938D01*
X128795850Y-92223634D01*
X128785386Y-92226984D01*
X128776039Y-92229972D01*
X128767862Y-92232581D01*
X128760907Y-92234795D01*
X128755226Y-92236595D01*
X128750871Y-92237966D01*
X128747895Y-92238892D01*
X128746350Y-92239354D01*
X128746129Y-92239405D01*
X128746355Y-92238617D01*
X128747324Y-92236932D01*
X128748755Y-92234816D01*
X128749387Y-92233946D01*
X128750916Y-92231845D01*
X128753305Y-92228565D01*
X128756517Y-92224157D01*
X128760512Y-92218674D01*
X128765254Y-92212167D01*
X128770705Y-92204689D01*
X128776826Y-92196290D01*
X128783581Y-92187023D01*
X128790931Y-92176939D01*
X128798839Y-92166091D01*
X128807267Y-92154530D01*
X128816177Y-92142308D01*
X128825532Y-92129476D01*
X128835293Y-92116087D01*
X128845423Y-92102192D01*
X128855884Y-92087843D01*
X128866638Y-92073092D01*
X128877648Y-92057991D01*
X128888875Y-92042591D01*
X128900283Y-92026944D01*
X128911833Y-92011103D01*
X128923488Y-91995118D01*
X128935209Y-91979042D01*
X128946959Y-91962927D01*
X128958700Y-91946823D01*
X128970395Y-91930784D01*
X128982006Y-91914861D01*
X128993494Y-91899105D01*
X129004823Y-91883568D01*
X129015954Y-91868303D01*
X129026849Y-91853361D01*
X129037472Y-91838794D01*
X129047783Y-91824654D01*
X129057746Y-91810991D01*
X129067323Y-91797860D01*
X129076475Y-91785310D01*
X129085165Y-91773394D01*
X129091280Y-91765010D01*
X129097410Y-91756604D01*
X128921674Y-91515612D01*
X128908907Y-91498104D01*
X128896381Y-91480923D01*
X128884127Y-91464113D01*
X128872178Y-91447720D01*
X128860567Y-91431786D01*
X128849324Y-91416358D01*
X128838484Y-91401479D01*
X128828077Y-91387193D01*
X128818137Y-91373545D01*
X128808696Y-91360580D01*
X128799786Y-91348341D01*
X128791439Y-91336873D01*
X128783688Y-91326221D01*
X128776565Y-91316429D01*
X128770102Y-91307541D01*
X128764331Y-91299602D01*
X128759286Y-91292655D01*
X128754998Y-91286747D01*
X128751499Y-91281920D01*
X128748822Y-91278219D01*
X128747000Y-91275689D01*
X128746064Y-91274374D01*
X128745938Y-91274185D01*
X128746550Y-91273760D01*
X128746724Y-91273750D01*
X128747528Y-91273991D01*
X128749791Y-91274704D01*
X128753459Y-91275871D01*
X128758481Y-91277476D01*
X128764803Y-91279501D01*
X128772375Y-91281931D01*
X128781143Y-91284748D01*
X128791056Y-91287935D01*
X128802060Y-91291475D01*
X128814103Y-91295352D01*
X128827134Y-91299548D01*
X128841099Y-91304047D01*
X128855947Y-91308832D01*
X128871625Y-91313886D01*
X128888080Y-91319192D01*
X128905261Y-91324734D01*
X128923115Y-91330494D01*
X128941590Y-91336455D01*
X128960633Y-91342602D01*
X128980192Y-91348916D01*
X129000214Y-91355381D01*
X129020648Y-91361980D01*
X129031426Y-91365462D01*
X129056072Y-91373423D01*
X129079252Y-91380910D01*
X129101013Y-91387937D01*
X129121397Y-91394518D01*
X129140452Y-91400668D01*
X129158221Y-91406401D01*
X129174750Y-91411731D01*
X129190084Y-91416672D01*
X129204268Y-91421239D01*
X129217346Y-91425446D01*
X129229365Y-91429307D01*
X129240369Y-91432837D01*
X129250402Y-91436049D01*
X129259511Y-91438958D01*
X129267740Y-91441578D01*
X129275134Y-91443924D01*
X129281738Y-91446010D01*
X129287598Y-91447849D01*
X129292758Y-91449457D01*
X129297263Y-91450847D01*
X129301159Y-91452034D01*
X129304490Y-91453033D01*
X129307301Y-91453856D01*
X129309639Y-91454519D01*
X129311546Y-91455035D01*
X129313070Y-91455420D01*
X129314254Y-91455687D01*
X129315144Y-91455851D01*
X129315785Y-91455925D01*
X129316221Y-91455925D01*
X129316498Y-91455863D01*
X129316662Y-91455756D01*
X129316666Y-91455751D01*
X129317225Y-91455013D01*
X129318687Y-91453036D01*
X129321018Y-91449865D01*
X129324186Y-91445545D01*
X129328159Y-91440120D01*
X129332905Y-91433634D01*
X129338391Y-91426133D01*
X129344584Y-91417659D01*
X129351452Y-91408259D01*
X129358963Y-91397976D01*
X129367084Y-91386855D01*
X129375782Y-91374940D01*
X129385025Y-91362277D01*
X129394781Y-91348909D01*
X129405016Y-91334881D01*
X129415700Y-91320237D01*
X129426798Y-91305022D01*
X129438279Y-91289281D01*
X129450110Y-91273058D01*
X129462258Y-91256397D01*
X129474692Y-91239343D01*
X129487378Y-91221941D01*
X129494919Y-91211595D01*
X129671847Y-90968862D01*
X129672244Y-91270719D01*
X129672641Y-91572575D01*
X129956559Y-91664284D01*
X129977185Y-91670947D01*
X129997425Y-91677488D01*
X130017227Y-91683888D01*
X130036539Y-91690132D01*
X130055308Y-91696202D01*
X130073483Y-91702081D01*
X130091011Y-91707753D01*
X130107840Y-91713200D01*
X130123917Y-91718406D01*
X130139190Y-91723354D01*
X130153607Y-91728026D01*
X130167116Y-91732405D01*
X130179664Y-91736476D01*
X130191199Y-91740220D01*
X130201669Y-91743621D01*
X130211022Y-91746662D01*
X130219204Y-91749325D01*
X130226165Y-91751595D01*
X130231851Y-91753454D01*
X130236211Y-91754885D01*
X130239191Y-91755871D01*
X130240741Y-91756395D01*
X130240964Y-91756479D01*
X130240455Y-91756894D01*
G36*
X130240455Y-94006894D02*
X130238706Y-94007656D01*
X130235998Y-94008653D01*
X130232874Y-94009691D01*
X130231488Y-94010136D01*
X130228647Y-94011050D01*
X130224406Y-94012417D01*
X130218819Y-94014219D01*
X130211943Y-94016438D01*
X130203831Y-94019056D01*
X130194539Y-94022055D01*
X130184123Y-94025418D01*
X130172636Y-94029126D01*
X130160135Y-94033162D01*
X130146675Y-94037509D01*
X130132310Y-94042147D01*
X130117096Y-94047061D01*
X130101088Y-94052231D01*
X130084340Y-94057640D01*
X130066909Y-94063270D01*
X130048849Y-94069104D01*
X130030215Y-94075123D01*
X130011062Y-94081310D01*
X129991446Y-94087646D01*
X129971422Y-94094115D01*
X129951044Y-94100699D01*
X129948271Y-94101595D01*
X129672244Y-94190772D01*
X129672244Y-94492358D01*
X129672243Y-94519238D01*
X129672241Y-94544571D01*
X129672236Y-94568397D01*
X129672229Y-94590757D01*
X129672220Y-94611690D01*
X129672208Y-94631237D01*
X129672194Y-94649438D01*
X129672177Y-94666333D01*
X129672158Y-94681963D01*
X129672135Y-94696368D01*
X129672109Y-94709588D01*
X129672080Y-94721664D01*
X129672048Y-94732636D01*
X129672013Y-94742543D01*
X129671973Y-94751427D01*
X129671930Y-94759328D01*
X129671884Y-94766285D01*
X129671833Y-94772340D01*
X129671778Y-94777532D01*
X129671718Y-94781901D01*
X129671655Y-94785489D01*
X129671587Y-94788334D01*
X129671514Y-94790479D01*
X129671436Y-94791962D01*
X129671354Y-94792824D01*
X129671266Y-94793105D01*
X129671252Y-94793100D01*
X129670718Y-94792404D01*
X129669281Y-94790469D01*
X129666974Y-94787340D01*
X129663830Y-94783061D01*
X129659881Y-94777676D01*
X129655159Y-94771229D01*
X129649697Y-94763766D01*
X129643527Y-94755330D01*
X129636681Y-94745965D01*
X129629193Y-94735716D01*
X129621093Y-94724628D01*
X129612415Y-94712744D01*
X129603191Y-94700110D01*
X129593453Y-94686768D01*
X129583235Y-94672765D01*
X129572567Y-94658144D01*
X129561483Y-94642949D01*
X129550015Y-94627225D01*
X129538195Y-94611016D01*
X129526056Y-94594366D01*
X129513630Y-94577320D01*
X129500950Y-94559923D01*
X129493254Y-94549363D01*
X129480440Y-94531782D01*
X129467861Y-94514531D01*
X129455549Y-94497653D01*
X129443538Y-94481193D01*
X129431858Y-94465195D01*
X129420543Y-94449702D01*
X129409625Y-94434759D01*
X129399137Y-94420411D01*
X129389110Y-94406701D01*
X129379576Y-94393673D01*
X129370570Y-94381372D01*
X129362122Y-94369843D01*
X129354265Y-94359128D01*
X129347031Y-94349272D01*
X129340454Y-94340320D01*
X129334564Y-94332316D01*
X129329395Y-94325303D01*
X129324979Y-94319327D01*
X129321348Y-94314430D01*
X129318535Y-94310658D01*
X129316572Y-94308054D01*
X129315491Y-94306663D01*
X129315279Y-94306429D01*
X129314461Y-94306667D01*
X129312186Y-94307377D01*
X129308504Y-94308541D01*
X129303469Y-94310143D01*
X129297134Y-94312166D01*
X129289549Y-94314594D01*
X129280769Y-94317408D01*
X129270845Y-94320593D01*
X129259829Y-94324131D01*
X129247775Y-94328006D01*
X129234733Y-94332200D01*
X129220758Y-94336698D01*
X129205901Y-94341481D01*
X129190214Y-94346534D01*
X129173750Y-94351839D01*
X129156562Y-94357379D01*
X129138701Y-94363139D01*
X129120221Y-94369100D01*
X129101173Y-94375245D01*
X129081610Y-94381559D01*
X129061584Y-94388024D01*
X129041148Y-94394623D01*
X129030414Y-94398090D01*
X129009792Y-94404750D01*
X128989557Y-94411283D01*
X128969759Y-94417671D01*
X128950452Y-94423899D01*
X128931688Y-94429948D01*
X128913518Y-94435804D01*
X128895996Y-94441448D01*
X128879173Y-94446864D01*
X128863102Y-94452036D01*
X128847835Y-94456946D01*
X128833424Y-94461577D01*
X128819921Y-94465914D01*
X128807379Y-94469938D01*
X128795850Y-94473634D01*
X128785386Y-94476984D01*
X128776039Y-94479972D01*
X128767862Y-94482581D01*
X128760907Y-94484795D01*
X128755226Y-94486595D01*
X128750871Y-94487966D01*
X128747895Y-94488892D01*
X128746350Y-94489354D01*
X128746129Y-94489405D01*
X128746355Y-94488617D01*
X128747324Y-94486932D01*
X128748755Y-94484816D01*
X128749387Y-94483946D01*
X128750916Y-94481845D01*
X128753305Y-94478565D01*
X128756517Y-94474157D01*
X128760512Y-94468674D01*
X128765254Y-94462167D01*
X128770705Y-94454689D01*
X128776826Y-94446290D01*
X128783581Y-94437023D01*
X128790931Y-94426939D01*
X128798839Y-94416091D01*
X128807267Y-94404530D01*
X128816177Y-94392308D01*
X128825532Y-94379476D01*
X128835293Y-94366087D01*
X128845423Y-94352192D01*
X128855884Y-94337843D01*
X128866638Y-94323092D01*
X128877648Y-94307991D01*
X128888875Y-94292591D01*
X128900283Y-94276944D01*
X128911833Y-94261103D01*
X128923488Y-94245118D01*
X128935209Y-94229042D01*
X128946959Y-94212927D01*
X128958700Y-94196823D01*
X128970395Y-94180784D01*
X128982006Y-94164861D01*
X128993494Y-94149105D01*
X129004823Y-94133568D01*
X129015954Y-94118303D01*
X129026849Y-94103361D01*
X129037472Y-94088794D01*
X129047783Y-94074654D01*
X129057746Y-94060991D01*
X129067323Y-94047860D01*
X129076475Y-94035310D01*
X129085165Y-94023394D01*
X129091280Y-94015010D01*
X129097410Y-94006604D01*
X128921674Y-93765612D01*
X128908907Y-93748104D01*
X128896381Y-93730923D01*
X128884127Y-93714113D01*
X128872178Y-93697720D01*
X128860567Y-93681786D01*
X128849324Y-93666358D01*
X128838484Y-93651479D01*
X128828077Y-93637193D01*
X128818137Y-93623545D01*
X128808696Y-93610580D01*
X128799786Y-93598341D01*
X128791439Y-93586873D01*
X128783688Y-93576221D01*
X128776565Y-93566429D01*
X128770102Y-93557541D01*
X128764331Y-93549602D01*
X128759286Y-93542655D01*
X128754998Y-93536747D01*
X128751499Y-93531920D01*
X128748822Y-93528219D01*
X128747000Y-93525689D01*
X128746064Y-93524374D01*
X128745938Y-93524185D01*
X128746550Y-93523760D01*
X128746724Y-93523750D01*
X128747528Y-93523991D01*
X128749791Y-93524704D01*
X128753459Y-93525871D01*
X128758481Y-93527476D01*
X128764803Y-93529501D01*
X128772375Y-93531931D01*
X128781143Y-93534748D01*
X128791056Y-93537935D01*
X128802060Y-93541475D01*
X128814103Y-93545352D01*
X128827134Y-93549548D01*
X128841099Y-93554047D01*
X128855947Y-93558832D01*
X128871625Y-93563886D01*
X128888080Y-93569192D01*
X128905261Y-93574734D01*
X128923115Y-93580494D01*
X128941590Y-93586455D01*
X128960633Y-93592602D01*
X128980192Y-93598916D01*
X129000214Y-93605381D01*
X129020648Y-93611980D01*
X129031426Y-93615462D01*
X129056072Y-93623423D01*
X129079252Y-93630910D01*
X129101013Y-93637937D01*
X129121397Y-93644518D01*
X129140452Y-93650668D01*
X129158221Y-93656401D01*
X129174750Y-93661731D01*
X129190084Y-93666672D01*
X129204268Y-93671239D01*
X129217346Y-93675446D01*
X129229365Y-93679307D01*
X129240369Y-93682837D01*
X129250402Y-93686049D01*
X129259511Y-93688958D01*
X129267740Y-93691578D01*
X129275134Y-93693924D01*
X129281738Y-93696010D01*
X129287598Y-93697849D01*
X129292758Y-93699457D01*
X129297263Y-93700847D01*
X129301159Y-93702034D01*
X129304490Y-93703033D01*
X129307301Y-93703856D01*
X129309639Y-93704519D01*
X129311546Y-93705035D01*
X129313070Y-93705420D01*
X129314254Y-93705687D01*
X129315144Y-93705851D01*
X129315785Y-93705925D01*
X129316221Y-93705925D01*
X129316498Y-93705863D01*
X129316662Y-93705756D01*
X129316666Y-93705751D01*
X129317225Y-93705013D01*
X129318687Y-93703036D01*
X129321018Y-93699865D01*
X129324186Y-93695545D01*
X129328159Y-93690120D01*
X129332905Y-93683634D01*
X129338391Y-93676133D01*
X129344584Y-93667659D01*
X129351452Y-93658259D01*
X129358963Y-93647976D01*
X129367084Y-93636855D01*
X129375782Y-93624940D01*
X129385025Y-93612277D01*
X129394781Y-93598909D01*
X129405016Y-93584881D01*
X129415700Y-93570237D01*
X129426798Y-93555022D01*
X129438279Y-93539281D01*
X129450110Y-93523058D01*
X129462258Y-93506397D01*
X129474692Y-93489343D01*
X129487378Y-93471941D01*
X129494919Y-93461595D01*
X129671847Y-93218862D01*
X129672244Y-93520719D01*
X129672641Y-93822575D01*
X129956559Y-93914284D01*
X129977185Y-93920947D01*
X129997425Y-93927488D01*
X130017227Y-93933888D01*
X130036539Y-93940132D01*
X130055308Y-93946202D01*
X130073483Y-93952081D01*
X130091011Y-93957753D01*
X130107840Y-93963200D01*
X130123917Y-93968406D01*
X130139190Y-93973354D01*
X130153607Y-93978026D01*
X130167116Y-93982405D01*
X130179664Y-93986476D01*
X130191199Y-93990220D01*
X130201669Y-93993621D01*
X130211022Y-93996662D01*
X130219204Y-93999325D01*
X130226165Y-94001595D01*
X130231851Y-94003454D01*
X130236211Y-94004885D01*
X130239191Y-94005871D01*
X130240741Y-94006395D01*
X130240964Y-94006479D01*
X130240455Y-94006894D01*
X130240455Y-94006894D01*
G37*
X130240455Y-94006894D02*
X130238706Y-94007656D01*
X130235998Y-94008653D01*
X130232874Y-94009691D01*
X130231488Y-94010136D01*
X130228647Y-94011050D01*
X130224406Y-94012417D01*
X130218819Y-94014219D01*
X130211943Y-94016438D01*
X130203831Y-94019056D01*
X130194539Y-94022055D01*
X130184123Y-94025418D01*
X130172636Y-94029126D01*
X130160135Y-94033162D01*
X130146675Y-94037509D01*
X130132310Y-94042147D01*
X130117096Y-94047061D01*
X130101088Y-94052231D01*
X130084340Y-94057640D01*
X130066909Y-94063270D01*
X130048849Y-94069104D01*
X130030215Y-94075123D01*
X130011062Y-94081310D01*
X129991446Y-94087646D01*
X129971422Y-94094115D01*
X129951044Y-94100699D01*
X129948271Y-94101595D01*
X129672244Y-94190772D01*
X129672244Y-94492358D01*
X129672243Y-94519238D01*
X129672241Y-94544571D01*
X129672236Y-94568397D01*
X129672229Y-94590757D01*
X129672220Y-94611690D01*
X129672208Y-94631237D01*
X129672194Y-94649438D01*
X129672177Y-94666333D01*
X129672158Y-94681963D01*
X129672135Y-94696368D01*
X129672109Y-94709588D01*
X129672080Y-94721664D01*
X129672048Y-94732636D01*
X129672013Y-94742543D01*
X129671973Y-94751427D01*
X129671930Y-94759328D01*
X129671884Y-94766285D01*
X129671833Y-94772340D01*
X129671778Y-94777532D01*
X129671718Y-94781901D01*
X129671655Y-94785489D01*
X129671587Y-94788334D01*
X129671514Y-94790479D01*
X129671436Y-94791962D01*
X129671354Y-94792824D01*
X129671266Y-94793105D01*
X129671252Y-94793100D01*
X129670718Y-94792404D01*
X129669281Y-94790469D01*
X129666974Y-94787340D01*
X129663830Y-94783061D01*
X129659881Y-94777676D01*
X129655159Y-94771229D01*
X129649697Y-94763766D01*
X129643527Y-94755330D01*
X129636681Y-94745965D01*
X129629193Y-94735716D01*
X129621093Y-94724628D01*
X129612415Y-94712744D01*
X129603191Y-94700110D01*
X129593453Y-94686768D01*
X129583235Y-94672765D01*
X129572567Y-94658144D01*
X129561483Y-94642949D01*
X129550015Y-94627225D01*
X129538195Y-94611016D01*
X129526056Y-94594366D01*
X129513630Y-94577320D01*
X129500950Y-94559923D01*
X129493254Y-94549363D01*
X129480440Y-94531782D01*
X129467861Y-94514531D01*
X129455549Y-94497653D01*
X129443538Y-94481193D01*
X129431858Y-94465195D01*
X129420543Y-94449702D01*
X129409625Y-94434759D01*
X129399137Y-94420411D01*
X129389110Y-94406701D01*
X129379576Y-94393673D01*
X129370570Y-94381372D01*
X129362122Y-94369843D01*
X129354265Y-94359128D01*
X129347031Y-94349272D01*
X129340454Y-94340320D01*
X129334564Y-94332316D01*
X129329395Y-94325303D01*
X129324979Y-94319327D01*
X129321348Y-94314430D01*
X129318535Y-94310658D01*
X129316572Y-94308054D01*
X129315491Y-94306663D01*
X129315279Y-94306429D01*
X129314461Y-94306667D01*
X129312186Y-94307377D01*
X129308504Y-94308541D01*
X129303469Y-94310143D01*
X129297134Y-94312166D01*
X129289549Y-94314594D01*
X129280769Y-94317408D01*
X129270845Y-94320593D01*
X129259829Y-94324131D01*
X129247775Y-94328006D01*
X129234733Y-94332200D01*
X129220758Y-94336698D01*
X129205901Y-94341481D01*
X129190214Y-94346534D01*
X129173750Y-94351839D01*
X129156562Y-94357379D01*
X129138701Y-94363139D01*
X129120221Y-94369100D01*
X129101173Y-94375245D01*
X129081610Y-94381559D01*
X129061584Y-94388024D01*
X129041148Y-94394623D01*
X129030414Y-94398090D01*
X129009792Y-94404750D01*
X128989557Y-94411283D01*
X128969759Y-94417671D01*
X128950452Y-94423899D01*
X128931688Y-94429948D01*
X128913518Y-94435804D01*
X128895996Y-94441448D01*
X128879173Y-94446864D01*
X128863102Y-94452036D01*
X128847835Y-94456946D01*
X128833424Y-94461577D01*
X128819921Y-94465914D01*
X128807379Y-94469938D01*
X128795850Y-94473634D01*
X128785386Y-94476984D01*
X128776039Y-94479972D01*
X128767862Y-94482581D01*
X128760907Y-94484795D01*
X128755226Y-94486595D01*
X128750871Y-94487966D01*
X128747895Y-94488892D01*
X128746350Y-94489354D01*
X128746129Y-94489405D01*
X128746355Y-94488617D01*
X128747324Y-94486932D01*
X128748755Y-94484816D01*
X128749387Y-94483946D01*
X128750916Y-94481845D01*
X128753305Y-94478565D01*
X128756517Y-94474157D01*
X128760512Y-94468674D01*
X128765254Y-94462167D01*
X128770705Y-94454689D01*
X128776826Y-94446290D01*
X128783581Y-94437023D01*
X128790931Y-94426939D01*
X128798839Y-94416091D01*
X128807267Y-94404530D01*
X128816177Y-94392308D01*
X128825532Y-94379476D01*
X128835293Y-94366087D01*
X128845423Y-94352192D01*
X128855884Y-94337843D01*
X128866638Y-94323092D01*
X128877648Y-94307991D01*
X128888875Y-94292591D01*
X128900283Y-94276944D01*
X128911833Y-94261103D01*
X128923488Y-94245118D01*
X128935209Y-94229042D01*
X128946959Y-94212927D01*
X128958700Y-94196823D01*
X128970395Y-94180784D01*
X128982006Y-94164861D01*
X128993494Y-94149105D01*
X129004823Y-94133568D01*
X129015954Y-94118303D01*
X129026849Y-94103361D01*
X129037472Y-94088794D01*
X129047783Y-94074654D01*
X129057746Y-94060991D01*
X129067323Y-94047860D01*
X129076475Y-94035310D01*
X129085165Y-94023394D01*
X129091280Y-94015010D01*
X129097410Y-94006604D01*
X128921674Y-93765612D01*
X128908907Y-93748104D01*
X128896381Y-93730923D01*
X128884127Y-93714113D01*
X128872178Y-93697720D01*
X128860567Y-93681786D01*
X128849324Y-93666358D01*
X128838484Y-93651479D01*
X128828077Y-93637193D01*
X128818137Y-93623545D01*
X128808696Y-93610580D01*
X128799786Y-93598341D01*
X128791439Y-93586873D01*
X128783688Y-93576221D01*
X128776565Y-93566429D01*
X128770102Y-93557541D01*
X128764331Y-93549602D01*
X128759286Y-93542655D01*
X128754998Y-93536747D01*
X128751499Y-93531920D01*
X128748822Y-93528219D01*
X128747000Y-93525689D01*
X128746064Y-93524374D01*
X128745938Y-93524185D01*
X128746550Y-93523760D01*
X128746724Y-93523750D01*
X128747528Y-93523991D01*
X128749791Y-93524704D01*
X128753459Y-93525871D01*
X128758481Y-93527476D01*
X128764803Y-93529501D01*
X128772375Y-93531931D01*
X128781143Y-93534748D01*
X128791056Y-93537935D01*
X128802060Y-93541475D01*
X128814103Y-93545352D01*
X128827134Y-93549548D01*
X128841099Y-93554047D01*
X128855947Y-93558832D01*
X128871625Y-93563886D01*
X128888080Y-93569192D01*
X128905261Y-93574734D01*
X128923115Y-93580494D01*
X128941590Y-93586455D01*
X128960633Y-93592602D01*
X128980192Y-93598916D01*
X129000214Y-93605381D01*
X129020648Y-93611980D01*
X129031426Y-93615462D01*
X129056072Y-93623423D01*
X129079252Y-93630910D01*
X129101013Y-93637937D01*
X129121397Y-93644518D01*
X129140452Y-93650668D01*
X129158221Y-93656401D01*
X129174750Y-93661731D01*
X129190084Y-93666672D01*
X129204268Y-93671239D01*
X129217346Y-93675446D01*
X129229365Y-93679307D01*
X129240369Y-93682837D01*
X129250402Y-93686049D01*
X129259511Y-93688958D01*
X129267740Y-93691578D01*
X129275134Y-93693924D01*
X129281738Y-93696010D01*
X129287598Y-93697849D01*
X129292758Y-93699457D01*
X129297263Y-93700847D01*
X129301159Y-93702034D01*
X129304490Y-93703033D01*
X129307301Y-93703856D01*
X129309639Y-93704519D01*
X129311546Y-93705035D01*
X129313070Y-93705420D01*
X129314254Y-93705687D01*
X129315144Y-93705851D01*
X129315785Y-93705925D01*
X129316221Y-93705925D01*
X129316498Y-93705863D01*
X129316662Y-93705756D01*
X129316666Y-93705751D01*
X129317225Y-93705013D01*
X129318687Y-93703036D01*
X129321018Y-93699865D01*
X129324186Y-93695545D01*
X129328159Y-93690120D01*
X129332905Y-93683634D01*
X129338391Y-93676133D01*
X129344584Y-93667659D01*
X129351452Y-93658259D01*
X129358963Y-93647976D01*
X129367084Y-93636855D01*
X129375782Y-93624940D01*
X129385025Y-93612277D01*
X129394781Y-93598909D01*
X129405016Y-93584881D01*
X129415700Y-93570237D01*
X129426798Y-93555022D01*
X129438279Y-93539281D01*
X129450110Y-93523058D01*
X129462258Y-93506397D01*
X129474692Y-93489343D01*
X129487378Y-93471941D01*
X129494919Y-93461595D01*
X129671847Y-93218862D01*
X129672244Y-93520719D01*
X129672641Y-93822575D01*
X129956559Y-93914284D01*
X129977185Y-93920947D01*
X129997425Y-93927488D01*
X130017227Y-93933888D01*
X130036539Y-93940132D01*
X130055308Y-93946202D01*
X130073483Y-93952081D01*
X130091011Y-93957753D01*
X130107840Y-93963200D01*
X130123917Y-93968406D01*
X130139190Y-93973354D01*
X130153607Y-93978026D01*
X130167116Y-93982405D01*
X130179664Y-93986476D01*
X130191199Y-93990220D01*
X130201669Y-93993621D01*
X130211022Y-93996662D01*
X130219204Y-93999325D01*
X130226165Y-94001595D01*
X130231851Y-94003454D01*
X130236211Y-94004885D01*
X130239191Y-94005871D01*
X130240741Y-94006395D01*
X130240964Y-94006479D01*
X130240455Y-94006894D01*
D15*
X145141000Y-78484000D02*
X144379000Y-78484000D01*
X144379000Y-78484000D02*
X144379000Y-94486000D01*
X144379000Y-94486000D02*
X145141000Y-94486000D01*
D16*
X150900000Y-73120000D02*
X152100000Y-73120000D01*
X152100000Y-74880000D02*
X150900000Y-74880000D01*
X158350000Y-74880000D02*
X157150000Y-74880000D01*
X157150000Y-73120000D02*
X158350000Y-73120000D01*
X143130000Y-92900000D02*
X143130000Y-94100000D01*
X141370000Y-94100000D02*
X141370000Y-92900000D01*
X167110000Y-99830000D02*
X167110000Y-97170000D01*
X149270000Y-99830000D02*
X167110000Y-99830000D01*
X149270000Y-97170000D02*
X167110000Y-97170000D01*
X149270000Y-99830000D02*
X149270000Y-97170000D01*
X148000000Y-99830000D02*
X146670000Y-99830000D01*
X146670000Y-99830000D02*
X146670000Y-98500000D01*
D14*
G36*
X103888750Y-82694000D02*
X103857000Y-82662250D01*
X103888750Y-82630500D01*
X103920500Y-82662250D01*
X103888750Y-82694000D01*
X103888750Y-82694000D01*
G37*
X103888750Y-82694000D02*
X103857000Y-82662250D01*
X103888750Y-82630500D01*
X103920500Y-82662250D01*
X103888750Y-82694000D01*
G36*
X106727755Y-88625779D02*
X106696921Y-88710260D01*
X106660855Y-88829728D01*
X106666105Y-88946463D01*
X106670633Y-89051016D01*
X106641827Y-89070080D01*
X106604508Y-89100422D01*
X106587590Y-89219644D01*
X106587501Y-89230752D01*
X106579768Y-89349411D01*
X106533774Y-89406124D01*
X106415327Y-89423720D01*
X106296570Y-89425000D01*
X106005640Y-89425000D01*
X106037813Y-89218625D01*
X106079735Y-89002475D01*
X106124525Y-88821750D01*
X106166275Y-88527683D01*
X106135190Y-88241297D01*
X106078461Y-88089557D01*
X106013176Y-87997433D01*
X105960825Y-88015043D01*
X105946647Y-88035296D01*
X105900560Y-88088745D01*
X105887860Y-88028000D01*
X105861841Y-87988326D01*
X105783878Y-88054668D01*
X105759888Y-88082659D01*
X105656578Y-88303381D01*
X105635000Y-88511284D01*
X105622090Y-88679243D01*
X105589509Y-88778515D01*
X105571501Y-88790000D01*
X105517742Y-88825503D01*
X105518255Y-88837625D01*
X105499176Y-88951877D01*
X105428843Y-89107874D01*
X105335614Y-89248408D01*
X105293065Y-89291929D01*
X105228211Y-89386936D01*
X105232761Y-89442006D01*
X105236954Y-89482978D01*
X105216187Y-89475348D01*
X105125805Y-89464264D01*
X104952661Y-89469963D01*
X104797913Y-89484286D01*
X104610311Y-89498698D01*
X104491963Y-89493512D01*
X104468285Y-89475499D01*
X104446138Y-89428004D01*
X104400498Y-89417062D01*
X104264624Y-89404859D01*
X104229046Y-89401187D01*
X104141588Y-89343314D01*
X104112749Y-89298000D01*
X104055064Y-89174571D01*
X103978258Y-89012250D01*
X103932608Y-88875551D01*
X103915143Y-88696963D01*
X103923996Y-88443160D01*
X103937305Y-88282000D01*
X103968365Y-87938092D01*
X103993066Y-87700322D01*
X104020173Y-87548733D01*
X104058453Y-87463366D01*
X104115135Y-87425296D01*
X104115135Y-89250068D01*
X104111000Y-89258754D01*
X104155703Y-89316703D01*
X104174500Y-89329750D01*
X104233866Y-89345931D01*
X104238000Y-89337245D01*
X104193298Y-89279296D01*
X104174500Y-89266250D01*
X104115135Y-89250068D01*
X104115135Y-87425296D01*
X104116672Y-87424263D01*
X104203597Y-87411467D01*
X104322342Y-87405395D01*
X104504727Y-87400693D01*
X104592975Y-87424869D01*
X104618604Y-87488381D01*
X104619000Y-87503820D01*
X104585685Y-87639275D01*
X104552845Y-87687755D01*
X104517316Y-87779674D01*
X104484110Y-87961882D01*
X104459616Y-88197733D01*
X104456955Y-88237629D01*
X104444766Y-88485818D01*
X104449743Y-88638147D01*
X104477715Y-88725248D01*
X104534512Y-88777754D01*
X104562798Y-88793905D01*
X104739232Y-88827611D01*
X104898296Y-88753309D01*
X105010744Y-88589436D01*
X105037767Y-88494512D01*
X105055184Y-88321197D01*
X105042760Y-88192743D01*
X105041501Y-88189261D01*
X105042426Y-88086556D01*
X105067236Y-88057441D01*
X105130607Y-87977767D01*
X105207328Y-87830575D01*
X105220927Y-87799122D01*
X105366555Y-87600395D01*
X105588760Y-87462054D01*
X105842440Y-87408109D01*
X105941770Y-87415396D01*
X106210614Y-87484332D01*
X106407589Y-87582883D01*
X106503530Y-87693671D01*
X106579453Y-87838673D01*
X106629497Y-87906657D01*
X106687079Y-88034637D01*
X106725479Y-88230882D01*
X106740453Y-88444794D01*
X106727755Y-88625779D01*
X106727755Y-88625779D01*
G37*
X106727755Y-88625779D02*
X106696921Y-88710260D01*
X106660855Y-88829728D01*
X106666105Y-88946463D01*
X106670633Y-89051016D01*
X106641827Y-89070080D01*
X106604508Y-89100422D01*
X106587590Y-89219644D01*
X106587501Y-89230752D01*
X106579768Y-89349411D01*
X106533774Y-89406124D01*
X106415327Y-89423720D01*
X106296570Y-89425000D01*
X106005640Y-89425000D01*
X106037813Y-89218625D01*
X106079735Y-89002475D01*
X106124525Y-88821750D01*
X106166275Y-88527683D01*
X106135190Y-88241297D01*
X106078461Y-88089557D01*
X106013176Y-87997433D01*
X105960825Y-88015043D01*
X105946647Y-88035296D01*
X105900560Y-88088745D01*
X105887860Y-88028000D01*
X105861841Y-87988326D01*
X105783878Y-88054668D01*
X105759888Y-88082659D01*
X105656578Y-88303381D01*
X105635000Y-88511284D01*
X105622090Y-88679243D01*
X105589509Y-88778515D01*
X105571501Y-88790000D01*
X105517742Y-88825503D01*
X105518255Y-88837625D01*
X105499176Y-88951877D01*
X105428843Y-89107874D01*
X105335614Y-89248408D01*
X105293065Y-89291929D01*
X105228211Y-89386936D01*
X105232761Y-89442006D01*
X105236954Y-89482978D01*
X105216187Y-89475348D01*
X105125805Y-89464264D01*
X104952661Y-89469963D01*
X104797913Y-89484286D01*
X104610311Y-89498698D01*
X104491963Y-89493512D01*
X104468285Y-89475499D01*
X104446138Y-89428004D01*
X104400498Y-89417062D01*
X104264624Y-89404859D01*
X104229046Y-89401187D01*
X104141588Y-89343314D01*
X104112749Y-89298000D01*
X104055064Y-89174571D01*
X103978258Y-89012250D01*
X103932608Y-88875551D01*
X103915143Y-88696963D01*
X103923996Y-88443160D01*
X103937305Y-88282000D01*
X103968365Y-87938092D01*
X103993066Y-87700322D01*
X104020173Y-87548733D01*
X104058453Y-87463366D01*
X104115135Y-87425296D01*
X104115135Y-89250068D01*
X104111000Y-89258754D01*
X104155703Y-89316703D01*
X104174500Y-89329750D01*
X104233866Y-89345931D01*
X104238000Y-89337245D01*
X104193298Y-89279296D01*
X104174500Y-89266250D01*
X104115135Y-89250068D01*
X104115135Y-87425296D01*
X104116672Y-87424263D01*
X104203597Y-87411467D01*
X104322342Y-87405395D01*
X104504727Y-87400693D01*
X104592975Y-87424869D01*
X104618604Y-87488381D01*
X104619000Y-87503820D01*
X104585685Y-87639275D01*
X104552845Y-87687755D01*
X104517316Y-87779674D01*
X104484110Y-87961882D01*
X104459616Y-88197733D01*
X104456955Y-88237629D01*
X104444766Y-88485818D01*
X104449743Y-88638147D01*
X104477715Y-88725248D01*
X104534512Y-88777754D01*
X104562798Y-88793905D01*
X104739232Y-88827611D01*
X104898296Y-88753309D01*
X105010744Y-88589436D01*
X105037767Y-88494512D01*
X105055184Y-88321197D01*
X105042760Y-88192743D01*
X105041501Y-88189261D01*
X105042426Y-88086556D01*
X105067236Y-88057441D01*
X105130607Y-87977767D01*
X105207328Y-87830575D01*
X105220927Y-87799122D01*
X105366555Y-87600395D01*
X105588760Y-87462054D01*
X105842440Y-87408109D01*
X105941770Y-87415396D01*
X106210614Y-87484332D01*
X106407589Y-87582883D01*
X106503530Y-87693671D01*
X106579453Y-87838673D01*
X106629497Y-87906657D01*
X106687079Y-88034637D01*
X106725479Y-88230882D01*
X106740453Y-88444794D01*
X106727755Y-88625779D01*
G36*
X106713401Y-91166856D02*
X106692294Y-91385496D01*
X106660906Y-91554797D01*
X106629475Y-91626691D01*
X106593424Y-91719719D01*
X106587500Y-91785083D01*
X106566978Y-91855679D01*
X106485324Y-91890721D01*
X106312411Y-91901327D01*
X106271993Y-91901500D01*
X106091628Y-91896521D01*
X106004368Y-91865045D01*
X106000533Y-91782260D01*
X106070440Y-91623353D01*
X106123325Y-91520500D01*
X106178654Y-91336171D01*
X106202845Y-91092700D01*
X106194792Y-90846682D01*
X106153391Y-90654712D01*
X106140766Y-90627325D01*
X106036944Y-90512447D01*
X105920132Y-90519269D01*
X105798268Y-90644225D01*
X105703891Y-90823543D01*
X105629824Y-91015354D01*
X105586905Y-91165553D01*
X105582236Y-91220418D01*
X105562749Y-91346846D01*
X105486728Y-91523988D01*
X105379250Y-91705250D01*
X105265390Y-91844038D01*
X105231593Y-91871947D01*
X105036476Y-91947132D01*
X104789674Y-91959229D01*
X104529734Y-91916741D01*
X104295201Y-91828176D01*
X104124624Y-91702037D01*
X104070464Y-91615751D01*
X104011027Y-91551319D01*
X103978074Y-91555912D01*
X103947161Y-91541517D01*
X103957307Y-91498471D01*
X103958118Y-91398072D01*
X103935823Y-91371219D01*
X103910659Y-91293369D01*
X103909010Y-91133228D01*
X103919743Y-91018405D01*
X103932211Y-90812035D01*
X103917924Y-90645932D01*
X103900720Y-90593898D01*
X103872630Y-90520577D01*
X103912471Y-90531287D01*
X103976356Y-90525246D01*
X103984355Y-90492372D01*
X104000744Y-90379894D01*
X104040741Y-90208446D01*
X104050839Y-90171125D01*
X104105036Y-90015878D01*
X104181871Y-89948704D01*
X104328871Y-89933137D01*
X104361191Y-89933000D01*
X104549953Y-89957009D01*
X104640299Y-90023914D01*
X104640389Y-90024147D01*
X104639326Y-90114915D01*
X104614804Y-90135482D01*
X104546190Y-90222890D01*
X104495952Y-90428489D01*
X104465817Y-90744562D01*
X104462512Y-90816341D01*
X104466622Y-91049328D01*
X104507787Y-91198485D01*
X104567172Y-91278171D01*
X104707281Y-91357020D01*
X104840211Y-91321642D01*
X104955483Y-91184766D01*
X105042620Y-90959123D01*
X105091143Y-90657442D01*
X105092402Y-90640077D01*
X105120942Y-90459315D01*
X105170021Y-90335385D01*
X105190821Y-90313801D01*
X105235132Y-90226599D01*
X105220575Y-90184288D01*
X105206354Y-90133405D01*
X105240286Y-90146774D01*
X105326731Y-90139794D01*
X105361223Y-90102355D01*
X105508487Y-89960260D01*
X105721890Y-89875440D01*
X105958283Y-89852682D01*
X106174521Y-89896772D01*
X106315376Y-89996500D01*
X106378485Y-90050501D01*
X106394981Y-90036349D01*
X106435387Y-90023868D01*
X106491551Y-90059419D01*
X106556335Y-90145691D01*
X106555751Y-90187000D01*
X106571564Y-90262286D01*
X106616175Y-90311447D01*
X106677216Y-90416123D01*
X106673349Y-90474351D01*
X106672758Y-90604362D01*
X106689156Y-90641864D01*
X106714419Y-90752342D01*
X106721638Y-90941572D01*
X106713401Y-91166856D01*
X106713401Y-91166856D01*
G37*
X106713401Y-91166856D02*
X106692294Y-91385496D01*
X106660906Y-91554797D01*
X106629475Y-91626691D01*
X106593424Y-91719719D01*
X106587500Y-91785083D01*
X106566978Y-91855679D01*
X106485324Y-91890721D01*
X106312411Y-91901327D01*
X106271993Y-91901500D01*
X106091628Y-91896521D01*
X106004368Y-91865045D01*
X106000533Y-91782260D01*
X106070440Y-91623353D01*
X106123325Y-91520500D01*
X106178654Y-91336171D01*
X106202845Y-91092700D01*
X106194792Y-90846682D01*
X106153391Y-90654712D01*
X106140766Y-90627325D01*
X106036944Y-90512447D01*
X105920132Y-90519269D01*
X105798268Y-90644225D01*
X105703891Y-90823543D01*
X105629824Y-91015354D01*
X105586905Y-91165553D01*
X105582236Y-91220418D01*
X105562749Y-91346846D01*
X105486728Y-91523988D01*
X105379250Y-91705250D01*
X105265390Y-91844038D01*
X105231593Y-91871947D01*
X105036476Y-91947132D01*
X104789674Y-91959229D01*
X104529734Y-91916741D01*
X104295201Y-91828176D01*
X104124624Y-91702037D01*
X104070464Y-91615751D01*
X104011027Y-91551319D01*
X103978074Y-91555912D01*
X103947161Y-91541517D01*
X103957307Y-91498471D01*
X103958118Y-91398072D01*
X103935823Y-91371219D01*
X103910659Y-91293369D01*
X103909010Y-91133228D01*
X103919743Y-91018405D01*
X103932211Y-90812035D01*
X103917924Y-90645932D01*
X103900720Y-90593898D01*
X103872630Y-90520577D01*
X103912471Y-90531287D01*
X103976356Y-90525246D01*
X103984355Y-90492372D01*
X104000744Y-90379894D01*
X104040741Y-90208446D01*
X104050839Y-90171125D01*
X104105036Y-90015878D01*
X104181871Y-89948704D01*
X104328871Y-89933137D01*
X104361191Y-89933000D01*
X104549953Y-89957009D01*
X104640299Y-90023914D01*
X104640389Y-90024147D01*
X104639326Y-90114915D01*
X104614804Y-90135482D01*
X104546190Y-90222890D01*
X104495952Y-90428489D01*
X104465817Y-90744562D01*
X104462512Y-90816341D01*
X104466622Y-91049328D01*
X104507787Y-91198485D01*
X104567172Y-91278171D01*
X104707281Y-91357020D01*
X104840211Y-91321642D01*
X104955483Y-91184766D01*
X105042620Y-90959123D01*
X105091143Y-90657442D01*
X105092402Y-90640077D01*
X105120942Y-90459315D01*
X105170021Y-90335385D01*
X105190821Y-90313801D01*
X105235132Y-90226599D01*
X105220575Y-90184288D01*
X105206354Y-90133405D01*
X105240286Y-90146774D01*
X105326731Y-90139794D01*
X105361223Y-90102355D01*
X105508487Y-89960260D01*
X105721890Y-89875440D01*
X105958283Y-89852682D01*
X106174521Y-89896772D01*
X106315376Y-89996500D01*
X106378485Y-90050501D01*
X106394981Y-90036349D01*
X106435387Y-90023868D01*
X106491551Y-90059419D01*
X106556335Y-90145691D01*
X106555751Y-90187000D01*
X106571564Y-90262286D01*
X106616175Y-90311447D01*
X106677216Y-90416123D01*
X106673349Y-90474351D01*
X106672758Y-90604362D01*
X106689156Y-90641864D01*
X106714419Y-90752342D01*
X106721638Y-90941572D01*
X106713401Y-91166856D01*
G36*
X106633678Y-79612342D02*
X106610255Y-79743893D01*
X106595548Y-79968768D01*
X106588498Y-80300029D01*
X106587500Y-80540291D01*
X106587500Y-81487500D01*
X106143000Y-81487500D01*
X106143000Y-80217500D01*
X105635000Y-80217500D01*
X105635000Y-81360500D01*
X105131945Y-81360500D01*
X105113598Y-80804875D01*
X105095250Y-80249250D01*
X104545364Y-80230986D01*
X103995477Y-80212722D01*
X103973864Y-79865774D01*
X103952250Y-79518826D01*
X105349250Y-79523926D01*
X105749274Y-79526768D01*
X106097524Y-79531912D01*
X106377225Y-79538883D01*
X106571600Y-79547210D01*
X106663873Y-79556420D01*
X106666875Y-79561054D01*
X106633678Y-79612342D01*
X106633678Y-79612342D01*
G37*
X106633678Y-79612342D02*
X106610255Y-79743893D01*
X106595548Y-79968768D01*
X106588498Y-80300029D01*
X106587500Y-80540291D01*
X106587500Y-81487500D01*
X106143000Y-81487500D01*
X106143000Y-80217500D01*
X105635000Y-80217500D01*
X105635000Y-81360500D01*
X105131945Y-81360500D01*
X105113598Y-80804875D01*
X105095250Y-80249250D01*
X104545364Y-80230986D01*
X103995477Y-80212722D01*
X103973864Y-79865774D01*
X103952250Y-79518826D01*
X105349250Y-79523926D01*
X105749274Y-79526768D01*
X106097524Y-79531912D01*
X106377225Y-79538883D01*
X106571600Y-79547210D01*
X106663873Y-79556420D01*
X106666875Y-79561054D01*
X106633678Y-79612342D01*
G36*
X103952250Y-80344500D02*
X103920500Y-80312750D01*
X103952250Y-80281000D01*
X103984000Y-80312750D01*
X103952250Y-80344500D01*
X103952250Y-80344500D01*
G37*
X103952250Y-80344500D02*
X103920500Y-80312750D01*
X103952250Y-80281000D01*
X103984000Y-80312750D01*
X103952250Y-80344500D01*
G36*
X106622399Y-83315213D02*
X106612166Y-83556853D01*
X106596235Y-83751181D01*
X106574840Y-83869177D01*
X106567878Y-83884625D01*
X106474880Y-83937810D01*
X106314805Y-83963554D01*
X106290597Y-83964000D01*
X106142936Y-83955606D01*
X106092210Y-83914917D01*
X106107929Y-83821125D01*
X106135913Y-83683765D01*
X106165338Y-83469741D01*
X106186495Y-83261820D01*
X106200096Y-83019620D01*
X106186958Y-82867299D01*
X106142234Y-82769635D01*
X106114375Y-82737945D01*
X105965163Y-82640784D01*
X105813772Y-82662854D01*
X105771656Y-82686688D01*
X105721113Y-82768695D01*
X105658461Y-82937736D01*
X105593283Y-83156849D01*
X105535161Y-83389074D01*
X105493677Y-83597451D01*
X105478413Y-83745018D01*
X105485865Y-83789056D01*
X105477884Y-83825547D01*
X105463869Y-83822698D01*
X105384688Y-83849353D01*
X105267718Y-83937861D01*
X105264251Y-83941067D01*
X105027801Y-84080963D01*
X104752624Y-84121077D01*
X104474211Y-84064681D01*
X104228053Y-83915049D01*
X104153894Y-83838663D01*
X104049124Y-83725739D01*
X103982500Y-83675356D01*
X103975188Y-83676270D01*
X103958693Y-83638173D01*
X103949444Y-83504501D01*
X103946985Y-83306447D01*
X103950859Y-83075204D01*
X103960608Y-82841963D01*
X103975775Y-82637917D01*
X103992239Y-82512603D01*
X104056105Y-82268116D01*
X104149784Y-82127145D01*
X104294345Y-82066508D01*
X104404526Y-82059000D01*
X104548414Y-82065180D01*
X104617851Y-82080306D01*
X104619000Y-82082766D01*
X104600104Y-82151966D01*
X104552874Y-82296090D01*
X104533428Y-82352641D01*
X104446944Y-82620444D01*
X104398098Y-82813947D01*
X104390273Y-82917124D01*
X104412348Y-82926232D01*
X104455220Y-82949856D01*
X104464786Y-83011500D01*
X104440756Y-83092684D01*
X104408090Y-83094135D01*
X104381972Y-83113146D01*
X104397110Y-83204484D01*
X104441195Y-83325328D01*
X104501919Y-83432853D01*
X104507547Y-83440125D01*
X104597092Y-83511028D01*
X104630523Y-83519500D01*
X104657823Y-83478076D01*
X104642309Y-83440125D01*
X104622832Y-83392615D01*
X104682152Y-83431641D01*
X104692422Y-83439900D01*
X104785364Y-83482771D01*
X104875777Y-83423337D01*
X104889750Y-83408150D01*
X104958970Y-83288025D01*
X105031460Y-83096917D01*
X105096600Y-82874636D01*
X105143768Y-82660995D01*
X105162343Y-82495804D01*
X105151271Y-82427898D01*
X105146264Y-82386513D01*
X105176117Y-82399360D01*
X105247228Y-82384844D01*
X105282355Y-82323697D01*
X105365296Y-82228167D01*
X105522912Y-82146010D01*
X105556802Y-82134878D01*
X105738678Y-82088479D01*
X105924400Y-82052962D01*
X106079316Y-82033162D01*
X106168773Y-82033916D01*
X106174493Y-82048674D01*
X106201364Y-82097857D01*
X106307507Y-82178988D01*
X106333728Y-82195421D01*
X106461221Y-82290633D01*
X106522934Y-82371447D01*
X106524000Y-82379314D01*
X106560776Y-82420650D01*
X106579836Y-82412986D01*
X106601632Y-82455906D01*
X106616551Y-82596607D01*
X106624827Y-82806071D01*
X106626698Y-83055279D01*
X106622399Y-83315213D01*
X106622399Y-83315213D01*
G37*
X106622399Y-83315213D02*
X106612166Y-83556853D01*
X106596235Y-83751181D01*
X106574840Y-83869177D01*
X106567878Y-83884625D01*
X106474880Y-83937810D01*
X106314805Y-83963554D01*
X106290597Y-83964000D01*
X106142936Y-83955606D01*
X106092210Y-83914917D01*
X106107929Y-83821125D01*
X106135913Y-83683765D01*
X106165338Y-83469741D01*
X106186495Y-83261820D01*
X106200096Y-83019620D01*
X106186958Y-82867299D01*
X106142234Y-82769635D01*
X106114375Y-82737945D01*
X105965163Y-82640784D01*
X105813772Y-82662854D01*
X105771656Y-82686688D01*
X105721113Y-82768695D01*
X105658461Y-82937736D01*
X105593283Y-83156849D01*
X105535161Y-83389074D01*
X105493677Y-83597451D01*
X105478413Y-83745018D01*
X105485865Y-83789056D01*
X105477884Y-83825547D01*
X105463869Y-83822698D01*
X105384688Y-83849353D01*
X105267718Y-83937861D01*
X105264251Y-83941067D01*
X105027801Y-84080963D01*
X104752624Y-84121077D01*
X104474211Y-84064681D01*
X104228053Y-83915049D01*
X104153894Y-83838663D01*
X104049124Y-83725739D01*
X103982500Y-83675356D01*
X103975188Y-83676270D01*
X103958693Y-83638173D01*
X103949444Y-83504501D01*
X103946985Y-83306447D01*
X103950859Y-83075204D01*
X103960608Y-82841963D01*
X103975775Y-82637917D01*
X103992239Y-82512603D01*
X104056105Y-82268116D01*
X104149784Y-82127145D01*
X104294345Y-82066508D01*
X104404526Y-82059000D01*
X104548414Y-82065180D01*
X104617851Y-82080306D01*
X104619000Y-82082766D01*
X104600104Y-82151966D01*
X104552874Y-82296090D01*
X104533428Y-82352641D01*
X104446944Y-82620444D01*
X104398098Y-82813947D01*
X104390273Y-82917124D01*
X104412348Y-82926232D01*
X104455220Y-82949856D01*
X104464786Y-83011500D01*
X104440756Y-83092684D01*
X104408090Y-83094135D01*
X104381972Y-83113146D01*
X104397110Y-83204484D01*
X104441195Y-83325328D01*
X104501919Y-83432853D01*
X104507547Y-83440125D01*
X104597092Y-83511028D01*
X104630523Y-83519500D01*
X104657823Y-83478076D01*
X104642309Y-83440125D01*
X104622832Y-83392615D01*
X104682152Y-83431641D01*
X104692422Y-83439900D01*
X104785364Y-83482771D01*
X104875777Y-83423337D01*
X104889750Y-83408150D01*
X104958970Y-83288025D01*
X105031460Y-83096917D01*
X105096600Y-82874636D01*
X105143768Y-82660995D01*
X105162343Y-82495804D01*
X105151271Y-82427898D01*
X105146264Y-82386513D01*
X105176117Y-82399360D01*
X105247228Y-82384844D01*
X105282355Y-82323697D01*
X105365296Y-82228167D01*
X105522912Y-82146010D01*
X105556802Y-82134878D01*
X105738678Y-82088479D01*
X105924400Y-82052962D01*
X106079316Y-82033162D01*
X106168773Y-82033916D01*
X106174493Y-82048674D01*
X106201364Y-82097857D01*
X106307507Y-82178988D01*
X106333728Y-82195421D01*
X106461221Y-82290633D01*
X106522934Y-82371447D01*
X106524000Y-82379314D01*
X106560776Y-82420650D01*
X106579836Y-82412986D01*
X106601632Y-82455906D01*
X106616551Y-82596607D01*
X106624827Y-82806071D01*
X106626698Y-83055279D01*
X106622399Y-83315213D01*
G36*
X106679788Y-86081290D02*
X106608441Y-86324929D01*
X106564537Y-86412140D01*
X106449341Y-86591431D01*
X106366532Y-86673821D01*
X106326718Y-86656102D01*
X106340503Y-86535070D01*
X106357768Y-86474631D01*
X106412988Y-86328808D01*
X106460392Y-86253023D01*
X106467840Y-86250000D01*
X106480408Y-86194222D01*
X106468207Y-86052043D01*
X106451368Y-85948981D01*
X106424047Y-85754839D01*
X106419134Y-85607174D01*
X106425839Y-85567939D01*
X106407028Y-85468877D01*
X106319537Y-85334896D01*
X106196811Y-85202243D01*
X106072293Y-85107165D01*
X105980639Y-85085422D01*
X105901269Y-85081612D01*
X105889000Y-85052286D01*
X105842247Y-85012818D01*
X105787342Y-85022995D01*
X105672218Y-85012931D01*
X105629564Y-84973378D01*
X105583154Y-84921535D01*
X105572473Y-84966908D01*
X105525025Y-85022830D01*
X105422337Y-85022197D01*
X105320852Y-84968911D01*
X105302598Y-84948250D01*
X105261864Y-84936832D01*
X105254000Y-84980000D01*
X105243794Y-85043219D01*
X105200797Y-84995767D01*
X105190500Y-84980000D01*
X105140108Y-84925603D01*
X105127973Y-84967365D01*
X105074061Y-85042864D01*
X104941693Y-85126117D01*
X104901988Y-85143996D01*
X104744491Y-85232572D01*
X104644979Y-85330274D01*
X104636744Y-85347131D01*
X104573248Y-85461012D01*
X104539583Y-85494636D01*
X104464185Y-85608856D01*
X104418726Y-85800464D01*
X104408174Y-86022330D01*
X104437501Y-86227319D01*
X104456504Y-86282578D01*
X104508789Y-86435740D01*
X104496351Y-86501707D01*
X104472885Y-86508463D01*
X104457566Y-86529561D01*
X104512574Y-86558567D01*
X104523750Y-86566065D01*
X104523750Y-86631000D01*
X104492000Y-86662750D01*
X104523750Y-86694500D01*
X104555500Y-86662750D01*
X104523750Y-86631000D01*
X104523750Y-86566065D01*
X104609388Y-86623523D01*
X104629961Y-86665229D01*
X104662152Y-86784272D01*
X104730283Y-86885181D01*
X104800315Y-86920423D01*
X104809891Y-86916508D01*
X104900722Y-86915953D01*
X105053058Y-86959409D01*
X105092455Y-86974989D01*
X105251942Y-87030633D01*
X105309507Y-87028386D01*
X105269396Y-86980048D01*
X105135859Y-86897417D01*
X105048627Y-86853250D01*
X104764514Y-86664268D01*
X104587454Y-86414957D01*
X104510445Y-86131184D01*
X104523185Y-85799632D01*
X104642145Y-85510555D01*
X104849182Y-85284131D01*
X105126152Y-85140533D01*
X105438436Y-85099241D01*
X105485629Y-85108668D01*
X105485629Y-85519750D01*
X105267690Y-85540566D01*
X105103273Y-85620886D01*
X105004170Y-85706255D01*
X104877763Y-85851128D01*
X104821299Y-86002356D01*
X104809500Y-86192735D01*
X104822789Y-86395203D01*
X104878901Y-86529936D01*
X105002202Y-86654854D01*
X105004873Y-86657105D01*
X105263305Y-86804159D01*
X105536099Y-86838862D01*
X105795126Y-86762103D01*
X105968375Y-86626659D01*
X106111250Y-86393847D01*
X106111250Y-86694500D01*
X106079500Y-86726250D01*
X106111250Y-86758000D01*
X106143000Y-86726250D01*
X106111250Y-86694500D01*
X106111250Y-86393847D01*
X106116899Y-86384642D01*
X106145845Y-86121974D01*
X106055465Y-85860063D01*
X105957709Y-85727126D01*
X105814119Y-85591256D01*
X105667974Y-85531720D01*
X105485629Y-85519750D01*
X105485629Y-85108668D01*
X105770289Y-85165537D01*
X106041547Y-85325860D01*
X106238040Y-85558880D01*
X106345600Y-85843271D01*
X106350059Y-86157706D01*
X106287301Y-86377000D01*
X106221781Y-86548870D01*
X106181390Y-86681250D01*
X106178743Y-86694500D01*
X106123697Y-86784104D01*
X106089322Y-86797687D01*
X105961198Y-86812103D01*
X105948753Y-86813562D01*
X105913711Y-86861280D01*
X105926814Y-86894811D01*
X105934257Y-86938483D01*
X105901732Y-86924618D01*
X105791479Y-86905991D01*
X105667731Y-86922178D01*
X105551202Y-86975219D01*
X105537706Y-87066996D01*
X105543372Y-87086911D01*
X105555479Y-87156317D01*
X105516486Y-87188624D01*
X105399654Y-87191640D01*
X105231080Y-87178110D01*
X105016855Y-87144047D01*
X104808573Y-87087828D01*
X104636081Y-87020978D01*
X104529228Y-86955026D01*
X104516997Y-86902336D01*
X104495076Y-86846011D01*
X104395468Y-86750295D01*
X104352019Y-86716672D01*
X104217405Y-86593805D01*
X104139604Y-86478141D01*
X104134079Y-86457680D01*
X104088553Y-86352021D01*
X104054526Y-86326425D01*
X104019150Y-86259915D01*
X104030109Y-86203730D01*
X104036841Y-86135490D01*
X103994792Y-86148080D01*
X103952617Y-86135480D01*
X103928750Y-86024309D01*
X103920559Y-85801307D01*
X103920500Y-85773750D01*
X103928495Y-85533244D01*
X103953388Y-85411461D01*
X103990804Y-85396954D01*
X104034738Y-85392049D01*
X104020864Y-85313610D01*
X104023169Y-85218025D01*
X104079250Y-85119017D01*
X104079250Y-85170500D01*
X104047500Y-85202250D01*
X104079250Y-85234000D01*
X104111000Y-85202250D01*
X104079250Y-85170500D01*
X104079250Y-85119017D01*
X104094479Y-85092130D01*
X104142750Y-85036359D01*
X104142750Y-85043500D01*
X104111000Y-85075250D01*
X104142750Y-85107000D01*
X104174500Y-85075250D01*
X104142750Y-85043500D01*
X104142750Y-85036359D01*
X104248063Y-84914683D01*
X104310509Y-84849912D01*
X104396750Y-84763734D01*
X104396750Y-86377000D01*
X104365000Y-86408750D01*
X104396750Y-86440500D01*
X104428500Y-86408750D01*
X104396750Y-86377000D01*
X104396750Y-84763734D01*
X104460584Y-84699946D01*
X104523750Y-84640890D01*
X104523750Y-85361000D01*
X104492000Y-85392750D01*
X104523750Y-85424500D01*
X104555500Y-85392750D01*
X104523750Y-85361000D01*
X104523750Y-84640890D01*
X104561993Y-84605135D01*
X104597072Y-84581785D01*
X104593903Y-84588235D01*
X104585536Y-84631075D01*
X104664710Y-84609335D01*
X104708214Y-84590196D01*
X104815078Y-84522906D01*
X104839908Y-84469827D01*
X104841250Y-84466689D01*
X104841250Y-85043500D01*
X104809500Y-85075250D01*
X104841250Y-85107000D01*
X104873000Y-85075250D01*
X104841250Y-85043500D01*
X104841250Y-84466689D01*
X104861271Y-84419863D01*
X104968250Y-84389536D01*
X104968250Y-84980000D01*
X104936500Y-85011750D01*
X104968250Y-85043500D01*
X105000000Y-85011750D01*
X104968250Y-84980000D01*
X104968250Y-84389536D01*
X104976304Y-84387252D01*
X105152840Y-84372220D01*
X105358709Y-84374995D01*
X105561743Y-84395801D01*
X105729771Y-84434866D01*
X105730250Y-84435077D01*
X105730250Y-84916500D01*
X105698500Y-84948250D01*
X105730250Y-84980000D01*
X105762000Y-84948250D01*
X105730250Y-84916500D01*
X105730250Y-84435077D01*
X105793750Y-84463118D01*
X105914468Y-84507654D01*
X105941762Y-84512974D01*
X106029082Y-84562778D01*
X106168126Y-84678545D01*
X106291012Y-84797245D01*
X106415236Y-84929807D01*
X106478545Y-85008242D01*
X106470040Y-85016696D01*
X106416860Y-84997470D01*
X106436868Y-85061719D01*
X106456399Y-85099337D01*
X106492250Y-85145500D01*
X106492250Y-85678500D01*
X106460500Y-85710250D01*
X106492250Y-85742000D01*
X106524000Y-85710250D01*
X106492250Y-85678500D01*
X106492250Y-85145500D01*
X106537501Y-85203767D01*
X106596528Y-85234000D01*
X106636410Y-85280535D01*
X106626772Y-85332548D01*
X106621348Y-85398607D01*
X106646981Y-85395233D01*
X106676920Y-85433395D01*
X106696781Y-85571514D01*
X106702665Y-85765387D01*
X106679788Y-86081290D01*
X106679788Y-86081290D01*
G37*
X106679788Y-86081290D02*
X106608441Y-86324929D01*
X106564537Y-86412140D01*
X106449341Y-86591431D01*
X106366532Y-86673821D01*
X106326718Y-86656102D01*
X106340503Y-86535070D01*
X106357768Y-86474631D01*
X106412988Y-86328808D01*
X106460392Y-86253023D01*
X106467840Y-86250000D01*
X106480408Y-86194222D01*
X106468207Y-86052043D01*
X106451368Y-85948981D01*
X106424047Y-85754839D01*
X106419134Y-85607174D01*
X106425839Y-85567939D01*
X106407028Y-85468877D01*
X106319537Y-85334896D01*
X106196811Y-85202243D01*
X106072293Y-85107165D01*
X105980639Y-85085422D01*
X105901269Y-85081612D01*
X105889000Y-85052286D01*
X105842247Y-85012818D01*
X105787342Y-85022995D01*
X105672218Y-85012931D01*
X105629564Y-84973378D01*
X105583154Y-84921535D01*
X105572473Y-84966908D01*
X105525025Y-85022830D01*
X105422337Y-85022197D01*
X105320852Y-84968911D01*
X105302598Y-84948250D01*
X105261864Y-84936832D01*
X105254000Y-84980000D01*
X105243794Y-85043219D01*
X105200797Y-84995767D01*
X105190500Y-84980000D01*
X105140108Y-84925603D01*
X105127973Y-84967365D01*
X105074061Y-85042864D01*
X104941693Y-85126117D01*
X104901988Y-85143996D01*
X104744491Y-85232572D01*
X104644979Y-85330274D01*
X104636744Y-85347131D01*
X104573248Y-85461012D01*
X104539583Y-85494636D01*
X104464185Y-85608856D01*
X104418726Y-85800464D01*
X104408174Y-86022330D01*
X104437501Y-86227319D01*
X104456504Y-86282578D01*
X104508789Y-86435740D01*
X104496351Y-86501707D01*
X104472885Y-86508463D01*
X104457566Y-86529561D01*
X104512574Y-86558567D01*
X104523750Y-86566065D01*
X104523750Y-86631000D01*
X104492000Y-86662750D01*
X104523750Y-86694500D01*
X104555500Y-86662750D01*
X104523750Y-86631000D01*
X104523750Y-86566065D01*
X104609388Y-86623523D01*
X104629961Y-86665229D01*
X104662152Y-86784272D01*
X104730283Y-86885181D01*
X104800315Y-86920423D01*
X104809891Y-86916508D01*
X104900722Y-86915953D01*
X105053058Y-86959409D01*
X105092455Y-86974989D01*
X105251942Y-87030633D01*
X105309507Y-87028386D01*
X105269396Y-86980048D01*
X105135859Y-86897417D01*
X105048627Y-86853250D01*
X104764514Y-86664268D01*
X104587454Y-86414957D01*
X104510445Y-86131184D01*
X104523185Y-85799632D01*
X104642145Y-85510555D01*
X104849182Y-85284131D01*
X105126152Y-85140533D01*
X105438436Y-85099241D01*
X105485629Y-85108668D01*
X105485629Y-85519750D01*
X105267690Y-85540566D01*
X105103273Y-85620886D01*
X105004170Y-85706255D01*
X104877763Y-85851128D01*
X104821299Y-86002356D01*
X104809500Y-86192735D01*
X104822789Y-86395203D01*
X104878901Y-86529936D01*
X105002202Y-86654854D01*
X105004873Y-86657105D01*
X105263305Y-86804159D01*
X105536099Y-86838862D01*
X105795126Y-86762103D01*
X105968375Y-86626659D01*
X106111250Y-86393847D01*
X106111250Y-86694500D01*
X106079500Y-86726250D01*
X106111250Y-86758000D01*
X106143000Y-86726250D01*
X106111250Y-86694500D01*
X106111250Y-86393847D01*
X106116899Y-86384642D01*
X106145845Y-86121974D01*
X106055465Y-85860063D01*
X105957709Y-85727126D01*
X105814119Y-85591256D01*
X105667974Y-85531720D01*
X105485629Y-85519750D01*
X105485629Y-85108668D01*
X105770289Y-85165537D01*
X106041547Y-85325860D01*
X106238040Y-85558880D01*
X106345600Y-85843271D01*
X106350059Y-86157706D01*
X106287301Y-86377000D01*
X106221781Y-86548870D01*
X106181390Y-86681250D01*
X106178743Y-86694500D01*
X106123697Y-86784104D01*
X106089322Y-86797687D01*
X105961198Y-86812103D01*
X105948753Y-86813562D01*
X105913711Y-86861280D01*
X105926814Y-86894811D01*
X105934257Y-86938483D01*
X105901732Y-86924618D01*
X105791479Y-86905991D01*
X105667731Y-86922178D01*
X105551202Y-86975219D01*
X105537706Y-87066996D01*
X105543372Y-87086911D01*
X105555479Y-87156317D01*
X105516486Y-87188624D01*
X105399654Y-87191640D01*
X105231080Y-87178110D01*
X105016855Y-87144047D01*
X104808573Y-87087828D01*
X104636081Y-87020978D01*
X104529228Y-86955026D01*
X104516997Y-86902336D01*
X104495076Y-86846011D01*
X104395468Y-86750295D01*
X104352019Y-86716672D01*
X104217405Y-86593805D01*
X104139604Y-86478141D01*
X104134079Y-86457680D01*
X104088553Y-86352021D01*
X104054526Y-86326425D01*
X104019150Y-86259915D01*
X104030109Y-86203730D01*
X104036841Y-86135490D01*
X103994792Y-86148080D01*
X103952617Y-86135480D01*
X103928750Y-86024309D01*
X103920559Y-85801307D01*
X103920500Y-85773750D01*
X103928495Y-85533244D01*
X103953388Y-85411461D01*
X103990804Y-85396954D01*
X104034738Y-85392049D01*
X104020864Y-85313610D01*
X104023169Y-85218025D01*
X104079250Y-85119017D01*
X104079250Y-85170500D01*
X104047500Y-85202250D01*
X104079250Y-85234000D01*
X104111000Y-85202250D01*
X104079250Y-85170500D01*
X104079250Y-85119017D01*
X104094479Y-85092130D01*
X104142750Y-85036359D01*
X104142750Y-85043500D01*
X104111000Y-85075250D01*
X104142750Y-85107000D01*
X104174500Y-85075250D01*
X104142750Y-85043500D01*
X104142750Y-85036359D01*
X104248063Y-84914683D01*
X104310509Y-84849912D01*
X104396750Y-84763734D01*
X104396750Y-86377000D01*
X104365000Y-86408750D01*
X104396750Y-86440500D01*
X104428500Y-86408750D01*
X104396750Y-86377000D01*
X104396750Y-84763734D01*
X104460584Y-84699946D01*
X104523750Y-84640890D01*
X104523750Y-85361000D01*
X104492000Y-85392750D01*
X104523750Y-85424500D01*
X104555500Y-85392750D01*
X104523750Y-85361000D01*
X104523750Y-84640890D01*
X104561993Y-84605135D01*
X104597072Y-84581785D01*
X104593903Y-84588235D01*
X104585536Y-84631075D01*
X104664710Y-84609335D01*
X104708214Y-84590196D01*
X104815078Y-84522906D01*
X104839908Y-84469827D01*
X104841250Y-84466689D01*
X104841250Y-85043500D01*
X104809500Y-85075250D01*
X104841250Y-85107000D01*
X104873000Y-85075250D01*
X104841250Y-85043500D01*
X104841250Y-84466689D01*
X104861271Y-84419863D01*
X104968250Y-84389536D01*
X104968250Y-84980000D01*
X104936500Y-85011750D01*
X104968250Y-85043500D01*
X105000000Y-85011750D01*
X104968250Y-84980000D01*
X104968250Y-84389536D01*
X104976304Y-84387252D01*
X105152840Y-84372220D01*
X105358709Y-84374995D01*
X105561743Y-84395801D01*
X105729771Y-84434866D01*
X105730250Y-84435077D01*
X105730250Y-84916500D01*
X105698500Y-84948250D01*
X105730250Y-84980000D01*
X105762000Y-84948250D01*
X105730250Y-84916500D01*
X105730250Y-84435077D01*
X105793750Y-84463118D01*
X105914468Y-84507654D01*
X105941762Y-84512974D01*
X106029082Y-84562778D01*
X106168126Y-84678545D01*
X106291012Y-84797245D01*
X106415236Y-84929807D01*
X106478545Y-85008242D01*
X106470040Y-85016696D01*
X106416860Y-84997470D01*
X106436868Y-85061719D01*
X106456399Y-85099337D01*
X106492250Y-85145500D01*
X106492250Y-85678500D01*
X106460500Y-85710250D01*
X106492250Y-85742000D01*
X106524000Y-85710250D01*
X106492250Y-85678500D01*
X106492250Y-85145500D01*
X106537501Y-85203767D01*
X106596528Y-85234000D01*
X106636410Y-85280535D01*
X106626772Y-85332548D01*
X106621348Y-85398607D01*
X106646981Y-85395233D01*
X106676920Y-85433395D01*
X106696781Y-85571514D01*
X106702665Y-85765387D01*
X106679788Y-86081290D01*
G36*
X103952250Y-90250500D02*
X103920500Y-90218750D01*
X103952250Y-90187000D01*
X103984000Y-90218750D01*
X103952250Y-90250500D01*
X103952250Y-90250500D01*
G37*
X103952250Y-90250500D02*
X103920500Y-90218750D01*
X103952250Y-90187000D01*
X103984000Y-90218750D01*
X103952250Y-90250500D01*
G36*
X104079250Y-82059000D02*
X104047500Y-82027250D01*
X104079250Y-81995500D01*
X104111000Y-82027250D01*
X104079250Y-82059000D01*
X104079250Y-82059000D01*
G37*
X104079250Y-82059000D02*
X104047500Y-82027250D01*
X104079250Y-81995500D01*
X104111000Y-82027250D01*
X104079250Y-82059000D01*
G36*
X104408573Y-84695865D02*
X104373100Y-84741875D01*
X104280415Y-84840597D01*
X104239043Y-84840167D01*
X104238000Y-84829025D01*
X104281395Y-84776019D01*
X104349125Y-84717900D01*
X104424341Y-84662982D01*
X104408573Y-84695865D01*
X104408573Y-84695865D01*
G37*
X104408573Y-84695865D02*
X104373100Y-84741875D01*
X104280415Y-84840597D01*
X104239043Y-84840167D01*
X104238000Y-84829025D01*
X104281395Y-84776019D01*
X104349125Y-84717900D01*
X104424341Y-84662982D01*
X104408573Y-84695865D01*
G36*
X104269750Y-91965000D02*
X104238000Y-91933250D01*
X104269750Y-91901500D01*
X104301500Y-91933250D01*
X104269750Y-91965000D01*
X104269750Y-91965000D01*
G37*
X104269750Y-91965000D02*
X104238000Y-91933250D01*
X104269750Y-91901500D01*
X104301500Y-91933250D01*
X104269750Y-91965000D01*
G36*
X104396750Y-92028500D02*
X104365000Y-91996750D01*
X104396750Y-91965000D01*
X104428500Y-91996750D01*
X104396750Y-92028500D01*
X104396750Y-92028500D01*
G37*
X104396750Y-92028500D02*
X104365000Y-91996750D01*
X104396750Y-91965000D01*
X104428500Y-91996750D01*
X104396750Y-92028500D01*
G36*
X104587250Y-84218000D02*
X104555500Y-84186250D01*
X104587250Y-84154500D01*
X104619000Y-84186250D01*
X104587250Y-84218000D01*
X104587250Y-84218000D01*
G37*
X104587250Y-84218000D02*
X104555500Y-84186250D01*
X104587250Y-84154500D01*
X104619000Y-84186250D01*
X104587250Y-84218000D01*
G36*
X104714250Y-82059000D02*
X104682500Y-82027250D01*
X104714250Y-81995500D01*
X104746000Y-82027250D01*
X104714250Y-82059000D01*
X104714250Y-82059000D01*
G37*
X104714250Y-82059000D02*
X104682500Y-82027250D01*
X104714250Y-81995500D01*
X104746000Y-82027250D01*
X104714250Y-82059000D01*
G36*
X104714250Y-84535500D02*
X104682500Y-84503750D01*
X104714250Y-84472000D01*
X104746000Y-84503750D01*
X104714250Y-84535500D01*
X104714250Y-84535500D01*
G37*
X104714250Y-84535500D02*
X104682500Y-84503750D01*
X104714250Y-84472000D01*
X104746000Y-84503750D01*
X104714250Y-84535500D01*
G36*
X104714250Y-89996500D02*
X104682500Y-89964750D01*
X104714250Y-89933000D01*
X104746000Y-89964750D01*
X104714250Y-89996500D01*
X104714250Y-89996500D01*
G37*
X104714250Y-89996500D02*
X104682500Y-89964750D01*
X104714250Y-89933000D01*
X104746000Y-89964750D01*
X104714250Y-89996500D01*
G36*
X104714250Y-91330000D02*
X104682500Y-91298250D01*
X104714250Y-91266500D01*
X104746000Y-91298250D01*
X104714250Y-91330000D01*
X104714250Y-91330000D01*
G37*
X104714250Y-91330000D02*
X104682500Y-91298250D01*
X104714250Y-91266500D01*
X104746000Y-91298250D01*
X104714250Y-91330000D01*
G36*
X104777750Y-83456000D02*
X104746000Y-83424250D01*
X104777750Y-83392500D01*
X104809500Y-83424250D01*
X104777750Y-83456000D01*
X104777750Y-83456000D01*
G37*
X104777750Y-83456000D02*
X104746000Y-83424250D01*
X104777750Y-83392500D01*
X104809500Y-83424250D01*
X104777750Y-83456000D01*
G36*
X104777750Y-86885000D02*
X104746000Y-86853250D01*
X104777750Y-86821500D01*
X104809500Y-86853250D01*
X104777750Y-86885000D01*
X104777750Y-86885000D01*
G37*
X104777750Y-86885000D02*
X104746000Y-86853250D01*
X104777750Y-86821500D01*
X104809500Y-86853250D01*
X104777750Y-86885000D01*
G36*
X104904750Y-83329000D02*
X104873000Y-83297250D01*
X104904750Y-83265500D01*
X104936500Y-83297250D01*
X104904750Y-83329000D01*
X104904750Y-83329000D01*
G37*
X104904750Y-83329000D02*
X104873000Y-83297250D01*
X104904750Y-83265500D01*
X104936500Y-83297250D01*
X104904750Y-83329000D01*
G36*
X104968250Y-84218000D02*
X104936500Y-84186250D01*
X104968250Y-84154500D01*
X105000000Y-84186250D01*
X104968250Y-84218000D01*
X104968250Y-84218000D01*
G37*
X104968250Y-84218000D02*
X104936500Y-84186250D01*
X104968250Y-84154500D01*
X105000000Y-84186250D01*
X104968250Y-84218000D01*
G36*
X104968250Y-90949000D02*
X104936500Y-90917250D01*
X104968250Y-90885500D01*
X105000000Y-90917250D01*
X104968250Y-90949000D01*
X104968250Y-90949000D01*
G37*
X104968250Y-90949000D02*
X104936500Y-90917250D01*
X104968250Y-90885500D01*
X105000000Y-90917250D01*
X104968250Y-90949000D01*
G36*
X105730250Y-88282000D02*
X105698500Y-88250250D01*
X105730250Y-88218500D01*
X105762000Y-88250250D01*
X105730250Y-88282000D01*
X105730250Y-88282000D01*
G37*
X105730250Y-88282000D02*
X105698500Y-88250250D01*
X105730250Y-88218500D01*
X105762000Y-88250250D01*
X105730250Y-88282000D01*
G36*
X105793750Y-88155000D02*
X105762000Y-88123250D01*
X105793750Y-88091500D01*
X105825500Y-88123250D01*
X105793750Y-88155000D01*
X105793750Y-88155000D01*
G37*
X105793750Y-88155000D02*
X105762000Y-88123250D01*
X105793750Y-88091500D01*
X105825500Y-88123250D01*
X105793750Y-88155000D01*
G36*
X105984250Y-84027500D02*
X105952500Y-83995750D01*
X105984250Y-83964000D01*
X106016000Y-83995750D01*
X105984250Y-84027500D01*
X105984250Y-84027500D01*
G37*
X105984250Y-84027500D02*
X105952500Y-83995750D01*
X105984250Y-83964000D01*
X106016000Y-83995750D01*
X105984250Y-84027500D01*
G36*
X106306792Y-85408875D02*
X106251070Y-85388803D01*
X106156703Y-85309832D01*
X106064904Y-85211816D01*
X106016884Y-85134605D01*
X106016000Y-85127681D01*
X106055579Y-85136631D01*
X106152974Y-85213938D01*
X106174500Y-85233764D01*
X106273465Y-85339766D01*
X106308757Y-85404871D01*
X106306792Y-85408875D01*
X106306792Y-85408875D01*
G37*
X106306792Y-85408875D02*
X106251070Y-85388803D01*
X106156703Y-85309832D01*
X106064904Y-85211816D01*
X106016884Y-85134605D01*
X106016000Y-85127681D01*
X106055579Y-85136631D01*
X106152974Y-85213938D01*
X106174500Y-85233764D01*
X106273465Y-85339766D01*
X106308757Y-85404871D01*
X106306792Y-85408875D01*
G36*
X106047750Y-90631500D02*
X106016000Y-90599750D01*
X106047750Y-90568000D01*
X106079500Y-90599750D01*
X106047750Y-90631500D01*
X106047750Y-90631500D01*
G37*
X106047750Y-90631500D02*
X106016000Y-90599750D01*
X106047750Y-90568000D01*
X106079500Y-90599750D01*
X106047750Y-90631500D01*
G36*
X106365250Y-85551500D02*
X106333500Y-85519750D01*
X106365250Y-85488000D01*
X106397000Y-85519750D01*
X106365250Y-85551500D01*
X106365250Y-85551500D01*
G37*
X106365250Y-85551500D02*
X106333500Y-85519750D01*
X106365250Y-85488000D01*
X106397000Y-85519750D01*
X106365250Y-85551500D01*
G36*
X106555750Y-85170500D02*
X106524000Y-85138750D01*
X106555750Y-85107000D01*
X106587500Y-85138750D01*
X106555750Y-85170500D01*
X106555750Y-85170500D01*
G37*
X106555750Y-85170500D02*
X106524000Y-85138750D01*
X106555750Y-85107000D01*
X106587500Y-85138750D01*
X106555750Y-85170500D01*
G36*
X106746250Y-82884500D02*
X106714500Y-82852750D01*
X106746250Y-82821000D01*
X106778000Y-82852750D01*
X106746250Y-82884500D01*
X106746250Y-82884500D01*
G37*
X106746250Y-82884500D02*
X106714500Y-82852750D01*
X106746250Y-82821000D01*
X106778000Y-82852750D01*
X106746250Y-82884500D01*
G36*
X106746250Y-83265500D02*
X106714500Y-83233750D01*
X106746250Y-83202000D01*
X106778000Y-83233750D01*
X106746250Y-83265500D01*
X106746250Y-83265500D01*
G37*
X106746250Y-83265500D02*
X106714500Y-83233750D01*
X106746250Y-83202000D01*
X106778000Y-83233750D01*
X106746250Y-83265500D01*
G36*
X116232170Y-88631429D02*
X116194504Y-88933266D01*
X116119492Y-89173565D01*
X115997123Y-89384461D01*
X115818580Y-89596820D01*
X115714756Y-89718838D01*
X115670251Y-89825875D01*
X115672915Y-89969603D01*
X115696042Y-90117989D01*
X115720890Y-90310895D01*
X115723187Y-90448828D01*
X115712017Y-90488650D01*
X115637262Y-90503004D01*
X115458950Y-90515091D01*
X115200519Y-90523943D01*
X114885405Y-90528591D01*
X114734475Y-90529054D01*
X114357227Y-90527028D01*
X114075580Y-90518764D01*
X113858160Y-90500404D01*
X113673589Y-90468090D01*
X113490494Y-90417968D01*
X113294018Y-90351983D01*
X112633568Y-90057276D01*
X112055262Y-89665868D01*
X111560845Y-89179371D01*
X111152063Y-88599395D01*
X110933371Y-88173640D01*
X110813143Y-87907758D01*
X110696320Y-87651812D01*
X110605107Y-87454412D01*
X110593076Y-87428750D01*
X110355958Y-86920967D01*
X110168933Y-86506272D01*
X110026149Y-86163742D01*
X109921752Y-85872451D01*
X109849889Y-85611476D01*
X109804708Y-85359891D01*
X109780355Y-85096772D01*
X109770977Y-84801195D01*
X109770514Y-84488090D01*
X109773588Y-84153798D01*
X109778661Y-83863621D01*
X109785125Y-83641800D01*
X109792373Y-83512572D01*
X109795501Y-83491750D01*
X109819570Y-83404785D01*
X109866680Y-83227137D01*
X109928292Y-82991129D01*
X109954858Y-82888500D01*
X110030160Y-82605792D01*
X110105594Y-82337276D01*
X110167476Y-82131325D01*
X110179403Y-82094750D01*
X110241493Y-81882398D01*
X110306032Y-81620553D01*
X110337034Y-81475625D01*
X110397772Y-81244747D01*
X110464536Y-81125225D01*
X110497692Y-81110500D01*
X110577593Y-81153920D01*
X110629292Y-81196424D01*
X110629292Y-81806837D01*
X110551185Y-82109543D01*
X110500787Y-82344320D01*
X110453168Y-82630574D01*
X110428014Y-82825000D01*
X110388672Y-83089852D01*
X110333816Y-83345487D01*
X110290492Y-83491750D01*
X110160925Y-83973391D01*
X110101551Y-84487261D01*
X110115067Y-84986471D01*
X110183331Y-85355226D01*
X110256182Y-85607541D01*
X110331484Y-85855603D01*
X110367491Y-85968250D01*
X110442581Y-86208918D01*
X110514414Y-86458676D01*
X110520971Y-86482984D01*
X110606204Y-86714523D01*
X110723200Y-86938200D01*
X110739315Y-86962831D01*
X110828329Y-87119607D01*
X110942062Y-87355789D01*
X111061795Y-87631441D01*
X111116363Y-87767229D01*
X111414509Y-88391512D01*
X111783293Y-88924186D01*
X112215775Y-89358126D01*
X112705015Y-89686211D01*
X113176029Y-89881410D01*
X113401978Y-89956040D01*
X113583874Y-90025703D01*
X113683192Y-90075612D01*
X113684326Y-90076512D01*
X113777414Y-90106313D01*
X113966355Y-90136251D01*
X114220075Y-90162096D01*
X114406145Y-90174760D01*
X115050889Y-90210287D01*
X114323591Y-89486268D01*
X113985383Y-89139883D01*
X113715965Y-88837836D01*
X113486010Y-88543829D01*
X113266191Y-88221564D01*
X113141397Y-88023040D01*
X112975141Y-87749094D01*
X112836109Y-87512806D01*
X112736574Y-87335584D01*
X112688808Y-87238838D01*
X112686379Y-87229290D01*
X112655646Y-87154043D01*
X112573337Y-86997638D01*
X112454116Y-86787273D01*
X112383094Y-86666750D01*
X112217908Y-86372859D01*
X112053772Y-86052537D01*
X111921205Y-85765914D01*
X111899672Y-85714250D01*
X111791878Y-85451925D01*
X111684394Y-85196002D01*
X111602676Y-85006882D01*
X111519860Y-84799017D01*
X111457475Y-84605291D01*
X111446984Y-84562382D01*
X111366634Y-84223207D01*
X111256093Y-83805375D01*
X111127052Y-83350121D01*
X110991200Y-82898684D01*
X110860230Y-82492301D01*
X110859638Y-82490543D01*
X110629292Y-81806837D01*
X110629292Y-81196424D01*
X110719379Y-81270491D01*
X110899192Y-81439680D01*
X111005376Y-81547432D01*
X111424872Y-81984365D01*
X111881575Y-82006410D01*
X111881575Y-82405927D01*
X111566670Y-82437774D01*
X111562409Y-82438908D01*
X111402118Y-82488243D01*
X111336226Y-82547134D01*
X111336247Y-82657192D01*
X111352333Y-82745769D01*
X111392227Y-82917944D01*
X111457915Y-83165579D01*
X111537123Y-83442971D01*
X111561186Y-83523500D01*
X111641263Y-83796402D01*
X111711053Y-84048451D01*
X111758658Y-84236234D01*
X111767104Y-84274871D01*
X111809896Y-84486492D01*
X111946573Y-84363908D01*
X112241379Y-84181237D01*
X112636013Y-84069829D01*
X113102796Y-84033172D01*
X113102796Y-84477561D01*
X112902721Y-84499673D01*
X112650184Y-84555435D01*
X112389213Y-84631883D01*
X112163834Y-84716051D01*
X112018076Y-84794973D01*
X112014146Y-84798151D01*
X111976692Y-84841886D01*
X111965857Y-84904427D01*
X111987796Y-85004060D01*
X112048662Y-85159072D01*
X112154609Y-85387749D01*
X112311791Y-85708379D01*
X112338730Y-85762640D01*
X112459052Y-86011284D01*
X112554353Y-86220575D01*
X112612255Y-86362618D01*
X112623973Y-86405491D01*
X112656419Y-86518566D01*
X112682247Y-86566791D01*
X112735381Y-86607740D01*
X112819711Y-86576011D01*
X112961671Y-86462306D01*
X113207159Y-86314102D01*
X113541168Y-86207723D01*
X113930155Y-86149931D01*
X114340579Y-86147491D01*
X114373755Y-86150516D01*
X114373755Y-86577119D01*
X114128983Y-86597547D01*
X113983792Y-86613088D01*
X113677265Y-86652035D01*
X113468270Y-86695148D01*
X113327402Y-86750579D01*
X113229847Y-86822120D01*
X113122242Y-86974841D01*
X113135405Y-87133874D01*
X113196586Y-87238250D01*
X113250841Y-87346528D01*
X113286862Y-87446526D01*
X113389415Y-87678471D01*
X113568638Y-87975235D01*
X113808667Y-88314645D01*
X114093643Y-88674530D01*
X114407706Y-89032719D01*
X114467039Y-89096296D01*
X115067750Y-89733444D01*
X115308408Y-89578694D01*
X115471498Y-89447875D01*
X115588242Y-89307905D01*
X115608539Y-89267518D01*
X115671403Y-89113783D01*
X115759670Y-88910851D01*
X115796507Y-88829029D01*
X115911292Y-88428697D01*
X115903505Y-88010657D01*
X115773528Y-87589002D01*
X115762300Y-87564843D01*
X115585482Y-87251429D01*
X115377826Y-87019946D01*
X115098986Y-86825685D01*
X115091281Y-86821223D01*
X114869652Y-86696011D01*
X114703349Y-86618694D01*
X114551630Y-86581616D01*
X114373755Y-86577119D01*
X114373755Y-86150516D01*
X114466248Y-86158952D01*
X114676089Y-86174428D01*
X114810785Y-86166317D01*
X114845500Y-86144760D01*
X114813226Y-85954377D01*
X114728348Y-85701413D01*
X114608787Y-85428904D01*
X114472462Y-85179891D01*
X114398126Y-85070267D01*
X114234913Y-84873340D01*
X114076192Y-84745876D01*
X113868264Y-84649325D01*
X113756817Y-84609892D01*
X113503029Y-84538161D01*
X113253840Y-84490196D01*
X113102796Y-84477561D01*
X113102796Y-84033172D01*
X113123970Y-84031509D01*
X113132286Y-84031500D01*
X113384009Y-84029420D01*
X113534378Y-84018324D01*
X113609028Y-83990922D01*
X113633593Y-83939925D01*
X113634786Y-83888625D01*
X113605438Y-83761598D01*
X113532412Y-83564358D01*
X113431338Y-83338990D01*
X113428411Y-83333000D01*
X113273941Y-83057923D01*
X113109019Y-82862113D01*
X112929627Y-82722008D01*
X112609100Y-82557579D01*
X112244401Y-82449040D01*
X111881575Y-82405927D01*
X111881575Y-82006410D01*
X111976311Y-82010983D01*
X112422754Y-82060421D01*
X112789003Y-82171499D01*
X113113558Y-82360676D01*
X113417929Y-82627323D01*
X113722182Y-82998566D01*
X113932130Y-83400403D01*
X114035011Y-83806450D01*
X114042957Y-83919618D01*
X114055015Y-84120168D01*
X114095943Y-84243770D01*
X114193057Y-84340468D01*
X114319015Y-84425320D01*
X114624638Y-84687449D01*
X114887132Y-85037762D01*
X115086802Y-85439625D01*
X115203954Y-85856403D01*
X115226532Y-86113507D01*
X115234241Y-86284366D01*
X115272643Y-86407215D01*
X115364709Y-86524083D01*
X115533414Y-86677002D01*
X115535531Y-86678825D01*
X115743066Y-86879865D01*
X115943508Y-87109763D01*
X116043500Y-87245337D01*
X116131428Y-87384177D01*
X116188713Y-87504087D01*
X116221907Y-87637688D01*
X116237564Y-87817599D01*
X116242236Y-88076438D01*
X116242500Y-88235916D01*
X116232170Y-88631429D01*
X116232170Y-88631429D01*
G37*
X116232170Y-88631429D02*
X116194504Y-88933266D01*
X116119492Y-89173565D01*
X115997123Y-89384461D01*
X115818580Y-89596820D01*
X115714756Y-89718838D01*
X115670251Y-89825875D01*
X115672915Y-89969603D01*
X115696042Y-90117989D01*
X115720890Y-90310895D01*
X115723187Y-90448828D01*
X115712017Y-90488650D01*
X115637262Y-90503004D01*
X115458950Y-90515091D01*
X115200519Y-90523943D01*
X114885405Y-90528591D01*
X114734475Y-90529054D01*
X114357227Y-90527028D01*
X114075580Y-90518764D01*
X113858160Y-90500404D01*
X113673589Y-90468090D01*
X113490494Y-90417968D01*
X113294018Y-90351983D01*
X112633568Y-90057276D01*
X112055262Y-89665868D01*
X111560845Y-89179371D01*
X111152063Y-88599395D01*
X110933371Y-88173640D01*
X110813143Y-87907758D01*
X110696320Y-87651812D01*
X110605107Y-87454412D01*
X110593076Y-87428750D01*
X110355958Y-86920967D01*
X110168933Y-86506272D01*
X110026149Y-86163742D01*
X109921752Y-85872451D01*
X109849889Y-85611476D01*
X109804708Y-85359891D01*
X109780355Y-85096772D01*
X109770977Y-84801195D01*
X109770514Y-84488090D01*
X109773588Y-84153798D01*
X109778661Y-83863621D01*
X109785125Y-83641800D01*
X109792373Y-83512572D01*
X109795501Y-83491750D01*
X109819570Y-83404785D01*
X109866680Y-83227137D01*
X109928292Y-82991129D01*
X109954858Y-82888500D01*
X110030160Y-82605792D01*
X110105594Y-82337276D01*
X110167476Y-82131325D01*
X110179403Y-82094750D01*
X110241493Y-81882398D01*
X110306032Y-81620553D01*
X110337034Y-81475625D01*
X110397772Y-81244747D01*
X110464536Y-81125225D01*
X110497692Y-81110500D01*
X110577593Y-81153920D01*
X110629292Y-81196424D01*
X110629292Y-81806837D01*
X110551185Y-82109543D01*
X110500787Y-82344320D01*
X110453168Y-82630574D01*
X110428014Y-82825000D01*
X110388672Y-83089852D01*
X110333816Y-83345487D01*
X110290492Y-83491750D01*
X110160925Y-83973391D01*
X110101551Y-84487261D01*
X110115067Y-84986471D01*
X110183331Y-85355226D01*
X110256182Y-85607541D01*
X110331484Y-85855603D01*
X110367491Y-85968250D01*
X110442581Y-86208918D01*
X110514414Y-86458676D01*
X110520971Y-86482984D01*
X110606204Y-86714523D01*
X110723200Y-86938200D01*
X110739315Y-86962831D01*
X110828329Y-87119607D01*
X110942062Y-87355789D01*
X111061795Y-87631441D01*
X111116363Y-87767229D01*
X111414509Y-88391512D01*
X111783293Y-88924186D01*
X112215775Y-89358126D01*
X112705015Y-89686211D01*
X113176029Y-89881410D01*
X113401978Y-89956040D01*
X113583874Y-90025703D01*
X113683192Y-90075612D01*
X113684326Y-90076512D01*
X113777414Y-90106313D01*
X113966355Y-90136251D01*
X114220075Y-90162096D01*
X114406145Y-90174760D01*
X115050889Y-90210287D01*
X114323591Y-89486268D01*
X113985383Y-89139883D01*
X113715965Y-88837836D01*
X113486010Y-88543829D01*
X113266191Y-88221564D01*
X113141397Y-88023040D01*
X112975141Y-87749094D01*
X112836109Y-87512806D01*
X112736574Y-87335584D01*
X112688808Y-87238838D01*
X112686379Y-87229290D01*
X112655646Y-87154043D01*
X112573337Y-86997638D01*
X112454116Y-86787273D01*
X112383094Y-86666750D01*
X112217908Y-86372859D01*
X112053772Y-86052537D01*
X111921205Y-85765914D01*
X111899672Y-85714250D01*
X111791878Y-85451925D01*
X111684394Y-85196002D01*
X111602676Y-85006882D01*
X111519860Y-84799017D01*
X111457475Y-84605291D01*
X111446984Y-84562382D01*
X111366634Y-84223207D01*
X111256093Y-83805375D01*
X111127052Y-83350121D01*
X110991200Y-82898684D01*
X110860230Y-82492301D01*
X110859638Y-82490543D01*
X110629292Y-81806837D01*
X110629292Y-81196424D01*
X110719379Y-81270491D01*
X110899192Y-81439680D01*
X111005376Y-81547432D01*
X111424872Y-81984365D01*
X111881575Y-82006410D01*
X111881575Y-82405927D01*
X111566670Y-82437774D01*
X111562409Y-82438908D01*
X111402118Y-82488243D01*
X111336226Y-82547134D01*
X111336247Y-82657192D01*
X111352333Y-82745769D01*
X111392227Y-82917944D01*
X111457915Y-83165579D01*
X111537123Y-83442971D01*
X111561186Y-83523500D01*
X111641263Y-83796402D01*
X111711053Y-84048451D01*
X111758658Y-84236234D01*
X111767104Y-84274871D01*
X111809896Y-84486492D01*
X111946573Y-84363908D01*
X112241379Y-84181237D01*
X112636013Y-84069829D01*
X113102796Y-84033172D01*
X113102796Y-84477561D01*
X112902721Y-84499673D01*
X112650184Y-84555435D01*
X112389213Y-84631883D01*
X112163834Y-84716051D01*
X112018076Y-84794973D01*
X112014146Y-84798151D01*
X111976692Y-84841886D01*
X111965857Y-84904427D01*
X111987796Y-85004060D01*
X112048662Y-85159072D01*
X112154609Y-85387749D01*
X112311791Y-85708379D01*
X112338730Y-85762640D01*
X112459052Y-86011284D01*
X112554353Y-86220575D01*
X112612255Y-86362618D01*
X112623973Y-86405491D01*
X112656419Y-86518566D01*
X112682247Y-86566791D01*
X112735381Y-86607740D01*
X112819711Y-86576011D01*
X112961671Y-86462306D01*
X113207159Y-86314102D01*
X113541168Y-86207723D01*
X113930155Y-86149931D01*
X114340579Y-86147491D01*
X114373755Y-86150516D01*
X114373755Y-86577119D01*
X114128983Y-86597547D01*
X113983792Y-86613088D01*
X113677265Y-86652035D01*
X113468270Y-86695148D01*
X113327402Y-86750579D01*
X113229847Y-86822120D01*
X113122242Y-86974841D01*
X113135405Y-87133874D01*
X113196586Y-87238250D01*
X113250841Y-87346528D01*
X113286862Y-87446526D01*
X113389415Y-87678471D01*
X113568638Y-87975235D01*
X113808667Y-88314645D01*
X114093643Y-88674530D01*
X114407706Y-89032719D01*
X114467039Y-89096296D01*
X115067750Y-89733444D01*
X115308408Y-89578694D01*
X115471498Y-89447875D01*
X115588242Y-89307905D01*
X115608539Y-89267518D01*
X115671403Y-89113783D01*
X115759670Y-88910851D01*
X115796507Y-88829029D01*
X115911292Y-88428697D01*
X115903505Y-88010657D01*
X115773528Y-87589002D01*
X115762300Y-87564843D01*
X115585482Y-87251429D01*
X115377826Y-87019946D01*
X115098986Y-86825685D01*
X115091281Y-86821223D01*
X114869652Y-86696011D01*
X114703349Y-86618694D01*
X114551630Y-86581616D01*
X114373755Y-86577119D01*
X114373755Y-86150516D01*
X114466248Y-86158952D01*
X114676089Y-86174428D01*
X114810785Y-86166317D01*
X114845500Y-86144760D01*
X114813226Y-85954377D01*
X114728348Y-85701413D01*
X114608787Y-85428904D01*
X114472462Y-85179891D01*
X114398126Y-85070267D01*
X114234913Y-84873340D01*
X114076192Y-84745876D01*
X113868264Y-84649325D01*
X113756817Y-84609892D01*
X113503029Y-84538161D01*
X113253840Y-84490196D01*
X113102796Y-84477561D01*
X113102796Y-84033172D01*
X113123970Y-84031509D01*
X113132286Y-84031500D01*
X113384009Y-84029420D01*
X113534378Y-84018324D01*
X113609028Y-83990922D01*
X113633593Y-83939925D01*
X113634786Y-83888625D01*
X113605438Y-83761598D01*
X113532412Y-83564358D01*
X113431338Y-83338990D01*
X113428411Y-83333000D01*
X113273941Y-83057923D01*
X113109019Y-82862113D01*
X112929627Y-82722008D01*
X112609100Y-82557579D01*
X112244401Y-82449040D01*
X111881575Y-82405927D01*
X111881575Y-82006410D01*
X111976311Y-82010983D01*
X112422754Y-82060421D01*
X112789003Y-82171499D01*
X113113558Y-82360676D01*
X113417929Y-82627323D01*
X113722182Y-82998566D01*
X113932130Y-83400403D01*
X114035011Y-83806450D01*
X114042957Y-83919618D01*
X114055015Y-84120168D01*
X114095943Y-84243770D01*
X114193057Y-84340468D01*
X114319015Y-84425320D01*
X114624638Y-84687449D01*
X114887132Y-85037762D01*
X115086802Y-85439625D01*
X115203954Y-85856403D01*
X115226532Y-86113507D01*
X115234241Y-86284366D01*
X115272643Y-86407215D01*
X115364709Y-86524083D01*
X115533414Y-86677002D01*
X115535531Y-86678825D01*
X115743066Y-86879865D01*
X115943508Y-87109763D01*
X116043500Y-87245337D01*
X116131428Y-87384177D01*
X116188713Y-87504087D01*
X116221907Y-87637688D01*
X116237564Y-87817599D01*
X116242236Y-88076438D01*
X116242500Y-88235916D01*
X116232170Y-88631429D01*
G36*
X111624553Y-86048503D02*
X111514788Y-86184181D01*
X111383323Y-86252590D01*
X111364058Y-86254000D01*
X111291695Y-86201386D01*
X111210922Y-86072274D01*
X111199613Y-86047625D01*
X111140216Y-85924752D01*
X111112259Y-85912539D01*
X111104180Y-85980377D01*
X111125867Y-86108207D01*
X111162500Y-86158750D01*
X111224265Y-86241037D01*
X111180114Y-86306764D01*
X111121876Y-86317500D01*
X110982294Y-86263222D01*
X110889215Y-86127149D01*
X110853639Y-85949425D01*
X110886567Y-85770192D01*
X110946095Y-85676041D01*
X111010810Y-85595617D01*
X110978636Y-85583762D01*
X110917928Y-85598135D01*
X110762290Y-85574225D01*
X110629907Y-85473179D01*
X110492452Y-85368113D01*
X110368934Y-85323605D01*
X110358882Y-85323834D01*
X110255363Y-85287059D01*
X110228635Y-85238000D01*
X110276429Y-85153427D01*
X110443324Y-85038641D01*
X110640183Y-84936375D01*
X110852563Y-84836931D01*
X110980996Y-84780516D01*
X110980996Y-85055694D01*
X110840826Y-85113234D01*
X110730197Y-85210891D01*
X110725141Y-85302746D01*
X110818056Y-85353565D01*
X110892625Y-85353342D01*
X111036214Y-85300727D01*
X111087542Y-85190375D01*
X111073220Y-85074755D01*
X110980996Y-85055694D01*
X110980996Y-84780516D01*
X111019157Y-84763753D01*
X111108304Y-84730654D01*
X111113127Y-84730000D01*
X111130750Y-84747478D01*
X111130750Y-85492000D01*
X111099000Y-85523750D01*
X111130750Y-85555500D01*
X111162500Y-85523750D01*
X111130750Y-85492000D01*
X111130750Y-84747478D01*
X111165237Y-84781683D01*
X111241206Y-84910272D01*
X111263515Y-84955429D01*
X111329735Y-85134896D01*
X111323625Y-85273440D01*
X111299606Y-85336429D01*
X111260284Y-85450641D01*
X111293587Y-85489937D01*
X111322612Y-85492000D01*
X111354993Y-85504781D01*
X111354993Y-85746000D01*
X111320055Y-85792545D01*
X111330037Y-85841250D01*
X111375109Y-85924801D01*
X111391544Y-85936500D01*
X111413742Y-85884647D01*
X111416500Y-85841250D01*
X111383269Y-85756730D01*
X111354993Y-85746000D01*
X111354993Y-85504781D01*
X111458691Y-85545712D01*
X111585557Y-85675546D01*
X111662667Y-85834548D01*
X111670500Y-85894908D01*
X111624553Y-86048503D01*
X111624553Y-86048503D01*
G37*
X111624553Y-86048503D02*
X111514788Y-86184181D01*
X111383323Y-86252590D01*
X111364058Y-86254000D01*
X111291695Y-86201386D01*
X111210922Y-86072274D01*
X111199613Y-86047625D01*
X111140216Y-85924752D01*
X111112259Y-85912539D01*
X111104180Y-85980377D01*
X111125867Y-86108207D01*
X111162500Y-86158750D01*
X111224265Y-86241037D01*
X111180114Y-86306764D01*
X111121876Y-86317500D01*
X110982294Y-86263222D01*
X110889215Y-86127149D01*
X110853639Y-85949425D01*
X110886567Y-85770192D01*
X110946095Y-85676041D01*
X111010810Y-85595617D01*
X110978636Y-85583762D01*
X110917928Y-85598135D01*
X110762290Y-85574225D01*
X110629907Y-85473179D01*
X110492452Y-85368113D01*
X110368934Y-85323605D01*
X110358882Y-85323834D01*
X110255363Y-85287059D01*
X110228635Y-85238000D01*
X110276429Y-85153427D01*
X110443324Y-85038641D01*
X110640183Y-84936375D01*
X110852563Y-84836931D01*
X110980996Y-84780516D01*
X110980996Y-85055694D01*
X110840826Y-85113234D01*
X110730197Y-85210891D01*
X110725141Y-85302746D01*
X110818056Y-85353565D01*
X110892625Y-85353342D01*
X111036214Y-85300727D01*
X111087542Y-85190375D01*
X111073220Y-85074755D01*
X110980996Y-85055694D01*
X110980996Y-84780516D01*
X111019157Y-84763753D01*
X111108304Y-84730654D01*
X111113127Y-84730000D01*
X111130750Y-84747478D01*
X111130750Y-85492000D01*
X111099000Y-85523750D01*
X111130750Y-85555500D01*
X111162500Y-85523750D01*
X111130750Y-85492000D01*
X111130750Y-84747478D01*
X111165237Y-84781683D01*
X111241206Y-84910272D01*
X111263515Y-84955429D01*
X111329735Y-85134896D01*
X111323625Y-85273440D01*
X111299606Y-85336429D01*
X111260284Y-85450641D01*
X111293587Y-85489937D01*
X111322612Y-85492000D01*
X111354993Y-85504781D01*
X111354993Y-85746000D01*
X111320055Y-85792545D01*
X111330037Y-85841250D01*
X111375109Y-85924801D01*
X111391544Y-85936500D01*
X111413742Y-85884647D01*
X111416500Y-85841250D01*
X111383269Y-85756730D01*
X111354993Y-85746000D01*
X111354993Y-85504781D01*
X111458691Y-85545712D01*
X111585557Y-85675546D01*
X111662667Y-85834548D01*
X111670500Y-85894908D01*
X111624553Y-86048503D01*
G36*
X111962138Y-86665900D02*
X111876671Y-86792878D01*
X111712525Y-86911747D01*
X111516450Y-86994494D01*
X111377848Y-87016000D01*
X111315332Y-86965506D01*
X111230269Y-86845293D01*
X111150400Y-86702256D01*
X111103468Y-86583295D01*
X111100931Y-86547870D01*
X111129794Y-86494402D01*
X111167587Y-86428625D01*
X111285225Y-86332716D01*
X111420469Y-86331898D01*
X111420469Y-86583406D01*
X111361429Y-86600740D01*
X111364907Y-86638968D01*
X111445303Y-86735202D01*
X111476032Y-86750093D01*
X111535072Y-86732759D01*
X111531594Y-86694531D01*
X111451198Y-86598297D01*
X111420469Y-86583406D01*
X111420469Y-86331898D01*
X111444110Y-86331754D01*
X111606230Y-86421453D01*
X111665892Y-86484813D01*
X111752545Y-86578166D01*
X111796237Y-86592331D01*
X111797500Y-86584599D01*
X111756674Y-86488436D01*
X111702250Y-86421821D01*
X111618064Y-86299847D01*
X111627770Y-86214315D01*
X111700787Y-86190500D01*
X111817540Y-86246101D01*
X111914902Y-86381631D01*
X111967084Y-86550181D01*
X111962138Y-86665900D01*
X111962138Y-86665900D01*
G37*
X111962138Y-86665900D02*
X111876671Y-86792878D01*
X111712525Y-86911747D01*
X111516450Y-86994494D01*
X111377848Y-87016000D01*
X111315332Y-86965506D01*
X111230269Y-86845293D01*
X111150400Y-86702256D01*
X111103468Y-86583295D01*
X111100931Y-86547870D01*
X111129794Y-86494402D01*
X111167587Y-86428625D01*
X111285225Y-86332716D01*
X111420469Y-86331898D01*
X111420469Y-86583406D01*
X111361429Y-86600740D01*
X111364907Y-86638968D01*
X111445303Y-86735202D01*
X111476032Y-86750093D01*
X111535072Y-86732759D01*
X111531594Y-86694531D01*
X111451198Y-86598297D01*
X111420469Y-86583406D01*
X111420469Y-86331898D01*
X111444110Y-86331754D01*
X111606230Y-86421453D01*
X111665892Y-86484813D01*
X111752545Y-86578166D01*
X111796237Y-86592331D01*
X111797500Y-86584599D01*
X111756674Y-86488436D01*
X111702250Y-86421821D01*
X111618064Y-86299847D01*
X111627770Y-86214315D01*
X111700787Y-86190500D01*
X111817540Y-86246101D01*
X111914902Y-86381631D01*
X111967084Y-86550181D01*
X111962138Y-86665900D01*
G36*
X113228128Y-88787841D02*
X113068523Y-88889050D01*
X112825501Y-89000866D01*
X112820089Y-89003046D01*
X112350427Y-89191743D01*
X112234126Y-89040496D01*
X112132515Y-88838810D01*
X112136143Y-88653360D01*
X112220178Y-88531900D01*
X112280510Y-88468326D01*
X112242332Y-88433829D01*
X112143112Y-88412776D01*
X111957867Y-88322077D01*
X111864820Y-88209678D01*
X111807439Y-88084035D01*
X111819445Y-87985288D01*
X111903147Y-87856800D01*
X112037524Y-87675046D01*
X111861855Y-87700829D01*
X111696173Y-87685259D01*
X111583119Y-87579463D01*
X111460535Y-87469338D01*
X111342721Y-87430532D01*
X111212667Y-87406355D01*
X111197858Y-87342426D01*
X111294893Y-87244291D01*
X111500370Y-87117500D01*
X111550919Y-87090871D01*
X111811232Y-86964904D01*
X111891183Y-86938269D01*
X111891183Y-87202092D01*
X111779501Y-87245757D01*
X111776334Y-87248833D01*
X111738556Y-87340189D01*
X111740905Y-87452686D01*
X111779603Y-87521265D01*
X111792307Y-87524000D01*
X111954218Y-87481561D01*
X112044210Y-87374033D01*
X112051500Y-87326706D01*
X112001564Y-87234655D01*
X111891183Y-87202092D01*
X111891183Y-86938269D01*
X111987954Y-86906030D01*
X112104667Y-86913204D01*
X112184952Y-86985379D01*
X112226125Y-87060905D01*
X112297527Y-87294376D01*
X112280753Y-87479227D01*
X112194375Y-87582413D01*
X112136749Y-87627042D01*
X112183376Y-87645681D01*
X112264365Y-87648614D01*
X112264365Y-87906034D01*
X112133340Y-87933504D01*
X112069163Y-87976237D01*
X112027419Y-88078842D01*
X112054776Y-88181903D01*
X112125969Y-88222500D01*
X112260977Y-88183982D01*
X112381461Y-88095251D01*
X112400750Y-88058503D01*
X112400750Y-88349500D01*
X112369000Y-88381250D01*
X112400750Y-88413000D01*
X112432500Y-88381250D01*
X112400750Y-88349500D01*
X112400750Y-88058503D01*
X112432500Y-87998015D01*
X112381673Y-87928592D01*
X112264365Y-87906034D01*
X112264365Y-87648614D01*
X112276925Y-87649069D01*
X112440460Y-87674101D01*
X112546800Y-87727199D01*
X112606368Y-87858031D01*
X112619540Y-88040813D01*
X112586315Y-88209272D01*
X112546800Y-88273300D01*
X112517716Y-88328333D01*
X112576608Y-88343897D01*
X112576608Y-88567651D01*
X112501439Y-88600589D01*
X112393021Y-88702172D01*
X112375065Y-88817177D01*
X112431188Y-88888438D01*
X112539330Y-88893751D01*
X112656069Y-88829762D01*
X112723500Y-88733333D01*
X112725158Y-88701304D01*
X112677672Y-88579096D01*
X112576608Y-88567651D01*
X112576608Y-88343897D01*
X112593833Y-88348450D01*
X112643412Y-88349500D01*
X112806216Y-88395910D01*
X112886275Y-88503246D01*
X112986887Y-88624196D01*
X113123038Y-88646121D01*
X113263727Y-88656549D01*
X113295976Y-88707065D01*
X113228128Y-88787841D01*
X113228128Y-88787841D01*
G37*
X113228128Y-88787841D02*
X113068523Y-88889050D01*
X112825501Y-89000866D01*
X112820089Y-89003046D01*
X112350427Y-89191743D01*
X112234126Y-89040496D01*
X112132515Y-88838810D01*
X112136143Y-88653360D01*
X112220178Y-88531900D01*
X112280510Y-88468326D01*
X112242332Y-88433829D01*
X112143112Y-88412776D01*
X111957867Y-88322077D01*
X111864820Y-88209678D01*
X111807439Y-88084035D01*
X111819445Y-87985288D01*
X111903147Y-87856800D01*
X112037524Y-87675046D01*
X111861855Y-87700829D01*
X111696173Y-87685259D01*
X111583119Y-87579463D01*
X111460535Y-87469338D01*
X111342721Y-87430532D01*
X111212667Y-87406355D01*
X111197858Y-87342426D01*
X111294893Y-87244291D01*
X111500370Y-87117500D01*
X111550919Y-87090871D01*
X111811232Y-86964904D01*
X111891183Y-86938269D01*
X111891183Y-87202092D01*
X111779501Y-87245757D01*
X111776334Y-87248833D01*
X111738556Y-87340189D01*
X111740905Y-87452686D01*
X111779603Y-87521265D01*
X111792307Y-87524000D01*
X111954218Y-87481561D01*
X112044210Y-87374033D01*
X112051500Y-87326706D01*
X112001564Y-87234655D01*
X111891183Y-87202092D01*
X111891183Y-86938269D01*
X111987954Y-86906030D01*
X112104667Y-86913204D01*
X112184952Y-86985379D01*
X112226125Y-87060905D01*
X112297527Y-87294376D01*
X112280753Y-87479227D01*
X112194375Y-87582413D01*
X112136749Y-87627042D01*
X112183376Y-87645681D01*
X112264365Y-87648614D01*
X112264365Y-87906034D01*
X112133340Y-87933504D01*
X112069163Y-87976237D01*
X112027419Y-88078842D01*
X112054776Y-88181903D01*
X112125969Y-88222500D01*
X112260977Y-88183982D01*
X112381461Y-88095251D01*
X112400750Y-88058503D01*
X112400750Y-88349500D01*
X112369000Y-88381250D01*
X112400750Y-88413000D01*
X112432500Y-88381250D01*
X112400750Y-88349500D01*
X112400750Y-88058503D01*
X112432500Y-87998015D01*
X112381673Y-87928592D01*
X112264365Y-87906034D01*
X112264365Y-87648614D01*
X112276925Y-87649069D01*
X112440460Y-87674101D01*
X112546800Y-87727199D01*
X112606368Y-87858031D01*
X112619540Y-88040813D01*
X112586315Y-88209272D01*
X112546800Y-88273300D01*
X112517716Y-88328333D01*
X112576608Y-88343897D01*
X112576608Y-88567651D01*
X112501439Y-88600589D01*
X112393021Y-88702172D01*
X112375065Y-88817177D01*
X112431188Y-88888438D01*
X112539330Y-88893751D01*
X112656069Y-88829762D01*
X112723500Y-88733333D01*
X112725158Y-88701304D01*
X112677672Y-88579096D01*
X112576608Y-88567651D01*
X112576608Y-88343897D01*
X112593833Y-88348450D01*
X112643412Y-88349500D01*
X112806216Y-88395910D01*
X112886275Y-88503246D01*
X112986887Y-88624196D01*
X113123038Y-88646121D01*
X113263727Y-88656549D01*
X113295976Y-88707065D01*
X113228128Y-88787841D01*
G36*
X113600098Y-85851172D02*
X113575500Y-85841250D01*
X113514923Y-85784188D01*
X113512000Y-85774002D01*
X113561130Y-85746728D01*
X113575500Y-85746000D01*
X113636560Y-85794815D01*
X113639000Y-85813247D01*
X113600098Y-85851172D01*
X113600098Y-85851172D01*
G37*
X113600098Y-85851172D02*
X113575500Y-85841250D01*
X113514923Y-85784188D01*
X113512000Y-85774002D01*
X113561130Y-85746728D01*
X113575500Y-85746000D01*
X113636560Y-85794815D01*
X113639000Y-85813247D01*
X113600098Y-85851172D01*
G36*
X130240455Y-79256894D02*
X130238706Y-79257656D01*
X130235998Y-79258653D01*
X130232874Y-79259691D01*
X130231488Y-79260136D01*
X130228647Y-79261050D01*
X130224406Y-79262417D01*
X130218819Y-79264219D01*
X130211943Y-79266438D01*
X130203831Y-79269056D01*
X130194539Y-79272055D01*
X130184123Y-79275418D01*
X130172636Y-79279126D01*
X130160135Y-79283162D01*
X130146675Y-79287509D01*
X130132310Y-79292147D01*
X130117096Y-79297061D01*
X130101088Y-79302231D01*
X130084340Y-79307640D01*
X130066909Y-79313270D01*
X130048849Y-79319104D01*
X130030215Y-79325123D01*
X130011062Y-79331310D01*
X129991446Y-79337646D01*
X129971422Y-79344115D01*
X129951044Y-79350699D01*
X129948271Y-79351595D01*
X129672244Y-79440772D01*
X129672244Y-79742358D01*
X129672243Y-79769238D01*
X129672241Y-79794571D01*
X129672236Y-79818397D01*
X129672229Y-79840757D01*
X129672220Y-79861690D01*
X129672208Y-79881237D01*
X129672194Y-79899438D01*
X129672177Y-79916333D01*
X129672158Y-79931963D01*
X129672135Y-79946368D01*
X129672109Y-79959588D01*
X129672080Y-79971664D01*
X129672048Y-79982636D01*
X129672013Y-79992543D01*
X129671973Y-80001427D01*
X129671930Y-80009328D01*
X129671884Y-80016285D01*
X129671833Y-80022340D01*
X129671778Y-80027532D01*
X129671718Y-80031901D01*
X129671655Y-80035489D01*
X129671587Y-80038334D01*
X129671514Y-80040479D01*
X129671436Y-80041962D01*
X129671354Y-80042824D01*
X129671266Y-80043105D01*
X129671252Y-80043100D01*
X129670718Y-80042404D01*
X129669281Y-80040469D01*
X129666974Y-80037340D01*
X129663830Y-80033061D01*
X129659881Y-80027676D01*
X129655159Y-80021229D01*
X129649697Y-80013766D01*
X129643527Y-80005330D01*
X129636681Y-79995965D01*
X129629193Y-79985716D01*
X129621093Y-79974628D01*
X129612415Y-79962744D01*
X129603191Y-79950110D01*
X129593453Y-79936768D01*
X129583235Y-79922765D01*
X129572567Y-79908144D01*
X129561483Y-79892949D01*
X129550015Y-79877225D01*
X129538195Y-79861016D01*
X129526056Y-79844366D01*
X129513630Y-79827320D01*
X129500950Y-79809923D01*
X129493254Y-79799363D01*
X129480440Y-79781782D01*
X129467861Y-79764531D01*
X129455549Y-79747653D01*
X129443538Y-79731193D01*
X129431858Y-79715195D01*
X129420543Y-79699702D01*
X129409625Y-79684759D01*
X129399137Y-79670411D01*
X129389110Y-79656701D01*
X129379576Y-79643673D01*
X129370570Y-79631372D01*
X129362122Y-79619843D01*
X129354265Y-79609128D01*
X129347031Y-79599272D01*
X129340454Y-79590320D01*
X129334564Y-79582316D01*
X129329395Y-79575303D01*
X129324979Y-79569327D01*
X129321348Y-79564430D01*
X129318535Y-79560658D01*
X129316572Y-79558054D01*
X129315491Y-79556663D01*
X129315279Y-79556429D01*
X129314461Y-79556667D01*
X129312186Y-79557377D01*
X129308504Y-79558541D01*
X129303469Y-79560143D01*
X129297134Y-79562166D01*
X129289549Y-79564594D01*
X129280769Y-79567408D01*
X129270845Y-79570593D01*
X129259829Y-79574131D01*
X129247775Y-79578006D01*
X129234733Y-79582200D01*
X129220758Y-79586698D01*
X129205901Y-79591481D01*
X129190214Y-79596534D01*
X129173750Y-79601839D01*
X129156562Y-79607379D01*
X129138701Y-79613139D01*
X129120221Y-79619100D01*
X129101173Y-79625245D01*
X129081610Y-79631559D01*
X129061584Y-79638024D01*
X129041148Y-79644623D01*
X129030414Y-79648090D01*
X129009792Y-79654750D01*
X128989557Y-79661283D01*
X128969759Y-79667671D01*
X128950452Y-79673899D01*
X128931688Y-79679948D01*
X128913518Y-79685804D01*
X128895996Y-79691448D01*
X128879173Y-79696864D01*
X128863102Y-79702036D01*
X128847835Y-79706946D01*
X128833424Y-79711577D01*
X128819921Y-79715914D01*
X128807379Y-79719938D01*
X128795850Y-79723634D01*
X128785386Y-79726984D01*
X128776039Y-79729972D01*
X128767862Y-79732581D01*
X128760907Y-79734795D01*
X128755226Y-79736595D01*
X128750871Y-79737966D01*
X128747895Y-79738892D01*
X128746350Y-79739354D01*
X128746129Y-79739405D01*
X128746355Y-79738617D01*
X128747324Y-79736932D01*
X128748755Y-79734816D01*
X128749387Y-79733946D01*
X128750916Y-79731845D01*
X128753305Y-79728565D01*
X128756517Y-79724157D01*
X128760512Y-79718674D01*
X128765254Y-79712167D01*
X128770705Y-79704689D01*
X128776826Y-79696290D01*
X128783581Y-79687023D01*
X128790931Y-79676939D01*
X128798839Y-79666091D01*
X128807267Y-79654530D01*
X128816177Y-79642308D01*
X128825532Y-79629476D01*
X128835293Y-79616087D01*
X128845423Y-79602192D01*
X128855884Y-79587843D01*
X128866638Y-79573092D01*
X128877648Y-79557991D01*
X128888875Y-79542591D01*
X128900283Y-79526944D01*
X128911833Y-79511103D01*
X128923488Y-79495118D01*
X128935209Y-79479042D01*
X128946959Y-79462927D01*
X128958700Y-79446823D01*
X128970395Y-79430784D01*
X128982006Y-79414861D01*
X128993494Y-79399105D01*
X129004823Y-79383568D01*
X129015954Y-79368303D01*
X129026849Y-79353361D01*
X129037472Y-79338794D01*
X129047783Y-79324654D01*
X129057746Y-79310991D01*
X129067323Y-79297860D01*
X129076475Y-79285310D01*
X129085165Y-79273394D01*
X129091280Y-79265010D01*
X129097410Y-79256604D01*
X128921674Y-79015612D01*
X128908907Y-78998104D01*
X128896381Y-78980923D01*
X128884127Y-78964113D01*
X128872178Y-78947720D01*
X128860567Y-78931786D01*
X128849324Y-78916358D01*
X128838484Y-78901479D01*
X128828077Y-78887193D01*
X128818137Y-78873545D01*
X128808696Y-78860580D01*
X128799786Y-78848341D01*
X128791439Y-78836873D01*
X128783688Y-78826221D01*
X128776565Y-78816429D01*
X128770102Y-78807541D01*
X128764331Y-78799602D01*
X128759286Y-78792655D01*
X128754998Y-78786747D01*
X128751499Y-78781920D01*
X128748822Y-78778219D01*
X128747000Y-78775689D01*
X128746064Y-78774374D01*
X128745938Y-78774185D01*
X128746550Y-78773760D01*
X128746724Y-78773750D01*
X128747528Y-78773991D01*
X128749791Y-78774704D01*
X128753459Y-78775871D01*
X128758481Y-78777476D01*
X128764803Y-78779501D01*
X128772375Y-78781931D01*
X128781143Y-78784748D01*
X128791056Y-78787935D01*
X128802060Y-78791475D01*
X128814103Y-78795352D01*
X128827134Y-78799548D01*
X128841099Y-78804047D01*
X128855947Y-78808832D01*
X128871625Y-78813886D01*
X128888080Y-78819192D01*
X128905261Y-78824734D01*
X128923115Y-78830494D01*
X128941590Y-78836455D01*
X128960633Y-78842602D01*
X128980192Y-78848916D01*
X129000214Y-78855381D01*
X129020648Y-78861980D01*
X129031426Y-78865462D01*
X129056072Y-78873423D01*
X129079252Y-78880910D01*
X129101013Y-78887937D01*
X129121397Y-78894518D01*
X129140452Y-78900668D01*
X129158221Y-78906401D01*
X129174750Y-78911731D01*
X129190084Y-78916672D01*
X129204268Y-78921239D01*
X129217346Y-78925446D01*
X129229365Y-78929307D01*
X129240369Y-78932837D01*
X129250402Y-78936049D01*
X129259511Y-78938958D01*
X129267740Y-78941578D01*
X129275134Y-78943924D01*
X129281738Y-78946010D01*
X129287598Y-78947849D01*
X129292758Y-78949457D01*
X129297263Y-78950847D01*
X129301159Y-78952034D01*
X129304490Y-78953033D01*
X129307301Y-78953856D01*
X129309639Y-78954519D01*
X129311546Y-78955035D01*
X129313070Y-78955420D01*
X129314254Y-78955687D01*
X129315144Y-78955851D01*
X129315785Y-78955925D01*
X129316221Y-78955925D01*
X129316498Y-78955863D01*
X129316662Y-78955756D01*
X129316666Y-78955751D01*
X129317225Y-78955013D01*
X129318687Y-78953036D01*
X129321018Y-78949865D01*
X129324186Y-78945545D01*
X129328159Y-78940120D01*
X129332905Y-78933634D01*
X129338391Y-78926133D01*
X129344584Y-78917659D01*
X129351452Y-78908259D01*
X129358963Y-78897976D01*
X129367084Y-78886855D01*
X129375782Y-78874940D01*
X129385025Y-78862277D01*
X129394781Y-78848909D01*
X129405016Y-78834881D01*
X129415700Y-78820237D01*
X129426798Y-78805022D01*
X129438279Y-78789281D01*
X129450110Y-78773058D01*
X129462258Y-78756397D01*
X129474692Y-78739343D01*
X129487378Y-78721941D01*
X129494919Y-78711595D01*
X129671847Y-78468862D01*
X129672244Y-78770719D01*
X129672641Y-79072575D01*
X129956559Y-79164284D01*
X129977185Y-79170947D01*
X129997425Y-79177488D01*
X130017227Y-79183888D01*
X130036539Y-79190132D01*
X130055308Y-79196202D01*
X130073483Y-79202081D01*
X130091011Y-79207753D01*
X130107840Y-79213200D01*
X130123917Y-79218406D01*
X130139190Y-79223354D01*
X130153607Y-79228026D01*
X130167116Y-79232405D01*
X130179664Y-79236476D01*
X130191199Y-79240220D01*
X130201669Y-79243621D01*
X130211022Y-79246662D01*
X130219204Y-79249325D01*
X130226165Y-79251595D01*
X130231851Y-79253454D01*
X130236211Y-79254885D01*
X130239191Y-79255871D01*
X130240741Y-79256395D01*
X130240964Y-79256479D01*
X130240455Y-79256894D01*
X130240455Y-79256894D01*
G37*
X130240455Y-79256894D02*
X130238706Y-79257656D01*
X130235998Y-79258653D01*
X130232874Y-79259691D01*
X130231488Y-79260136D01*
X130228647Y-79261050D01*
X130224406Y-79262417D01*
X130218819Y-79264219D01*
X130211943Y-79266438D01*
X130203831Y-79269056D01*
X130194539Y-79272055D01*
X130184123Y-79275418D01*
X130172636Y-79279126D01*
X130160135Y-79283162D01*
X130146675Y-79287509D01*
X130132310Y-79292147D01*
X130117096Y-79297061D01*
X130101088Y-79302231D01*
X130084340Y-79307640D01*
X130066909Y-79313270D01*
X130048849Y-79319104D01*
X130030215Y-79325123D01*
X130011062Y-79331310D01*
X129991446Y-79337646D01*
X129971422Y-79344115D01*
X129951044Y-79350699D01*
X129948271Y-79351595D01*
X129672244Y-79440772D01*
X129672244Y-79742358D01*
X129672243Y-79769238D01*
X129672241Y-79794571D01*
X129672236Y-79818397D01*
X129672229Y-79840757D01*
X129672220Y-79861690D01*
X129672208Y-79881237D01*
X129672194Y-79899438D01*
X129672177Y-79916333D01*
X129672158Y-79931963D01*
X129672135Y-79946368D01*
X129672109Y-79959588D01*
X129672080Y-79971664D01*
X129672048Y-79982636D01*
X129672013Y-79992543D01*
X129671973Y-80001427D01*
X129671930Y-80009328D01*
X129671884Y-80016285D01*
X129671833Y-80022340D01*
X129671778Y-80027532D01*
X129671718Y-80031901D01*
X129671655Y-80035489D01*
X129671587Y-80038334D01*
X129671514Y-80040479D01*
X129671436Y-80041962D01*
X129671354Y-80042824D01*
X129671266Y-80043105D01*
X129671252Y-80043100D01*
X129670718Y-80042404D01*
X129669281Y-80040469D01*
X129666974Y-80037340D01*
X129663830Y-80033061D01*
X129659881Y-80027676D01*
X129655159Y-80021229D01*
X129649697Y-80013766D01*
X129643527Y-80005330D01*
X129636681Y-79995965D01*
X129629193Y-79985716D01*
X129621093Y-79974628D01*
X129612415Y-79962744D01*
X129603191Y-79950110D01*
X129593453Y-79936768D01*
X129583235Y-79922765D01*
X129572567Y-79908144D01*
X129561483Y-79892949D01*
X129550015Y-79877225D01*
X129538195Y-79861016D01*
X129526056Y-79844366D01*
X129513630Y-79827320D01*
X129500950Y-79809923D01*
X129493254Y-79799363D01*
X129480440Y-79781782D01*
X129467861Y-79764531D01*
X129455549Y-79747653D01*
X129443538Y-79731193D01*
X129431858Y-79715195D01*
X129420543Y-79699702D01*
X129409625Y-79684759D01*
X129399137Y-79670411D01*
X129389110Y-79656701D01*
X129379576Y-79643673D01*
X129370570Y-79631372D01*
X129362122Y-79619843D01*
X129354265Y-79609128D01*
X129347031Y-79599272D01*
X129340454Y-79590320D01*
X129334564Y-79582316D01*
X129329395Y-79575303D01*
X129324979Y-79569327D01*
X129321348Y-79564430D01*
X129318535Y-79560658D01*
X129316572Y-79558054D01*
X129315491Y-79556663D01*
X129315279Y-79556429D01*
X129314461Y-79556667D01*
X129312186Y-79557377D01*
X129308504Y-79558541D01*
X129303469Y-79560143D01*
X129297134Y-79562166D01*
X129289549Y-79564594D01*
X129280769Y-79567408D01*
X129270845Y-79570593D01*
X129259829Y-79574131D01*
X129247775Y-79578006D01*
X129234733Y-79582200D01*
X129220758Y-79586698D01*
X129205901Y-79591481D01*
X129190214Y-79596534D01*
X129173750Y-79601839D01*
X129156562Y-79607379D01*
X129138701Y-79613139D01*
X129120221Y-79619100D01*
X129101173Y-79625245D01*
X129081610Y-79631559D01*
X129061584Y-79638024D01*
X129041148Y-79644623D01*
X129030414Y-79648090D01*
X129009792Y-79654750D01*
X128989557Y-79661283D01*
X128969759Y-79667671D01*
X128950452Y-79673899D01*
X128931688Y-79679948D01*
X128913518Y-79685804D01*
X128895996Y-79691448D01*
X128879173Y-79696864D01*
X128863102Y-79702036D01*
X128847835Y-79706946D01*
X128833424Y-79711577D01*
X128819921Y-79715914D01*
X128807379Y-79719938D01*
X128795850Y-79723634D01*
X128785386Y-79726984D01*
X128776039Y-79729972D01*
X128767862Y-79732581D01*
X128760907Y-79734795D01*
X128755226Y-79736595D01*
X128750871Y-79737966D01*
X128747895Y-79738892D01*
X128746350Y-79739354D01*
X128746129Y-79739405D01*
X128746355Y-79738617D01*
X128747324Y-79736932D01*
X128748755Y-79734816D01*
X128749387Y-79733946D01*
X128750916Y-79731845D01*
X128753305Y-79728565D01*
X128756517Y-79724157D01*
X128760512Y-79718674D01*
X128765254Y-79712167D01*
X128770705Y-79704689D01*
X128776826Y-79696290D01*
X128783581Y-79687023D01*
X128790931Y-79676939D01*
X128798839Y-79666091D01*
X128807267Y-79654530D01*
X128816177Y-79642308D01*
X128825532Y-79629476D01*
X128835293Y-79616087D01*
X128845423Y-79602192D01*
X128855884Y-79587843D01*
X128866638Y-79573092D01*
X128877648Y-79557991D01*
X128888875Y-79542591D01*
X128900283Y-79526944D01*
X128911833Y-79511103D01*
X128923488Y-79495118D01*
X128935209Y-79479042D01*
X128946959Y-79462927D01*
X128958700Y-79446823D01*
X128970395Y-79430784D01*
X128982006Y-79414861D01*
X128993494Y-79399105D01*
X129004823Y-79383568D01*
X129015954Y-79368303D01*
X129026849Y-79353361D01*
X129037472Y-79338794D01*
X129047783Y-79324654D01*
X129057746Y-79310991D01*
X129067323Y-79297860D01*
X129076475Y-79285310D01*
X129085165Y-79273394D01*
X129091280Y-79265010D01*
X129097410Y-79256604D01*
X128921674Y-79015612D01*
X128908907Y-78998104D01*
X128896381Y-78980923D01*
X128884127Y-78964113D01*
X128872178Y-78947720D01*
X128860567Y-78931786D01*
X128849324Y-78916358D01*
X128838484Y-78901479D01*
X128828077Y-78887193D01*
X128818137Y-78873545D01*
X128808696Y-78860580D01*
X128799786Y-78848341D01*
X128791439Y-78836873D01*
X128783688Y-78826221D01*
X128776565Y-78816429D01*
X128770102Y-78807541D01*
X128764331Y-78799602D01*
X128759286Y-78792655D01*
X128754998Y-78786747D01*
X128751499Y-78781920D01*
X128748822Y-78778219D01*
X128747000Y-78775689D01*
X128746064Y-78774374D01*
X128745938Y-78774185D01*
X128746550Y-78773760D01*
X128746724Y-78773750D01*
X128747528Y-78773991D01*
X128749791Y-78774704D01*
X128753459Y-78775871D01*
X128758481Y-78777476D01*
X128764803Y-78779501D01*
X128772375Y-78781931D01*
X128781143Y-78784748D01*
X128791056Y-78787935D01*
X128802060Y-78791475D01*
X128814103Y-78795352D01*
X128827134Y-78799548D01*
X128841099Y-78804047D01*
X128855947Y-78808832D01*
X128871625Y-78813886D01*
X128888080Y-78819192D01*
X128905261Y-78824734D01*
X128923115Y-78830494D01*
X128941590Y-78836455D01*
X128960633Y-78842602D01*
X128980192Y-78848916D01*
X129000214Y-78855381D01*
X129020648Y-78861980D01*
X129031426Y-78865462D01*
X129056072Y-78873423D01*
X129079252Y-78880910D01*
X129101013Y-78887937D01*
X129121397Y-78894518D01*
X129140452Y-78900668D01*
X129158221Y-78906401D01*
X129174750Y-78911731D01*
X129190084Y-78916672D01*
X129204268Y-78921239D01*
X129217346Y-78925446D01*
X129229365Y-78929307D01*
X129240369Y-78932837D01*
X129250402Y-78936049D01*
X129259511Y-78938958D01*
X129267740Y-78941578D01*
X129275134Y-78943924D01*
X129281738Y-78946010D01*
X129287598Y-78947849D01*
X129292758Y-78949457D01*
X129297263Y-78950847D01*
X129301159Y-78952034D01*
X129304490Y-78953033D01*
X129307301Y-78953856D01*
X129309639Y-78954519D01*
X129311546Y-78955035D01*
X129313070Y-78955420D01*
X129314254Y-78955687D01*
X129315144Y-78955851D01*
X129315785Y-78955925D01*
X129316221Y-78955925D01*
X129316498Y-78955863D01*
X129316662Y-78955756D01*
X129316666Y-78955751D01*
X129317225Y-78955013D01*
X129318687Y-78953036D01*
X129321018Y-78949865D01*
X129324186Y-78945545D01*
X129328159Y-78940120D01*
X129332905Y-78933634D01*
X129338391Y-78926133D01*
X129344584Y-78917659D01*
X129351452Y-78908259D01*
X129358963Y-78897976D01*
X129367084Y-78886855D01*
X129375782Y-78874940D01*
X129385025Y-78862277D01*
X129394781Y-78848909D01*
X129405016Y-78834881D01*
X129415700Y-78820237D01*
X129426798Y-78805022D01*
X129438279Y-78789281D01*
X129450110Y-78773058D01*
X129462258Y-78756397D01*
X129474692Y-78739343D01*
X129487378Y-78721941D01*
X129494919Y-78711595D01*
X129671847Y-78468862D01*
X129672244Y-78770719D01*
X129672641Y-79072575D01*
X129956559Y-79164284D01*
X129977185Y-79170947D01*
X129997425Y-79177488D01*
X130017227Y-79183888D01*
X130036539Y-79190132D01*
X130055308Y-79196202D01*
X130073483Y-79202081D01*
X130091011Y-79207753D01*
X130107840Y-79213200D01*
X130123917Y-79218406D01*
X130139190Y-79223354D01*
X130153607Y-79228026D01*
X130167116Y-79232405D01*
X130179664Y-79236476D01*
X130191199Y-79240220D01*
X130201669Y-79243621D01*
X130211022Y-79246662D01*
X130219204Y-79249325D01*
X130226165Y-79251595D01*
X130231851Y-79253454D01*
X130236211Y-79254885D01*
X130239191Y-79255871D01*
X130240741Y-79256395D01*
X130240964Y-79256479D01*
X130240455Y-79256894D01*
G36*
X130240455Y-85506894D02*
X130238706Y-85507656D01*
X130235998Y-85508653D01*
X130232874Y-85509691D01*
X130231488Y-85510136D01*
X130228647Y-85511050D01*
X130224406Y-85512417D01*
X130218819Y-85514219D01*
X130211943Y-85516438D01*
X130203831Y-85519056D01*
X130194539Y-85522055D01*
X130184123Y-85525418D01*
X130172636Y-85529126D01*
X130160135Y-85533162D01*
X130146675Y-85537509D01*
X130132310Y-85542147D01*
X130117096Y-85547061D01*
X130101088Y-85552231D01*
X130084340Y-85557640D01*
X130066909Y-85563270D01*
X130048849Y-85569104D01*
X130030215Y-85575123D01*
X130011062Y-85581310D01*
X129991446Y-85587646D01*
X129971422Y-85594115D01*
X129951044Y-85600699D01*
X129948271Y-85601595D01*
X129672244Y-85690772D01*
X129672244Y-85992358D01*
X129672243Y-86019238D01*
X129672241Y-86044571D01*
X129672236Y-86068397D01*
X129672229Y-86090757D01*
X129672220Y-86111690D01*
X129672208Y-86131237D01*
X129672194Y-86149438D01*
X129672177Y-86166333D01*
X129672158Y-86181963D01*
X129672135Y-86196368D01*
X129672109Y-86209588D01*
X129672080Y-86221664D01*
X129672048Y-86232636D01*
X129672013Y-86242543D01*
X129671973Y-86251427D01*
X129671930Y-86259328D01*
X129671884Y-86266285D01*
X129671833Y-86272340D01*
X129671778Y-86277532D01*
X129671718Y-86281901D01*
X129671655Y-86285489D01*
X129671587Y-86288334D01*
X129671514Y-86290479D01*
X129671436Y-86291962D01*
X129671354Y-86292824D01*
X129671266Y-86293105D01*
X129671252Y-86293100D01*
X129670718Y-86292404D01*
X129669281Y-86290469D01*
X129666974Y-86287340D01*
X129663830Y-86283061D01*
X129659881Y-86277676D01*
X129655159Y-86271229D01*
X129649697Y-86263766D01*
X129643527Y-86255330D01*
X129636681Y-86245965D01*
X129629193Y-86235716D01*
X129621093Y-86224628D01*
X129612415Y-86212744D01*
X129603191Y-86200110D01*
X129593453Y-86186768D01*
X129583235Y-86172765D01*
X129572567Y-86158144D01*
X129561483Y-86142949D01*
X129550015Y-86127225D01*
X129538195Y-86111016D01*
X129526056Y-86094366D01*
X129513630Y-86077320D01*
X129500950Y-86059923D01*
X129493254Y-86049363D01*
X129480440Y-86031782D01*
X129467861Y-86014531D01*
X129455549Y-85997653D01*
X129443538Y-85981193D01*
X129431858Y-85965195D01*
X129420543Y-85949702D01*
X129409625Y-85934759D01*
X129399137Y-85920411D01*
X129389110Y-85906701D01*
X129379576Y-85893673D01*
X129370570Y-85881372D01*
X129362122Y-85869843D01*
X129354265Y-85859128D01*
X129347031Y-85849272D01*
X129340454Y-85840320D01*
X129334564Y-85832316D01*
X129329395Y-85825303D01*
X129324979Y-85819327D01*
X129321348Y-85814430D01*
X129318535Y-85810658D01*
X129316572Y-85808054D01*
X129315491Y-85806663D01*
X129315279Y-85806429D01*
X129314461Y-85806667D01*
X129312186Y-85807377D01*
X129308504Y-85808541D01*
X129303469Y-85810143D01*
X129297134Y-85812166D01*
X129289549Y-85814594D01*
X129280769Y-85817408D01*
X129270845Y-85820593D01*
X129259829Y-85824131D01*
X129247775Y-85828006D01*
X129234733Y-85832200D01*
X129220758Y-85836698D01*
X129205901Y-85841481D01*
X129190214Y-85846534D01*
X129173750Y-85851839D01*
X129156562Y-85857379D01*
X129138701Y-85863139D01*
X129120221Y-85869100D01*
X129101173Y-85875245D01*
X129081610Y-85881559D01*
X129061584Y-85888024D01*
X129041148Y-85894623D01*
X129030414Y-85898090D01*
X129009792Y-85904750D01*
X128989557Y-85911283D01*
X128969759Y-85917671D01*
X128950452Y-85923899D01*
X128931688Y-85929948D01*
X128913518Y-85935804D01*
X128895996Y-85941448D01*
X128879173Y-85946864D01*
X128863102Y-85952036D01*
X128847835Y-85956946D01*
X128833424Y-85961577D01*
X128819921Y-85965914D01*
X128807379Y-85969938D01*
X128795850Y-85973634D01*
X128785386Y-85976984D01*
X128776039Y-85979972D01*
X128767862Y-85982581D01*
X128760907Y-85984795D01*
X128755226Y-85986595D01*
X128750871Y-85987966D01*
X128747895Y-85988892D01*
X128746350Y-85989354D01*
X128746129Y-85989405D01*
X128746355Y-85988617D01*
X128747324Y-85986932D01*
X128748755Y-85984816D01*
X128749387Y-85983946D01*
X128750916Y-85981845D01*
X128753305Y-85978565D01*
X128756517Y-85974157D01*
X128760512Y-85968674D01*
X128765254Y-85962167D01*
X128770705Y-85954689D01*
X128776826Y-85946290D01*
X128783581Y-85937023D01*
X128790931Y-85926939D01*
X128798839Y-85916091D01*
X128807267Y-85904530D01*
X128816177Y-85892308D01*
X128825532Y-85879476D01*
X128835293Y-85866087D01*
X128845423Y-85852192D01*
X128855884Y-85837843D01*
X128866638Y-85823092D01*
X128877648Y-85807991D01*
X128888875Y-85792591D01*
X128900283Y-85776944D01*
X128911833Y-85761103D01*
X128923488Y-85745118D01*
X128935209Y-85729042D01*
X128946959Y-85712927D01*
X128958700Y-85696823D01*
X128970395Y-85680784D01*
X128982006Y-85664861D01*
X128993494Y-85649105D01*
X129004823Y-85633568D01*
X129015954Y-85618303D01*
X129026849Y-85603361D01*
X129037472Y-85588794D01*
X129047783Y-85574654D01*
X129057746Y-85560991D01*
X129067323Y-85547860D01*
X129076475Y-85535310D01*
X129085165Y-85523394D01*
X129091280Y-85515010D01*
X129097410Y-85506604D01*
X128921674Y-85265612D01*
X128908907Y-85248104D01*
X128896381Y-85230923D01*
X128884127Y-85214113D01*
X128872178Y-85197720D01*
X128860567Y-85181786D01*
X128849324Y-85166358D01*
X128838484Y-85151479D01*
X128828077Y-85137193D01*
X128818137Y-85123545D01*
X128808696Y-85110580D01*
X128799786Y-85098341D01*
X128791439Y-85086873D01*
X128783688Y-85076221D01*
X128776565Y-85066429D01*
X128770102Y-85057541D01*
X128764331Y-85049602D01*
X128759286Y-85042655D01*
X128754998Y-85036747D01*
X128751499Y-85031920D01*
X128748822Y-85028219D01*
X128747000Y-85025689D01*
X128746064Y-85024374D01*
X128745938Y-85024185D01*
X128746550Y-85023760D01*
X128746724Y-85023750D01*
X128747528Y-85023991D01*
X128749791Y-85024704D01*
X128753459Y-85025871D01*
X128758481Y-85027476D01*
X128764803Y-85029501D01*
X128772375Y-85031931D01*
X128781143Y-85034748D01*
X128791056Y-85037935D01*
X128802060Y-85041475D01*
X128814103Y-85045352D01*
X128827134Y-85049548D01*
X128841099Y-85054047D01*
X128855947Y-85058832D01*
X128871625Y-85063886D01*
X128888080Y-85069192D01*
X128905261Y-85074734D01*
X128923115Y-85080494D01*
X128941590Y-85086455D01*
X128960633Y-85092602D01*
X128980192Y-85098916D01*
X129000214Y-85105381D01*
X129020648Y-85111980D01*
X129031426Y-85115462D01*
X129056072Y-85123423D01*
X129079252Y-85130910D01*
X129101013Y-85137937D01*
X129121397Y-85144518D01*
X129140452Y-85150668D01*
X129158221Y-85156401D01*
X129174750Y-85161731D01*
X129190084Y-85166672D01*
X129204268Y-85171239D01*
X129217346Y-85175446D01*
X129229365Y-85179307D01*
X129240369Y-85182837D01*
X129250402Y-85186049D01*
X129259511Y-85188958D01*
X129267740Y-85191578D01*
X129275134Y-85193924D01*
X129281738Y-85196010D01*
X129287598Y-85197849D01*
X129292758Y-85199457D01*
X129297263Y-85200847D01*
X129301159Y-85202034D01*
X129304490Y-85203033D01*
X129307301Y-85203856D01*
X129309639Y-85204519D01*
X129311546Y-85205035D01*
X129313070Y-85205420D01*
X129314254Y-85205687D01*
X129315144Y-85205851D01*
X129315785Y-85205925D01*
X129316221Y-85205925D01*
X129316498Y-85205863D01*
X129316662Y-85205756D01*
X129316666Y-85205751D01*
X129317225Y-85205013D01*
X129318687Y-85203036D01*
X129321018Y-85199865D01*
X129324186Y-85195545D01*
X129328159Y-85190120D01*
X129332905Y-85183634D01*
X129338391Y-85176133D01*
X129344584Y-85167659D01*
X129351452Y-85158259D01*
X129358963Y-85147976D01*
X129367084Y-85136855D01*
X129375782Y-85124940D01*
X129385025Y-85112277D01*
X129394781Y-85098909D01*
X129405016Y-85084881D01*
X129415700Y-85070237D01*
X129426798Y-85055022D01*
X129438279Y-85039281D01*
X129450110Y-85023058D01*
X129462258Y-85006397D01*
X129474692Y-84989343D01*
X129487378Y-84971941D01*
X129494919Y-84961595D01*
X129671847Y-84718862D01*
X129672244Y-85020719D01*
X129672641Y-85322575D01*
X129956559Y-85414284D01*
X129977185Y-85420947D01*
X129997425Y-85427488D01*
X130017227Y-85433888D01*
X130036539Y-85440132D01*
X130055308Y-85446202D01*
X130073483Y-85452081D01*
X130091011Y-85457753D01*
X130107840Y-85463200D01*
X130123917Y-85468406D01*
X130139190Y-85473354D01*
X130153607Y-85478026D01*
X130167116Y-85482405D01*
X130179664Y-85486476D01*
X130191199Y-85490220D01*
X130201669Y-85493621D01*
X130211022Y-85496662D01*
X130219204Y-85499325D01*
X130226165Y-85501595D01*
X130231851Y-85503454D01*
X130236211Y-85504885D01*
X130239191Y-85505871D01*
X130240741Y-85506395D01*
X130240964Y-85506479D01*
X130240455Y-85506894D01*
X130240455Y-85506894D01*
G37*
X130240455Y-85506894D02*
X130238706Y-85507656D01*
X130235998Y-85508653D01*
X130232874Y-85509691D01*
X130231488Y-85510136D01*
X130228647Y-85511050D01*
X130224406Y-85512417D01*
X130218819Y-85514219D01*
X130211943Y-85516438D01*
X130203831Y-85519056D01*
X130194539Y-85522055D01*
X130184123Y-85525418D01*
X130172636Y-85529126D01*
X130160135Y-85533162D01*
X130146675Y-85537509D01*
X130132310Y-85542147D01*
X130117096Y-85547061D01*
X130101088Y-85552231D01*
X130084340Y-85557640D01*
X130066909Y-85563270D01*
X130048849Y-85569104D01*
X130030215Y-85575123D01*
X130011062Y-85581310D01*
X129991446Y-85587646D01*
X129971422Y-85594115D01*
X129951044Y-85600699D01*
X129948271Y-85601595D01*
X129672244Y-85690772D01*
X129672244Y-85992358D01*
X129672243Y-86019238D01*
X129672241Y-86044571D01*
X129672236Y-86068397D01*
X129672229Y-86090757D01*
X129672220Y-86111690D01*
X129672208Y-86131237D01*
X129672194Y-86149438D01*
X129672177Y-86166333D01*
X129672158Y-86181963D01*
X129672135Y-86196368D01*
X129672109Y-86209588D01*
X129672080Y-86221664D01*
X129672048Y-86232636D01*
X129672013Y-86242543D01*
X129671973Y-86251427D01*
X129671930Y-86259328D01*
X129671884Y-86266285D01*
X129671833Y-86272340D01*
X129671778Y-86277532D01*
X129671718Y-86281901D01*
X129671655Y-86285489D01*
X129671587Y-86288334D01*
X129671514Y-86290479D01*
X129671436Y-86291962D01*
X129671354Y-86292824D01*
X129671266Y-86293105D01*
X129671252Y-86293100D01*
X129670718Y-86292404D01*
X129669281Y-86290469D01*
X129666974Y-86287340D01*
X129663830Y-86283061D01*
X129659881Y-86277676D01*
X129655159Y-86271229D01*
X129649697Y-86263766D01*
X129643527Y-86255330D01*
X129636681Y-86245965D01*
X129629193Y-86235716D01*
X129621093Y-86224628D01*
X129612415Y-86212744D01*
X129603191Y-86200110D01*
X129593453Y-86186768D01*
X129583235Y-86172765D01*
X129572567Y-86158144D01*
X129561483Y-86142949D01*
X129550015Y-86127225D01*
X129538195Y-86111016D01*
X129526056Y-86094366D01*
X129513630Y-86077320D01*
X129500950Y-86059923D01*
X129493254Y-86049363D01*
X129480440Y-86031782D01*
X129467861Y-86014531D01*
X129455549Y-85997653D01*
X129443538Y-85981193D01*
X129431858Y-85965195D01*
X129420543Y-85949702D01*
X129409625Y-85934759D01*
X129399137Y-85920411D01*
X129389110Y-85906701D01*
X129379576Y-85893673D01*
X129370570Y-85881372D01*
X129362122Y-85869843D01*
X129354265Y-85859128D01*
X129347031Y-85849272D01*
X129340454Y-85840320D01*
X129334564Y-85832316D01*
X129329395Y-85825303D01*
X129324979Y-85819327D01*
X129321348Y-85814430D01*
X129318535Y-85810658D01*
X129316572Y-85808054D01*
X129315491Y-85806663D01*
X129315279Y-85806429D01*
X129314461Y-85806667D01*
X129312186Y-85807377D01*
X129308504Y-85808541D01*
X129303469Y-85810143D01*
X129297134Y-85812166D01*
X129289549Y-85814594D01*
X129280769Y-85817408D01*
X129270845Y-85820593D01*
X129259829Y-85824131D01*
X129247775Y-85828006D01*
X129234733Y-85832200D01*
X129220758Y-85836698D01*
X129205901Y-85841481D01*
X129190214Y-85846534D01*
X129173750Y-85851839D01*
X129156562Y-85857379D01*
X129138701Y-85863139D01*
X129120221Y-85869100D01*
X129101173Y-85875245D01*
X129081610Y-85881559D01*
X129061584Y-85888024D01*
X129041148Y-85894623D01*
X129030414Y-85898090D01*
X129009792Y-85904750D01*
X128989557Y-85911283D01*
X128969759Y-85917671D01*
X128950452Y-85923899D01*
X128931688Y-85929948D01*
X128913518Y-85935804D01*
X128895996Y-85941448D01*
X128879173Y-85946864D01*
X128863102Y-85952036D01*
X128847835Y-85956946D01*
X128833424Y-85961577D01*
X128819921Y-85965914D01*
X128807379Y-85969938D01*
X128795850Y-85973634D01*
X128785386Y-85976984D01*
X128776039Y-85979972D01*
X128767862Y-85982581D01*
X128760907Y-85984795D01*
X128755226Y-85986595D01*
X128750871Y-85987966D01*
X128747895Y-85988892D01*
X128746350Y-85989354D01*
X128746129Y-85989405D01*
X128746355Y-85988617D01*
X128747324Y-85986932D01*
X128748755Y-85984816D01*
X128749387Y-85983946D01*
X128750916Y-85981845D01*
X128753305Y-85978565D01*
X128756517Y-85974157D01*
X128760512Y-85968674D01*
X128765254Y-85962167D01*
X128770705Y-85954689D01*
X128776826Y-85946290D01*
X128783581Y-85937023D01*
X128790931Y-85926939D01*
X128798839Y-85916091D01*
X128807267Y-85904530D01*
X128816177Y-85892308D01*
X128825532Y-85879476D01*
X128835293Y-85866087D01*
X128845423Y-85852192D01*
X128855884Y-85837843D01*
X128866638Y-85823092D01*
X128877648Y-85807991D01*
X128888875Y-85792591D01*
X128900283Y-85776944D01*
X128911833Y-85761103D01*
X128923488Y-85745118D01*
X128935209Y-85729042D01*
X128946959Y-85712927D01*
X128958700Y-85696823D01*
X128970395Y-85680784D01*
X128982006Y-85664861D01*
X128993494Y-85649105D01*
X129004823Y-85633568D01*
X129015954Y-85618303D01*
X129026849Y-85603361D01*
X129037472Y-85588794D01*
X129047783Y-85574654D01*
X129057746Y-85560991D01*
X129067323Y-85547860D01*
X129076475Y-85535310D01*
X129085165Y-85523394D01*
X129091280Y-85515010D01*
X129097410Y-85506604D01*
X128921674Y-85265612D01*
X128908907Y-85248104D01*
X128896381Y-85230923D01*
X128884127Y-85214113D01*
X128872178Y-85197720D01*
X128860567Y-85181786D01*
X128849324Y-85166358D01*
X128838484Y-85151479D01*
X128828077Y-85137193D01*
X128818137Y-85123545D01*
X128808696Y-85110580D01*
X128799786Y-85098341D01*
X128791439Y-85086873D01*
X128783688Y-85076221D01*
X128776565Y-85066429D01*
X128770102Y-85057541D01*
X128764331Y-85049602D01*
X128759286Y-85042655D01*
X128754998Y-85036747D01*
X128751499Y-85031920D01*
X128748822Y-85028219D01*
X128747000Y-85025689D01*
X128746064Y-85024374D01*
X128745938Y-85024185D01*
X128746550Y-85023760D01*
X128746724Y-85023750D01*
X128747528Y-85023991D01*
X128749791Y-85024704D01*
X128753459Y-85025871D01*
X128758481Y-85027476D01*
X128764803Y-85029501D01*
X128772375Y-85031931D01*
X128781143Y-85034748D01*
X128791056Y-85037935D01*
X128802060Y-85041475D01*
X128814103Y-85045352D01*
X128827134Y-85049548D01*
X128841099Y-85054047D01*
X128855947Y-85058832D01*
X128871625Y-85063886D01*
X128888080Y-85069192D01*
X128905261Y-85074734D01*
X128923115Y-85080494D01*
X128941590Y-85086455D01*
X128960633Y-85092602D01*
X128980192Y-85098916D01*
X129000214Y-85105381D01*
X129020648Y-85111980D01*
X129031426Y-85115462D01*
X129056072Y-85123423D01*
X129079252Y-85130910D01*
X129101013Y-85137937D01*
X129121397Y-85144518D01*
X129140452Y-85150668D01*
X129158221Y-85156401D01*
X129174750Y-85161731D01*
X129190084Y-85166672D01*
X129204268Y-85171239D01*
X129217346Y-85175446D01*
X129229365Y-85179307D01*
X129240369Y-85182837D01*
X129250402Y-85186049D01*
X129259511Y-85188958D01*
X129267740Y-85191578D01*
X129275134Y-85193924D01*
X129281738Y-85196010D01*
X129287598Y-85197849D01*
X129292758Y-85199457D01*
X129297263Y-85200847D01*
X129301159Y-85202034D01*
X129304490Y-85203033D01*
X129307301Y-85203856D01*
X129309639Y-85204519D01*
X129311546Y-85205035D01*
X129313070Y-85205420D01*
X129314254Y-85205687D01*
X129315144Y-85205851D01*
X129315785Y-85205925D01*
X129316221Y-85205925D01*
X129316498Y-85205863D01*
X129316662Y-85205756D01*
X129316666Y-85205751D01*
X129317225Y-85205013D01*
X129318687Y-85203036D01*
X129321018Y-85199865D01*
X129324186Y-85195545D01*
X129328159Y-85190120D01*
X129332905Y-85183634D01*
X129338391Y-85176133D01*
X129344584Y-85167659D01*
X129351452Y-85158259D01*
X129358963Y-85147976D01*
X129367084Y-85136855D01*
X129375782Y-85124940D01*
X129385025Y-85112277D01*
X129394781Y-85098909D01*
X129405016Y-85084881D01*
X129415700Y-85070237D01*
X129426798Y-85055022D01*
X129438279Y-85039281D01*
X129450110Y-85023058D01*
X129462258Y-85006397D01*
X129474692Y-84989343D01*
X129487378Y-84971941D01*
X129494919Y-84961595D01*
X129671847Y-84718862D01*
X129672244Y-85020719D01*
X129672641Y-85322575D01*
X129956559Y-85414284D01*
X129977185Y-85420947D01*
X129997425Y-85427488D01*
X130017227Y-85433888D01*
X130036539Y-85440132D01*
X130055308Y-85446202D01*
X130073483Y-85452081D01*
X130091011Y-85457753D01*
X130107840Y-85463200D01*
X130123917Y-85468406D01*
X130139190Y-85473354D01*
X130153607Y-85478026D01*
X130167116Y-85482405D01*
X130179664Y-85486476D01*
X130191199Y-85490220D01*
X130201669Y-85493621D01*
X130211022Y-85496662D01*
X130219204Y-85499325D01*
X130226165Y-85501595D01*
X130231851Y-85503454D01*
X130236211Y-85504885D01*
X130239191Y-85505871D01*
X130240741Y-85506395D01*
X130240964Y-85506479D01*
X130240455Y-85506894D01*
G36*
X130240455Y-88006894D02*
X130238706Y-88007656D01*
X130235998Y-88008653D01*
X130232874Y-88009691D01*
X130231488Y-88010136D01*
X130228647Y-88011050D01*
X130224406Y-88012417D01*
X130218819Y-88014219D01*
X130211943Y-88016438D01*
X130203831Y-88019056D01*
X130194539Y-88022055D01*
X130184123Y-88025418D01*
X130172636Y-88029126D01*
X130160135Y-88033162D01*
X130146675Y-88037509D01*
X130132310Y-88042147D01*
X130117096Y-88047061D01*
X130101088Y-88052231D01*
X130084340Y-88057640D01*
X130066909Y-88063270D01*
X130048849Y-88069104D01*
X130030215Y-88075123D01*
X130011062Y-88081310D01*
X129991446Y-88087646D01*
X129971422Y-88094115D01*
X129951044Y-88100699D01*
X129948271Y-88101595D01*
X129672244Y-88190772D01*
X129672244Y-88492358D01*
X129672243Y-88519238D01*
X129672241Y-88544571D01*
X129672236Y-88568397D01*
X129672229Y-88590757D01*
X129672220Y-88611690D01*
X129672208Y-88631237D01*
X129672194Y-88649438D01*
X129672177Y-88666333D01*
X129672158Y-88681963D01*
X129672135Y-88696368D01*
X129672109Y-88709588D01*
X129672080Y-88721664D01*
X129672048Y-88732636D01*
X129672013Y-88742543D01*
X129671973Y-88751427D01*
X129671930Y-88759328D01*
X129671884Y-88766285D01*
X129671833Y-88772340D01*
X129671778Y-88777532D01*
X129671718Y-88781901D01*
X129671655Y-88785489D01*
X129671587Y-88788334D01*
X129671514Y-88790479D01*
X129671436Y-88791962D01*
X129671354Y-88792824D01*
X129671266Y-88793105D01*
X129671252Y-88793100D01*
X129670718Y-88792404D01*
X129669281Y-88790469D01*
X129666974Y-88787340D01*
X129663830Y-88783061D01*
X129659881Y-88777676D01*
X129655159Y-88771229D01*
X129649697Y-88763766D01*
X129643527Y-88755330D01*
X129636681Y-88745965D01*
X129629193Y-88735716D01*
X129621093Y-88724628D01*
X129612415Y-88712744D01*
X129603191Y-88700110D01*
X129593453Y-88686768D01*
X129583235Y-88672765D01*
X129572567Y-88658144D01*
X129561483Y-88642949D01*
X129550015Y-88627225D01*
X129538195Y-88611016D01*
X129526056Y-88594366D01*
X129513630Y-88577320D01*
X129500950Y-88559923D01*
X129493254Y-88549363D01*
X129480440Y-88531782D01*
X129467861Y-88514531D01*
X129455549Y-88497653D01*
X129443538Y-88481193D01*
X129431858Y-88465195D01*
X129420543Y-88449702D01*
X129409625Y-88434759D01*
X129399137Y-88420411D01*
X129389110Y-88406701D01*
X129379576Y-88393673D01*
X129370570Y-88381372D01*
X129362122Y-88369843D01*
X129354265Y-88359128D01*
X129347031Y-88349272D01*
X129340454Y-88340320D01*
X129334564Y-88332316D01*
X129329395Y-88325303D01*
X129324979Y-88319327D01*
X129321348Y-88314430D01*
X129318535Y-88310658D01*
X129316572Y-88308054D01*
X129315491Y-88306663D01*
X129315279Y-88306429D01*
X129314461Y-88306667D01*
X129312186Y-88307377D01*
X129308504Y-88308541D01*
X129303469Y-88310143D01*
X129297134Y-88312166D01*
X129289549Y-88314594D01*
X129280769Y-88317408D01*
X129270845Y-88320593D01*
X129259829Y-88324131D01*
X129247775Y-88328006D01*
X129234733Y-88332200D01*
X129220758Y-88336698D01*
X129205901Y-88341481D01*
X129190214Y-88346534D01*
X129173750Y-88351839D01*
X129156562Y-88357379D01*
X129138701Y-88363139D01*
X129120221Y-88369100D01*
X129101173Y-88375245D01*
X129081610Y-88381559D01*
X129061584Y-88388024D01*
X129041148Y-88394623D01*
X129030414Y-88398090D01*
X129009792Y-88404750D01*
X128989557Y-88411283D01*
X128969759Y-88417671D01*
X128950452Y-88423899D01*
X128931688Y-88429948D01*
X128913518Y-88435804D01*
X128895996Y-88441448D01*
X128879173Y-88446864D01*
X128863102Y-88452036D01*
X128847835Y-88456946D01*
X128833424Y-88461577D01*
X128819921Y-88465914D01*
X128807379Y-88469938D01*
X128795850Y-88473634D01*
X128785386Y-88476984D01*
X128776039Y-88479972D01*
X128767862Y-88482581D01*
X128760907Y-88484795D01*
X128755226Y-88486595D01*
X128750871Y-88487966D01*
X128747895Y-88488892D01*
X128746350Y-88489354D01*
X128746129Y-88489405D01*
X128746355Y-88488617D01*
X128747324Y-88486932D01*
X128748755Y-88484816D01*
X128749387Y-88483946D01*
X128750916Y-88481845D01*
X128753305Y-88478565D01*
X128756517Y-88474157D01*
X128760512Y-88468674D01*
X128765254Y-88462167D01*
X128770705Y-88454689D01*
X128776826Y-88446290D01*
X128783581Y-88437023D01*
X128790931Y-88426939D01*
X128798839Y-88416091D01*
X128807267Y-88404530D01*
X128816177Y-88392308D01*
X128825532Y-88379476D01*
X128835293Y-88366087D01*
X128845423Y-88352192D01*
X128855884Y-88337843D01*
X128866638Y-88323092D01*
X128877648Y-88307991D01*
X128888875Y-88292591D01*
X128900283Y-88276944D01*
X128911833Y-88261103D01*
X128923488Y-88245118D01*
X128935209Y-88229042D01*
X128946959Y-88212927D01*
X128958700Y-88196823D01*
X128970395Y-88180784D01*
X128982006Y-88164861D01*
X128993494Y-88149105D01*
X129004823Y-88133568D01*
X129015954Y-88118303D01*
X129026849Y-88103361D01*
X129037472Y-88088794D01*
X129047783Y-88074654D01*
X129057746Y-88060991D01*
X129067323Y-88047860D01*
X129076475Y-88035310D01*
X129085165Y-88023394D01*
X129091280Y-88015010D01*
X129097410Y-88006604D01*
X128921674Y-87765612D01*
X128908907Y-87748104D01*
X128896381Y-87730923D01*
X128884127Y-87714113D01*
X128872178Y-87697720D01*
X128860567Y-87681786D01*
X128849324Y-87666358D01*
X128838484Y-87651479D01*
X128828077Y-87637193D01*
X128818137Y-87623545D01*
X128808696Y-87610580D01*
X128799786Y-87598341D01*
X128791439Y-87586873D01*
X128783688Y-87576221D01*
X128776565Y-87566429D01*
X128770102Y-87557541D01*
X128764331Y-87549602D01*
X128759286Y-87542655D01*
X128754998Y-87536747D01*
X128751499Y-87531920D01*
X128748822Y-87528219D01*
X128747000Y-87525689D01*
X128746064Y-87524374D01*
X128745938Y-87524185D01*
X128746550Y-87523760D01*
X128746724Y-87523750D01*
X128747528Y-87523991D01*
X128749791Y-87524704D01*
X128753459Y-87525871D01*
X128758481Y-87527476D01*
X128764803Y-87529501D01*
X128772375Y-87531931D01*
X128781143Y-87534748D01*
X128791056Y-87537935D01*
X128802060Y-87541475D01*
X128814103Y-87545352D01*
X128827134Y-87549548D01*
X128841099Y-87554047D01*
X128855947Y-87558832D01*
X128871625Y-87563886D01*
X128888080Y-87569192D01*
X128905261Y-87574734D01*
X128923115Y-87580494D01*
X128941590Y-87586455D01*
X128960633Y-87592602D01*
X128980192Y-87598916D01*
X129000214Y-87605381D01*
X129020648Y-87611980D01*
X129031426Y-87615462D01*
X129056072Y-87623423D01*
X129079252Y-87630910D01*
X129101013Y-87637937D01*
X129121397Y-87644518D01*
X129140452Y-87650668D01*
X129158221Y-87656401D01*
X129174750Y-87661731D01*
X129190084Y-87666672D01*
X129204268Y-87671239D01*
X129217346Y-87675446D01*
X129229365Y-87679307D01*
X129240369Y-87682837D01*
X129250402Y-87686049D01*
X129259511Y-87688958D01*
X129267740Y-87691578D01*
X129275134Y-87693924D01*
X129281738Y-87696010D01*
X129287598Y-87697849D01*
X129292758Y-87699457D01*
X129297263Y-87700847D01*
X129301159Y-87702034D01*
X129304490Y-87703033D01*
X129307301Y-87703856D01*
X129309639Y-87704519D01*
X129311546Y-87705035D01*
X129313070Y-87705420D01*
X129314254Y-87705687D01*
X129315144Y-87705851D01*
X129315785Y-87705925D01*
X129316221Y-87705925D01*
X129316498Y-87705863D01*
X129316662Y-87705756D01*
X129316666Y-87705751D01*
X129317225Y-87705013D01*
X129318687Y-87703036D01*
X129321018Y-87699865D01*
X129324186Y-87695545D01*
X129328159Y-87690120D01*
X129332905Y-87683634D01*
X129338391Y-87676133D01*
X129344584Y-87667659D01*
X129351452Y-87658259D01*
X129358963Y-87647976D01*
X129367084Y-87636855D01*
X129375782Y-87624940D01*
X129385025Y-87612277D01*
X129394781Y-87598909D01*
X129405016Y-87584881D01*
X129415700Y-87570237D01*
X129426798Y-87555022D01*
X129438279Y-87539281D01*
X129450110Y-87523058D01*
X129462258Y-87506397D01*
X129474692Y-87489343D01*
X129487378Y-87471941D01*
X129494919Y-87461595D01*
X129671847Y-87218862D01*
X129672244Y-87520719D01*
X129672641Y-87822575D01*
X129956559Y-87914284D01*
X129977185Y-87920947D01*
X129997425Y-87927488D01*
X130017227Y-87933888D01*
X130036539Y-87940132D01*
X130055308Y-87946202D01*
X130073483Y-87952081D01*
X130091011Y-87957753D01*
X130107840Y-87963200D01*
X130123917Y-87968406D01*
X130139190Y-87973354D01*
X130153607Y-87978026D01*
X130167116Y-87982405D01*
X130179664Y-87986476D01*
X130191199Y-87990220D01*
X130201669Y-87993621D01*
X130211022Y-87996662D01*
X130219204Y-87999325D01*
X130226165Y-88001595D01*
X130231851Y-88003454D01*
X130236211Y-88004885D01*
X130239191Y-88005871D01*
X130240741Y-88006395D01*
X130240964Y-88006479D01*
X130240455Y-88006894D01*
X130240455Y-88006894D01*
G37*
X130240455Y-88006894D02*
X130238706Y-88007656D01*
X130235998Y-88008653D01*
X130232874Y-88009691D01*
X130231488Y-88010136D01*
X130228647Y-88011050D01*
X130224406Y-88012417D01*
X130218819Y-88014219D01*
X130211943Y-88016438D01*
X130203831Y-88019056D01*
X130194539Y-88022055D01*
X130184123Y-88025418D01*
X130172636Y-88029126D01*
X130160135Y-88033162D01*
X130146675Y-88037509D01*
X130132310Y-88042147D01*
X130117096Y-88047061D01*
X130101088Y-88052231D01*
X130084340Y-88057640D01*
X130066909Y-88063270D01*
X130048849Y-88069104D01*
X130030215Y-88075123D01*
X130011062Y-88081310D01*
X129991446Y-88087646D01*
X129971422Y-88094115D01*
X129951044Y-88100699D01*
X129948271Y-88101595D01*
X129672244Y-88190772D01*
X129672244Y-88492358D01*
X129672243Y-88519238D01*
X129672241Y-88544571D01*
X129672236Y-88568397D01*
X129672229Y-88590757D01*
X129672220Y-88611690D01*
X129672208Y-88631237D01*
X129672194Y-88649438D01*
X129672177Y-88666333D01*
X129672158Y-88681963D01*
X129672135Y-88696368D01*
X129672109Y-88709588D01*
X129672080Y-88721664D01*
X129672048Y-88732636D01*
X129672013Y-88742543D01*
X129671973Y-88751427D01*
X129671930Y-88759328D01*
X129671884Y-88766285D01*
X129671833Y-88772340D01*
X129671778Y-88777532D01*
X129671718Y-88781901D01*
X129671655Y-88785489D01*
X129671587Y-88788334D01*
X129671514Y-88790479D01*
X129671436Y-88791962D01*
X129671354Y-88792824D01*
X129671266Y-88793105D01*
X129671252Y-88793100D01*
X129670718Y-88792404D01*
X129669281Y-88790469D01*
X129666974Y-88787340D01*
X129663830Y-88783061D01*
X129659881Y-88777676D01*
X129655159Y-88771229D01*
X129649697Y-88763766D01*
X129643527Y-88755330D01*
X129636681Y-88745965D01*
X129629193Y-88735716D01*
X129621093Y-88724628D01*
X129612415Y-88712744D01*
X129603191Y-88700110D01*
X129593453Y-88686768D01*
X129583235Y-88672765D01*
X129572567Y-88658144D01*
X129561483Y-88642949D01*
X129550015Y-88627225D01*
X129538195Y-88611016D01*
X129526056Y-88594366D01*
X129513630Y-88577320D01*
X129500950Y-88559923D01*
X129493254Y-88549363D01*
X129480440Y-88531782D01*
X129467861Y-88514531D01*
X129455549Y-88497653D01*
X129443538Y-88481193D01*
X129431858Y-88465195D01*
X129420543Y-88449702D01*
X129409625Y-88434759D01*
X129399137Y-88420411D01*
X129389110Y-88406701D01*
X129379576Y-88393673D01*
X129370570Y-88381372D01*
X129362122Y-88369843D01*
X129354265Y-88359128D01*
X129347031Y-88349272D01*
X129340454Y-88340320D01*
X129334564Y-88332316D01*
X129329395Y-88325303D01*
X129324979Y-88319327D01*
X129321348Y-88314430D01*
X129318535Y-88310658D01*
X129316572Y-88308054D01*
X129315491Y-88306663D01*
X129315279Y-88306429D01*
X129314461Y-88306667D01*
X129312186Y-88307377D01*
X129308504Y-88308541D01*
X129303469Y-88310143D01*
X129297134Y-88312166D01*
X129289549Y-88314594D01*
X129280769Y-88317408D01*
X129270845Y-88320593D01*
X129259829Y-88324131D01*
X129247775Y-88328006D01*
X129234733Y-88332200D01*
X129220758Y-88336698D01*
X129205901Y-88341481D01*
X129190214Y-88346534D01*
X129173750Y-88351839D01*
X129156562Y-88357379D01*
X129138701Y-88363139D01*
X129120221Y-88369100D01*
X129101173Y-88375245D01*
X129081610Y-88381559D01*
X129061584Y-88388024D01*
X129041148Y-88394623D01*
X129030414Y-88398090D01*
X129009792Y-88404750D01*
X128989557Y-88411283D01*
X128969759Y-88417671D01*
X128950452Y-88423899D01*
X128931688Y-88429948D01*
X128913518Y-88435804D01*
X128895996Y-88441448D01*
X128879173Y-88446864D01*
X128863102Y-88452036D01*
X128847835Y-88456946D01*
X128833424Y-88461577D01*
X128819921Y-88465914D01*
X128807379Y-88469938D01*
X128795850Y-88473634D01*
X128785386Y-88476984D01*
X128776039Y-88479972D01*
X128767862Y-88482581D01*
X128760907Y-88484795D01*
X128755226Y-88486595D01*
X128750871Y-88487966D01*
X128747895Y-88488892D01*
X128746350Y-88489354D01*
X128746129Y-88489405D01*
X128746355Y-88488617D01*
X128747324Y-88486932D01*
X128748755Y-88484816D01*
X128749387Y-88483946D01*
X128750916Y-88481845D01*
X128753305Y-88478565D01*
X128756517Y-88474157D01*
X128760512Y-88468674D01*
X128765254Y-88462167D01*
X128770705Y-88454689D01*
X128776826Y-88446290D01*
X128783581Y-88437023D01*
X128790931Y-88426939D01*
X128798839Y-88416091D01*
X128807267Y-88404530D01*
X128816177Y-88392308D01*
X128825532Y-88379476D01*
X128835293Y-88366087D01*
X128845423Y-88352192D01*
X128855884Y-88337843D01*
X128866638Y-88323092D01*
X128877648Y-88307991D01*
X128888875Y-88292591D01*
X128900283Y-88276944D01*
X128911833Y-88261103D01*
X128923488Y-88245118D01*
X128935209Y-88229042D01*
X128946959Y-88212927D01*
X128958700Y-88196823D01*
X128970395Y-88180784D01*
X128982006Y-88164861D01*
X128993494Y-88149105D01*
X129004823Y-88133568D01*
X129015954Y-88118303D01*
X129026849Y-88103361D01*
X129037472Y-88088794D01*
X129047783Y-88074654D01*
X129057746Y-88060991D01*
X129067323Y-88047860D01*
X129076475Y-88035310D01*
X129085165Y-88023394D01*
X129091280Y-88015010D01*
X129097410Y-88006604D01*
X128921674Y-87765612D01*
X128908907Y-87748104D01*
X128896381Y-87730923D01*
X128884127Y-87714113D01*
X128872178Y-87697720D01*
X128860567Y-87681786D01*
X128849324Y-87666358D01*
X128838484Y-87651479D01*
X128828077Y-87637193D01*
X128818137Y-87623545D01*
X128808696Y-87610580D01*
X128799786Y-87598341D01*
X128791439Y-87586873D01*
X128783688Y-87576221D01*
X128776565Y-87566429D01*
X128770102Y-87557541D01*
X128764331Y-87549602D01*
X128759286Y-87542655D01*
X128754998Y-87536747D01*
X128751499Y-87531920D01*
X128748822Y-87528219D01*
X128747000Y-87525689D01*
X128746064Y-87524374D01*
X128745938Y-87524185D01*
X128746550Y-87523760D01*
X128746724Y-87523750D01*
X128747528Y-87523991D01*
X128749791Y-87524704D01*
X128753459Y-87525871D01*
X128758481Y-87527476D01*
X128764803Y-87529501D01*
X128772375Y-87531931D01*
X128781143Y-87534748D01*
X128791056Y-87537935D01*
X128802060Y-87541475D01*
X128814103Y-87545352D01*
X128827134Y-87549548D01*
X128841099Y-87554047D01*
X128855947Y-87558832D01*
X128871625Y-87563886D01*
X128888080Y-87569192D01*
X128905261Y-87574734D01*
X128923115Y-87580494D01*
X128941590Y-87586455D01*
X128960633Y-87592602D01*
X128980192Y-87598916D01*
X129000214Y-87605381D01*
X129020648Y-87611980D01*
X129031426Y-87615462D01*
X129056072Y-87623423D01*
X129079252Y-87630910D01*
X129101013Y-87637937D01*
X129121397Y-87644518D01*
X129140452Y-87650668D01*
X129158221Y-87656401D01*
X129174750Y-87661731D01*
X129190084Y-87666672D01*
X129204268Y-87671239D01*
X129217346Y-87675446D01*
X129229365Y-87679307D01*
X129240369Y-87682837D01*
X129250402Y-87686049D01*
X129259511Y-87688958D01*
X129267740Y-87691578D01*
X129275134Y-87693924D01*
X129281738Y-87696010D01*
X129287598Y-87697849D01*
X129292758Y-87699457D01*
X129297263Y-87700847D01*
X129301159Y-87702034D01*
X129304490Y-87703033D01*
X129307301Y-87703856D01*
X129309639Y-87704519D01*
X129311546Y-87705035D01*
X129313070Y-87705420D01*
X129314254Y-87705687D01*
X129315144Y-87705851D01*
X129315785Y-87705925D01*
X129316221Y-87705925D01*
X129316498Y-87705863D01*
X129316662Y-87705756D01*
X129316666Y-87705751D01*
X129317225Y-87705013D01*
X129318687Y-87703036D01*
X129321018Y-87699865D01*
X129324186Y-87695545D01*
X129328159Y-87690120D01*
X129332905Y-87683634D01*
X129338391Y-87676133D01*
X129344584Y-87667659D01*
X129351452Y-87658259D01*
X129358963Y-87647976D01*
X129367084Y-87636855D01*
X129375782Y-87624940D01*
X129385025Y-87612277D01*
X129394781Y-87598909D01*
X129405016Y-87584881D01*
X129415700Y-87570237D01*
X129426798Y-87555022D01*
X129438279Y-87539281D01*
X129450110Y-87523058D01*
X129462258Y-87506397D01*
X129474692Y-87489343D01*
X129487378Y-87471941D01*
X129494919Y-87461595D01*
X129671847Y-87218862D01*
X129672244Y-87520719D01*
X129672641Y-87822575D01*
X129956559Y-87914284D01*
X129977185Y-87920947D01*
X129997425Y-87927488D01*
X130017227Y-87933888D01*
X130036539Y-87940132D01*
X130055308Y-87946202D01*
X130073483Y-87952081D01*
X130091011Y-87957753D01*
X130107840Y-87963200D01*
X130123917Y-87968406D01*
X130139190Y-87973354D01*
X130153607Y-87978026D01*
X130167116Y-87982405D01*
X130179664Y-87986476D01*
X130191199Y-87990220D01*
X130201669Y-87993621D01*
X130211022Y-87996662D01*
X130219204Y-87999325D01*
X130226165Y-88001595D01*
X130231851Y-88003454D01*
X130236211Y-88004885D01*
X130239191Y-88005871D01*
X130240741Y-88006395D01*
X130240964Y-88006479D01*
X130240455Y-88006894D01*
D11*
X151333334Y-76202381D02*
X151000000Y-75726190D01*
X150761905Y-76202381D02*
X150761905Y-75202381D01*
X151142858Y-75202381D01*
X151238096Y-75250000D01*
X151285715Y-75297619D01*
X151333334Y-75392857D01*
X151333334Y-75535714D01*
X151285715Y-75630952D01*
X151238096Y-75678571D01*
X151142858Y-75726190D01*
X150761905Y-75726190D01*
X152285715Y-76202381D02*
X151714286Y-76202381D01*
X152000000Y-76202381D02*
X152000000Y-75202381D01*
X151904762Y-75345238D01*
X151809524Y-75440476D01*
X151714286Y-75488095D01*
X157583334Y-76202381D02*
X157250000Y-75726190D01*
X157011905Y-76202381D02*
X157011905Y-75202381D01*
X157392858Y-75202381D01*
X157488096Y-75250000D01*
X157535715Y-75297619D01*
X157583334Y-75392857D01*
X157583334Y-75535714D01*
X157535715Y-75630952D01*
X157488096Y-75678571D01*
X157392858Y-75726190D01*
X157011905Y-75726190D01*
X157964286Y-75297619D02*
X158011905Y-75250000D01*
X158107143Y-75202381D01*
X158345239Y-75202381D01*
X158440477Y-75250000D01*
X158488096Y-75297619D01*
X158535715Y-75392857D01*
X158535715Y-75488095D01*
X158488096Y-75630952D01*
X157916667Y-76202381D01*
X158535715Y-76202381D01*
X131940477Y-86678571D02*
X132083334Y-86726190D01*
X132130953Y-86773810D01*
X132178572Y-86869048D01*
X132178572Y-87011905D01*
X132130953Y-87107143D01*
X132083334Y-87154762D01*
X131988096Y-87202381D01*
X131607143Y-87202381D01*
X131607143Y-86202381D01*
X131940477Y-86202381D01*
X132035715Y-86250000D01*
X132083334Y-86297619D01*
X132130953Y-86392857D01*
X132130953Y-86488095D01*
X132083334Y-86583333D01*
X132035715Y-86630952D01*
X131940477Y-86678571D01*
X131607143Y-86678571D01*
X132464286Y-86202381D02*
X133035715Y-86202381D01*
X132750000Y-87202381D02*
X132750000Y-86202381D01*
X133369048Y-87202381D02*
X133369048Y-86202381D01*
X133940477Y-87202381D01*
X133940477Y-86202381D01*
X134940477Y-87202381D02*
X134369048Y-87202381D01*
X134654762Y-87202381D02*
X134654762Y-86202381D01*
X134559524Y-86345238D01*
X134464286Y-86440476D01*
X134369048Y-86488095D01*
X131940477Y-93928571D02*
X132083334Y-93976190D01*
X132130953Y-94023810D01*
X132178572Y-94119048D01*
X132178572Y-94261905D01*
X132130953Y-94357143D01*
X132083334Y-94404762D01*
X131988096Y-94452381D01*
X131607143Y-94452381D01*
X131607143Y-93452381D01*
X131940477Y-93452381D01*
X132035715Y-93500000D01*
X132083334Y-93547619D01*
X132130953Y-93642857D01*
X132130953Y-93738095D01*
X132083334Y-93833333D01*
X132035715Y-93880952D01*
X131940477Y-93928571D01*
X131607143Y-93928571D01*
X132464286Y-93452381D02*
X133035715Y-93452381D01*
X132750000Y-94452381D02*
X132750000Y-93452381D01*
X133369048Y-94452381D02*
X133369048Y-93452381D01*
X133940477Y-94452381D01*
X133940477Y-93452381D01*
X134369048Y-93547619D02*
X134416667Y-93500000D01*
X134511905Y-93452381D01*
X134750001Y-93452381D01*
X134845239Y-93500000D01*
X134892858Y-93547619D01*
X134940477Y-93642857D01*
X134940477Y-93738095D01*
X134892858Y-93880952D01*
X134321429Y-94452381D01*
X134940477Y-94452381D01*
X131940477Y-79178571D02*
X132083334Y-79226190D01*
X132130953Y-79273810D01*
X132178572Y-79369048D01*
X132178572Y-79511905D01*
X132130953Y-79607143D01*
X132083334Y-79654762D01*
X131988096Y-79702381D01*
X131607143Y-79702381D01*
X131607143Y-78702381D01*
X131940477Y-78702381D01*
X132035715Y-78750000D01*
X132083334Y-78797619D01*
X132130953Y-78892857D01*
X132130953Y-78988095D01*
X132083334Y-79083333D01*
X132035715Y-79130952D01*
X131940477Y-79178571D01*
X131607143Y-79178571D01*
X132464286Y-78702381D02*
X133035715Y-78702381D01*
X132750000Y-79702381D02*
X132750000Y-78702381D01*
X133369048Y-79702381D02*
X133369048Y-78702381D01*
X133940477Y-79702381D01*
X133940477Y-78702381D01*
X134321429Y-78702381D02*
X134940477Y-78702381D01*
X134607143Y-79083333D01*
X134750001Y-79083333D01*
X134845239Y-79130952D01*
X134892858Y-79178571D01*
X134940477Y-79273810D01*
X134940477Y-79511905D01*
X134892858Y-79607143D01*
X134845239Y-79654762D01*
X134750001Y-79702381D01*
X134464286Y-79702381D01*
X134369048Y-79654762D01*
X134321429Y-79607143D01*
X167928571Y-99476190D02*
X167928571Y-99809524D01*
X168452381Y-99809524D02*
X167452381Y-99809524D01*
X167452381Y-99333333D01*
X167452381Y-99095238D02*
X167452381Y-98523809D01*
X168452381Y-98809524D02*
X167452381Y-98809524D01*
X168452381Y-98190476D02*
X167452381Y-98190476D01*
X167452381Y-97952381D01*
X167500000Y-97809523D01*
X167595238Y-97714285D01*
X167690476Y-97666666D01*
X167880952Y-97619047D01*
X168023810Y-97619047D01*
X168214286Y-97666666D01*
X168309524Y-97714285D01*
X168404762Y-97809523D01*
X168452381Y-97952381D01*
X168452381Y-98190476D01*
X168452381Y-97190476D02*
X167452381Y-97190476D01*
M02*
