G04 #@! TF.FileFunction,Legend,Top*
%FSLAX46Y46*%
G04 Gerber Fmt 4.6, Leading zero omitted, Abs format (unit mm)*
G04 Created by KiCad (PCBNEW 4.0.5+dfsg1-4) date Thu Sep 14 16:41:18 2017*
%MOMM*%
%LPD*%
G01*
G04 APERTURE LIST*
%ADD10C,0.100000*%
%ADD11C,0.200000*%
%ADD12C,0.300000*%
%ADD13C,0.127000*%
%ADD14C,0.010000*%
%ADD15C,0.152400*%
%ADD16C,0.120000*%
%ADD17C,0.150000*%
G04 APERTURE END LIST*
D10*
D11*
X119261905Y-79166667D02*
X119738096Y-79166667D01*
X119166667Y-79452381D02*
X119500000Y-78452381D01*
X119833334Y-79452381D01*
X120166667Y-79452381D02*
X120166667Y-78452381D01*
X120404762Y-78452381D01*
X120547620Y-78500000D01*
X120642858Y-78595238D01*
X120690477Y-78690476D01*
X120738096Y-78880952D01*
X120738096Y-79023810D01*
X120690477Y-79214286D01*
X120642858Y-79309524D01*
X120547620Y-79404762D01*
X120404762Y-79452381D01*
X120166667Y-79452381D01*
X121738096Y-79357143D02*
X121690477Y-79404762D01*
X121547620Y-79452381D01*
X121452382Y-79452381D01*
X121309524Y-79404762D01*
X121214286Y-79309524D01*
X121166667Y-79214286D01*
X121119048Y-79023810D01*
X121119048Y-78880952D01*
X121166667Y-78690476D01*
X121214286Y-78595238D01*
X121309524Y-78500000D01*
X121452382Y-78452381D01*
X121547620Y-78452381D01*
X121690477Y-78500000D01*
X121738096Y-78547619D01*
X100023810Y-93500000D02*
X99928572Y-93452381D01*
X99785715Y-93452381D01*
X99642857Y-93500000D01*
X99547619Y-93595238D01*
X99500000Y-93690476D01*
X99452381Y-93880952D01*
X99452381Y-94023810D01*
X99500000Y-94214286D01*
X99547619Y-94309524D01*
X99642857Y-94404762D01*
X99785715Y-94452381D01*
X99880953Y-94452381D01*
X100023810Y-94404762D01*
X100071429Y-94357143D01*
X100071429Y-94023810D01*
X99880953Y-94023810D01*
X100500000Y-94452381D02*
X100500000Y-93452381D01*
X100880953Y-93452381D01*
X100976191Y-93500000D01*
X101023810Y-93547619D01*
X101071429Y-93642857D01*
X101071429Y-93785714D01*
X101023810Y-93880952D01*
X100976191Y-93928571D01*
X100880953Y-93976190D01*
X100500000Y-93976190D01*
X101500000Y-94452381D02*
X101500000Y-93452381D01*
X102166666Y-93452381D02*
X102357143Y-93452381D01*
X102452381Y-93500000D01*
X102547619Y-93595238D01*
X102595238Y-93785714D01*
X102595238Y-94119048D01*
X102547619Y-94309524D01*
X102452381Y-94404762D01*
X102357143Y-94452381D01*
X102166666Y-94452381D01*
X102071428Y-94404762D01*
X101976190Y-94309524D01*
X101928571Y-94119048D01*
X101928571Y-93785714D01*
X101976190Y-93595238D01*
X102071428Y-93500000D01*
X102166666Y-93452381D01*
X103500000Y-93452381D02*
X103023809Y-93452381D01*
X102976190Y-93928571D01*
X103023809Y-93880952D01*
X103119047Y-93833333D01*
X103357143Y-93833333D01*
X103452381Y-93880952D01*
X103500000Y-93928571D01*
X103547619Y-94023810D01*
X103547619Y-94261905D01*
X103500000Y-94357143D01*
X103452381Y-94404762D01*
X103357143Y-94452381D01*
X103119047Y-94452381D01*
X103023809Y-94404762D01*
X102976190Y-94357143D01*
X106523810Y-93500000D02*
X106428572Y-93452381D01*
X106285715Y-93452381D01*
X106142857Y-93500000D01*
X106047619Y-93595238D01*
X106000000Y-93690476D01*
X105952381Y-93880952D01*
X105952381Y-94023810D01*
X106000000Y-94214286D01*
X106047619Y-94309524D01*
X106142857Y-94404762D01*
X106285715Y-94452381D01*
X106380953Y-94452381D01*
X106523810Y-94404762D01*
X106571429Y-94357143D01*
X106571429Y-94023810D01*
X106380953Y-94023810D01*
X107000000Y-94452381D02*
X107000000Y-93452381D01*
X107380953Y-93452381D01*
X107476191Y-93500000D01*
X107523810Y-93547619D01*
X107571429Y-93642857D01*
X107571429Y-93785714D01*
X107523810Y-93880952D01*
X107476191Y-93928571D01*
X107380953Y-93976190D01*
X107000000Y-93976190D01*
X108000000Y-94452381D02*
X108000000Y-93452381D01*
X108666666Y-93452381D02*
X108857143Y-93452381D01*
X108952381Y-93500000D01*
X109047619Y-93595238D01*
X109095238Y-93785714D01*
X109095238Y-94119048D01*
X109047619Y-94309524D01*
X108952381Y-94404762D01*
X108857143Y-94452381D01*
X108666666Y-94452381D01*
X108571428Y-94404762D01*
X108476190Y-94309524D01*
X108428571Y-94119048D01*
X108428571Y-93785714D01*
X108476190Y-93595238D01*
X108571428Y-93500000D01*
X108666666Y-93452381D01*
X109952381Y-93785714D02*
X109952381Y-94452381D01*
X109714285Y-93404762D02*
X109476190Y-94119048D01*
X110095238Y-94119048D01*
X113738096Y-93500000D02*
X113642858Y-93452381D01*
X113500001Y-93452381D01*
X113357143Y-93500000D01*
X113261905Y-93595238D01*
X113214286Y-93690476D01*
X113166667Y-93880952D01*
X113166667Y-94023810D01*
X113214286Y-94214286D01*
X113261905Y-94309524D01*
X113357143Y-94404762D01*
X113500001Y-94452381D01*
X113595239Y-94452381D01*
X113738096Y-94404762D01*
X113785715Y-94357143D01*
X113785715Y-94023810D01*
X113595239Y-94023810D01*
X114214286Y-94452381D02*
X114214286Y-93452381D01*
X114785715Y-94452381D01*
X114785715Y-93452381D01*
X115261905Y-94452381D02*
X115261905Y-93452381D01*
X115500000Y-93452381D01*
X115642858Y-93500000D01*
X115738096Y-93595238D01*
X115785715Y-93690476D01*
X115833334Y-93880952D01*
X115833334Y-94023810D01*
X115785715Y-94214286D01*
X115738096Y-94309524D01*
X115642858Y-94404762D01*
X115500000Y-94452381D01*
X115261905Y-94452381D01*
X119023810Y-93500000D02*
X118928572Y-93452381D01*
X118785715Y-93452381D01*
X118642857Y-93500000D01*
X118547619Y-93595238D01*
X118500000Y-93690476D01*
X118452381Y-93880952D01*
X118452381Y-94023810D01*
X118500000Y-94214286D01*
X118547619Y-94309524D01*
X118642857Y-94404762D01*
X118785715Y-94452381D01*
X118880953Y-94452381D01*
X119023810Y-94404762D01*
X119071429Y-94357143D01*
X119071429Y-94023810D01*
X118880953Y-94023810D01*
X119500000Y-94452381D02*
X119500000Y-93452381D01*
X119880953Y-93452381D01*
X119976191Y-93500000D01*
X120023810Y-93547619D01*
X120071429Y-93642857D01*
X120071429Y-93785714D01*
X120023810Y-93880952D01*
X119976191Y-93928571D01*
X119880953Y-93976190D01*
X119500000Y-93976190D01*
X120500000Y-94452381D02*
X120500000Y-93452381D01*
X121166666Y-93452381D02*
X121357143Y-93452381D01*
X121452381Y-93500000D01*
X121547619Y-93595238D01*
X121595238Y-93785714D01*
X121595238Y-94119048D01*
X121547619Y-94309524D01*
X121452381Y-94404762D01*
X121357143Y-94452381D01*
X121166666Y-94452381D01*
X121071428Y-94404762D01*
X120976190Y-94309524D01*
X120928571Y-94119048D01*
X120928571Y-93785714D01*
X120976190Y-93595238D01*
X121071428Y-93500000D01*
X121166666Y-93452381D01*
X122214285Y-93452381D02*
X122309524Y-93452381D01*
X122404762Y-93500000D01*
X122452381Y-93547619D01*
X122500000Y-93642857D01*
X122547619Y-93833333D01*
X122547619Y-94071429D01*
X122500000Y-94261905D01*
X122452381Y-94357143D01*
X122404762Y-94404762D01*
X122309524Y-94452381D01*
X122214285Y-94452381D01*
X122119047Y-94404762D01*
X122071428Y-94357143D01*
X122023809Y-94261905D01*
X121976190Y-94071429D01*
X121976190Y-93833333D01*
X122023809Y-93642857D01*
X122071428Y-93547619D01*
X122119047Y-93500000D01*
X122214285Y-93452381D01*
D12*
X105511162Y-86702001D02*
X105617600Y-86786667D01*
X105724038Y-86956001D01*
X105724038Y-87379334D01*
X105617600Y-87548667D01*
X105511162Y-87633334D01*
X105298286Y-87718001D01*
X105085410Y-87718001D01*
X104766095Y-87633334D01*
X103488838Y-86617334D01*
X103488838Y-87718001D01*
X105724038Y-88818667D02*
X105724038Y-88988000D01*
X105617600Y-89157334D01*
X105511162Y-89242000D01*
X105298286Y-89326667D01*
X104872533Y-89411334D01*
X104340343Y-89411334D01*
X103914590Y-89326667D01*
X103701714Y-89242000D01*
X103595276Y-89157334D01*
X103488838Y-88988000D01*
X103488838Y-88818667D01*
X103595276Y-88649334D01*
X103701714Y-88564667D01*
X103914590Y-88480000D01*
X104340343Y-88395334D01*
X104872533Y-88395334D01*
X105298286Y-88480000D01*
X105511162Y-88564667D01*
X105617600Y-88649334D01*
X105724038Y-88818667D01*
X103488838Y-91104667D02*
X103488838Y-90088667D01*
X103488838Y-90596667D02*
X105724038Y-90596667D01*
X105404724Y-90427333D01*
X105191848Y-90258000D01*
X105085410Y-90088667D01*
X105724038Y-91697333D02*
X105724038Y-92882666D01*
X103488838Y-92120666D01*
D13*
X150364096Y-72990071D02*
X150702763Y-74490071D01*
X151041429Y-72990071D01*
X151380096Y-74490071D02*
X151380096Y-73490071D01*
X151380096Y-72990071D02*
X151331715Y-73061500D01*
X151380096Y-73132929D01*
X151428477Y-73061500D01*
X151380096Y-72990071D01*
X151380096Y-73132929D01*
X151815525Y-74418643D02*
X151912287Y-74490071D01*
X152105811Y-74490071D01*
X152202572Y-74418643D01*
X152250953Y-74275786D01*
X152250953Y-74204357D01*
X152202572Y-74061500D01*
X152105811Y-73990071D01*
X151960668Y-73990071D01*
X151863906Y-73918643D01*
X151815525Y-73775786D01*
X151815525Y-73704357D01*
X151863906Y-73561500D01*
X151960668Y-73490071D01*
X152105811Y-73490071D01*
X152202572Y-73561500D01*
X152686382Y-74490071D02*
X152686382Y-73490071D01*
X152686382Y-72990071D02*
X152638001Y-73061500D01*
X152686382Y-73132929D01*
X152734763Y-73061500D01*
X152686382Y-72990071D01*
X152686382Y-73132929D01*
X153025049Y-73490071D02*
X153412097Y-73490071D01*
X153170192Y-72990071D02*
X153170192Y-74275786D01*
X153218573Y-74418643D01*
X153315335Y-74490071D01*
X153412097Y-74490071D01*
X154524858Y-74490071D02*
X154524858Y-72990071D01*
X154524858Y-73561500D02*
X154621620Y-73490071D01*
X154815143Y-73490071D01*
X154911905Y-73561500D01*
X154960286Y-73632929D01*
X155008667Y-73775786D01*
X155008667Y-74204357D01*
X154960286Y-74347214D01*
X154911905Y-74418643D01*
X154815143Y-74490071D01*
X154621620Y-74490071D01*
X154524858Y-74418643D01*
X155444096Y-74490071D02*
X155444096Y-73490071D01*
X155444096Y-72990071D02*
X155395715Y-73061500D01*
X155444096Y-73132929D01*
X155492477Y-73061500D01*
X155444096Y-72990071D01*
X155444096Y-73132929D01*
X155782763Y-73490071D02*
X156169811Y-73490071D01*
X155927906Y-72990071D02*
X155927906Y-74275786D01*
X155976287Y-74418643D01*
X156073049Y-74490071D01*
X156169811Y-74490071D01*
X156508477Y-74347214D02*
X156556858Y-74418643D01*
X156508477Y-74490071D01*
X156460096Y-74418643D01*
X156508477Y-74347214D01*
X156508477Y-74490071D01*
X157137430Y-74490071D02*
X157040668Y-74418643D01*
X156992287Y-74275786D01*
X156992287Y-72990071D01*
X157427715Y-73490071D02*
X157669620Y-74490071D01*
X157911524Y-73490071D02*
X157669620Y-74490071D01*
X157572858Y-74847214D01*
X157524477Y-74918643D01*
X157427715Y-74990071D01*
X159024286Y-72918643D02*
X158153429Y-74847214D01*
X159362953Y-73490071D02*
X159362953Y-74990071D01*
X159362953Y-73561500D02*
X159459715Y-73490071D01*
X159653238Y-73490071D01*
X159750000Y-73561500D01*
X159798381Y-73632929D01*
X159846762Y-73775786D01*
X159846762Y-74204357D01*
X159798381Y-74347214D01*
X159750000Y-74418643D01*
X159653238Y-74490071D01*
X159459715Y-74490071D01*
X159362953Y-74418643D01*
X160669238Y-74418643D02*
X160572476Y-74490071D01*
X160378953Y-74490071D01*
X160282191Y-74418643D01*
X160233810Y-74275786D01*
X160233810Y-73704357D01*
X160282191Y-73561500D01*
X160378953Y-73490071D01*
X160572476Y-73490071D01*
X160669238Y-73561500D01*
X160717619Y-73704357D01*
X160717619Y-73847214D01*
X160233810Y-73990071D01*
X161588476Y-74490071D02*
X161588476Y-73704357D01*
X161540095Y-73561500D01*
X161443333Y-73490071D01*
X161249810Y-73490071D01*
X161153048Y-73561500D01*
X161588476Y-74418643D02*
X161491714Y-74490071D01*
X161249810Y-74490071D01*
X161153048Y-74418643D01*
X161104667Y-74275786D01*
X161104667Y-74132929D01*
X161153048Y-73990071D01*
X161249810Y-73918643D01*
X161491714Y-73918643D01*
X161588476Y-73847214D01*
X162072286Y-73490071D02*
X162072286Y-74990071D01*
X162072286Y-73561500D02*
X162169048Y-73490071D01*
X162362571Y-73490071D01*
X162459333Y-73561500D01*
X162507714Y-73632929D01*
X162556095Y-73775786D01*
X162556095Y-74204357D01*
X162507714Y-74347214D01*
X162459333Y-74418643D01*
X162362571Y-74490071D01*
X162169048Y-74490071D01*
X162072286Y-74418643D01*
X163136667Y-74490071D02*
X163039905Y-74418643D01*
X162991524Y-74347214D01*
X162943143Y-74204357D01*
X162943143Y-73775786D01*
X162991524Y-73632929D01*
X163039905Y-73561500D01*
X163136667Y-73490071D01*
X163281809Y-73490071D01*
X163378571Y-73561500D01*
X163426952Y-73632929D01*
X163475333Y-73775786D01*
X163475333Y-74204357D01*
X163426952Y-74347214D01*
X163378571Y-74418643D01*
X163281809Y-74490071D01*
X163136667Y-74490071D01*
X164346190Y-74490071D02*
X164346190Y-72990071D01*
X164346190Y-74418643D02*
X164249428Y-74490071D01*
X164055905Y-74490071D01*
X163959143Y-74418643D01*
X163910762Y-74347214D01*
X163862381Y-74204357D01*
X163862381Y-73775786D01*
X163910762Y-73632929D01*
X163959143Y-73561500D01*
X164055905Y-73490071D01*
X164249428Y-73490071D01*
X164346190Y-73561500D01*
X164781619Y-73132929D02*
X164830000Y-73061500D01*
X164926762Y-72990071D01*
X165168666Y-72990071D01*
X165265428Y-73061500D01*
X165313809Y-73132929D01*
X165362190Y-73275786D01*
X165362190Y-73418643D01*
X165313809Y-73632929D01*
X164733238Y-74490071D01*
X165362190Y-74490071D01*
X165991143Y-72990071D02*
X166087904Y-72990071D01*
X166184666Y-73061500D01*
X166233047Y-73132929D01*
X166281428Y-73275786D01*
X166329809Y-73561500D01*
X166329809Y-73918643D01*
X166281428Y-74204357D01*
X166233047Y-74347214D01*
X166184666Y-74418643D01*
X166087904Y-74490071D01*
X165991143Y-74490071D01*
X165894381Y-74418643D01*
X165846000Y-74347214D01*
X165797619Y-74204357D01*
X165749238Y-73918643D01*
X165749238Y-73561500D01*
X165797619Y-73275786D01*
X165846000Y-73132929D01*
X165894381Y-73061500D01*
X165991143Y-72990071D01*
X167297428Y-74490071D02*
X166716857Y-74490071D01*
X167007143Y-74490071D02*
X167007143Y-72990071D01*
X166910381Y-73204357D01*
X166813619Y-73347214D01*
X166716857Y-73418643D01*
X167636095Y-72990071D02*
X168313428Y-72990071D01*
X167878000Y-74490071D01*
X154670001Y-75867071D02*
X155057049Y-75867071D01*
X154815144Y-76867071D02*
X154815144Y-75581357D01*
X154863525Y-75438500D01*
X154960287Y-75367071D01*
X155057049Y-75367071D01*
X155540858Y-76867071D02*
X155444096Y-76795643D01*
X155395715Y-76724214D01*
X155347334Y-76581357D01*
X155347334Y-76152786D01*
X155395715Y-76009929D01*
X155444096Y-75938500D01*
X155540858Y-75867071D01*
X155686000Y-75867071D01*
X155782762Y-75938500D01*
X155831143Y-76009929D01*
X155879524Y-76152786D01*
X155879524Y-76581357D01*
X155831143Y-76724214D01*
X155782762Y-76795643D01*
X155686000Y-76867071D01*
X155540858Y-76867071D01*
X156314953Y-76867071D02*
X156314953Y-75867071D01*
X156314953Y-76152786D02*
X156363334Y-76009929D01*
X156411715Y-75938500D01*
X156508477Y-75867071D01*
X156605238Y-75867071D01*
X157718000Y-76867071D02*
X157718000Y-75867071D01*
X157718000Y-76009929D02*
X157766381Y-75938500D01*
X157863143Y-75867071D01*
X158008285Y-75867071D01*
X158105047Y-75938500D01*
X158153428Y-76081357D01*
X158153428Y-76867071D01*
X158153428Y-76081357D02*
X158201809Y-75938500D01*
X158298571Y-75867071D01*
X158443714Y-75867071D01*
X158540476Y-75938500D01*
X158588857Y-76081357D01*
X158588857Y-76867071D01*
X159217810Y-76867071D02*
X159121048Y-76795643D01*
X159072667Y-76724214D01*
X159024286Y-76581357D01*
X159024286Y-76152786D01*
X159072667Y-76009929D01*
X159121048Y-75938500D01*
X159217810Y-75867071D01*
X159362952Y-75867071D01*
X159459714Y-75938500D01*
X159508095Y-76009929D01*
X159556476Y-76152786D01*
X159556476Y-76581357D01*
X159508095Y-76724214D01*
X159459714Y-76795643D01*
X159362952Y-76867071D01*
X159217810Y-76867071D01*
X159991905Y-76867071D02*
X159991905Y-75867071D01*
X159991905Y-76152786D02*
X160040286Y-76009929D01*
X160088667Y-75938500D01*
X160185429Y-75867071D01*
X160282190Y-75867071D01*
X161007904Y-76795643D02*
X160911142Y-76867071D01*
X160717619Y-76867071D01*
X160620857Y-76795643D01*
X160572476Y-76652786D01*
X160572476Y-76081357D01*
X160620857Y-75938500D01*
X160717619Y-75867071D01*
X160911142Y-75867071D01*
X161007904Y-75938500D01*
X161056285Y-76081357D01*
X161056285Y-76224214D01*
X160572476Y-76367071D01*
X162265809Y-76867071D02*
X162265809Y-75867071D01*
X162265809Y-75367071D02*
X162217428Y-75438500D01*
X162265809Y-75509929D01*
X162314190Y-75438500D01*
X162265809Y-75367071D01*
X162265809Y-75509929D01*
X162749619Y-75867071D02*
X162749619Y-76867071D01*
X162749619Y-76009929D02*
X162798000Y-75938500D01*
X162894762Y-75867071D01*
X163039904Y-75867071D01*
X163136666Y-75938500D01*
X163185047Y-76081357D01*
X163185047Y-76867071D01*
X163523714Y-75867071D02*
X163910762Y-75867071D01*
X163668857Y-76867071D02*
X163668857Y-75581357D01*
X163717238Y-75438500D01*
X163814000Y-75367071D01*
X163910762Y-75367071D01*
X164394571Y-76867071D02*
X164297809Y-76795643D01*
X164249428Y-76724214D01*
X164201047Y-76581357D01*
X164201047Y-76152786D01*
X164249428Y-76009929D01*
X164297809Y-75938500D01*
X164394571Y-75867071D01*
X164539713Y-75867071D01*
X164636475Y-75938500D01*
X164684856Y-76009929D01*
X164733237Y-76152786D01*
X164733237Y-76581357D01*
X164684856Y-76724214D01*
X164636475Y-76795643D01*
X164539713Y-76867071D01*
X164394571Y-76867071D01*
D14*
G36*
X131224544Y-91268386D02*
X131219881Y-91270417D01*
X131212661Y-91273076D01*
X131204328Y-91275845D01*
X131200634Y-91277030D01*
X131193058Y-91279469D01*
X131181748Y-91283115D01*
X131166850Y-91287919D01*
X131148512Y-91293836D01*
X131126881Y-91300817D01*
X131102103Y-91308814D01*
X131074325Y-91317782D01*
X131043695Y-91327671D01*
X131010359Y-91338434D01*
X130974465Y-91350025D01*
X130936159Y-91362395D01*
X130895588Y-91375497D01*
X130852899Y-91389284D01*
X130808239Y-91403708D01*
X130761756Y-91418722D01*
X130713595Y-91434278D01*
X130663905Y-91450329D01*
X130612831Y-91466827D01*
X130560522Y-91483725D01*
X130507123Y-91500976D01*
X130452782Y-91518532D01*
X130445387Y-91520921D01*
X129709316Y-91758727D01*
X129709316Y-92562956D01*
X129709314Y-92634637D01*
X129709307Y-92702192D01*
X129709294Y-92765728D01*
X129709276Y-92825353D01*
X129709251Y-92881174D01*
X129709220Y-92933299D01*
X129709182Y-92981835D01*
X129709138Y-93026890D01*
X129709085Y-93068570D01*
X129709025Y-93106983D01*
X129708957Y-93142237D01*
X129708880Y-93174439D01*
X129708794Y-93203697D01*
X129708699Y-93230117D01*
X129708594Y-93253807D01*
X129708480Y-93274875D01*
X129708355Y-93293428D01*
X129708219Y-93309574D01*
X129708072Y-93323419D01*
X129707914Y-93335071D01*
X129707745Y-93344638D01*
X129707563Y-93352227D01*
X129707369Y-93357945D01*
X129707161Y-93361900D01*
X129706941Y-93364199D01*
X129706708Y-93364949D01*
X129706671Y-93364934D01*
X129705246Y-93363079D01*
X129701415Y-93357919D01*
X129695264Y-93349575D01*
X129686880Y-93338164D01*
X129676349Y-93323804D01*
X129663757Y-93306613D01*
X129649191Y-93286710D01*
X129632737Y-93264214D01*
X129614482Y-93239241D01*
X129594512Y-93211911D01*
X129572913Y-93182343D01*
X129549772Y-93150653D01*
X129525174Y-93116961D01*
X129499207Y-93081384D01*
X129471957Y-93044042D01*
X129443510Y-93005051D01*
X129413953Y-92964531D01*
X129383371Y-92922600D01*
X129351852Y-92879376D01*
X129319481Y-92834978D01*
X129286345Y-92789523D01*
X129252531Y-92743129D01*
X129232008Y-92714969D01*
X129197837Y-92668088D01*
X129164294Y-92622085D01*
X129131463Y-92577077D01*
X129099432Y-92533183D01*
X129068287Y-92490520D01*
X129038114Y-92449206D01*
X129008999Y-92409359D01*
X128981029Y-92371097D01*
X128954291Y-92334536D01*
X128928869Y-92299797D01*
X128904851Y-92266995D01*
X128882323Y-92236248D01*
X128861371Y-92207676D01*
X128842082Y-92181394D01*
X128824541Y-92157522D01*
X128808836Y-92136177D01*
X128795052Y-92117477D01*
X128783276Y-92101539D01*
X128773593Y-92088481D01*
X128766091Y-92078422D01*
X128760856Y-92071479D01*
X128757973Y-92067769D01*
X128757408Y-92067144D01*
X128755228Y-92067780D01*
X128749160Y-92069673D01*
X128739343Y-92072778D01*
X128725917Y-92077050D01*
X128709022Y-92082445D01*
X128688797Y-92088918D01*
X128665383Y-92096423D01*
X128638918Y-92104915D01*
X128609543Y-92114350D01*
X128577397Y-92124683D01*
X128542621Y-92135869D01*
X128505353Y-92147862D01*
X128465734Y-92160618D01*
X128423902Y-92174092D01*
X128379999Y-92188239D01*
X128334163Y-92203013D01*
X128286535Y-92218371D01*
X128237254Y-92234267D01*
X128186459Y-92250656D01*
X128134291Y-92267493D01*
X128080888Y-92284733D01*
X128026392Y-92302331D01*
X127997769Y-92311576D01*
X127942778Y-92329335D01*
X127888816Y-92346755D01*
X127836023Y-92363791D01*
X127784538Y-92380398D01*
X127734499Y-92396531D01*
X127686048Y-92412145D01*
X127639322Y-92427196D01*
X127594461Y-92441640D01*
X127551604Y-92455430D01*
X127510892Y-92468523D01*
X127472462Y-92480874D01*
X127436455Y-92492438D01*
X127403009Y-92503170D01*
X127372265Y-92513025D01*
X127344361Y-92521959D01*
X127319436Y-92529928D01*
X127297631Y-92536885D01*
X127279084Y-92542787D01*
X127263934Y-92547589D01*
X127252322Y-92551245D01*
X127244386Y-92553712D01*
X127240265Y-92554945D01*
X127239677Y-92555082D01*
X127240278Y-92552980D01*
X127242861Y-92548487D01*
X127246679Y-92542844D01*
X127248364Y-92540524D01*
X127252442Y-92534921D01*
X127258813Y-92526174D01*
X127267376Y-92514420D01*
X127278030Y-92499799D01*
X127290676Y-92482448D01*
X127305211Y-92462505D01*
X127321535Y-92440108D01*
X127339548Y-92415396D01*
X127359149Y-92388507D01*
X127380237Y-92359578D01*
X127402711Y-92328748D01*
X127426471Y-92296155D01*
X127451416Y-92261937D01*
X127477446Y-92226233D01*
X127504459Y-92189180D01*
X127532355Y-92150916D01*
X127561033Y-92111580D01*
X127590393Y-92071310D01*
X127620333Y-92030244D01*
X127650754Y-91988520D01*
X127681553Y-91946276D01*
X127712632Y-91903650D01*
X127743889Y-91860780D01*
X127775222Y-91817806D01*
X127806533Y-91774863D01*
X127837719Y-91732092D01*
X127868681Y-91689630D01*
X127899316Y-91647614D01*
X127929526Y-91606184D01*
X127959208Y-91565477D01*
X127988263Y-91525632D01*
X128016590Y-91486786D01*
X128044087Y-91449078D01*
X128070655Y-91412645D01*
X128096192Y-91377627D01*
X128120598Y-91344161D01*
X128143772Y-91312384D01*
X128160078Y-91290027D01*
X128176425Y-91267612D01*
X127707796Y-90624967D01*
X127673752Y-90578278D01*
X127640348Y-90532462D01*
X127607671Y-90487637D01*
X127575808Y-90443921D01*
X127544843Y-90401432D01*
X127514863Y-90360290D01*
X127485955Y-90320612D01*
X127458205Y-90282516D01*
X127431698Y-90246122D01*
X127406521Y-90211547D01*
X127382761Y-90178911D01*
X127360502Y-90148330D01*
X127339833Y-90119925D01*
X127320837Y-90093812D01*
X127303603Y-90070111D01*
X127288215Y-90048939D01*
X127274761Y-90030416D01*
X127263326Y-90014659D01*
X127253996Y-90001787D01*
X127246858Y-89991919D01*
X127241998Y-89985172D01*
X127239502Y-89981665D01*
X127239167Y-89981161D01*
X127240798Y-89980029D01*
X127241263Y-89980000D01*
X127243407Y-89980644D01*
X127249440Y-89982544D01*
X127259222Y-89985657D01*
X127272613Y-89989936D01*
X127289474Y-89995338D01*
X127309666Y-90001817D01*
X127333047Y-90009328D01*
X127359480Y-90017827D01*
X127388825Y-90027268D01*
X127420941Y-90037606D01*
X127455689Y-90048796D01*
X127492930Y-90060794D01*
X127532524Y-90073554D01*
X127574332Y-90087031D01*
X127618213Y-90101181D01*
X127664029Y-90115958D01*
X127711639Y-90131318D01*
X127760905Y-90147216D01*
X127811686Y-90163606D01*
X127863843Y-90180444D01*
X127917236Y-90197684D01*
X127971726Y-90215282D01*
X128000467Y-90224566D01*
X128066190Y-90245795D01*
X128128005Y-90265760D01*
X128186032Y-90284499D01*
X128240392Y-90302049D01*
X128291204Y-90318449D01*
X128338588Y-90333737D01*
X128382666Y-90347950D01*
X128423556Y-90361127D01*
X128461379Y-90373306D01*
X128496256Y-90384524D01*
X128528305Y-90394820D01*
X128557648Y-90404233D01*
X128584404Y-90412798D01*
X128608694Y-90420556D01*
X128630638Y-90427544D01*
X128650356Y-90433799D01*
X128667967Y-90439361D01*
X128683593Y-90444266D01*
X128697352Y-90448554D01*
X128709366Y-90452261D01*
X128719755Y-90455427D01*
X128728638Y-90458088D01*
X128736136Y-90460284D01*
X128742368Y-90462051D01*
X128747456Y-90463429D01*
X128751518Y-90464455D01*
X128754676Y-90465167D01*
X128757049Y-90465603D01*
X128758757Y-90465802D01*
X128759921Y-90465800D01*
X128760661Y-90465637D01*
X128761096Y-90465350D01*
X128761109Y-90465337D01*
X128762599Y-90463369D01*
X128766496Y-90458098D01*
X128772712Y-90449643D01*
X128781161Y-90438122D01*
X128791757Y-90423655D01*
X128804413Y-90406360D01*
X128819041Y-90386355D01*
X128835557Y-90363759D01*
X128853872Y-90338692D01*
X128873900Y-90311271D01*
X128895555Y-90281615D01*
X128918750Y-90249843D01*
X128943399Y-90216073D01*
X128969414Y-90180425D01*
X128996709Y-90143017D01*
X129025198Y-90103967D01*
X129054793Y-90063395D01*
X129085409Y-90021418D01*
X129116958Y-89978156D01*
X129149354Y-89933727D01*
X129182510Y-89888250D01*
X129216340Y-89841844D01*
X129236450Y-89814255D01*
X129708258Y-89166968D01*
X129709317Y-89971918D01*
X129710375Y-90776869D01*
X130467490Y-91021426D01*
X130522491Y-91039194D01*
X130576464Y-91056635D01*
X130629270Y-91073703D01*
X130680768Y-91090353D01*
X130730820Y-91106540D01*
X130779286Y-91122218D01*
X130826027Y-91137343D01*
X130870904Y-91151869D01*
X130913776Y-91165752D01*
X130954505Y-91178945D01*
X130992951Y-91191403D01*
X131028974Y-91203082D01*
X131062436Y-91213937D01*
X131093197Y-91223921D01*
X131121116Y-91232990D01*
X131146056Y-91241099D01*
X131167877Y-91248202D01*
X131186438Y-91254255D01*
X131201602Y-91259212D01*
X131213227Y-91263027D01*
X131221176Y-91265657D01*
X131225308Y-91267055D01*
X131225902Y-91267280D01*
X131224544Y-91268386D01*
X131224544Y-91268386D01*
G37*
X131224544Y-91268386D02*
X131219881Y-91270417D01*
X131212661Y-91273076D01*
X131204328Y-91275845D01*
X131200634Y-91277030D01*
X131193058Y-91279469D01*
X131181748Y-91283115D01*
X131166850Y-91287919D01*
X131148512Y-91293836D01*
X131126881Y-91300817D01*
X131102103Y-91308814D01*
X131074325Y-91317782D01*
X131043695Y-91327671D01*
X131010359Y-91338434D01*
X130974465Y-91350025D01*
X130936159Y-91362395D01*
X130895588Y-91375497D01*
X130852899Y-91389284D01*
X130808239Y-91403708D01*
X130761756Y-91418722D01*
X130713595Y-91434278D01*
X130663905Y-91450329D01*
X130612831Y-91466827D01*
X130560522Y-91483725D01*
X130507123Y-91500976D01*
X130452782Y-91518532D01*
X130445387Y-91520921D01*
X129709316Y-91758727D01*
X129709316Y-92562956D01*
X129709314Y-92634637D01*
X129709307Y-92702192D01*
X129709294Y-92765728D01*
X129709276Y-92825353D01*
X129709251Y-92881174D01*
X129709220Y-92933299D01*
X129709182Y-92981835D01*
X129709138Y-93026890D01*
X129709085Y-93068570D01*
X129709025Y-93106983D01*
X129708957Y-93142237D01*
X129708880Y-93174439D01*
X129708794Y-93203697D01*
X129708699Y-93230117D01*
X129708594Y-93253807D01*
X129708480Y-93274875D01*
X129708355Y-93293428D01*
X129708219Y-93309574D01*
X129708072Y-93323419D01*
X129707914Y-93335071D01*
X129707745Y-93344638D01*
X129707563Y-93352227D01*
X129707369Y-93357945D01*
X129707161Y-93361900D01*
X129706941Y-93364199D01*
X129706708Y-93364949D01*
X129706671Y-93364934D01*
X129705246Y-93363079D01*
X129701415Y-93357919D01*
X129695264Y-93349575D01*
X129686880Y-93338164D01*
X129676349Y-93323804D01*
X129663757Y-93306613D01*
X129649191Y-93286710D01*
X129632737Y-93264214D01*
X129614482Y-93239241D01*
X129594512Y-93211911D01*
X129572913Y-93182343D01*
X129549772Y-93150653D01*
X129525174Y-93116961D01*
X129499207Y-93081384D01*
X129471957Y-93044042D01*
X129443510Y-93005051D01*
X129413953Y-92964531D01*
X129383371Y-92922600D01*
X129351852Y-92879376D01*
X129319481Y-92834978D01*
X129286345Y-92789523D01*
X129252531Y-92743129D01*
X129232008Y-92714969D01*
X129197837Y-92668088D01*
X129164294Y-92622085D01*
X129131463Y-92577077D01*
X129099432Y-92533183D01*
X129068287Y-92490520D01*
X129038114Y-92449206D01*
X129008999Y-92409359D01*
X128981029Y-92371097D01*
X128954291Y-92334536D01*
X128928869Y-92299797D01*
X128904851Y-92266995D01*
X128882323Y-92236248D01*
X128861371Y-92207676D01*
X128842082Y-92181394D01*
X128824541Y-92157522D01*
X128808836Y-92136177D01*
X128795052Y-92117477D01*
X128783276Y-92101539D01*
X128773593Y-92088481D01*
X128766091Y-92078422D01*
X128760856Y-92071479D01*
X128757973Y-92067769D01*
X128757408Y-92067144D01*
X128755228Y-92067780D01*
X128749160Y-92069673D01*
X128739343Y-92072778D01*
X128725917Y-92077050D01*
X128709022Y-92082445D01*
X128688797Y-92088918D01*
X128665383Y-92096423D01*
X128638918Y-92104915D01*
X128609543Y-92114350D01*
X128577397Y-92124683D01*
X128542621Y-92135869D01*
X128505353Y-92147862D01*
X128465734Y-92160618D01*
X128423902Y-92174092D01*
X128379999Y-92188239D01*
X128334163Y-92203013D01*
X128286535Y-92218371D01*
X128237254Y-92234267D01*
X128186459Y-92250656D01*
X128134291Y-92267493D01*
X128080888Y-92284733D01*
X128026392Y-92302331D01*
X127997769Y-92311576D01*
X127942778Y-92329335D01*
X127888816Y-92346755D01*
X127836023Y-92363791D01*
X127784538Y-92380398D01*
X127734499Y-92396531D01*
X127686048Y-92412145D01*
X127639322Y-92427196D01*
X127594461Y-92441640D01*
X127551604Y-92455430D01*
X127510892Y-92468523D01*
X127472462Y-92480874D01*
X127436455Y-92492438D01*
X127403009Y-92503170D01*
X127372265Y-92513025D01*
X127344361Y-92521959D01*
X127319436Y-92529928D01*
X127297631Y-92536885D01*
X127279084Y-92542787D01*
X127263934Y-92547589D01*
X127252322Y-92551245D01*
X127244386Y-92553712D01*
X127240265Y-92554945D01*
X127239677Y-92555082D01*
X127240278Y-92552980D01*
X127242861Y-92548487D01*
X127246679Y-92542844D01*
X127248364Y-92540524D01*
X127252442Y-92534921D01*
X127258813Y-92526174D01*
X127267376Y-92514420D01*
X127278030Y-92499799D01*
X127290676Y-92482448D01*
X127305211Y-92462505D01*
X127321535Y-92440108D01*
X127339548Y-92415396D01*
X127359149Y-92388507D01*
X127380237Y-92359578D01*
X127402711Y-92328748D01*
X127426471Y-92296155D01*
X127451416Y-92261937D01*
X127477446Y-92226233D01*
X127504459Y-92189180D01*
X127532355Y-92150916D01*
X127561033Y-92111580D01*
X127590393Y-92071310D01*
X127620333Y-92030244D01*
X127650754Y-91988520D01*
X127681553Y-91946276D01*
X127712632Y-91903650D01*
X127743889Y-91860780D01*
X127775222Y-91817806D01*
X127806533Y-91774863D01*
X127837719Y-91732092D01*
X127868681Y-91689630D01*
X127899316Y-91647614D01*
X127929526Y-91606184D01*
X127959208Y-91565477D01*
X127988263Y-91525632D01*
X128016590Y-91486786D01*
X128044087Y-91449078D01*
X128070655Y-91412645D01*
X128096192Y-91377627D01*
X128120598Y-91344161D01*
X128143772Y-91312384D01*
X128160078Y-91290027D01*
X128176425Y-91267612D01*
X127707796Y-90624967D01*
X127673752Y-90578278D01*
X127640348Y-90532462D01*
X127607671Y-90487637D01*
X127575808Y-90443921D01*
X127544843Y-90401432D01*
X127514863Y-90360290D01*
X127485955Y-90320612D01*
X127458205Y-90282516D01*
X127431698Y-90246122D01*
X127406521Y-90211547D01*
X127382761Y-90178911D01*
X127360502Y-90148330D01*
X127339833Y-90119925D01*
X127320837Y-90093812D01*
X127303603Y-90070111D01*
X127288215Y-90048939D01*
X127274761Y-90030416D01*
X127263326Y-90014659D01*
X127253996Y-90001787D01*
X127246858Y-89991919D01*
X127241998Y-89985172D01*
X127239502Y-89981665D01*
X127239167Y-89981161D01*
X127240798Y-89980029D01*
X127241263Y-89980000D01*
X127243407Y-89980644D01*
X127249440Y-89982544D01*
X127259222Y-89985657D01*
X127272613Y-89989936D01*
X127289474Y-89995338D01*
X127309666Y-90001817D01*
X127333047Y-90009328D01*
X127359480Y-90017827D01*
X127388825Y-90027268D01*
X127420941Y-90037606D01*
X127455689Y-90048796D01*
X127492930Y-90060794D01*
X127532524Y-90073554D01*
X127574332Y-90087031D01*
X127618213Y-90101181D01*
X127664029Y-90115958D01*
X127711639Y-90131318D01*
X127760905Y-90147216D01*
X127811686Y-90163606D01*
X127863843Y-90180444D01*
X127917236Y-90197684D01*
X127971726Y-90215282D01*
X128000467Y-90224566D01*
X128066190Y-90245795D01*
X128128005Y-90265760D01*
X128186032Y-90284499D01*
X128240392Y-90302049D01*
X128291204Y-90318449D01*
X128338588Y-90333737D01*
X128382666Y-90347950D01*
X128423556Y-90361127D01*
X128461379Y-90373306D01*
X128496256Y-90384524D01*
X128528305Y-90394820D01*
X128557648Y-90404233D01*
X128584404Y-90412798D01*
X128608694Y-90420556D01*
X128630638Y-90427544D01*
X128650356Y-90433799D01*
X128667967Y-90439361D01*
X128683593Y-90444266D01*
X128697352Y-90448554D01*
X128709366Y-90452261D01*
X128719755Y-90455427D01*
X128728638Y-90458088D01*
X128736136Y-90460284D01*
X128742368Y-90462051D01*
X128747456Y-90463429D01*
X128751518Y-90464455D01*
X128754676Y-90465167D01*
X128757049Y-90465603D01*
X128758757Y-90465802D01*
X128759921Y-90465800D01*
X128760661Y-90465637D01*
X128761096Y-90465350D01*
X128761109Y-90465337D01*
X128762599Y-90463369D01*
X128766496Y-90458098D01*
X128772712Y-90449643D01*
X128781161Y-90438122D01*
X128791757Y-90423655D01*
X128804413Y-90406360D01*
X128819041Y-90386355D01*
X128835557Y-90363759D01*
X128853872Y-90338692D01*
X128873900Y-90311271D01*
X128895555Y-90281615D01*
X128918750Y-90249843D01*
X128943399Y-90216073D01*
X128969414Y-90180425D01*
X128996709Y-90143017D01*
X129025198Y-90103967D01*
X129054793Y-90063395D01*
X129085409Y-90021418D01*
X129116958Y-89978156D01*
X129149354Y-89933727D01*
X129182510Y-89888250D01*
X129216340Y-89841844D01*
X129236450Y-89814255D01*
X129708258Y-89166968D01*
X129709317Y-89971918D01*
X129710375Y-90776869D01*
X130467490Y-91021426D01*
X130522491Y-91039194D01*
X130576464Y-91056635D01*
X130629270Y-91073703D01*
X130680768Y-91090353D01*
X130730820Y-91106540D01*
X130779286Y-91122218D01*
X130826027Y-91137343D01*
X130870904Y-91151869D01*
X130913776Y-91165752D01*
X130954505Y-91178945D01*
X130992951Y-91191403D01*
X131028974Y-91203082D01*
X131062436Y-91213937D01*
X131093197Y-91223921D01*
X131121116Y-91232990D01*
X131146056Y-91241099D01*
X131167877Y-91248202D01*
X131186438Y-91254255D01*
X131201602Y-91259212D01*
X131213227Y-91263027D01*
X131221176Y-91265657D01*
X131225308Y-91267055D01*
X131225902Y-91267280D01*
X131224544Y-91268386D01*
G36*
X131224544Y-86518386D02*
X131219881Y-86520417D01*
X131212661Y-86523076D01*
X131204328Y-86525845D01*
X131200634Y-86527030D01*
X131193058Y-86529469D01*
X131181748Y-86533115D01*
X131166850Y-86537919D01*
X131148512Y-86543836D01*
X131126881Y-86550817D01*
X131102103Y-86558814D01*
X131074325Y-86567782D01*
X131043695Y-86577671D01*
X131010359Y-86588434D01*
X130974465Y-86600025D01*
X130936159Y-86612395D01*
X130895588Y-86625497D01*
X130852899Y-86639284D01*
X130808239Y-86653708D01*
X130761756Y-86668722D01*
X130713595Y-86684278D01*
X130663905Y-86700329D01*
X130612831Y-86716827D01*
X130560522Y-86733725D01*
X130507123Y-86750976D01*
X130452782Y-86768532D01*
X130445387Y-86770921D01*
X129709316Y-87008727D01*
X129709316Y-87812956D01*
X129709314Y-87884637D01*
X129709307Y-87952192D01*
X129709294Y-88015728D01*
X129709276Y-88075353D01*
X129709251Y-88131174D01*
X129709220Y-88183299D01*
X129709182Y-88231835D01*
X129709138Y-88276890D01*
X129709085Y-88318570D01*
X129709025Y-88356983D01*
X129708957Y-88392237D01*
X129708880Y-88424439D01*
X129708794Y-88453697D01*
X129708699Y-88480117D01*
X129708594Y-88503807D01*
X129708480Y-88524875D01*
X129708355Y-88543428D01*
X129708219Y-88559574D01*
X129708072Y-88573419D01*
X129707914Y-88585071D01*
X129707745Y-88594638D01*
X129707563Y-88602227D01*
X129707369Y-88607945D01*
X129707161Y-88611900D01*
X129706941Y-88614199D01*
X129706708Y-88614949D01*
X129706671Y-88614934D01*
X129705246Y-88613079D01*
X129701415Y-88607919D01*
X129695264Y-88599575D01*
X129686880Y-88588164D01*
X129676349Y-88573804D01*
X129663757Y-88556613D01*
X129649191Y-88536710D01*
X129632737Y-88514214D01*
X129614482Y-88489241D01*
X129594512Y-88461911D01*
X129572913Y-88432343D01*
X129549772Y-88400653D01*
X129525174Y-88366961D01*
X129499207Y-88331384D01*
X129471957Y-88294042D01*
X129443510Y-88255051D01*
X129413953Y-88214531D01*
X129383371Y-88172600D01*
X129351852Y-88129376D01*
X129319481Y-88084978D01*
X129286345Y-88039523D01*
X129252531Y-87993129D01*
X129232008Y-87964969D01*
X129197837Y-87918088D01*
X129164294Y-87872085D01*
X129131463Y-87827077D01*
X129099432Y-87783183D01*
X129068287Y-87740520D01*
X129038114Y-87699206D01*
X129008999Y-87659359D01*
X128981029Y-87621097D01*
X128954291Y-87584536D01*
X128928869Y-87549797D01*
X128904851Y-87516995D01*
X128882323Y-87486248D01*
X128861371Y-87457676D01*
X128842082Y-87431394D01*
X128824541Y-87407522D01*
X128808836Y-87386177D01*
X128795052Y-87367477D01*
X128783276Y-87351539D01*
X128773593Y-87338481D01*
X128766091Y-87328422D01*
X128760856Y-87321479D01*
X128757973Y-87317769D01*
X128757408Y-87317144D01*
X128755228Y-87317780D01*
X128749160Y-87319673D01*
X128739343Y-87322778D01*
X128725917Y-87327050D01*
X128709022Y-87332445D01*
X128688797Y-87338918D01*
X128665383Y-87346423D01*
X128638918Y-87354915D01*
X128609543Y-87364350D01*
X128577397Y-87374683D01*
X128542621Y-87385869D01*
X128505353Y-87397862D01*
X128465734Y-87410618D01*
X128423902Y-87424092D01*
X128379999Y-87438239D01*
X128334163Y-87453013D01*
X128286535Y-87468371D01*
X128237254Y-87484267D01*
X128186459Y-87500656D01*
X128134291Y-87517493D01*
X128080888Y-87534733D01*
X128026392Y-87552331D01*
X127997769Y-87561576D01*
X127942778Y-87579335D01*
X127888816Y-87596755D01*
X127836023Y-87613791D01*
X127784538Y-87630398D01*
X127734499Y-87646531D01*
X127686048Y-87662145D01*
X127639322Y-87677196D01*
X127594461Y-87691640D01*
X127551604Y-87705430D01*
X127510892Y-87718523D01*
X127472462Y-87730874D01*
X127436455Y-87742438D01*
X127403009Y-87753170D01*
X127372265Y-87763025D01*
X127344361Y-87771959D01*
X127319436Y-87779928D01*
X127297631Y-87786885D01*
X127279084Y-87792787D01*
X127263934Y-87797589D01*
X127252322Y-87801245D01*
X127244386Y-87803712D01*
X127240265Y-87804945D01*
X127239677Y-87805082D01*
X127240278Y-87802980D01*
X127242861Y-87798487D01*
X127246679Y-87792844D01*
X127248364Y-87790524D01*
X127252442Y-87784921D01*
X127258813Y-87776174D01*
X127267376Y-87764420D01*
X127278030Y-87749799D01*
X127290676Y-87732448D01*
X127305211Y-87712505D01*
X127321535Y-87690108D01*
X127339548Y-87665396D01*
X127359149Y-87638507D01*
X127380237Y-87609578D01*
X127402711Y-87578748D01*
X127426471Y-87546155D01*
X127451416Y-87511937D01*
X127477446Y-87476233D01*
X127504459Y-87439180D01*
X127532355Y-87400916D01*
X127561033Y-87361580D01*
X127590393Y-87321310D01*
X127620333Y-87280244D01*
X127650754Y-87238520D01*
X127681553Y-87196276D01*
X127712632Y-87153650D01*
X127743889Y-87110780D01*
X127775222Y-87067806D01*
X127806533Y-87024863D01*
X127837719Y-86982092D01*
X127868681Y-86939630D01*
X127899316Y-86897614D01*
X127929526Y-86856184D01*
X127959208Y-86815477D01*
X127988263Y-86775632D01*
X128016590Y-86736786D01*
X128044087Y-86699078D01*
X128070655Y-86662645D01*
X128096192Y-86627627D01*
X128120598Y-86594161D01*
X128143772Y-86562384D01*
X128160078Y-86540027D01*
X128176425Y-86517612D01*
X127707796Y-85874967D01*
X127673752Y-85828278D01*
X127640348Y-85782462D01*
X127607671Y-85737637D01*
X127575808Y-85693921D01*
X127544843Y-85651432D01*
X127514863Y-85610290D01*
X127485955Y-85570612D01*
X127458205Y-85532516D01*
X127431698Y-85496122D01*
X127406521Y-85461547D01*
X127382761Y-85428911D01*
X127360502Y-85398330D01*
X127339833Y-85369925D01*
X127320837Y-85343812D01*
X127303603Y-85320111D01*
X127288215Y-85298939D01*
X127274761Y-85280416D01*
X127263326Y-85264659D01*
X127253996Y-85251787D01*
X127246858Y-85241919D01*
X127241998Y-85235172D01*
X127239502Y-85231665D01*
X127239167Y-85231161D01*
X127240798Y-85230029D01*
X127241263Y-85230000D01*
X127243407Y-85230644D01*
X127249440Y-85232544D01*
X127259222Y-85235657D01*
X127272613Y-85239936D01*
X127289474Y-85245338D01*
X127309666Y-85251817D01*
X127333047Y-85259328D01*
X127359480Y-85267827D01*
X127388825Y-85277268D01*
X127420941Y-85287606D01*
X127455689Y-85298796D01*
X127492930Y-85310794D01*
X127532524Y-85323554D01*
X127574332Y-85337031D01*
X127618213Y-85351181D01*
X127664029Y-85365958D01*
X127711639Y-85381318D01*
X127760905Y-85397216D01*
X127811686Y-85413606D01*
X127863843Y-85430444D01*
X127917236Y-85447684D01*
X127971726Y-85465282D01*
X128000467Y-85474566D01*
X128066190Y-85495795D01*
X128128005Y-85515760D01*
X128186032Y-85534499D01*
X128240392Y-85552049D01*
X128291204Y-85568449D01*
X128338588Y-85583737D01*
X128382666Y-85597950D01*
X128423556Y-85611127D01*
X128461379Y-85623306D01*
X128496256Y-85634524D01*
X128528305Y-85644820D01*
X128557648Y-85654233D01*
X128584404Y-85662798D01*
X128608694Y-85670556D01*
X128630638Y-85677544D01*
X128650356Y-85683799D01*
X128667967Y-85689361D01*
X128683593Y-85694266D01*
X128697352Y-85698554D01*
X128709366Y-85702261D01*
X128719755Y-85705427D01*
X128728638Y-85708088D01*
X128736136Y-85710284D01*
X128742368Y-85712051D01*
X128747456Y-85713429D01*
X128751518Y-85714455D01*
X128754676Y-85715167D01*
X128757049Y-85715603D01*
X128758757Y-85715802D01*
X128759921Y-85715800D01*
X128760661Y-85715637D01*
X128761096Y-85715350D01*
X128761109Y-85715337D01*
X128762599Y-85713369D01*
X128766496Y-85708098D01*
X128772712Y-85699643D01*
X128781161Y-85688122D01*
X128791757Y-85673655D01*
X128804413Y-85656360D01*
X128819041Y-85636355D01*
X128835557Y-85613759D01*
X128853872Y-85588692D01*
X128873900Y-85561271D01*
X128895555Y-85531615D01*
X128918750Y-85499843D01*
X128943399Y-85466073D01*
X128969414Y-85430425D01*
X128996709Y-85393017D01*
X129025198Y-85353967D01*
X129054793Y-85313395D01*
X129085409Y-85271418D01*
X129116958Y-85228156D01*
X129149354Y-85183727D01*
X129182510Y-85138250D01*
X129216340Y-85091844D01*
X129236450Y-85064255D01*
X129708258Y-84416968D01*
X129709317Y-85221918D01*
X129710375Y-86026869D01*
X130467490Y-86271426D01*
X130522491Y-86289194D01*
X130576464Y-86306635D01*
X130629270Y-86323703D01*
X130680768Y-86340353D01*
X130730820Y-86356540D01*
X130779286Y-86372218D01*
X130826027Y-86387343D01*
X130870904Y-86401869D01*
X130913776Y-86415752D01*
X130954505Y-86428945D01*
X130992951Y-86441403D01*
X131028974Y-86453082D01*
X131062436Y-86463937D01*
X131093197Y-86473921D01*
X131121116Y-86482990D01*
X131146056Y-86491099D01*
X131167877Y-86498202D01*
X131186438Y-86504255D01*
X131201602Y-86509212D01*
X131213227Y-86513027D01*
X131221176Y-86515657D01*
X131225308Y-86517055D01*
X131225902Y-86517280D01*
X131224544Y-86518386D01*
X131224544Y-86518386D01*
G37*
X131224544Y-86518386D02*
X131219881Y-86520417D01*
X131212661Y-86523076D01*
X131204328Y-86525845D01*
X131200634Y-86527030D01*
X131193058Y-86529469D01*
X131181748Y-86533115D01*
X131166850Y-86537919D01*
X131148512Y-86543836D01*
X131126881Y-86550817D01*
X131102103Y-86558814D01*
X131074325Y-86567782D01*
X131043695Y-86577671D01*
X131010359Y-86588434D01*
X130974465Y-86600025D01*
X130936159Y-86612395D01*
X130895588Y-86625497D01*
X130852899Y-86639284D01*
X130808239Y-86653708D01*
X130761756Y-86668722D01*
X130713595Y-86684278D01*
X130663905Y-86700329D01*
X130612831Y-86716827D01*
X130560522Y-86733725D01*
X130507123Y-86750976D01*
X130452782Y-86768532D01*
X130445387Y-86770921D01*
X129709316Y-87008727D01*
X129709316Y-87812956D01*
X129709314Y-87884637D01*
X129709307Y-87952192D01*
X129709294Y-88015728D01*
X129709276Y-88075353D01*
X129709251Y-88131174D01*
X129709220Y-88183299D01*
X129709182Y-88231835D01*
X129709138Y-88276890D01*
X129709085Y-88318570D01*
X129709025Y-88356983D01*
X129708957Y-88392237D01*
X129708880Y-88424439D01*
X129708794Y-88453697D01*
X129708699Y-88480117D01*
X129708594Y-88503807D01*
X129708480Y-88524875D01*
X129708355Y-88543428D01*
X129708219Y-88559574D01*
X129708072Y-88573419D01*
X129707914Y-88585071D01*
X129707745Y-88594638D01*
X129707563Y-88602227D01*
X129707369Y-88607945D01*
X129707161Y-88611900D01*
X129706941Y-88614199D01*
X129706708Y-88614949D01*
X129706671Y-88614934D01*
X129705246Y-88613079D01*
X129701415Y-88607919D01*
X129695264Y-88599575D01*
X129686880Y-88588164D01*
X129676349Y-88573804D01*
X129663757Y-88556613D01*
X129649191Y-88536710D01*
X129632737Y-88514214D01*
X129614482Y-88489241D01*
X129594512Y-88461911D01*
X129572913Y-88432343D01*
X129549772Y-88400653D01*
X129525174Y-88366961D01*
X129499207Y-88331384D01*
X129471957Y-88294042D01*
X129443510Y-88255051D01*
X129413953Y-88214531D01*
X129383371Y-88172600D01*
X129351852Y-88129376D01*
X129319481Y-88084978D01*
X129286345Y-88039523D01*
X129252531Y-87993129D01*
X129232008Y-87964969D01*
X129197837Y-87918088D01*
X129164294Y-87872085D01*
X129131463Y-87827077D01*
X129099432Y-87783183D01*
X129068287Y-87740520D01*
X129038114Y-87699206D01*
X129008999Y-87659359D01*
X128981029Y-87621097D01*
X128954291Y-87584536D01*
X128928869Y-87549797D01*
X128904851Y-87516995D01*
X128882323Y-87486248D01*
X128861371Y-87457676D01*
X128842082Y-87431394D01*
X128824541Y-87407522D01*
X128808836Y-87386177D01*
X128795052Y-87367477D01*
X128783276Y-87351539D01*
X128773593Y-87338481D01*
X128766091Y-87328422D01*
X128760856Y-87321479D01*
X128757973Y-87317769D01*
X128757408Y-87317144D01*
X128755228Y-87317780D01*
X128749160Y-87319673D01*
X128739343Y-87322778D01*
X128725917Y-87327050D01*
X128709022Y-87332445D01*
X128688797Y-87338918D01*
X128665383Y-87346423D01*
X128638918Y-87354915D01*
X128609543Y-87364350D01*
X128577397Y-87374683D01*
X128542621Y-87385869D01*
X128505353Y-87397862D01*
X128465734Y-87410618D01*
X128423902Y-87424092D01*
X128379999Y-87438239D01*
X128334163Y-87453013D01*
X128286535Y-87468371D01*
X128237254Y-87484267D01*
X128186459Y-87500656D01*
X128134291Y-87517493D01*
X128080888Y-87534733D01*
X128026392Y-87552331D01*
X127997769Y-87561576D01*
X127942778Y-87579335D01*
X127888816Y-87596755D01*
X127836023Y-87613791D01*
X127784538Y-87630398D01*
X127734499Y-87646531D01*
X127686048Y-87662145D01*
X127639322Y-87677196D01*
X127594461Y-87691640D01*
X127551604Y-87705430D01*
X127510892Y-87718523D01*
X127472462Y-87730874D01*
X127436455Y-87742438D01*
X127403009Y-87753170D01*
X127372265Y-87763025D01*
X127344361Y-87771959D01*
X127319436Y-87779928D01*
X127297631Y-87786885D01*
X127279084Y-87792787D01*
X127263934Y-87797589D01*
X127252322Y-87801245D01*
X127244386Y-87803712D01*
X127240265Y-87804945D01*
X127239677Y-87805082D01*
X127240278Y-87802980D01*
X127242861Y-87798487D01*
X127246679Y-87792844D01*
X127248364Y-87790524D01*
X127252442Y-87784921D01*
X127258813Y-87776174D01*
X127267376Y-87764420D01*
X127278030Y-87749799D01*
X127290676Y-87732448D01*
X127305211Y-87712505D01*
X127321535Y-87690108D01*
X127339548Y-87665396D01*
X127359149Y-87638507D01*
X127380237Y-87609578D01*
X127402711Y-87578748D01*
X127426471Y-87546155D01*
X127451416Y-87511937D01*
X127477446Y-87476233D01*
X127504459Y-87439180D01*
X127532355Y-87400916D01*
X127561033Y-87361580D01*
X127590393Y-87321310D01*
X127620333Y-87280244D01*
X127650754Y-87238520D01*
X127681553Y-87196276D01*
X127712632Y-87153650D01*
X127743889Y-87110780D01*
X127775222Y-87067806D01*
X127806533Y-87024863D01*
X127837719Y-86982092D01*
X127868681Y-86939630D01*
X127899316Y-86897614D01*
X127929526Y-86856184D01*
X127959208Y-86815477D01*
X127988263Y-86775632D01*
X128016590Y-86736786D01*
X128044087Y-86699078D01*
X128070655Y-86662645D01*
X128096192Y-86627627D01*
X128120598Y-86594161D01*
X128143772Y-86562384D01*
X128160078Y-86540027D01*
X128176425Y-86517612D01*
X127707796Y-85874967D01*
X127673752Y-85828278D01*
X127640348Y-85782462D01*
X127607671Y-85737637D01*
X127575808Y-85693921D01*
X127544843Y-85651432D01*
X127514863Y-85610290D01*
X127485955Y-85570612D01*
X127458205Y-85532516D01*
X127431698Y-85496122D01*
X127406521Y-85461547D01*
X127382761Y-85428911D01*
X127360502Y-85398330D01*
X127339833Y-85369925D01*
X127320837Y-85343812D01*
X127303603Y-85320111D01*
X127288215Y-85298939D01*
X127274761Y-85280416D01*
X127263326Y-85264659D01*
X127253996Y-85251787D01*
X127246858Y-85241919D01*
X127241998Y-85235172D01*
X127239502Y-85231665D01*
X127239167Y-85231161D01*
X127240798Y-85230029D01*
X127241263Y-85230000D01*
X127243407Y-85230644D01*
X127249440Y-85232544D01*
X127259222Y-85235657D01*
X127272613Y-85239936D01*
X127289474Y-85245338D01*
X127309666Y-85251817D01*
X127333047Y-85259328D01*
X127359480Y-85267827D01*
X127388825Y-85277268D01*
X127420941Y-85287606D01*
X127455689Y-85298796D01*
X127492930Y-85310794D01*
X127532524Y-85323554D01*
X127574332Y-85337031D01*
X127618213Y-85351181D01*
X127664029Y-85365958D01*
X127711639Y-85381318D01*
X127760905Y-85397216D01*
X127811686Y-85413606D01*
X127863843Y-85430444D01*
X127917236Y-85447684D01*
X127971726Y-85465282D01*
X128000467Y-85474566D01*
X128066190Y-85495795D01*
X128128005Y-85515760D01*
X128186032Y-85534499D01*
X128240392Y-85552049D01*
X128291204Y-85568449D01*
X128338588Y-85583737D01*
X128382666Y-85597950D01*
X128423556Y-85611127D01*
X128461379Y-85623306D01*
X128496256Y-85634524D01*
X128528305Y-85644820D01*
X128557648Y-85654233D01*
X128584404Y-85662798D01*
X128608694Y-85670556D01*
X128630638Y-85677544D01*
X128650356Y-85683799D01*
X128667967Y-85689361D01*
X128683593Y-85694266D01*
X128697352Y-85698554D01*
X128709366Y-85702261D01*
X128719755Y-85705427D01*
X128728638Y-85708088D01*
X128736136Y-85710284D01*
X128742368Y-85712051D01*
X128747456Y-85713429D01*
X128751518Y-85714455D01*
X128754676Y-85715167D01*
X128757049Y-85715603D01*
X128758757Y-85715802D01*
X128759921Y-85715800D01*
X128760661Y-85715637D01*
X128761096Y-85715350D01*
X128761109Y-85715337D01*
X128762599Y-85713369D01*
X128766496Y-85708098D01*
X128772712Y-85699643D01*
X128781161Y-85688122D01*
X128791757Y-85673655D01*
X128804413Y-85656360D01*
X128819041Y-85636355D01*
X128835557Y-85613759D01*
X128853872Y-85588692D01*
X128873900Y-85561271D01*
X128895555Y-85531615D01*
X128918750Y-85499843D01*
X128943399Y-85466073D01*
X128969414Y-85430425D01*
X128996709Y-85393017D01*
X129025198Y-85353967D01*
X129054793Y-85313395D01*
X129085409Y-85271418D01*
X129116958Y-85228156D01*
X129149354Y-85183727D01*
X129182510Y-85138250D01*
X129216340Y-85091844D01*
X129236450Y-85064255D01*
X129708258Y-84416968D01*
X129709317Y-85221918D01*
X129710375Y-86026869D01*
X130467490Y-86271426D01*
X130522491Y-86289194D01*
X130576464Y-86306635D01*
X130629270Y-86323703D01*
X130680768Y-86340353D01*
X130730820Y-86356540D01*
X130779286Y-86372218D01*
X130826027Y-86387343D01*
X130870904Y-86401869D01*
X130913776Y-86415752D01*
X130954505Y-86428945D01*
X130992951Y-86441403D01*
X131028974Y-86453082D01*
X131062436Y-86463937D01*
X131093197Y-86473921D01*
X131121116Y-86482990D01*
X131146056Y-86491099D01*
X131167877Y-86498202D01*
X131186438Y-86504255D01*
X131201602Y-86509212D01*
X131213227Y-86513027D01*
X131221176Y-86515657D01*
X131225308Y-86517055D01*
X131225902Y-86517280D01*
X131224544Y-86518386D01*
G36*
X131224544Y-81768386D02*
X131219881Y-81770417D01*
X131212661Y-81773076D01*
X131204328Y-81775845D01*
X131200634Y-81777030D01*
X131193058Y-81779469D01*
X131181748Y-81783115D01*
X131166850Y-81787919D01*
X131148512Y-81793836D01*
X131126881Y-81800817D01*
X131102103Y-81808814D01*
X131074325Y-81817782D01*
X131043695Y-81827671D01*
X131010359Y-81838434D01*
X130974465Y-81850025D01*
X130936159Y-81862395D01*
X130895588Y-81875497D01*
X130852899Y-81889284D01*
X130808239Y-81903708D01*
X130761756Y-81918722D01*
X130713595Y-81934278D01*
X130663905Y-81950329D01*
X130612831Y-81966827D01*
X130560522Y-81983725D01*
X130507123Y-82000976D01*
X130452782Y-82018532D01*
X130445387Y-82020921D01*
X129709316Y-82258727D01*
X129709316Y-83062956D01*
X129709314Y-83134637D01*
X129709307Y-83202192D01*
X129709294Y-83265728D01*
X129709276Y-83325353D01*
X129709251Y-83381174D01*
X129709220Y-83433299D01*
X129709182Y-83481835D01*
X129709138Y-83526890D01*
X129709085Y-83568570D01*
X129709025Y-83606983D01*
X129708957Y-83642237D01*
X129708880Y-83674439D01*
X129708794Y-83703697D01*
X129708699Y-83730117D01*
X129708594Y-83753807D01*
X129708480Y-83774875D01*
X129708355Y-83793428D01*
X129708219Y-83809574D01*
X129708072Y-83823419D01*
X129707914Y-83835071D01*
X129707745Y-83844638D01*
X129707563Y-83852227D01*
X129707369Y-83857945D01*
X129707161Y-83861900D01*
X129706941Y-83864199D01*
X129706708Y-83864949D01*
X129706671Y-83864934D01*
X129705246Y-83863079D01*
X129701415Y-83857919D01*
X129695264Y-83849575D01*
X129686880Y-83838164D01*
X129676349Y-83823804D01*
X129663757Y-83806613D01*
X129649191Y-83786710D01*
X129632737Y-83764214D01*
X129614482Y-83739241D01*
X129594512Y-83711911D01*
X129572913Y-83682343D01*
X129549772Y-83650653D01*
X129525174Y-83616961D01*
X129499207Y-83581384D01*
X129471957Y-83544042D01*
X129443510Y-83505051D01*
X129413953Y-83464531D01*
X129383371Y-83422600D01*
X129351852Y-83379376D01*
X129319481Y-83334978D01*
X129286345Y-83289523D01*
X129252531Y-83243129D01*
X129232008Y-83214969D01*
X129197837Y-83168088D01*
X129164294Y-83122085D01*
X129131463Y-83077077D01*
X129099432Y-83033183D01*
X129068287Y-82990520D01*
X129038114Y-82949206D01*
X129008999Y-82909359D01*
X128981029Y-82871097D01*
X128954291Y-82834536D01*
X128928869Y-82799797D01*
X128904851Y-82766995D01*
X128882323Y-82736248D01*
X128861371Y-82707676D01*
X128842082Y-82681394D01*
X128824541Y-82657522D01*
X128808836Y-82636177D01*
X128795052Y-82617477D01*
X128783276Y-82601539D01*
X128773593Y-82588481D01*
X128766091Y-82578422D01*
X128760856Y-82571479D01*
X128757973Y-82567769D01*
X128757408Y-82567144D01*
X128755228Y-82567780D01*
X128749160Y-82569673D01*
X128739343Y-82572778D01*
X128725917Y-82577050D01*
X128709022Y-82582445D01*
X128688797Y-82588918D01*
X128665383Y-82596423D01*
X128638918Y-82604915D01*
X128609543Y-82614350D01*
X128577397Y-82624683D01*
X128542621Y-82635869D01*
X128505353Y-82647862D01*
X128465734Y-82660618D01*
X128423902Y-82674092D01*
X128379999Y-82688239D01*
X128334163Y-82703013D01*
X128286535Y-82718371D01*
X128237254Y-82734267D01*
X128186459Y-82750656D01*
X128134291Y-82767493D01*
X128080888Y-82784733D01*
X128026392Y-82802331D01*
X127997769Y-82811576D01*
X127942778Y-82829335D01*
X127888816Y-82846755D01*
X127836023Y-82863791D01*
X127784538Y-82880398D01*
X127734499Y-82896531D01*
X127686048Y-82912145D01*
X127639322Y-82927196D01*
X127594461Y-82941640D01*
X127551604Y-82955430D01*
X127510892Y-82968523D01*
X127472462Y-82980874D01*
X127436455Y-82992438D01*
X127403009Y-83003170D01*
X127372265Y-83013025D01*
X127344361Y-83021959D01*
X127319436Y-83029928D01*
X127297631Y-83036885D01*
X127279084Y-83042787D01*
X127263934Y-83047589D01*
X127252322Y-83051245D01*
X127244386Y-83053712D01*
X127240265Y-83054945D01*
X127239677Y-83055082D01*
X127240278Y-83052980D01*
X127242861Y-83048487D01*
X127246679Y-83042844D01*
X127248364Y-83040524D01*
X127252442Y-83034921D01*
X127258813Y-83026174D01*
X127267376Y-83014420D01*
X127278030Y-82999799D01*
X127290676Y-82982448D01*
X127305211Y-82962505D01*
X127321535Y-82940108D01*
X127339548Y-82915396D01*
X127359149Y-82888507D01*
X127380237Y-82859578D01*
X127402711Y-82828748D01*
X127426471Y-82796155D01*
X127451416Y-82761937D01*
X127477446Y-82726233D01*
X127504459Y-82689180D01*
X127532355Y-82650916D01*
X127561033Y-82611580D01*
X127590393Y-82571310D01*
X127620333Y-82530244D01*
X127650754Y-82488520D01*
X127681553Y-82446276D01*
X127712632Y-82403650D01*
X127743889Y-82360780D01*
X127775222Y-82317806D01*
X127806533Y-82274863D01*
X127837719Y-82232092D01*
X127868681Y-82189630D01*
X127899316Y-82147614D01*
X127929526Y-82106184D01*
X127959208Y-82065477D01*
X127988263Y-82025632D01*
X128016590Y-81986786D01*
X128044087Y-81949078D01*
X128070655Y-81912645D01*
X128096192Y-81877627D01*
X128120598Y-81844161D01*
X128143772Y-81812384D01*
X128160078Y-81790027D01*
X128176425Y-81767612D01*
X127707796Y-81124967D01*
X127673752Y-81078278D01*
X127640348Y-81032462D01*
X127607671Y-80987637D01*
X127575808Y-80943921D01*
X127544843Y-80901432D01*
X127514863Y-80860290D01*
X127485955Y-80820612D01*
X127458205Y-80782516D01*
X127431698Y-80746122D01*
X127406521Y-80711547D01*
X127382761Y-80678911D01*
X127360502Y-80648330D01*
X127339833Y-80619925D01*
X127320837Y-80593812D01*
X127303603Y-80570111D01*
X127288215Y-80548939D01*
X127274761Y-80530416D01*
X127263326Y-80514659D01*
X127253996Y-80501787D01*
X127246858Y-80491919D01*
X127241998Y-80485172D01*
X127239502Y-80481665D01*
X127239167Y-80481161D01*
X127240798Y-80480029D01*
X127241263Y-80480000D01*
X127243407Y-80480644D01*
X127249440Y-80482544D01*
X127259222Y-80485657D01*
X127272613Y-80489936D01*
X127289474Y-80495338D01*
X127309666Y-80501817D01*
X127333047Y-80509328D01*
X127359480Y-80517827D01*
X127388825Y-80527268D01*
X127420941Y-80537606D01*
X127455689Y-80548796D01*
X127492930Y-80560794D01*
X127532524Y-80573554D01*
X127574332Y-80587031D01*
X127618213Y-80601181D01*
X127664029Y-80615958D01*
X127711639Y-80631318D01*
X127760905Y-80647216D01*
X127811686Y-80663606D01*
X127863843Y-80680444D01*
X127917236Y-80697684D01*
X127971726Y-80715282D01*
X128000467Y-80724566D01*
X128066190Y-80745795D01*
X128128005Y-80765760D01*
X128186032Y-80784499D01*
X128240392Y-80802049D01*
X128291204Y-80818449D01*
X128338588Y-80833737D01*
X128382666Y-80847950D01*
X128423556Y-80861127D01*
X128461379Y-80873306D01*
X128496256Y-80884524D01*
X128528305Y-80894820D01*
X128557648Y-80904233D01*
X128584404Y-80912798D01*
X128608694Y-80920556D01*
X128630638Y-80927544D01*
X128650356Y-80933799D01*
X128667967Y-80939361D01*
X128683593Y-80944266D01*
X128697352Y-80948554D01*
X128709366Y-80952261D01*
X128719755Y-80955427D01*
X128728638Y-80958088D01*
X128736136Y-80960284D01*
X128742368Y-80962051D01*
X128747456Y-80963429D01*
X128751518Y-80964455D01*
X128754676Y-80965167D01*
X128757049Y-80965603D01*
X128758757Y-80965802D01*
X128759921Y-80965800D01*
X128760661Y-80965637D01*
X128761096Y-80965350D01*
X128761109Y-80965337D01*
X128762599Y-80963369D01*
X128766496Y-80958098D01*
X128772712Y-80949643D01*
X128781161Y-80938122D01*
X128791757Y-80923655D01*
X128804413Y-80906360D01*
X128819041Y-80886355D01*
X128835557Y-80863759D01*
X128853872Y-80838692D01*
X128873900Y-80811271D01*
X128895555Y-80781615D01*
X128918750Y-80749843D01*
X128943399Y-80716073D01*
X128969414Y-80680425D01*
X128996709Y-80643017D01*
X129025198Y-80603967D01*
X129054793Y-80563395D01*
X129085409Y-80521418D01*
X129116958Y-80478156D01*
X129149354Y-80433727D01*
X129182510Y-80388250D01*
X129216340Y-80341844D01*
X129236450Y-80314255D01*
X129708258Y-79666968D01*
X129709317Y-80471918D01*
X129710375Y-81276869D01*
X130467490Y-81521426D01*
X130522491Y-81539194D01*
X130576464Y-81556635D01*
X130629270Y-81573703D01*
X130680768Y-81590353D01*
X130730820Y-81606540D01*
X130779286Y-81622218D01*
X130826027Y-81637343D01*
X130870904Y-81651869D01*
X130913776Y-81665752D01*
X130954505Y-81678945D01*
X130992951Y-81691403D01*
X131028974Y-81703082D01*
X131062436Y-81713937D01*
X131093197Y-81723921D01*
X131121116Y-81732990D01*
X131146056Y-81741099D01*
X131167877Y-81748202D01*
X131186438Y-81754255D01*
X131201602Y-81759212D01*
X131213227Y-81763027D01*
X131221176Y-81765657D01*
X131225308Y-81767055D01*
X131225902Y-81767280D01*
X131224544Y-81768386D01*
X131224544Y-81768386D01*
G37*
X131224544Y-81768386D02*
X131219881Y-81770417D01*
X131212661Y-81773076D01*
X131204328Y-81775845D01*
X131200634Y-81777030D01*
X131193058Y-81779469D01*
X131181748Y-81783115D01*
X131166850Y-81787919D01*
X131148512Y-81793836D01*
X131126881Y-81800817D01*
X131102103Y-81808814D01*
X131074325Y-81817782D01*
X131043695Y-81827671D01*
X131010359Y-81838434D01*
X130974465Y-81850025D01*
X130936159Y-81862395D01*
X130895588Y-81875497D01*
X130852899Y-81889284D01*
X130808239Y-81903708D01*
X130761756Y-81918722D01*
X130713595Y-81934278D01*
X130663905Y-81950329D01*
X130612831Y-81966827D01*
X130560522Y-81983725D01*
X130507123Y-82000976D01*
X130452782Y-82018532D01*
X130445387Y-82020921D01*
X129709316Y-82258727D01*
X129709316Y-83062956D01*
X129709314Y-83134637D01*
X129709307Y-83202192D01*
X129709294Y-83265728D01*
X129709276Y-83325353D01*
X129709251Y-83381174D01*
X129709220Y-83433299D01*
X129709182Y-83481835D01*
X129709138Y-83526890D01*
X129709085Y-83568570D01*
X129709025Y-83606983D01*
X129708957Y-83642237D01*
X129708880Y-83674439D01*
X129708794Y-83703697D01*
X129708699Y-83730117D01*
X129708594Y-83753807D01*
X129708480Y-83774875D01*
X129708355Y-83793428D01*
X129708219Y-83809574D01*
X129708072Y-83823419D01*
X129707914Y-83835071D01*
X129707745Y-83844638D01*
X129707563Y-83852227D01*
X129707369Y-83857945D01*
X129707161Y-83861900D01*
X129706941Y-83864199D01*
X129706708Y-83864949D01*
X129706671Y-83864934D01*
X129705246Y-83863079D01*
X129701415Y-83857919D01*
X129695264Y-83849575D01*
X129686880Y-83838164D01*
X129676349Y-83823804D01*
X129663757Y-83806613D01*
X129649191Y-83786710D01*
X129632737Y-83764214D01*
X129614482Y-83739241D01*
X129594512Y-83711911D01*
X129572913Y-83682343D01*
X129549772Y-83650653D01*
X129525174Y-83616961D01*
X129499207Y-83581384D01*
X129471957Y-83544042D01*
X129443510Y-83505051D01*
X129413953Y-83464531D01*
X129383371Y-83422600D01*
X129351852Y-83379376D01*
X129319481Y-83334978D01*
X129286345Y-83289523D01*
X129252531Y-83243129D01*
X129232008Y-83214969D01*
X129197837Y-83168088D01*
X129164294Y-83122085D01*
X129131463Y-83077077D01*
X129099432Y-83033183D01*
X129068287Y-82990520D01*
X129038114Y-82949206D01*
X129008999Y-82909359D01*
X128981029Y-82871097D01*
X128954291Y-82834536D01*
X128928869Y-82799797D01*
X128904851Y-82766995D01*
X128882323Y-82736248D01*
X128861371Y-82707676D01*
X128842082Y-82681394D01*
X128824541Y-82657522D01*
X128808836Y-82636177D01*
X128795052Y-82617477D01*
X128783276Y-82601539D01*
X128773593Y-82588481D01*
X128766091Y-82578422D01*
X128760856Y-82571479D01*
X128757973Y-82567769D01*
X128757408Y-82567144D01*
X128755228Y-82567780D01*
X128749160Y-82569673D01*
X128739343Y-82572778D01*
X128725917Y-82577050D01*
X128709022Y-82582445D01*
X128688797Y-82588918D01*
X128665383Y-82596423D01*
X128638918Y-82604915D01*
X128609543Y-82614350D01*
X128577397Y-82624683D01*
X128542621Y-82635869D01*
X128505353Y-82647862D01*
X128465734Y-82660618D01*
X128423902Y-82674092D01*
X128379999Y-82688239D01*
X128334163Y-82703013D01*
X128286535Y-82718371D01*
X128237254Y-82734267D01*
X128186459Y-82750656D01*
X128134291Y-82767493D01*
X128080888Y-82784733D01*
X128026392Y-82802331D01*
X127997769Y-82811576D01*
X127942778Y-82829335D01*
X127888816Y-82846755D01*
X127836023Y-82863791D01*
X127784538Y-82880398D01*
X127734499Y-82896531D01*
X127686048Y-82912145D01*
X127639322Y-82927196D01*
X127594461Y-82941640D01*
X127551604Y-82955430D01*
X127510892Y-82968523D01*
X127472462Y-82980874D01*
X127436455Y-82992438D01*
X127403009Y-83003170D01*
X127372265Y-83013025D01*
X127344361Y-83021959D01*
X127319436Y-83029928D01*
X127297631Y-83036885D01*
X127279084Y-83042787D01*
X127263934Y-83047589D01*
X127252322Y-83051245D01*
X127244386Y-83053712D01*
X127240265Y-83054945D01*
X127239677Y-83055082D01*
X127240278Y-83052980D01*
X127242861Y-83048487D01*
X127246679Y-83042844D01*
X127248364Y-83040524D01*
X127252442Y-83034921D01*
X127258813Y-83026174D01*
X127267376Y-83014420D01*
X127278030Y-82999799D01*
X127290676Y-82982448D01*
X127305211Y-82962505D01*
X127321535Y-82940108D01*
X127339548Y-82915396D01*
X127359149Y-82888507D01*
X127380237Y-82859578D01*
X127402711Y-82828748D01*
X127426471Y-82796155D01*
X127451416Y-82761937D01*
X127477446Y-82726233D01*
X127504459Y-82689180D01*
X127532355Y-82650916D01*
X127561033Y-82611580D01*
X127590393Y-82571310D01*
X127620333Y-82530244D01*
X127650754Y-82488520D01*
X127681553Y-82446276D01*
X127712632Y-82403650D01*
X127743889Y-82360780D01*
X127775222Y-82317806D01*
X127806533Y-82274863D01*
X127837719Y-82232092D01*
X127868681Y-82189630D01*
X127899316Y-82147614D01*
X127929526Y-82106184D01*
X127959208Y-82065477D01*
X127988263Y-82025632D01*
X128016590Y-81986786D01*
X128044087Y-81949078D01*
X128070655Y-81912645D01*
X128096192Y-81877627D01*
X128120598Y-81844161D01*
X128143772Y-81812384D01*
X128160078Y-81790027D01*
X128176425Y-81767612D01*
X127707796Y-81124967D01*
X127673752Y-81078278D01*
X127640348Y-81032462D01*
X127607671Y-80987637D01*
X127575808Y-80943921D01*
X127544843Y-80901432D01*
X127514863Y-80860290D01*
X127485955Y-80820612D01*
X127458205Y-80782516D01*
X127431698Y-80746122D01*
X127406521Y-80711547D01*
X127382761Y-80678911D01*
X127360502Y-80648330D01*
X127339833Y-80619925D01*
X127320837Y-80593812D01*
X127303603Y-80570111D01*
X127288215Y-80548939D01*
X127274761Y-80530416D01*
X127263326Y-80514659D01*
X127253996Y-80501787D01*
X127246858Y-80491919D01*
X127241998Y-80485172D01*
X127239502Y-80481665D01*
X127239167Y-80481161D01*
X127240798Y-80480029D01*
X127241263Y-80480000D01*
X127243407Y-80480644D01*
X127249440Y-80482544D01*
X127259222Y-80485657D01*
X127272613Y-80489936D01*
X127289474Y-80495338D01*
X127309666Y-80501817D01*
X127333047Y-80509328D01*
X127359480Y-80517827D01*
X127388825Y-80527268D01*
X127420941Y-80537606D01*
X127455689Y-80548796D01*
X127492930Y-80560794D01*
X127532524Y-80573554D01*
X127574332Y-80587031D01*
X127618213Y-80601181D01*
X127664029Y-80615958D01*
X127711639Y-80631318D01*
X127760905Y-80647216D01*
X127811686Y-80663606D01*
X127863843Y-80680444D01*
X127917236Y-80697684D01*
X127971726Y-80715282D01*
X128000467Y-80724566D01*
X128066190Y-80745795D01*
X128128005Y-80765760D01*
X128186032Y-80784499D01*
X128240392Y-80802049D01*
X128291204Y-80818449D01*
X128338588Y-80833737D01*
X128382666Y-80847950D01*
X128423556Y-80861127D01*
X128461379Y-80873306D01*
X128496256Y-80884524D01*
X128528305Y-80894820D01*
X128557648Y-80904233D01*
X128584404Y-80912798D01*
X128608694Y-80920556D01*
X128630638Y-80927544D01*
X128650356Y-80933799D01*
X128667967Y-80939361D01*
X128683593Y-80944266D01*
X128697352Y-80948554D01*
X128709366Y-80952261D01*
X128719755Y-80955427D01*
X128728638Y-80958088D01*
X128736136Y-80960284D01*
X128742368Y-80962051D01*
X128747456Y-80963429D01*
X128751518Y-80964455D01*
X128754676Y-80965167D01*
X128757049Y-80965603D01*
X128758757Y-80965802D01*
X128759921Y-80965800D01*
X128760661Y-80965637D01*
X128761096Y-80965350D01*
X128761109Y-80965337D01*
X128762599Y-80963369D01*
X128766496Y-80958098D01*
X128772712Y-80949643D01*
X128781161Y-80938122D01*
X128791757Y-80923655D01*
X128804413Y-80906360D01*
X128819041Y-80886355D01*
X128835557Y-80863759D01*
X128853872Y-80838692D01*
X128873900Y-80811271D01*
X128895555Y-80781615D01*
X128918750Y-80749843D01*
X128943399Y-80716073D01*
X128969414Y-80680425D01*
X128996709Y-80643017D01*
X129025198Y-80603967D01*
X129054793Y-80563395D01*
X129085409Y-80521418D01*
X129116958Y-80478156D01*
X129149354Y-80433727D01*
X129182510Y-80388250D01*
X129216340Y-80341844D01*
X129236450Y-80314255D01*
X129708258Y-79666968D01*
X129709317Y-80471918D01*
X129710375Y-81276869D01*
X130467490Y-81521426D01*
X130522491Y-81539194D01*
X130576464Y-81556635D01*
X130629270Y-81573703D01*
X130680768Y-81590353D01*
X130730820Y-81606540D01*
X130779286Y-81622218D01*
X130826027Y-81637343D01*
X130870904Y-81651869D01*
X130913776Y-81665752D01*
X130954505Y-81678945D01*
X130992951Y-81691403D01*
X131028974Y-81703082D01*
X131062436Y-81713937D01*
X131093197Y-81723921D01*
X131121116Y-81732990D01*
X131146056Y-81741099D01*
X131167877Y-81748202D01*
X131186438Y-81754255D01*
X131201602Y-81759212D01*
X131213227Y-81763027D01*
X131221176Y-81765657D01*
X131225308Y-81767055D01*
X131225902Y-81767280D01*
X131224544Y-81768386D01*
G36*
X120974544Y-88768386D02*
X120969881Y-88770417D01*
X120962661Y-88773076D01*
X120954328Y-88775845D01*
X120950634Y-88777030D01*
X120943058Y-88779469D01*
X120931748Y-88783115D01*
X120916850Y-88787919D01*
X120898512Y-88793836D01*
X120876881Y-88800817D01*
X120852103Y-88808814D01*
X120824325Y-88817782D01*
X120793695Y-88827671D01*
X120760359Y-88838434D01*
X120724465Y-88850025D01*
X120686159Y-88862395D01*
X120645588Y-88875497D01*
X120602899Y-88889284D01*
X120558239Y-88903708D01*
X120511756Y-88918722D01*
X120463595Y-88934278D01*
X120413905Y-88950329D01*
X120362831Y-88966827D01*
X120310522Y-88983725D01*
X120257123Y-89000976D01*
X120202782Y-89018532D01*
X120195387Y-89020921D01*
X119459316Y-89258727D01*
X119459316Y-90062956D01*
X119459314Y-90134637D01*
X119459307Y-90202192D01*
X119459294Y-90265728D01*
X119459276Y-90325353D01*
X119459251Y-90381174D01*
X119459220Y-90433299D01*
X119459182Y-90481835D01*
X119459138Y-90526890D01*
X119459085Y-90568570D01*
X119459025Y-90606983D01*
X119458957Y-90642237D01*
X119458880Y-90674439D01*
X119458794Y-90703697D01*
X119458699Y-90730117D01*
X119458594Y-90753807D01*
X119458480Y-90774875D01*
X119458355Y-90793428D01*
X119458219Y-90809574D01*
X119458072Y-90823419D01*
X119457914Y-90835071D01*
X119457745Y-90844638D01*
X119457563Y-90852227D01*
X119457369Y-90857945D01*
X119457161Y-90861900D01*
X119456941Y-90864199D01*
X119456708Y-90864949D01*
X119456671Y-90864934D01*
X119455246Y-90863079D01*
X119451415Y-90857919D01*
X119445264Y-90849575D01*
X119436880Y-90838164D01*
X119426349Y-90823804D01*
X119413757Y-90806613D01*
X119399191Y-90786710D01*
X119382737Y-90764214D01*
X119364482Y-90739241D01*
X119344512Y-90711911D01*
X119322913Y-90682343D01*
X119299772Y-90650653D01*
X119275174Y-90616961D01*
X119249207Y-90581384D01*
X119221957Y-90544042D01*
X119193510Y-90505051D01*
X119163953Y-90464531D01*
X119133371Y-90422600D01*
X119101852Y-90379376D01*
X119069481Y-90334978D01*
X119036345Y-90289523D01*
X119002531Y-90243129D01*
X118982008Y-90214969D01*
X118947837Y-90168088D01*
X118914294Y-90122085D01*
X118881463Y-90077077D01*
X118849432Y-90033183D01*
X118818287Y-89990520D01*
X118788114Y-89949206D01*
X118758999Y-89909359D01*
X118731029Y-89871097D01*
X118704291Y-89834536D01*
X118678869Y-89799797D01*
X118654851Y-89766995D01*
X118632323Y-89736248D01*
X118611371Y-89707676D01*
X118592082Y-89681394D01*
X118574541Y-89657522D01*
X118558836Y-89636177D01*
X118545052Y-89617477D01*
X118533276Y-89601539D01*
X118523593Y-89588481D01*
X118516091Y-89578422D01*
X118510856Y-89571479D01*
X118507973Y-89567769D01*
X118507408Y-89567144D01*
X118505228Y-89567780D01*
X118499160Y-89569673D01*
X118489343Y-89572778D01*
X118475917Y-89577050D01*
X118459022Y-89582445D01*
X118438797Y-89588918D01*
X118415383Y-89596423D01*
X118388918Y-89604915D01*
X118359543Y-89614350D01*
X118327397Y-89624683D01*
X118292621Y-89635869D01*
X118255353Y-89647862D01*
X118215734Y-89660618D01*
X118173902Y-89674092D01*
X118129999Y-89688239D01*
X118084163Y-89703013D01*
X118036535Y-89718371D01*
X117987254Y-89734267D01*
X117936459Y-89750656D01*
X117884291Y-89767493D01*
X117830888Y-89784733D01*
X117776392Y-89802331D01*
X117747769Y-89811576D01*
X117692778Y-89829335D01*
X117638816Y-89846755D01*
X117586023Y-89863791D01*
X117534538Y-89880398D01*
X117484499Y-89896531D01*
X117436048Y-89912145D01*
X117389322Y-89927196D01*
X117344461Y-89941640D01*
X117301604Y-89955430D01*
X117260892Y-89968523D01*
X117222462Y-89980874D01*
X117186455Y-89992438D01*
X117153009Y-90003170D01*
X117122265Y-90013025D01*
X117094361Y-90021959D01*
X117069436Y-90029928D01*
X117047631Y-90036885D01*
X117029084Y-90042787D01*
X117013934Y-90047589D01*
X117002322Y-90051245D01*
X116994386Y-90053712D01*
X116990265Y-90054945D01*
X116989677Y-90055082D01*
X116990278Y-90052980D01*
X116992861Y-90048487D01*
X116996679Y-90042844D01*
X116998364Y-90040524D01*
X117002442Y-90034921D01*
X117008813Y-90026174D01*
X117017376Y-90014420D01*
X117028030Y-89999799D01*
X117040676Y-89982448D01*
X117055211Y-89962505D01*
X117071535Y-89940108D01*
X117089548Y-89915396D01*
X117109149Y-89888507D01*
X117130237Y-89859578D01*
X117152711Y-89828748D01*
X117176471Y-89796155D01*
X117201416Y-89761937D01*
X117227446Y-89726233D01*
X117254459Y-89689180D01*
X117282355Y-89650916D01*
X117311033Y-89611580D01*
X117340393Y-89571310D01*
X117370333Y-89530244D01*
X117400754Y-89488520D01*
X117431553Y-89446276D01*
X117462632Y-89403650D01*
X117493889Y-89360780D01*
X117525222Y-89317806D01*
X117556533Y-89274863D01*
X117587719Y-89232092D01*
X117618681Y-89189630D01*
X117649316Y-89147614D01*
X117679526Y-89106184D01*
X117709208Y-89065477D01*
X117738263Y-89025632D01*
X117766590Y-88986786D01*
X117794087Y-88949078D01*
X117820655Y-88912645D01*
X117846192Y-88877627D01*
X117870598Y-88844161D01*
X117893772Y-88812384D01*
X117910078Y-88790027D01*
X117926425Y-88767612D01*
X117457796Y-88124967D01*
X117423752Y-88078278D01*
X117390348Y-88032462D01*
X117357671Y-87987637D01*
X117325808Y-87943921D01*
X117294843Y-87901432D01*
X117264863Y-87860290D01*
X117235955Y-87820612D01*
X117208205Y-87782516D01*
X117181698Y-87746122D01*
X117156521Y-87711547D01*
X117132761Y-87678911D01*
X117110502Y-87648330D01*
X117089833Y-87619925D01*
X117070837Y-87593812D01*
X117053603Y-87570111D01*
X117038215Y-87548939D01*
X117024761Y-87530416D01*
X117013326Y-87514659D01*
X117003996Y-87501787D01*
X116996858Y-87491919D01*
X116991998Y-87485172D01*
X116989502Y-87481665D01*
X116989167Y-87481161D01*
X116990798Y-87480029D01*
X116991263Y-87480000D01*
X116993407Y-87480644D01*
X116999440Y-87482544D01*
X117009222Y-87485657D01*
X117022613Y-87489936D01*
X117039474Y-87495338D01*
X117059666Y-87501817D01*
X117083047Y-87509328D01*
X117109480Y-87517827D01*
X117138825Y-87527268D01*
X117170941Y-87537606D01*
X117205689Y-87548796D01*
X117242930Y-87560794D01*
X117282524Y-87573554D01*
X117324332Y-87587031D01*
X117368213Y-87601181D01*
X117414029Y-87615958D01*
X117461639Y-87631318D01*
X117510905Y-87647216D01*
X117561686Y-87663606D01*
X117613843Y-87680444D01*
X117667236Y-87697684D01*
X117721726Y-87715282D01*
X117750467Y-87724566D01*
X117816190Y-87745795D01*
X117878005Y-87765760D01*
X117936032Y-87784499D01*
X117990392Y-87802049D01*
X118041204Y-87818449D01*
X118088588Y-87833737D01*
X118132666Y-87847950D01*
X118173556Y-87861127D01*
X118211379Y-87873306D01*
X118246256Y-87884524D01*
X118278305Y-87894820D01*
X118307648Y-87904233D01*
X118334404Y-87912798D01*
X118358694Y-87920556D01*
X118380638Y-87927544D01*
X118400356Y-87933799D01*
X118417967Y-87939361D01*
X118433593Y-87944266D01*
X118447352Y-87948554D01*
X118459366Y-87952261D01*
X118469755Y-87955427D01*
X118478638Y-87958088D01*
X118486136Y-87960284D01*
X118492368Y-87962051D01*
X118497456Y-87963429D01*
X118501518Y-87964455D01*
X118504676Y-87965167D01*
X118507049Y-87965603D01*
X118508757Y-87965802D01*
X118509921Y-87965800D01*
X118510661Y-87965637D01*
X118511096Y-87965350D01*
X118511109Y-87965337D01*
X118512599Y-87963369D01*
X118516496Y-87958098D01*
X118522712Y-87949643D01*
X118531161Y-87938122D01*
X118541757Y-87923655D01*
X118554413Y-87906360D01*
X118569041Y-87886355D01*
X118585557Y-87863759D01*
X118603872Y-87838692D01*
X118623900Y-87811271D01*
X118645555Y-87781615D01*
X118668750Y-87749843D01*
X118693399Y-87716073D01*
X118719414Y-87680425D01*
X118746709Y-87643017D01*
X118775198Y-87603967D01*
X118804793Y-87563395D01*
X118835409Y-87521418D01*
X118866958Y-87478156D01*
X118899354Y-87433727D01*
X118932510Y-87388250D01*
X118966340Y-87341844D01*
X118986450Y-87314255D01*
X119458258Y-86666968D01*
X119459317Y-87471918D01*
X119460375Y-88276869D01*
X120217490Y-88521426D01*
X120272491Y-88539194D01*
X120326464Y-88556635D01*
X120379270Y-88573703D01*
X120430768Y-88590353D01*
X120480820Y-88606540D01*
X120529286Y-88622218D01*
X120576027Y-88637343D01*
X120620904Y-88651869D01*
X120663776Y-88665752D01*
X120704505Y-88678945D01*
X120742951Y-88691403D01*
X120778974Y-88703082D01*
X120812436Y-88713937D01*
X120843197Y-88723921D01*
X120871116Y-88732990D01*
X120896056Y-88741099D01*
X120917877Y-88748202D01*
X120936438Y-88754255D01*
X120951602Y-88759212D01*
X120963227Y-88763027D01*
X120971176Y-88765657D01*
X120975308Y-88767055D01*
X120975902Y-88767280D01*
X120974544Y-88768386D01*
X120974544Y-88768386D01*
G37*
X120974544Y-88768386D02*
X120969881Y-88770417D01*
X120962661Y-88773076D01*
X120954328Y-88775845D01*
X120950634Y-88777030D01*
X120943058Y-88779469D01*
X120931748Y-88783115D01*
X120916850Y-88787919D01*
X120898512Y-88793836D01*
X120876881Y-88800817D01*
X120852103Y-88808814D01*
X120824325Y-88817782D01*
X120793695Y-88827671D01*
X120760359Y-88838434D01*
X120724465Y-88850025D01*
X120686159Y-88862395D01*
X120645588Y-88875497D01*
X120602899Y-88889284D01*
X120558239Y-88903708D01*
X120511756Y-88918722D01*
X120463595Y-88934278D01*
X120413905Y-88950329D01*
X120362831Y-88966827D01*
X120310522Y-88983725D01*
X120257123Y-89000976D01*
X120202782Y-89018532D01*
X120195387Y-89020921D01*
X119459316Y-89258727D01*
X119459316Y-90062956D01*
X119459314Y-90134637D01*
X119459307Y-90202192D01*
X119459294Y-90265728D01*
X119459276Y-90325353D01*
X119459251Y-90381174D01*
X119459220Y-90433299D01*
X119459182Y-90481835D01*
X119459138Y-90526890D01*
X119459085Y-90568570D01*
X119459025Y-90606983D01*
X119458957Y-90642237D01*
X119458880Y-90674439D01*
X119458794Y-90703697D01*
X119458699Y-90730117D01*
X119458594Y-90753807D01*
X119458480Y-90774875D01*
X119458355Y-90793428D01*
X119458219Y-90809574D01*
X119458072Y-90823419D01*
X119457914Y-90835071D01*
X119457745Y-90844638D01*
X119457563Y-90852227D01*
X119457369Y-90857945D01*
X119457161Y-90861900D01*
X119456941Y-90864199D01*
X119456708Y-90864949D01*
X119456671Y-90864934D01*
X119455246Y-90863079D01*
X119451415Y-90857919D01*
X119445264Y-90849575D01*
X119436880Y-90838164D01*
X119426349Y-90823804D01*
X119413757Y-90806613D01*
X119399191Y-90786710D01*
X119382737Y-90764214D01*
X119364482Y-90739241D01*
X119344512Y-90711911D01*
X119322913Y-90682343D01*
X119299772Y-90650653D01*
X119275174Y-90616961D01*
X119249207Y-90581384D01*
X119221957Y-90544042D01*
X119193510Y-90505051D01*
X119163953Y-90464531D01*
X119133371Y-90422600D01*
X119101852Y-90379376D01*
X119069481Y-90334978D01*
X119036345Y-90289523D01*
X119002531Y-90243129D01*
X118982008Y-90214969D01*
X118947837Y-90168088D01*
X118914294Y-90122085D01*
X118881463Y-90077077D01*
X118849432Y-90033183D01*
X118818287Y-89990520D01*
X118788114Y-89949206D01*
X118758999Y-89909359D01*
X118731029Y-89871097D01*
X118704291Y-89834536D01*
X118678869Y-89799797D01*
X118654851Y-89766995D01*
X118632323Y-89736248D01*
X118611371Y-89707676D01*
X118592082Y-89681394D01*
X118574541Y-89657522D01*
X118558836Y-89636177D01*
X118545052Y-89617477D01*
X118533276Y-89601539D01*
X118523593Y-89588481D01*
X118516091Y-89578422D01*
X118510856Y-89571479D01*
X118507973Y-89567769D01*
X118507408Y-89567144D01*
X118505228Y-89567780D01*
X118499160Y-89569673D01*
X118489343Y-89572778D01*
X118475917Y-89577050D01*
X118459022Y-89582445D01*
X118438797Y-89588918D01*
X118415383Y-89596423D01*
X118388918Y-89604915D01*
X118359543Y-89614350D01*
X118327397Y-89624683D01*
X118292621Y-89635869D01*
X118255353Y-89647862D01*
X118215734Y-89660618D01*
X118173902Y-89674092D01*
X118129999Y-89688239D01*
X118084163Y-89703013D01*
X118036535Y-89718371D01*
X117987254Y-89734267D01*
X117936459Y-89750656D01*
X117884291Y-89767493D01*
X117830888Y-89784733D01*
X117776392Y-89802331D01*
X117747769Y-89811576D01*
X117692778Y-89829335D01*
X117638816Y-89846755D01*
X117586023Y-89863791D01*
X117534538Y-89880398D01*
X117484499Y-89896531D01*
X117436048Y-89912145D01*
X117389322Y-89927196D01*
X117344461Y-89941640D01*
X117301604Y-89955430D01*
X117260892Y-89968523D01*
X117222462Y-89980874D01*
X117186455Y-89992438D01*
X117153009Y-90003170D01*
X117122265Y-90013025D01*
X117094361Y-90021959D01*
X117069436Y-90029928D01*
X117047631Y-90036885D01*
X117029084Y-90042787D01*
X117013934Y-90047589D01*
X117002322Y-90051245D01*
X116994386Y-90053712D01*
X116990265Y-90054945D01*
X116989677Y-90055082D01*
X116990278Y-90052980D01*
X116992861Y-90048487D01*
X116996679Y-90042844D01*
X116998364Y-90040524D01*
X117002442Y-90034921D01*
X117008813Y-90026174D01*
X117017376Y-90014420D01*
X117028030Y-89999799D01*
X117040676Y-89982448D01*
X117055211Y-89962505D01*
X117071535Y-89940108D01*
X117089548Y-89915396D01*
X117109149Y-89888507D01*
X117130237Y-89859578D01*
X117152711Y-89828748D01*
X117176471Y-89796155D01*
X117201416Y-89761937D01*
X117227446Y-89726233D01*
X117254459Y-89689180D01*
X117282355Y-89650916D01*
X117311033Y-89611580D01*
X117340393Y-89571310D01*
X117370333Y-89530244D01*
X117400754Y-89488520D01*
X117431553Y-89446276D01*
X117462632Y-89403650D01*
X117493889Y-89360780D01*
X117525222Y-89317806D01*
X117556533Y-89274863D01*
X117587719Y-89232092D01*
X117618681Y-89189630D01*
X117649316Y-89147614D01*
X117679526Y-89106184D01*
X117709208Y-89065477D01*
X117738263Y-89025632D01*
X117766590Y-88986786D01*
X117794087Y-88949078D01*
X117820655Y-88912645D01*
X117846192Y-88877627D01*
X117870598Y-88844161D01*
X117893772Y-88812384D01*
X117910078Y-88790027D01*
X117926425Y-88767612D01*
X117457796Y-88124967D01*
X117423752Y-88078278D01*
X117390348Y-88032462D01*
X117357671Y-87987637D01*
X117325808Y-87943921D01*
X117294843Y-87901432D01*
X117264863Y-87860290D01*
X117235955Y-87820612D01*
X117208205Y-87782516D01*
X117181698Y-87746122D01*
X117156521Y-87711547D01*
X117132761Y-87678911D01*
X117110502Y-87648330D01*
X117089833Y-87619925D01*
X117070837Y-87593812D01*
X117053603Y-87570111D01*
X117038215Y-87548939D01*
X117024761Y-87530416D01*
X117013326Y-87514659D01*
X117003996Y-87501787D01*
X116996858Y-87491919D01*
X116991998Y-87485172D01*
X116989502Y-87481665D01*
X116989167Y-87481161D01*
X116990798Y-87480029D01*
X116991263Y-87480000D01*
X116993407Y-87480644D01*
X116999440Y-87482544D01*
X117009222Y-87485657D01*
X117022613Y-87489936D01*
X117039474Y-87495338D01*
X117059666Y-87501817D01*
X117083047Y-87509328D01*
X117109480Y-87517827D01*
X117138825Y-87527268D01*
X117170941Y-87537606D01*
X117205689Y-87548796D01*
X117242930Y-87560794D01*
X117282524Y-87573554D01*
X117324332Y-87587031D01*
X117368213Y-87601181D01*
X117414029Y-87615958D01*
X117461639Y-87631318D01*
X117510905Y-87647216D01*
X117561686Y-87663606D01*
X117613843Y-87680444D01*
X117667236Y-87697684D01*
X117721726Y-87715282D01*
X117750467Y-87724566D01*
X117816190Y-87745795D01*
X117878005Y-87765760D01*
X117936032Y-87784499D01*
X117990392Y-87802049D01*
X118041204Y-87818449D01*
X118088588Y-87833737D01*
X118132666Y-87847950D01*
X118173556Y-87861127D01*
X118211379Y-87873306D01*
X118246256Y-87884524D01*
X118278305Y-87894820D01*
X118307648Y-87904233D01*
X118334404Y-87912798D01*
X118358694Y-87920556D01*
X118380638Y-87927544D01*
X118400356Y-87933799D01*
X118417967Y-87939361D01*
X118433593Y-87944266D01*
X118447352Y-87948554D01*
X118459366Y-87952261D01*
X118469755Y-87955427D01*
X118478638Y-87958088D01*
X118486136Y-87960284D01*
X118492368Y-87962051D01*
X118497456Y-87963429D01*
X118501518Y-87964455D01*
X118504676Y-87965167D01*
X118507049Y-87965603D01*
X118508757Y-87965802D01*
X118509921Y-87965800D01*
X118510661Y-87965637D01*
X118511096Y-87965350D01*
X118511109Y-87965337D01*
X118512599Y-87963369D01*
X118516496Y-87958098D01*
X118522712Y-87949643D01*
X118531161Y-87938122D01*
X118541757Y-87923655D01*
X118554413Y-87906360D01*
X118569041Y-87886355D01*
X118585557Y-87863759D01*
X118603872Y-87838692D01*
X118623900Y-87811271D01*
X118645555Y-87781615D01*
X118668750Y-87749843D01*
X118693399Y-87716073D01*
X118719414Y-87680425D01*
X118746709Y-87643017D01*
X118775198Y-87603967D01*
X118804793Y-87563395D01*
X118835409Y-87521418D01*
X118866958Y-87478156D01*
X118899354Y-87433727D01*
X118932510Y-87388250D01*
X118966340Y-87341844D01*
X118986450Y-87314255D01*
X119458258Y-86666968D01*
X119459317Y-87471918D01*
X119460375Y-88276869D01*
X120217490Y-88521426D01*
X120272491Y-88539194D01*
X120326464Y-88556635D01*
X120379270Y-88573703D01*
X120430768Y-88590353D01*
X120480820Y-88606540D01*
X120529286Y-88622218D01*
X120576027Y-88637343D01*
X120620904Y-88651869D01*
X120663776Y-88665752D01*
X120704505Y-88678945D01*
X120742951Y-88691403D01*
X120778974Y-88703082D01*
X120812436Y-88713937D01*
X120843197Y-88723921D01*
X120871116Y-88732990D01*
X120896056Y-88741099D01*
X120917877Y-88748202D01*
X120936438Y-88754255D01*
X120951602Y-88759212D01*
X120963227Y-88763027D01*
X120971176Y-88765657D01*
X120975308Y-88767055D01*
X120975902Y-88767280D01*
X120974544Y-88768386D01*
G36*
X120974544Y-84018386D02*
X120969881Y-84020417D01*
X120962661Y-84023076D01*
X120954328Y-84025845D01*
X120950634Y-84027030D01*
X120943058Y-84029469D01*
X120931748Y-84033115D01*
X120916850Y-84037919D01*
X120898512Y-84043836D01*
X120876881Y-84050817D01*
X120852103Y-84058814D01*
X120824325Y-84067782D01*
X120793695Y-84077671D01*
X120760359Y-84088434D01*
X120724465Y-84100025D01*
X120686159Y-84112395D01*
X120645588Y-84125497D01*
X120602899Y-84139284D01*
X120558239Y-84153708D01*
X120511756Y-84168722D01*
X120463595Y-84184278D01*
X120413905Y-84200329D01*
X120362831Y-84216827D01*
X120310522Y-84233725D01*
X120257123Y-84250976D01*
X120202782Y-84268532D01*
X120195387Y-84270921D01*
X119459316Y-84508727D01*
X119459316Y-85312956D01*
X119459314Y-85384637D01*
X119459307Y-85452192D01*
X119459294Y-85515728D01*
X119459276Y-85575353D01*
X119459251Y-85631174D01*
X119459220Y-85683299D01*
X119459182Y-85731835D01*
X119459138Y-85776890D01*
X119459085Y-85818570D01*
X119459025Y-85856983D01*
X119458957Y-85892237D01*
X119458880Y-85924439D01*
X119458794Y-85953697D01*
X119458699Y-85980117D01*
X119458594Y-86003807D01*
X119458480Y-86024875D01*
X119458355Y-86043428D01*
X119458219Y-86059574D01*
X119458072Y-86073419D01*
X119457914Y-86085071D01*
X119457745Y-86094638D01*
X119457563Y-86102227D01*
X119457369Y-86107945D01*
X119457161Y-86111900D01*
X119456941Y-86114199D01*
X119456708Y-86114949D01*
X119456671Y-86114934D01*
X119455246Y-86113079D01*
X119451415Y-86107919D01*
X119445264Y-86099575D01*
X119436880Y-86088164D01*
X119426349Y-86073804D01*
X119413757Y-86056613D01*
X119399191Y-86036710D01*
X119382737Y-86014214D01*
X119364482Y-85989241D01*
X119344512Y-85961911D01*
X119322913Y-85932343D01*
X119299772Y-85900653D01*
X119275174Y-85866961D01*
X119249207Y-85831384D01*
X119221957Y-85794042D01*
X119193510Y-85755051D01*
X119163953Y-85714531D01*
X119133371Y-85672600D01*
X119101852Y-85629376D01*
X119069481Y-85584978D01*
X119036345Y-85539523D01*
X119002531Y-85493129D01*
X118982008Y-85464969D01*
X118947837Y-85418088D01*
X118914294Y-85372085D01*
X118881463Y-85327077D01*
X118849432Y-85283183D01*
X118818287Y-85240520D01*
X118788114Y-85199206D01*
X118758999Y-85159359D01*
X118731029Y-85121097D01*
X118704291Y-85084536D01*
X118678869Y-85049797D01*
X118654851Y-85016995D01*
X118632323Y-84986248D01*
X118611371Y-84957676D01*
X118592082Y-84931394D01*
X118574541Y-84907522D01*
X118558836Y-84886177D01*
X118545052Y-84867477D01*
X118533276Y-84851539D01*
X118523593Y-84838481D01*
X118516091Y-84828422D01*
X118510856Y-84821479D01*
X118507973Y-84817769D01*
X118507408Y-84817144D01*
X118505228Y-84817780D01*
X118499160Y-84819673D01*
X118489343Y-84822778D01*
X118475917Y-84827050D01*
X118459022Y-84832445D01*
X118438797Y-84838918D01*
X118415383Y-84846423D01*
X118388918Y-84854915D01*
X118359543Y-84864350D01*
X118327397Y-84874683D01*
X118292621Y-84885869D01*
X118255353Y-84897862D01*
X118215734Y-84910618D01*
X118173902Y-84924092D01*
X118129999Y-84938239D01*
X118084163Y-84953013D01*
X118036535Y-84968371D01*
X117987254Y-84984267D01*
X117936459Y-85000656D01*
X117884291Y-85017493D01*
X117830888Y-85034733D01*
X117776392Y-85052331D01*
X117747769Y-85061576D01*
X117692778Y-85079335D01*
X117638816Y-85096755D01*
X117586023Y-85113791D01*
X117534538Y-85130398D01*
X117484499Y-85146531D01*
X117436048Y-85162145D01*
X117389322Y-85177196D01*
X117344461Y-85191640D01*
X117301604Y-85205430D01*
X117260892Y-85218523D01*
X117222462Y-85230874D01*
X117186455Y-85242438D01*
X117153009Y-85253170D01*
X117122265Y-85263025D01*
X117094361Y-85271959D01*
X117069436Y-85279928D01*
X117047631Y-85286885D01*
X117029084Y-85292787D01*
X117013934Y-85297589D01*
X117002322Y-85301245D01*
X116994386Y-85303712D01*
X116990265Y-85304945D01*
X116989677Y-85305082D01*
X116990278Y-85302980D01*
X116992861Y-85298487D01*
X116996679Y-85292844D01*
X116998364Y-85290524D01*
X117002442Y-85284921D01*
X117008813Y-85276174D01*
X117017376Y-85264420D01*
X117028030Y-85249799D01*
X117040676Y-85232448D01*
X117055211Y-85212505D01*
X117071535Y-85190108D01*
X117089548Y-85165396D01*
X117109149Y-85138507D01*
X117130237Y-85109578D01*
X117152711Y-85078748D01*
X117176471Y-85046155D01*
X117201416Y-85011937D01*
X117227446Y-84976233D01*
X117254459Y-84939180D01*
X117282355Y-84900916D01*
X117311033Y-84861580D01*
X117340393Y-84821310D01*
X117370333Y-84780244D01*
X117400754Y-84738520D01*
X117431553Y-84696276D01*
X117462632Y-84653650D01*
X117493889Y-84610780D01*
X117525222Y-84567806D01*
X117556533Y-84524863D01*
X117587719Y-84482092D01*
X117618681Y-84439630D01*
X117649316Y-84397614D01*
X117679526Y-84356184D01*
X117709208Y-84315477D01*
X117738263Y-84275632D01*
X117766590Y-84236786D01*
X117794087Y-84199078D01*
X117820655Y-84162645D01*
X117846192Y-84127627D01*
X117870598Y-84094161D01*
X117893772Y-84062384D01*
X117910078Y-84040027D01*
X117926425Y-84017612D01*
X117457796Y-83374967D01*
X117423752Y-83328278D01*
X117390348Y-83282462D01*
X117357671Y-83237637D01*
X117325808Y-83193921D01*
X117294843Y-83151432D01*
X117264863Y-83110290D01*
X117235955Y-83070612D01*
X117208205Y-83032516D01*
X117181698Y-82996122D01*
X117156521Y-82961547D01*
X117132761Y-82928911D01*
X117110502Y-82898330D01*
X117089833Y-82869925D01*
X117070837Y-82843812D01*
X117053603Y-82820111D01*
X117038215Y-82798939D01*
X117024761Y-82780416D01*
X117013326Y-82764659D01*
X117003996Y-82751787D01*
X116996858Y-82741919D01*
X116991998Y-82735172D01*
X116989502Y-82731665D01*
X116989167Y-82731161D01*
X116990798Y-82730029D01*
X116991263Y-82730000D01*
X116993407Y-82730644D01*
X116999440Y-82732544D01*
X117009222Y-82735657D01*
X117022613Y-82739936D01*
X117039474Y-82745338D01*
X117059666Y-82751817D01*
X117083047Y-82759328D01*
X117109480Y-82767827D01*
X117138825Y-82777268D01*
X117170941Y-82787606D01*
X117205689Y-82798796D01*
X117242930Y-82810794D01*
X117282524Y-82823554D01*
X117324332Y-82837031D01*
X117368213Y-82851181D01*
X117414029Y-82865958D01*
X117461639Y-82881318D01*
X117510905Y-82897216D01*
X117561686Y-82913606D01*
X117613843Y-82930444D01*
X117667236Y-82947684D01*
X117721726Y-82965282D01*
X117750467Y-82974566D01*
X117816190Y-82995795D01*
X117878005Y-83015760D01*
X117936032Y-83034499D01*
X117990392Y-83052049D01*
X118041204Y-83068449D01*
X118088588Y-83083737D01*
X118132666Y-83097950D01*
X118173556Y-83111127D01*
X118211379Y-83123306D01*
X118246256Y-83134524D01*
X118278305Y-83144820D01*
X118307648Y-83154233D01*
X118334404Y-83162798D01*
X118358694Y-83170556D01*
X118380638Y-83177544D01*
X118400356Y-83183799D01*
X118417967Y-83189361D01*
X118433593Y-83194266D01*
X118447352Y-83198554D01*
X118459366Y-83202261D01*
X118469755Y-83205427D01*
X118478638Y-83208088D01*
X118486136Y-83210284D01*
X118492368Y-83212051D01*
X118497456Y-83213429D01*
X118501518Y-83214455D01*
X118504676Y-83215167D01*
X118507049Y-83215603D01*
X118508757Y-83215802D01*
X118509921Y-83215800D01*
X118510661Y-83215637D01*
X118511096Y-83215350D01*
X118511109Y-83215337D01*
X118512599Y-83213369D01*
X118516496Y-83208098D01*
X118522712Y-83199643D01*
X118531161Y-83188122D01*
X118541757Y-83173655D01*
X118554413Y-83156360D01*
X118569041Y-83136355D01*
X118585557Y-83113759D01*
X118603872Y-83088692D01*
X118623900Y-83061271D01*
X118645555Y-83031615D01*
X118668750Y-82999843D01*
X118693399Y-82966073D01*
X118719414Y-82930425D01*
X118746709Y-82893017D01*
X118775198Y-82853967D01*
X118804793Y-82813395D01*
X118835409Y-82771418D01*
X118866958Y-82728156D01*
X118899354Y-82683727D01*
X118932510Y-82638250D01*
X118966340Y-82591844D01*
X118986450Y-82564255D01*
X119458258Y-81916968D01*
X119459317Y-82721918D01*
X119460375Y-83526869D01*
X120217490Y-83771426D01*
X120272491Y-83789194D01*
X120326464Y-83806635D01*
X120379270Y-83823703D01*
X120430768Y-83840353D01*
X120480820Y-83856540D01*
X120529286Y-83872218D01*
X120576027Y-83887343D01*
X120620904Y-83901869D01*
X120663776Y-83915752D01*
X120704505Y-83928945D01*
X120742951Y-83941403D01*
X120778974Y-83953082D01*
X120812436Y-83963937D01*
X120843197Y-83973921D01*
X120871116Y-83982990D01*
X120896056Y-83991099D01*
X120917877Y-83998202D01*
X120936438Y-84004255D01*
X120951602Y-84009212D01*
X120963227Y-84013027D01*
X120971176Y-84015657D01*
X120975308Y-84017055D01*
X120975902Y-84017280D01*
X120974544Y-84018386D01*
X120974544Y-84018386D01*
G37*
X120974544Y-84018386D02*
X120969881Y-84020417D01*
X120962661Y-84023076D01*
X120954328Y-84025845D01*
X120950634Y-84027030D01*
X120943058Y-84029469D01*
X120931748Y-84033115D01*
X120916850Y-84037919D01*
X120898512Y-84043836D01*
X120876881Y-84050817D01*
X120852103Y-84058814D01*
X120824325Y-84067782D01*
X120793695Y-84077671D01*
X120760359Y-84088434D01*
X120724465Y-84100025D01*
X120686159Y-84112395D01*
X120645588Y-84125497D01*
X120602899Y-84139284D01*
X120558239Y-84153708D01*
X120511756Y-84168722D01*
X120463595Y-84184278D01*
X120413905Y-84200329D01*
X120362831Y-84216827D01*
X120310522Y-84233725D01*
X120257123Y-84250976D01*
X120202782Y-84268532D01*
X120195387Y-84270921D01*
X119459316Y-84508727D01*
X119459316Y-85312956D01*
X119459314Y-85384637D01*
X119459307Y-85452192D01*
X119459294Y-85515728D01*
X119459276Y-85575353D01*
X119459251Y-85631174D01*
X119459220Y-85683299D01*
X119459182Y-85731835D01*
X119459138Y-85776890D01*
X119459085Y-85818570D01*
X119459025Y-85856983D01*
X119458957Y-85892237D01*
X119458880Y-85924439D01*
X119458794Y-85953697D01*
X119458699Y-85980117D01*
X119458594Y-86003807D01*
X119458480Y-86024875D01*
X119458355Y-86043428D01*
X119458219Y-86059574D01*
X119458072Y-86073419D01*
X119457914Y-86085071D01*
X119457745Y-86094638D01*
X119457563Y-86102227D01*
X119457369Y-86107945D01*
X119457161Y-86111900D01*
X119456941Y-86114199D01*
X119456708Y-86114949D01*
X119456671Y-86114934D01*
X119455246Y-86113079D01*
X119451415Y-86107919D01*
X119445264Y-86099575D01*
X119436880Y-86088164D01*
X119426349Y-86073804D01*
X119413757Y-86056613D01*
X119399191Y-86036710D01*
X119382737Y-86014214D01*
X119364482Y-85989241D01*
X119344512Y-85961911D01*
X119322913Y-85932343D01*
X119299772Y-85900653D01*
X119275174Y-85866961D01*
X119249207Y-85831384D01*
X119221957Y-85794042D01*
X119193510Y-85755051D01*
X119163953Y-85714531D01*
X119133371Y-85672600D01*
X119101852Y-85629376D01*
X119069481Y-85584978D01*
X119036345Y-85539523D01*
X119002531Y-85493129D01*
X118982008Y-85464969D01*
X118947837Y-85418088D01*
X118914294Y-85372085D01*
X118881463Y-85327077D01*
X118849432Y-85283183D01*
X118818287Y-85240520D01*
X118788114Y-85199206D01*
X118758999Y-85159359D01*
X118731029Y-85121097D01*
X118704291Y-85084536D01*
X118678869Y-85049797D01*
X118654851Y-85016995D01*
X118632323Y-84986248D01*
X118611371Y-84957676D01*
X118592082Y-84931394D01*
X118574541Y-84907522D01*
X118558836Y-84886177D01*
X118545052Y-84867477D01*
X118533276Y-84851539D01*
X118523593Y-84838481D01*
X118516091Y-84828422D01*
X118510856Y-84821479D01*
X118507973Y-84817769D01*
X118507408Y-84817144D01*
X118505228Y-84817780D01*
X118499160Y-84819673D01*
X118489343Y-84822778D01*
X118475917Y-84827050D01*
X118459022Y-84832445D01*
X118438797Y-84838918D01*
X118415383Y-84846423D01*
X118388918Y-84854915D01*
X118359543Y-84864350D01*
X118327397Y-84874683D01*
X118292621Y-84885869D01*
X118255353Y-84897862D01*
X118215734Y-84910618D01*
X118173902Y-84924092D01*
X118129999Y-84938239D01*
X118084163Y-84953013D01*
X118036535Y-84968371D01*
X117987254Y-84984267D01*
X117936459Y-85000656D01*
X117884291Y-85017493D01*
X117830888Y-85034733D01*
X117776392Y-85052331D01*
X117747769Y-85061576D01*
X117692778Y-85079335D01*
X117638816Y-85096755D01*
X117586023Y-85113791D01*
X117534538Y-85130398D01*
X117484499Y-85146531D01*
X117436048Y-85162145D01*
X117389322Y-85177196D01*
X117344461Y-85191640D01*
X117301604Y-85205430D01*
X117260892Y-85218523D01*
X117222462Y-85230874D01*
X117186455Y-85242438D01*
X117153009Y-85253170D01*
X117122265Y-85263025D01*
X117094361Y-85271959D01*
X117069436Y-85279928D01*
X117047631Y-85286885D01*
X117029084Y-85292787D01*
X117013934Y-85297589D01*
X117002322Y-85301245D01*
X116994386Y-85303712D01*
X116990265Y-85304945D01*
X116989677Y-85305082D01*
X116990278Y-85302980D01*
X116992861Y-85298487D01*
X116996679Y-85292844D01*
X116998364Y-85290524D01*
X117002442Y-85284921D01*
X117008813Y-85276174D01*
X117017376Y-85264420D01*
X117028030Y-85249799D01*
X117040676Y-85232448D01*
X117055211Y-85212505D01*
X117071535Y-85190108D01*
X117089548Y-85165396D01*
X117109149Y-85138507D01*
X117130237Y-85109578D01*
X117152711Y-85078748D01*
X117176471Y-85046155D01*
X117201416Y-85011937D01*
X117227446Y-84976233D01*
X117254459Y-84939180D01*
X117282355Y-84900916D01*
X117311033Y-84861580D01*
X117340393Y-84821310D01*
X117370333Y-84780244D01*
X117400754Y-84738520D01*
X117431553Y-84696276D01*
X117462632Y-84653650D01*
X117493889Y-84610780D01*
X117525222Y-84567806D01*
X117556533Y-84524863D01*
X117587719Y-84482092D01*
X117618681Y-84439630D01*
X117649316Y-84397614D01*
X117679526Y-84356184D01*
X117709208Y-84315477D01*
X117738263Y-84275632D01*
X117766590Y-84236786D01*
X117794087Y-84199078D01*
X117820655Y-84162645D01*
X117846192Y-84127627D01*
X117870598Y-84094161D01*
X117893772Y-84062384D01*
X117910078Y-84040027D01*
X117926425Y-84017612D01*
X117457796Y-83374967D01*
X117423752Y-83328278D01*
X117390348Y-83282462D01*
X117357671Y-83237637D01*
X117325808Y-83193921D01*
X117294843Y-83151432D01*
X117264863Y-83110290D01*
X117235955Y-83070612D01*
X117208205Y-83032516D01*
X117181698Y-82996122D01*
X117156521Y-82961547D01*
X117132761Y-82928911D01*
X117110502Y-82898330D01*
X117089833Y-82869925D01*
X117070837Y-82843812D01*
X117053603Y-82820111D01*
X117038215Y-82798939D01*
X117024761Y-82780416D01*
X117013326Y-82764659D01*
X117003996Y-82751787D01*
X116996858Y-82741919D01*
X116991998Y-82735172D01*
X116989502Y-82731665D01*
X116989167Y-82731161D01*
X116990798Y-82730029D01*
X116991263Y-82730000D01*
X116993407Y-82730644D01*
X116999440Y-82732544D01*
X117009222Y-82735657D01*
X117022613Y-82739936D01*
X117039474Y-82745338D01*
X117059666Y-82751817D01*
X117083047Y-82759328D01*
X117109480Y-82767827D01*
X117138825Y-82777268D01*
X117170941Y-82787606D01*
X117205689Y-82798796D01*
X117242930Y-82810794D01*
X117282524Y-82823554D01*
X117324332Y-82837031D01*
X117368213Y-82851181D01*
X117414029Y-82865958D01*
X117461639Y-82881318D01*
X117510905Y-82897216D01*
X117561686Y-82913606D01*
X117613843Y-82930444D01*
X117667236Y-82947684D01*
X117721726Y-82965282D01*
X117750467Y-82974566D01*
X117816190Y-82995795D01*
X117878005Y-83015760D01*
X117936032Y-83034499D01*
X117990392Y-83052049D01*
X118041204Y-83068449D01*
X118088588Y-83083737D01*
X118132666Y-83097950D01*
X118173556Y-83111127D01*
X118211379Y-83123306D01*
X118246256Y-83134524D01*
X118278305Y-83144820D01*
X118307648Y-83154233D01*
X118334404Y-83162798D01*
X118358694Y-83170556D01*
X118380638Y-83177544D01*
X118400356Y-83183799D01*
X118417967Y-83189361D01*
X118433593Y-83194266D01*
X118447352Y-83198554D01*
X118459366Y-83202261D01*
X118469755Y-83205427D01*
X118478638Y-83208088D01*
X118486136Y-83210284D01*
X118492368Y-83212051D01*
X118497456Y-83213429D01*
X118501518Y-83214455D01*
X118504676Y-83215167D01*
X118507049Y-83215603D01*
X118508757Y-83215802D01*
X118509921Y-83215800D01*
X118510661Y-83215637D01*
X118511096Y-83215350D01*
X118511109Y-83215337D01*
X118512599Y-83213369D01*
X118516496Y-83208098D01*
X118522712Y-83199643D01*
X118531161Y-83188122D01*
X118541757Y-83173655D01*
X118554413Y-83156360D01*
X118569041Y-83136355D01*
X118585557Y-83113759D01*
X118603872Y-83088692D01*
X118623900Y-83061271D01*
X118645555Y-83031615D01*
X118668750Y-82999843D01*
X118693399Y-82966073D01*
X118719414Y-82930425D01*
X118746709Y-82893017D01*
X118775198Y-82853967D01*
X118804793Y-82813395D01*
X118835409Y-82771418D01*
X118866958Y-82728156D01*
X118899354Y-82683727D01*
X118932510Y-82638250D01*
X118966340Y-82591844D01*
X118986450Y-82564255D01*
X119458258Y-81916968D01*
X119459317Y-82721918D01*
X119460375Y-83526869D01*
X120217490Y-83771426D01*
X120272491Y-83789194D01*
X120326464Y-83806635D01*
X120379270Y-83823703D01*
X120430768Y-83840353D01*
X120480820Y-83856540D01*
X120529286Y-83872218D01*
X120576027Y-83887343D01*
X120620904Y-83901869D01*
X120663776Y-83915752D01*
X120704505Y-83928945D01*
X120742951Y-83941403D01*
X120778974Y-83953082D01*
X120812436Y-83963937D01*
X120843197Y-83973921D01*
X120871116Y-83982990D01*
X120896056Y-83991099D01*
X120917877Y-83998202D01*
X120936438Y-84004255D01*
X120951602Y-84009212D01*
X120963227Y-84013027D01*
X120971176Y-84015657D01*
X120975308Y-84017055D01*
X120975902Y-84017280D01*
X120974544Y-84018386D01*
G36*
X110974544Y-86518386D02*
X110969881Y-86520417D01*
X110962661Y-86523076D01*
X110954328Y-86525845D01*
X110950634Y-86527030D01*
X110943058Y-86529469D01*
X110931748Y-86533115D01*
X110916850Y-86537919D01*
X110898512Y-86543836D01*
X110876881Y-86550817D01*
X110852103Y-86558814D01*
X110824325Y-86567782D01*
X110793695Y-86577671D01*
X110760359Y-86588434D01*
X110724465Y-86600025D01*
X110686159Y-86612395D01*
X110645588Y-86625497D01*
X110602899Y-86639284D01*
X110558239Y-86653708D01*
X110511756Y-86668722D01*
X110463595Y-86684278D01*
X110413905Y-86700329D01*
X110362831Y-86716827D01*
X110310522Y-86733725D01*
X110257123Y-86750976D01*
X110202782Y-86768532D01*
X110195387Y-86770921D01*
X109459316Y-87008727D01*
X109459316Y-87812956D01*
X109459314Y-87884637D01*
X109459307Y-87952192D01*
X109459294Y-88015728D01*
X109459276Y-88075353D01*
X109459251Y-88131174D01*
X109459220Y-88183299D01*
X109459182Y-88231835D01*
X109459138Y-88276890D01*
X109459085Y-88318570D01*
X109459025Y-88356983D01*
X109458957Y-88392237D01*
X109458880Y-88424439D01*
X109458794Y-88453697D01*
X109458699Y-88480117D01*
X109458594Y-88503807D01*
X109458480Y-88524875D01*
X109458355Y-88543428D01*
X109458219Y-88559574D01*
X109458072Y-88573419D01*
X109457914Y-88585071D01*
X109457745Y-88594638D01*
X109457563Y-88602227D01*
X109457369Y-88607945D01*
X109457161Y-88611900D01*
X109456941Y-88614199D01*
X109456708Y-88614949D01*
X109456671Y-88614934D01*
X109455246Y-88613079D01*
X109451415Y-88607919D01*
X109445264Y-88599575D01*
X109436880Y-88588164D01*
X109426349Y-88573804D01*
X109413757Y-88556613D01*
X109399191Y-88536710D01*
X109382737Y-88514214D01*
X109364482Y-88489241D01*
X109344512Y-88461911D01*
X109322913Y-88432343D01*
X109299772Y-88400653D01*
X109275174Y-88366961D01*
X109249207Y-88331384D01*
X109221957Y-88294042D01*
X109193510Y-88255051D01*
X109163953Y-88214531D01*
X109133371Y-88172600D01*
X109101852Y-88129376D01*
X109069481Y-88084978D01*
X109036345Y-88039523D01*
X109002531Y-87993129D01*
X108982008Y-87964969D01*
X108947837Y-87918088D01*
X108914294Y-87872085D01*
X108881463Y-87827077D01*
X108849432Y-87783183D01*
X108818287Y-87740520D01*
X108788114Y-87699206D01*
X108758999Y-87659359D01*
X108731029Y-87621097D01*
X108704291Y-87584536D01*
X108678869Y-87549797D01*
X108654851Y-87516995D01*
X108632323Y-87486248D01*
X108611371Y-87457676D01*
X108592082Y-87431394D01*
X108574541Y-87407522D01*
X108558836Y-87386177D01*
X108545052Y-87367477D01*
X108533276Y-87351539D01*
X108523593Y-87338481D01*
X108516091Y-87328422D01*
X108510856Y-87321479D01*
X108507973Y-87317769D01*
X108507408Y-87317144D01*
X108505228Y-87317780D01*
X108499160Y-87319673D01*
X108489343Y-87322778D01*
X108475917Y-87327050D01*
X108459022Y-87332445D01*
X108438797Y-87338918D01*
X108415383Y-87346423D01*
X108388918Y-87354915D01*
X108359543Y-87364350D01*
X108327397Y-87374683D01*
X108292621Y-87385869D01*
X108255353Y-87397862D01*
X108215734Y-87410618D01*
X108173902Y-87424092D01*
X108129999Y-87438239D01*
X108084163Y-87453013D01*
X108036535Y-87468371D01*
X107987254Y-87484267D01*
X107936459Y-87500656D01*
X107884291Y-87517493D01*
X107830888Y-87534733D01*
X107776392Y-87552331D01*
X107747769Y-87561576D01*
X107692778Y-87579335D01*
X107638816Y-87596755D01*
X107586023Y-87613791D01*
X107534538Y-87630398D01*
X107484499Y-87646531D01*
X107436048Y-87662145D01*
X107389322Y-87677196D01*
X107344461Y-87691640D01*
X107301604Y-87705430D01*
X107260892Y-87718523D01*
X107222462Y-87730874D01*
X107186455Y-87742438D01*
X107153009Y-87753170D01*
X107122265Y-87763025D01*
X107094361Y-87771959D01*
X107069436Y-87779928D01*
X107047631Y-87786885D01*
X107029084Y-87792787D01*
X107013934Y-87797589D01*
X107002322Y-87801245D01*
X106994386Y-87803712D01*
X106990265Y-87804945D01*
X106989677Y-87805082D01*
X106990278Y-87802980D01*
X106992861Y-87798487D01*
X106996679Y-87792844D01*
X106998364Y-87790524D01*
X107002442Y-87784921D01*
X107008813Y-87776174D01*
X107017376Y-87764420D01*
X107028030Y-87749799D01*
X107040676Y-87732448D01*
X107055211Y-87712505D01*
X107071535Y-87690108D01*
X107089548Y-87665396D01*
X107109149Y-87638507D01*
X107130237Y-87609578D01*
X107152711Y-87578748D01*
X107176471Y-87546155D01*
X107201416Y-87511937D01*
X107227446Y-87476233D01*
X107254459Y-87439180D01*
X107282355Y-87400916D01*
X107311033Y-87361580D01*
X107340393Y-87321310D01*
X107370333Y-87280244D01*
X107400754Y-87238520D01*
X107431553Y-87196276D01*
X107462632Y-87153650D01*
X107493889Y-87110780D01*
X107525222Y-87067806D01*
X107556533Y-87024863D01*
X107587719Y-86982092D01*
X107618681Y-86939630D01*
X107649316Y-86897614D01*
X107679526Y-86856184D01*
X107709208Y-86815477D01*
X107738263Y-86775632D01*
X107766590Y-86736786D01*
X107794087Y-86699078D01*
X107820655Y-86662645D01*
X107846192Y-86627627D01*
X107870598Y-86594161D01*
X107893772Y-86562384D01*
X107910078Y-86540027D01*
X107926425Y-86517612D01*
X107457796Y-85874967D01*
X107423752Y-85828278D01*
X107390348Y-85782462D01*
X107357671Y-85737637D01*
X107325808Y-85693921D01*
X107294843Y-85651432D01*
X107264863Y-85610290D01*
X107235955Y-85570612D01*
X107208205Y-85532516D01*
X107181698Y-85496122D01*
X107156521Y-85461547D01*
X107132761Y-85428911D01*
X107110502Y-85398330D01*
X107089833Y-85369925D01*
X107070837Y-85343812D01*
X107053603Y-85320111D01*
X107038215Y-85298939D01*
X107024761Y-85280416D01*
X107013326Y-85264659D01*
X107003996Y-85251787D01*
X106996858Y-85241919D01*
X106991998Y-85235172D01*
X106989502Y-85231665D01*
X106989167Y-85231161D01*
X106990798Y-85230029D01*
X106991263Y-85230000D01*
X106993407Y-85230644D01*
X106999440Y-85232544D01*
X107009222Y-85235657D01*
X107022613Y-85239936D01*
X107039474Y-85245338D01*
X107059666Y-85251817D01*
X107083047Y-85259328D01*
X107109480Y-85267827D01*
X107138825Y-85277268D01*
X107170941Y-85287606D01*
X107205689Y-85298796D01*
X107242930Y-85310794D01*
X107282524Y-85323554D01*
X107324332Y-85337031D01*
X107368213Y-85351181D01*
X107414029Y-85365958D01*
X107461639Y-85381318D01*
X107510905Y-85397216D01*
X107561686Y-85413606D01*
X107613843Y-85430444D01*
X107667236Y-85447684D01*
X107721726Y-85465282D01*
X107750467Y-85474566D01*
X107816190Y-85495795D01*
X107878005Y-85515760D01*
X107936032Y-85534499D01*
X107990392Y-85552049D01*
X108041204Y-85568449D01*
X108088588Y-85583737D01*
X108132666Y-85597950D01*
X108173556Y-85611127D01*
X108211379Y-85623306D01*
X108246256Y-85634524D01*
X108278305Y-85644820D01*
X108307648Y-85654233D01*
X108334404Y-85662798D01*
X108358694Y-85670556D01*
X108380638Y-85677544D01*
X108400356Y-85683799D01*
X108417967Y-85689361D01*
X108433593Y-85694266D01*
X108447352Y-85698554D01*
X108459366Y-85702261D01*
X108469755Y-85705427D01*
X108478638Y-85708088D01*
X108486136Y-85710284D01*
X108492368Y-85712051D01*
X108497456Y-85713429D01*
X108501518Y-85714455D01*
X108504676Y-85715167D01*
X108507049Y-85715603D01*
X108508757Y-85715802D01*
X108509921Y-85715800D01*
X108510661Y-85715637D01*
X108511096Y-85715350D01*
X108511109Y-85715337D01*
X108512599Y-85713369D01*
X108516496Y-85708098D01*
X108522712Y-85699643D01*
X108531161Y-85688122D01*
X108541757Y-85673655D01*
X108554413Y-85656360D01*
X108569041Y-85636355D01*
X108585557Y-85613759D01*
X108603872Y-85588692D01*
X108623900Y-85561271D01*
X108645555Y-85531615D01*
X108668750Y-85499843D01*
X108693399Y-85466073D01*
X108719414Y-85430425D01*
X108746709Y-85393017D01*
X108775198Y-85353967D01*
X108804793Y-85313395D01*
X108835409Y-85271418D01*
X108866958Y-85228156D01*
X108899354Y-85183727D01*
X108932510Y-85138250D01*
X108966340Y-85091844D01*
X108986450Y-85064255D01*
X109458258Y-84416968D01*
X109459317Y-85221918D01*
X109460375Y-86026869D01*
X110217490Y-86271426D01*
X110272491Y-86289194D01*
X110326464Y-86306635D01*
X110379270Y-86323703D01*
X110430768Y-86340353D01*
X110480820Y-86356540D01*
X110529286Y-86372218D01*
X110576027Y-86387343D01*
X110620904Y-86401869D01*
X110663776Y-86415752D01*
X110704505Y-86428945D01*
X110742951Y-86441403D01*
X110778974Y-86453082D01*
X110812436Y-86463937D01*
X110843197Y-86473921D01*
X110871116Y-86482990D01*
X110896056Y-86491099D01*
X110917877Y-86498202D01*
X110936438Y-86504255D01*
X110951602Y-86509212D01*
X110963227Y-86513027D01*
X110971176Y-86515657D01*
X110975308Y-86517055D01*
X110975902Y-86517280D01*
X110974544Y-86518386D01*
X110974544Y-86518386D01*
G37*
X110974544Y-86518386D02*
X110969881Y-86520417D01*
X110962661Y-86523076D01*
X110954328Y-86525845D01*
X110950634Y-86527030D01*
X110943058Y-86529469D01*
X110931748Y-86533115D01*
X110916850Y-86537919D01*
X110898512Y-86543836D01*
X110876881Y-86550817D01*
X110852103Y-86558814D01*
X110824325Y-86567782D01*
X110793695Y-86577671D01*
X110760359Y-86588434D01*
X110724465Y-86600025D01*
X110686159Y-86612395D01*
X110645588Y-86625497D01*
X110602899Y-86639284D01*
X110558239Y-86653708D01*
X110511756Y-86668722D01*
X110463595Y-86684278D01*
X110413905Y-86700329D01*
X110362831Y-86716827D01*
X110310522Y-86733725D01*
X110257123Y-86750976D01*
X110202782Y-86768532D01*
X110195387Y-86770921D01*
X109459316Y-87008727D01*
X109459316Y-87812956D01*
X109459314Y-87884637D01*
X109459307Y-87952192D01*
X109459294Y-88015728D01*
X109459276Y-88075353D01*
X109459251Y-88131174D01*
X109459220Y-88183299D01*
X109459182Y-88231835D01*
X109459138Y-88276890D01*
X109459085Y-88318570D01*
X109459025Y-88356983D01*
X109458957Y-88392237D01*
X109458880Y-88424439D01*
X109458794Y-88453697D01*
X109458699Y-88480117D01*
X109458594Y-88503807D01*
X109458480Y-88524875D01*
X109458355Y-88543428D01*
X109458219Y-88559574D01*
X109458072Y-88573419D01*
X109457914Y-88585071D01*
X109457745Y-88594638D01*
X109457563Y-88602227D01*
X109457369Y-88607945D01*
X109457161Y-88611900D01*
X109456941Y-88614199D01*
X109456708Y-88614949D01*
X109456671Y-88614934D01*
X109455246Y-88613079D01*
X109451415Y-88607919D01*
X109445264Y-88599575D01*
X109436880Y-88588164D01*
X109426349Y-88573804D01*
X109413757Y-88556613D01*
X109399191Y-88536710D01*
X109382737Y-88514214D01*
X109364482Y-88489241D01*
X109344512Y-88461911D01*
X109322913Y-88432343D01*
X109299772Y-88400653D01*
X109275174Y-88366961D01*
X109249207Y-88331384D01*
X109221957Y-88294042D01*
X109193510Y-88255051D01*
X109163953Y-88214531D01*
X109133371Y-88172600D01*
X109101852Y-88129376D01*
X109069481Y-88084978D01*
X109036345Y-88039523D01*
X109002531Y-87993129D01*
X108982008Y-87964969D01*
X108947837Y-87918088D01*
X108914294Y-87872085D01*
X108881463Y-87827077D01*
X108849432Y-87783183D01*
X108818287Y-87740520D01*
X108788114Y-87699206D01*
X108758999Y-87659359D01*
X108731029Y-87621097D01*
X108704291Y-87584536D01*
X108678869Y-87549797D01*
X108654851Y-87516995D01*
X108632323Y-87486248D01*
X108611371Y-87457676D01*
X108592082Y-87431394D01*
X108574541Y-87407522D01*
X108558836Y-87386177D01*
X108545052Y-87367477D01*
X108533276Y-87351539D01*
X108523593Y-87338481D01*
X108516091Y-87328422D01*
X108510856Y-87321479D01*
X108507973Y-87317769D01*
X108507408Y-87317144D01*
X108505228Y-87317780D01*
X108499160Y-87319673D01*
X108489343Y-87322778D01*
X108475917Y-87327050D01*
X108459022Y-87332445D01*
X108438797Y-87338918D01*
X108415383Y-87346423D01*
X108388918Y-87354915D01*
X108359543Y-87364350D01*
X108327397Y-87374683D01*
X108292621Y-87385869D01*
X108255353Y-87397862D01*
X108215734Y-87410618D01*
X108173902Y-87424092D01*
X108129999Y-87438239D01*
X108084163Y-87453013D01*
X108036535Y-87468371D01*
X107987254Y-87484267D01*
X107936459Y-87500656D01*
X107884291Y-87517493D01*
X107830888Y-87534733D01*
X107776392Y-87552331D01*
X107747769Y-87561576D01*
X107692778Y-87579335D01*
X107638816Y-87596755D01*
X107586023Y-87613791D01*
X107534538Y-87630398D01*
X107484499Y-87646531D01*
X107436048Y-87662145D01*
X107389322Y-87677196D01*
X107344461Y-87691640D01*
X107301604Y-87705430D01*
X107260892Y-87718523D01*
X107222462Y-87730874D01*
X107186455Y-87742438D01*
X107153009Y-87753170D01*
X107122265Y-87763025D01*
X107094361Y-87771959D01*
X107069436Y-87779928D01*
X107047631Y-87786885D01*
X107029084Y-87792787D01*
X107013934Y-87797589D01*
X107002322Y-87801245D01*
X106994386Y-87803712D01*
X106990265Y-87804945D01*
X106989677Y-87805082D01*
X106990278Y-87802980D01*
X106992861Y-87798487D01*
X106996679Y-87792844D01*
X106998364Y-87790524D01*
X107002442Y-87784921D01*
X107008813Y-87776174D01*
X107017376Y-87764420D01*
X107028030Y-87749799D01*
X107040676Y-87732448D01*
X107055211Y-87712505D01*
X107071535Y-87690108D01*
X107089548Y-87665396D01*
X107109149Y-87638507D01*
X107130237Y-87609578D01*
X107152711Y-87578748D01*
X107176471Y-87546155D01*
X107201416Y-87511937D01*
X107227446Y-87476233D01*
X107254459Y-87439180D01*
X107282355Y-87400916D01*
X107311033Y-87361580D01*
X107340393Y-87321310D01*
X107370333Y-87280244D01*
X107400754Y-87238520D01*
X107431553Y-87196276D01*
X107462632Y-87153650D01*
X107493889Y-87110780D01*
X107525222Y-87067806D01*
X107556533Y-87024863D01*
X107587719Y-86982092D01*
X107618681Y-86939630D01*
X107649316Y-86897614D01*
X107679526Y-86856184D01*
X107709208Y-86815477D01*
X107738263Y-86775632D01*
X107766590Y-86736786D01*
X107794087Y-86699078D01*
X107820655Y-86662645D01*
X107846192Y-86627627D01*
X107870598Y-86594161D01*
X107893772Y-86562384D01*
X107910078Y-86540027D01*
X107926425Y-86517612D01*
X107457796Y-85874967D01*
X107423752Y-85828278D01*
X107390348Y-85782462D01*
X107357671Y-85737637D01*
X107325808Y-85693921D01*
X107294843Y-85651432D01*
X107264863Y-85610290D01*
X107235955Y-85570612D01*
X107208205Y-85532516D01*
X107181698Y-85496122D01*
X107156521Y-85461547D01*
X107132761Y-85428911D01*
X107110502Y-85398330D01*
X107089833Y-85369925D01*
X107070837Y-85343812D01*
X107053603Y-85320111D01*
X107038215Y-85298939D01*
X107024761Y-85280416D01*
X107013326Y-85264659D01*
X107003996Y-85251787D01*
X106996858Y-85241919D01*
X106991998Y-85235172D01*
X106989502Y-85231665D01*
X106989167Y-85231161D01*
X106990798Y-85230029D01*
X106991263Y-85230000D01*
X106993407Y-85230644D01*
X106999440Y-85232544D01*
X107009222Y-85235657D01*
X107022613Y-85239936D01*
X107039474Y-85245338D01*
X107059666Y-85251817D01*
X107083047Y-85259328D01*
X107109480Y-85267827D01*
X107138825Y-85277268D01*
X107170941Y-85287606D01*
X107205689Y-85298796D01*
X107242930Y-85310794D01*
X107282524Y-85323554D01*
X107324332Y-85337031D01*
X107368213Y-85351181D01*
X107414029Y-85365958D01*
X107461639Y-85381318D01*
X107510905Y-85397216D01*
X107561686Y-85413606D01*
X107613843Y-85430444D01*
X107667236Y-85447684D01*
X107721726Y-85465282D01*
X107750467Y-85474566D01*
X107816190Y-85495795D01*
X107878005Y-85515760D01*
X107936032Y-85534499D01*
X107990392Y-85552049D01*
X108041204Y-85568449D01*
X108088588Y-85583737D01*
X108132666Y-85597950D01*
X108173556Y-85611127D01*
X108211379Y-85623306D01*
X108246256Y-85634524D01*
X108278305Y-85644820D01*
X108307648Y-85654233D01*
X108334404Y-85662798D01*
X108358694Y-85670556D01*
X108380638Y-85677544D01*
X108400356Y-85683799D01*
X108417967Y-85689361D01*
X108433593Y-85694266D01*
X108447352Y-85698554D01*
X108459366Y-85702261D01*
X108469755Y-85705427D01*
X108478638Y-85708088D01*
X108486136Y-85710284D01*
X108492368Y-85712051D01*
X108497456Y-85713429D01*
X108501518Y-85714455D01*
X108504676Y-85715167D01*
X108507049Y-85715603D01*
X108508757Y-85715802D01*
X108509921Y-85715800D01*
X108510661Y-85715637D01*
X108511096Y-85715350D01*
X108511109Y-85715337D01*
X108512599Y-85713369D01*
X108516496Y-85708098D01*
X108522712Y-85699643D01*
X108531161Y-85688122D01*
X108541757Y-85673655D01*
X108554413Y-85656360D01*
X108569041Y-85636355D01*
X108585557Y-85613759D01*
X108603872Y-85588692D01*
X108623900Y-85561271D01*
X108645555Y-85531615D01*
X108668750Y-85499843D01*
X108693399Y-85466073D01*
X108719414Y-85430425D01*
X108746709Y-85393017D01*
X108775198Y-85353967D01*
X108804793Y-85313395D01*
X108835409Y-85271418D01*
X108866958Y-85228156D01*
X108899354Y-85183727D01*
X108932510Y-85138250D01*
X108966340Y-85091844D01*
X108986450Y-85064255D01*
X109458258Y-84416968D01*
X109459317Y-85221918D01*
X109460375Y-86026869D01*
X110217490Y-86271426D01*
X110272491Y-86289194D01*
X110326464Y-86306635D01*
X110379270Y-86323703D01*
X110430768Y-86340353D01*
X110480820Y-86356540D01*
X110529286Y-86372218D01*
X110576027Y-86387343D01*
X110620904Y-86401869D01*
X110663776Y-86415752D01*
X110704505Y-86428945D01*
X110742951Y-86441403D01*
X110778974Y-86453082D01*
X110812436Y-86463937D01*
X110843197Y-86473921D01*
X110871116Y-86482990D01*
X110896056Y-86491099D01*
X110917877Y-86498202D01*
X110936438Y-86504255D01*
X110951602Y-86509212D01*
X110963227Y-86513027D01*
X110971176Y-86515657D01*
X110975308Y-86517055D01*
X110975902Y-86517280D01*
X110974544Y-86518386D01*
D15*
X145141000Y-78484000D02*
X144379000Y-78484000D01*
X144379000Y-78484000D02*
X144379000Y-94486000D01*
X144379000Y-94486000D02*
X145141000Y-94486000D01*
D16*
X127400000Y-73120000D02*
X128600000Y-73120000D01*
X128600000Y-74880000D02*
X127400000Y-74880000D01*
X134600000Y-74880000D02*
X133400000Y-74880000D01*
X133400000Y-73120000D02*
X134600000Y-73120000D01*
X134600000Y-99880000D02*
X133400000Y-99880000D01*
X133400000Y-98120000D02*
X134600000Y-98120000D01*
X147400000Y-98120000D02*
X148600000Y-98120000D01*
X148600000Y-99880000D02*
X147400000Y-99880000D01*
X127400000Y-98120000D02*
X128600000Y-98120000D01*
X128600000Y-99880000D02*
X127400000Y-99880000D01*
X167030000Y-99830000D02*
X167030000Y-97170000D01*
X154270000Y-99830000D02*
X167030000Y-99830000D01*
X154270000Y-97170000D02*
X167030000Y-97170000D01*
X154270000Y-99830000D02*
X154270000Y-97170000D01*
X153000000Y-99830000D02*
X151670000Y-99830000D01*
X151670000Y-99830000D02*
X151670000Y-98500000D01*
D14*
G36*
X113232170Y-79881429D02*
X113194504Y-80183266D01*
X113119492Y-80423565D01*
X112997123Y-80634461D01*
X112818580Y-80846820D01*
X112714756Y-80968838D01*
X112670251Y-81075875D01*
X112672915Y-81219603D01*
X112696042Y-81367989D01*
X112720890Y-81560895D01*
X112723187Y-81698828D01*
X112712017Y-81738650D01*
X112637262Y-81753004D01*
X112458950Y-81765091D01*
X112200519Y-81773943D01*
X111885405Y-81778591D01*
X111734475Y-81779054D01*
X111357227Y-81777028D01*
X111075580Y-81768764D01*
X110858160Y-81750404D01*
X110673589Y-81718090D01*
X110490494Y-81667968D01*
X110294018Y-81601983D01*
X109633568Y-81307276D01*
X109055262Y-80915868D01*
X108560845Y-80429371D01*
X108152063Y-79849395D01*
X107933371Y-79423640D01*
X107813143Y-79157758D01*
X107696320Y-78901812D01*
X107605107Y-78704412D01*
X107593076Y-78678750D01*
X107355958Y-78170967D01*
X107168933Y-77756272D01*
X107026149Y-77413742D01*
X106921752Y-77122451D01*
X106849889Y-76861476D01*
X106804708Y-76609891D01*
X106780355Y-76346772D01*
X106770977Y-76051195D01*
X106770514Y-75738090D01*
X106773588Y-75403798D01*
X106778661Y-75113621D01*
X106785125Y-74891800D01*
X106792373Y-74762572D01*
X106795501Y-74741750D01*
X106819570Y-74654785D01*
X106866680Y-74477137D01*
X106928292Y-74241129D01*
X106954858Y-74138500D01*
X107030160Y-73855792D01*
X107105594Y-73587276D01*
X107167476Y-73381325D01*
X107179403Y-73344750D01*
X107241493Y-73132398D01*
X107306032Y-72870553D01*
X107337034Y-72725625D01*
X107397772Y-72494747D01*
X107464536Y-72375225D01*
X107497692Y-72360500D01*
X107577593Y-72403920D01*
X107629292Y-72446424D01*
X107629292Y-73056837D01*
X107551185Y-73359543D01*
X107500787Y-73594320D01*
X107453168Y-73880574D01*
X107428014Y-74075000D01*
X107388672Y-74339852D01*
X107333816Y-74595487D01*
X107290492Y-74741750D01*
X107160925Y-75223391D01*
X107101551Y-75737261D01*
X107115067Y-76236471D01*
X107183331Y-76605226D01*
X107256182Y-76857541D01*
X107331484Y-77105603D01*
X107367491Y-77218250D01*
X107442581Y-77458918D01*
X107514414Y-77708676D01*
X107520971Y-77732984D01*
X107606204Y-77964523D01*
X107723200Y-78188200D01*
X107739315Y-78212831D01*
X107828329Y-78369607D01*
X107942062Y-78605789D01*
X108061795Y-78881441D01*
X108116363Y-79017229D01*
X108414509Y-79641512D01*
X108783293Y-80174186D01*
X109215775Y-80608126D01*
X109705015Y-80936211D01*
X110176029Y-81131410D01*
X110401978Y-81206040D01*
X110583874Y-81275703D01*
X110683192Y-81325612D01*
X110684326Y-81326512D01*
X110777414Y-81356313D01*
X110966355Y-81386251D01*
X111220075Y-81412096D01*
X111406145Y-81424760D01*
X112050889Y-81460287D01*
X111323591Y-80736268D01*
X110985383Y-80389883D01*
X110715965Y-80087836D01*
X110486010Y-79793829D01*
X110266191Y-79471564D01*
X110141397Y-79273040D01*
X109975141Y-78999094D01*
X109836109Y-78762806D01*
X109736574Y-78585584D01*
X109688808Y-78488838D01*
X109686379Y-78479290D01*
X109655646Y-78404043D01*
X109573337Y-78247638D01*
X109454116Y-78037273D01*
X109383094Y-77916750D01*
X109217908Y-77622859D01*
X109053772Y-77302537D01*
X108921205Y-77015914D01*
X108899672Y-76964250D01*
X108791878Y-76701925D01*
X108684394Y-76446002D01*
X108602676Y-76256882D01*
X108519860Y-76049017D01*
X108457475Y-75855291D01*
X108446984Y-75812382D01*
X108366634Y-75473207D01*
X108256093Y-75055375D01*
X108127052Y-74600121D01*
X107991200Y-74148684D01*
X107860230Y-73742301D01*
X107859638Y-73740543D01*
X107629292Y-73056837D01*
X107629292Y-72446424D01*
X107719379Y-72520491D01*
X107899192Y-72689680D01*
X108005376Y-72797432D01*
X108424872Y-73234365D01*
X108881575Y-73256410D01*
X108881575Y-73655927D01*
X108566670Y-73687774D01*
X108562409Y-73688908D01*
X108402118Y-73738243D01*
X108336226Y-73797134D01*
X108336247Y-73907192D01*
X108352333Y-73995769D01*
X108392227Y-74167944D01*
X108457915Y-74415579D01*
X108537123Y-74692971D01*
X108561186Y-74773500D01*
X108641263Y-75046402D01*
X108711053Y-75298451D01*
X108758658Y-75486234D01*
X108767104Y-75524871D01*
X108809896Y-75736492D01*
X108946573Y-75613908D01*
X109241379Y-75431237D01*
X109636013Y-75319829D01*
X110102796Y-75283172D01*
X110102796Y-75727561D01*
X109902721Y-75749673D01*
X109650184Y-75805435D01*
X109389213Y-75881883D01*
X109163834Y-75966051D01*
X109018076Y-76044973D01*
X109014146Y-76048151D01*
X108976692Y-76091886D01*
X108965857Y-76154427D01*
X108987796Y-76254060D01*
X109048662Y-76409072D01*
X109154609Y-76637749D01*
X109311791Y-76958379D01*
X109338730Y-77012640D01*
X109459052Y-77261284D01*
X109554353Y-77470575D01*
X109612255Y-77612618D01*
X109623973Y-77655491D01*
X109656419Y-77768566D01*
X109682247Y-77816791D01*
X109735381Y-77857740D01*
X109819711Y-77826011D01*
X109961671Y-77712306D01*
X110207159Y-77564102D01*
X110541168Y-77457723D01*
X110930155Y-77399931D01*
X111340579Y-77397491D01*
X111373755Y-77400516D01*
X111373755Y-77827119D01*
X111128983Y-77847547D01*
X110983792Y-77863088D01*
X110677265Y-77902035D01*
X110468270Y-77945148D01*
X110327402Y-78000579D01*
X110229847Y-78072120D01*
X110122242Y-78224841D01*
X110135405Y-78383874D01*
X110196586Y-78488250D01*
X110250841Y-78596528D01*
X110286862Y-78696526D01*
X110389415Y-78928471D01*
X110568638Y-79225235D01*
X110808667Y-79564645D01*
X111093643Y-79924530D01*
X111407706Y-80282719D01*
X111467039Y-80346296D01*
X112067750Y-80983444D01*
X112308408Y-80828694D01*
X112471498Y-80697875D01*
X112588242Y-80557905D01*
X112608539Y-80517518D01*
X112671403Y-80363783D01*
X112759670Y-80160851D01*
X112796507Y-80079029D01*
X112911292Y-79678697D01*
X112903505Y-79260657D01*
X112773528Y-78839002D01*
X112762300Y-78814843D01*
X112585482Y-78501429D01*
X112377826Y-78269946D01*
X112098986Y-78075685D01*
X112091281Y-78071223D01*
X111869652Y-77946011D01*
X111703349Y-77868694D01*
X111551630Y-77831616D01*
X111373755Y-77827119D01*
X111373755Y-77400516D01*
X111466248Y-77408952D01*
X111676089Y-77424428D01*
X111810785Y-77416317D01*
X111845500Y-77394760D01*
X111813226Y-77204377D01*
X111728348Y-76951413D01*
X111608787Y-76678904D01*
X111472462Y-76429891D01*
X111398126Y-76320267D01*
X111234913Y-76123340D01*
X111076192Y-75995876D01*
X110868264Y-75899325D01*
X110756817Y-75859892D01*
X110503029Y-75788161D01*
X110253840Y-75740196D01*
X110102796Y-75727561D01*
X110102796Y-75283172D01*
X110123970Y-75281509D01*
X110132286Y-75281500D01*
X110384009Y-75279420D01*
X110534378Y-75268324D01*
X110609028Y-75240922D01*
X110633593Y-75189925D01*
X110634786Y-75138625D01*
X110605438Y-75011598D01*
X110532412Y-74814358D01*
X110431338Y-74588990D01*
X110428411Y-74583000D01*
X110273941Y-74307923D01*
X110109019Y-74112113D01*
X109929627Y-73972008D01*
X109609100Y-73807579D01*
X109244401Y-73699040D01*
X108881575Y-73655927D01*
X108881575Y-73256410D01*
X108976311Y-73260983D01*
X109422754Y-73310421D01*
X109789003Y-73421499D01*
X110113558Y-73610676D01*
X110417929Y-73877323D01*
X110722182Y-74248566D01*
X110932130Y-74650403D01*
X111035011Y-75056450D01*
X111042957Y-75169618D01*
X111055015Y-75370168D01*
X111095943Y-75493770D01*
X111193057Y-75590468D01*
X111319015Y-75675320D01*
X111624638Y-75937449D01*
X111887132Y-76287762D01*
X112086802Y-76689625D01*
X112203954Y-77106403D01*
X112226532Y-77363507D01*
X112234241Y-77534366D01*
X112272643Y-77657215D01*
X112364709Y-77774083D01*
X112533414Y-77927002D01*
X112535531Y-77928825D01*
X112743066Y-78129865D01*
X112943508Y-78359763D01*
X113043500Y-78495337D01*
X113131428Y-78634177D01*
X113188713Y-78754087D01*
X113221907Y-78887688D01*
X113237564Y-79067599D01*
X113242236Y-79326438D01*
X113242500Y-79485916D01*
X113232170Y-79881429D01*
X113232170Y-79881429D01*
G37*
X113232170Y-79881429D02*
X113194504Y-80183266D01*
X113119492Y-80423565D01*
X112997123Y-80634461D01*
X112818580Y-80846820D01*
X112714756Y-80968838D01*
X112670251Y-81075875D01*
X112672915Y-81219603D01*
X112696042Y-81367989D01*
X112720890Y-81560895D01*
X112723187Y-81698828D01*
X112712017Y-81738650D01*
X112637262Y-81753004D01*
X112458950Y-81765091D01*
X112200519Y-81773943D01*
X111885405Y-81778591D01*
X111734475Y-81779054D01*
X111357227Y-81777028D01*
X111075580Y-81768764D01*
X110858160Y-81750404D01*
X110673589Y-81718090D01*
X110490494Y-81667968D01*
X110294018Y-81601983D01*
X109633568Y-81307276D01*
X109055262Y-80915868D01*
X108560845Y-80429371D01*
X108152063Y-79849395D01*
X107933371Y-79423640D01*
X107813143Y-79157758D01*
X107696320Y-78901812D01*
X107605107Y-78704412D01*
X107593076Y-78678750D01*
X107355958Y-78170967D01*
X107168933Y-77756272D01*
X107026149Y-77413742D01*
X106921752Y-77122451D01*
X106849889Y-76861476D01*
X106804708Y-76609891D01*
X106780355Y-76346772D01*
X106770977Y-76051195D01*
X106770514Y-75738090D01*
X106773588Y-75403798D01*
X106778661Y-75113621D01*
X106785125Y-74891800D01*
X106792373Y-74762572D01*
X106795501Y-74741750D01*
X106819570Y-74654785D01*
X106866680Y-74477137D01*
X106928292Y-74241129D01*
X106954858Y-74138500D01*
X107030160Y-73855792D01*
X107105594Y-73587276D01*
X107167476Y-73381325D01*
X107179403Y-73344750D01*
X107241493Y-73132398D01*
X107306032Y-72870553D01*
X107337034Y-72725625D01*
X107397772Y-72494747D01*
X107464536Y-72375225D01*
X107497692Y-72360500D01*
X107577593Y-72403920D01*
X107629292Y-72446424D01*
X107629292Y-73056837D01*
X107551185Y-73359543D01*
X107500787Y-73594320D01*
X107453168Y-73880574D01*
X107428014Y-74075000D01*
X107388672Y-74339852D01*
X107333816Y-74595487D01*
X107290492Y-74741750D01*
X107160925Y-75223391D01*
X107101551Y-75737261D01*
X107115067Y-76236471D01*
X107183331Y-76605226D01*
X107256182Y-76857541D01*
X107331484Y-77105603D01*
X107367491Y-77218250D01*
X107442581Y-77458918D01*
X107514414Y-77708676D01*
X107520971Y-77732984D01*
X107606204Y-77964523D01*
X107723200Y-78188200D01*
X107739315Y-78212831D01*
X107828329Y-78369607D01*
X107942062Y-78605789D01*
X108061795Y-78881441D01*
X108116363Y-79017229D01*
X108414509Y-79641512D01*
X108783293Y-80174186D01*
X109215775Y-80608126D01*
X109705015Y-80936211D01*
X110176029Y-81131410D01*
X110401978Y-81206040D01*
X110583874Y-81275703D01*
X110683192Y-81325612D01*
X110684326Y-81326512D01*
X110777414Y-81356313D01*
X110966355Y-81386251D01*
X111220075Y-81412096D01*
X111406145Y-81424760D01*
X112050889Y-81460287D01*
X111323591Y-80736268D01*
X110985383Y-80389883D01*
X110715965Y-80087836D01*
X110486010Y-79793829D01*
X110266191Y-79471564D01*
X110141397Y-79273040D01*
X109975141Y-78999094D01*
X109836109Y-78762806D01*
X109736574Y-78585584D01*
X109688808Y-78488838D01*
X109686379Y-78479290D01*
X109655646Y-78404043D01*
X109573337Y-78247638D01*
X109454116Y-78037273D01*
X109383094Y-77916750D01*
X109217908Y-77622859D01*
X109053772Y-77302537D01*
X108921205Y-77015914D01*
X108899672Y-76964250D01*
X108791878Y-76701925D01*
X108684394Y-76446002D01*
X108602676Y-76256882D01*
X108519860Y-76049017D01*
X108457475Y-75855291D01*
X108446984Y-75812382D01*
X108366634Y-75473207D01*
X108256093Y-75055375D01*
X108127052Y-74600121D01*
X107991200Y-74148684D01*
X107860230Y-73742301D01*
X107859638Y-73740543D01*
X107629292Y-73056837D01*
X107629292Y-72446424D01*
X107719379Y-72520491D01*
X107899192Y-72689680D01*
X108005376Y-72797432D01*
X108424872Y-73234365D01*
X108881575Y-73256410D01*
X108881575Y-73655927D01*
X108566670Y-73687774D01*
X108562409Y-73688908D01*
X108402118Y-73738243D01*
X108336226Y-73797134D01*
X108336247Y-73907192D01*
X108352333Y-73995769D01*
X108392227Y-74167944D01*
X108457915Y-74415579D01*
X108537123Y-74692971D01*
X108561186Y-74773500D01*
X108641263Y-75046402D01*
X108711053Y-75298451D01*
X108758658Y-75486234D01*
X108767104Y-75524871D01*
X108809896Y-75736492D01*
X108946573Y-75613908D01*
X109241379Y-75431237D01*
X109636013Y-75319829D01*
X110102796Y-75283172D01*
X110102796Y-75727561D01*
X109902721Y-75749673D01*
X109650184Y-75805435D01*
X109389213Y-75881883D01*
X109163834Y-75966051D01*
X109018076Y-76044973D01*
X109014146Y-76048151D01*
X108976692Y-76091886D01*
X108965857Y-76154427D01*
X108987796Y-76254060D01*
X109048662Y-76409072D01*
X109154609Y-76637749D01*
X109311791Y-76958379D01*
X109338730Y-77012640D01*
X109459052Y-77261284D01*
X109554353Y-77470575D01*
X109612255Y-77612618D01*
X109623973Y-77655491D01*
X109656419Y-77768566D01*
X109682247Y-77816791D01*
X109735381Y-77857740D01*
X109819711Y-77826011D01*
X109961671Y-77712306D01*
X110207159Y-77564102D01*
X110541168Y-77457723D01*
X110930155Y-77399931D01*
X111340579Y-77397491D01*
X111373755Y-77400516D01*
X111373755Y-77827119D01*
X111128983Y-77847547D01*
X110983792Y-77863088D01*
X110677265Y-77902035D01*
X110468270Y-77945148D01*
X110327402Y-78000579D01*
X110229847Y-78072120D01*
X110122242Y-78224841D01*
X110135405Y-78383874D01*
X110196586Y-78488250D01*
X110250841Y-78596528D01*
X110286862Y-78696526D01*
X110389415Y-78928471D01*
X110568638Y-79225235D01*
X110808667Y-79564645D01*
X111093643Y-79924530D01*
X111407706Y-80282719D01*
X111467039Y-80346296D01*
X112067750Y-80983444D01*
X112308408Y-80828694D01*
X112471498Y-80697875D01*
X112588242Y-80557905D01*
X112608539Y-80517518D01*
X112671403Y-80363783D01*
X112759670Y-80160851D01*
X112796507Y-80079029D01*
X112911292Y-79678697D01*
X112903505Y-79260657D01*
X112773528Y-78839002D01*
X112762300Y-78814843D01*
X112585482Y-78501429D01*
X112377826Y-78269946D01*
X112098986Y-78075685D01*
X112091281Y-78071223D01*
X111869652Y-77946011D01*
X111703349Y-77868694D01*
X111551630Y-77831616D01*
X111373755Y-77827119D01*
X111373755Y-77400516D01*
X111466248Y-77408952D01*
X111676089Y-77424428D01*
X111810785Y-77416317D01*
X111845500Y-77394760D01*
X111813226Y-77204377D01*
X111728348Y-76951413D01*
X111608787Y-76678904D01*
X111472462Y-76429891D01*
X111398126Y-76320267D01*
X111234913Y-76123340D01*
X111076192Y-75995876D01*
X110868264Y-75899325D01*
X110756817Y-75859892D01*
X110503029Y-75788161D01*
X110253840Y-75740196D01*
X110102796Y-75727561D01*
X110102796Y-75283172D01*
X110123970Y-75281509D01*
X110132286Y-75281500D01*
X110384009Y-75279420D01*
X110534378Y-75268324D01*
X110609028Y-75240922D01*
X110633593Y-75189925D01*
X110634786Y-75138625D01*
X110605438Y-75011598D01*
X110532412Y-74814358D01*
X110431338Y-74588990D01*
X110428411Y-74583000D01*
X110273941Y-74307923D01*
X110109019Y-74112113D01*
X109929627Y-73972008D01*
X109609100Y-73807579D01*
X109244401Y-73699040D01*
X108881575Y-73655927D01*
X108881575Y-73256410D01*
X108976311Y-73260983D01*
X109422754Y-73310421D01*
X109789003Y-73421499D01*
X110113558Y-73610676D01*
X110417929Y-73877323D01*
X110722182Y-74248566D01*
X110932130Y-74650403D01*
X111035011Y-75056450D01*
X111042957Y-75169618D01*
X111055015Y-75370168D01*
X111095943Y-75493770D01*
X111193057Y-75590468D01*
X111319015Y-75675320D01*
X111624638Y-75937449D01*
X111887132Y-76287762D01*
X112086802Y-76689625D01*
X112203954Y-77106403D01*
X112226532Y-77363507D01*
X112234241Y-77534366D01*
X112272643Y-77657215D01*
X112364709Y-77774083D01*
X112533414Y-77927002D01*
X112535531Y-77928825D01*
X112743066Y-78129865D01*
X112943508Y-78359763D01*
X113043500Y-78495337D01*
X113131428Y-78634177D01*
X113188713Y-78754087D01*
X113221907Y-78887688D01*
X113237564Y-79067599D01*
X113242236Y-79326438D01*
X113242500Y-79485916D01*
X113232170Y-79881429D01*
G36*
X108624553Y-77298503D02*
X108514788Y-77434181D01*
X108383323Y-77502590D01*
X108364058Y-77504000D01*
X108291695Y-77451386D01*
X108210922Y-77322274D01*
X108199613Y-77297625D01*
X108140216Y-77174752D01*
X108112259Y-77162539D01*
X108104180Y-77230377D01*
X108125867Y-77358207D01*
X108162500Y-77408750D01*
X108224265Y-77491037D01*
X108180114Y-77556764D01*
X108121876Y-77567500D01*
X107982294Y-77513222D01*
X107889215Y-77377149D01*
X107853639Y-77199425D01*
X107886567Y-77020192D01*
X107946095Y-76926041D01*
X108010810Y-76845617D01*
X107978636Y-76833762D01*
X107917928Y-76848135D01*
X107762290Y-76824225D01*
X107629907Y-76723179D01*
X107492452Y-76618113D01*
X107368934Y-76573605D01*
X107358882Y-76573834D01*
X107255363Y-76537059D01*
X107228635Y-76488000D01*
X107276429Y-76403427D01*
X107443324Y-76288641D01*
X107640183Y-76186375D01*
X107852563Y-76086931D01*
X107980996Y-76030516D01*
X107980996Y-76305694D01*
X107840826Y-76363234D01*
X107730197Y-76460891D01*
X107725141Y-76552746D01*
X107818056Y-76603565D01*
X107892625Y-76603342D01*
X108036214Y-76550727D01*
X108087542Y-76440375D01*
X108073220Y-76324755D01*
X107980996Y-76305694D01*
X107980996Y-76030516D01*
X108019157Y-76013753D01*
X108108304Y-75980654D01*
X108113127Y-75980000D01*
X108130750Y-75997478D01*
X108130750Y-76742000D01*
X108099000Y-76773750D01*
X108130750Y-76805500D01*
X108162500Y-76773750D01*
X108130750Y-76742000D01*
X108130750Y-75997478D01*
X108165237Y-76031683D01*
X108241206Y-76160272D01*
X108263515Y-76205429D01*
X108329735Y-76384896D01*
X108323625Y-76523440D01*
X108299606Y-76586429D01*
X108260284Y-76700641D01*
X108293587Y-76739937D01*
X108322612Y-76742000D01*
X108354993Y-76754781D01*
X108354993Y-76996000D01*
X108320055Y-77042545D01*
X108330037Y-77091250D01*
X108375109Y-77174801D01*
X108391544Y-77186500D01*
X108413742Y-77134647D01*
X108416500Y-77091250D01*
X108383269Y-77006730D01*
X108354993Y-76996000D01*
X108354993Y-76754781D01*
X108458691Y-76795712D01*
X108585557Y-76925546D01*
X108662667Y-77084548D01*
X108670500Y-77144908D01*
X108624553Y-77298503D01*
X108624553Y-77298503D01*
G37*
X108624553Y-77298503D02*
X108514788Y-77434181D01*
X108383323Y-77502590D01*
X108364058Y-77504000D01*
X108291695Y-77451386D01*
X108210922Y-77322274D01*
X108199613Y-77297625D01*
X108140216Y-77174752D01*
X108112259Y-77162539D01*
X108104180Y-77230377D01*
X108125867Y-77358207D01*
X108162500Y-77408750D01*
X108224265Y-77491037D01*
X108180114Y-77556764D01*
X108121876Y-77567500D01*
X107982294Y-77513222D01*
X107889215Y-77377149D01*
X107853639Y-77199425D01*
X107886567Y-77020192D01*
X107946095Y-76926041D01*
X108010810Y-76845617D01*
X107978636Y-76833762D01*
X107917928Y-76848135D01*
X107762290Y-76824225D01*
X107629907Y-76723179D01*
X107492452Y-76618113D01*
X107368934Y-76573605D01*
X107358882Y-76573834D01*
X107255363Y-76537059D01*
X107228635Y-76488000D01*
X107276429Y-76403427D01*
X107443324Y-76288641D01*
X107640183Y-76186375D01*
X107852563Y-76086931D01*
X107980996Y-76030516D01*
X107980996Y-76305694D01*
X107840826Y-76363234D01*
X107730197Y-76460891D01*
X107725141Y-76552746D01*
X107818056Y-76603565D01*
X107892625Y-76603342D01*
X108036214Y-76550727D01*
X108087542Y-76440375D01*
X108073220Y-76324755D01*
X107980996Y-76305694D01*
X107980996Y-76030516D01*
X108019157Y-76013753D01*
X108108304Y-75980654D01*
X108113127Y-75980000D01*
X108130750Y-75997478D01*
X108130750Y-76742000D01*
X108099000Y-76773750D01*
X108130750Y-76805500D01*
X108162500Y-76773750D01*
X108130750Y-76742000D01*
X108130750Y-75997478D01*
X108165237Y-76031683D01*
X108241206Y-76160272D01*
X108263515Y-76205429D01*
X108329735Y-76384896D01*
X108323625Y-76523440D01*
X108299606Y-76586429D01*
X108260284Y-76700641D01*
X108293587Y-76739937D01*
X108322612Y-76742000D01*
X108354993Y-76754781D01*
X108354993Y-76996000D01*
X108320055Y-77042545D01*
X108330037Y-77091250D01*
X108375109Y-77174801D01*
X108391544Y-77186500D01*
X108413742Y-77134647D01*
X108416500Y-77091250D01*
X108383269Y-77006730D01*
X108354993Y-76996000D01*
X108354993Y-76754781D01*
X108458691Y-76795712D01*
X108585557Y-76925546D01*
X108662667Y-77084548D01*
X108670500Y-77144908D01*
X108624553Y-77298503D01*
G36*
X108962138Y-77915900D02*
X108876671Y-78042878D01*
X108712525Y-78161747D01*
X108516450Y-78244494D01*
X108377848Y-78266000D01*
X108315332Y-78215506D01*
X108230269Y-78095293D01*
X108150400Y-77952256D01*
X108103468Y-77833295D01*
X108100931Y-77797870D01*
X108129794Y-77744402D01*
X108167587Y-77678625D01*
X108285225Y-77582716D01*
X108420469Y-77581898D01*
X108420469Y-77833406D01*
X108361429Y-77850740D01*
X108364907Y-77888968D01*
X108445303Y-77985202D01*
X108476032Y-78000093D01*
X108535072Y-77982759D01*
X108531594Y-77944531D01*
X108451198Y-77848297D01*
X108420469Y-77833406D01*
X108420469Y-77581898D01*
X108444110Y-77581754D01*
X108606230Y-77671453D01*
X108665892Y-77734813D01*
X108752545Y-77828166D01*
X108796237Y-77842331D01*
X108797500Y-77834599D01*
X108756674Y-77738436D01*
X108702250Y-77671821D01*
X108618064Y-77549847D01*
X108627770Y-77464315D01*
X108700787Y-77440500D01*
X108817540Y-77496101D01*
X108914902Y-77631631D01*
X108967084Y-77800181D01*
X108962138Y-77915900D01*
X108962138Y-77915900D01*
G37*
X108962138Y-77915900D02*
X108876671Y-78042878D01*
X108712525Y-78161747D01*
X108516450Y-78244494D01*
X108377848Y-78266000D01*
X108315332Y-78215506D01*
X108230269Y-78095293D01*
X108150400Y-77952256D01*
X108103468Y-77833295D01*
X108100931Y-77797870D01*
X108129794Y-77744402D01*
X108167587Y-77678625D01*
X108285225Y-77582716D01*
X108420469Y-77581898D01*
X108420469Y-77833406D01*
X108361429Y-77850740D01*
X108364907Y-77888968D01*
X108445303Y-77985202D01*
X108476032Y-78000093D01*
X108535072Y-77982759D01*
X108531594Y-77944531D01*
X108451198Y-77848297D01*
X108420469Y-77833406D01*
X108420469Y-77581898D01*
X108444110Y-77581754D01*
X108606230Y-77671453D01*
X108665892Y-77734813D01*
X108752545Y-77828166D01*
X108796237Y-77842331D01*
X108797500Y-77834599D01*
X108756674Y-77738436D01*
X108702250Y-77671821D01*
X108618064Y-77549847D01*
X108627770Y-77464315D01*
X108700787Y-77440500D01*
X108817540Y-77496101D01*
X108914902Y-77631631D01*
X108967084Y-77800181D01*
X108962138Y-77915900D01*
G36*
X110228128Y-80037841D02*
X110068523Y-80139050D01*
X109825501Y-80250866D01*
X109820089Y-80253046D01*
X109350427Y-80441743D01*
X109234126Y-80290496D01*
X109132515Y-80088810D01*
X109136143Y-79903360D01*
X109220178Y-79781900D01*
X109280510Y-79718326D01*
X109242332Y-79683829D01*
X109143112Y-79662776D01*
X108957867Y-79572077D01*
X108864820Y-79459678D01*
X108807439Y-79334035D01*
X108819445Y-79235288D01*
X108903147Y-79106800D01*
X109037524Y-78925046D01*
X108861855Y-78950829D01*
X108696173Y-78935259D01*
X108583119Y-78829463D01*
X108460535Y-78719338D01*
X108342721Y-78680532D01*
X108212667Y-78656355D01*
X108197858Y-78592426D01*
X108294893Y-78494291D01*
X108500370Y-78367500D01*
X108550919Y-78340871D01*
X108811232Y-78214904D01*
X108891183Y-78188269D01*
X108891183Y-78452092D01*
X108779501Y-78495757D01*
X108776334Y-78498833D01*
X108738556Y-78590189D01*
X108740905Y-78702686D01*
X108779603Y-78771265D01*
X108792307Y-78774000D01*
X108954218Y-78731561D01*
X109044210Y-78624033D01*
X109051500Y-78576706D01*
X109001564Y-78484655D01*
X108891183Y-78452092D01*
X108891183Y-78188269D01*
X108987954Y-78156030D01*
X109104667Y-78163204D01*
X109184952Y-78235379D01*
X109226125Y-78310905D01*
X109297527Y-78544376D01*
X109280753Y-78729227D01*
X109194375Y-78832413D01*
X109136749Y-78877042D01*
X109183376Y-78895681D01*
X109264365Y-78898614D01*
X109264365Y-79156034D01*
X109133340Y-79183504D01*
X109069163Y-79226237D01*
X109027419Y-79328842D01*
X109054776Y-79431903D01*
X109125969Y-79472500D01*
X109260977Y-79433982D01*
X109381461Y-79345251D01*
X109400750Y-79308503D01*
X109400750Y-79599500D01*
X109369000Y-79631250D01*
X109400750Y-79663000D01*
X109432500Y-79631250D01*
X109400750Y-79599500D01*
X109400750Y-79308503D01*
X109432500Y-79248015D01*
X109381673Y-79178592D01*
X109264365Y-79156034D01*
X109264365Y-78898614D01*
X109276925Y-78899069D01*
X109440460Y-78924101D01*
X109546800Y-78977199D01*
X109606368Y-79108031D01*
X109619540Y-79290813D01*
X109586315Y-79459272D01*
X109546800Y-79523300D01*
X109517716Y-79578333D01*
X109576608Y-79593897D01*
X109576608Y-79817651D01*
X109501439Y-79850589D01*
X109393021Y-79952172D01*
X109375065Y-80067177D01*
X109431188Y-80138438D01*
X109539330Y-80143751D01*
X109656069Y-80079762D01*
X109723500Y-79983333D01*
X109725158Y-79951304D01*
X109677672Y-79829096D01*
X109576608Y-79817651D01*
X109576608Y-79593897D01*
X109593833Y-79598450D01*
X109643412Y-79599500D01*
X109806216Y-79645910D01*
X109886275Y-79753246D01*
X109986887Y-79874196D01*
X110123038Y-79896121D01*
X110263727Y-79906549D01*
X110295976Y-79957065D01*
X110228128Y-80037841D01*
X110228128Y-80037841D01*
G37*
X110228128Y-80037841D02*
X110068523Y-80139050D01*
X109825501Y-80250866D01*
X109820089Y-80253046D01*
X109350427Y-80441743D01*
X109234126Y-80290496D01*
X109132515Y-80088810D01*
X109136143Y-79903360D01*
X109220178Y-79781900D01*
X109280510Y-79718326D01*
X109242332Y-79683829D01*
X109143112Y-79662776D01*
X108957867Y-79572077D01*
X108864820Y-79459678D01*
X108807439Y-79334035D01*
X108819445Y-79235288D01*
X108903147Y-79106800D01*
X109037524Y-78925046D01*
X108861855Y-78950829D01*
X108696173Y-78935259D01*
X108583119Y-78829463D01*
X108460535Y-78719338D01*
X108342721Y-78680532D01*
X108212667Y-78656355D01*
X108197858Y-78592426D01*
X108294893Y-78494291D01*
X108500370Y-78367500D01*
X108550919Y-78340871D01*
X108811232Y-78214904D01*
X108891183Y-78188269D01*
X108891183Y-78452092D01*
X108779501Y-78495757D01*
X108776334Y-78498833D01*
X108738556Y-78590189D01*
X108740905Y-78702686D01*
X108779603Y-78771265D01*
X108792307Y-78774000D01*
X108954218Y-78731561D01*
X109044210Y-78624033D01*
X109051500Y-78576706D01*
X109001564Y-78484655D01*
X108891183Y-78452092D01*
X108891183Y-78188269D01*
X108987954Y-78156030D01*
X109104667Y-78163204D01*
X109184952Y-78235379D01*
X109226125Y-78310905D01*
X109297527Y-78544376D01*
X109280753Y-78729227D01*
X109194375Y-78832413D01*
X109136749Y-78877042D01*
X109183376Y-78895681D01*
X109264365Y-78898614D01*
X109264365Y-79156034D01*
X109133340Y-79183504D01*
X109069163Y-79226237D01*
X109027419Y-79328842D01*
X109054776Y-79431903D01*
X109125969Y-79472500D01*
X109260977Y-79433982D01*
X109381461Y-79345251D01*
X109400750Y-79308503D01*
X109400750Y-79599500D01*
X109369000Y-79631250D01*
X109400750Y-79663000D01*
X109432500Y-79631250D01*
X109400750Y-79599500D01*
X109400750Y-79308503D01*
X109432500Y-79248015D01*
X109381673Y-79178592D01*
X109264365Y-79156034D01*
X109264365Y-78898614D01*
X109276925Y-78899069D01*
X109440460Y-78924101D01*
X109546800Y-78977199D01*
X109606368Y-79108031D01*
X109619540Y-79290813D01*
X109586315Y-79459272D01*
X109546800Y-79523300D01*
X109517716Y-79578333D01*
X109576608Y-79593897D01*
X109576608Y-79817651D01*
X109501439Y-79850589D01*
X109393021Y-79952172D01*
X109375065Y-80067177D01*
X109431188Y-80138438D01*
X109539330Y-80143751D01*
X109656069Y-80079762D01*
X109723500Y-79983333D01*
X109725158Y-79951304D01*
X109677672Y-79829096D01*
X109576608Y-79817651D01*
X109576608Y-79593897D01*
X109593833Y-79598450D01*
X109643412Y-79599500D01*
X109806216Y-79645910D01*
X109886275Y-79753246D01*
X109986887Y-79874196D01*
X110123038Y-79896121D01*
X110263727Y-79906549D01*
X110295976Y-79957065D01*
X110228128Y-80037841D01*
G36*
X110600098Y-77101172D02*
X110575500Y-77091250D01*
X110514923Y-77034188D01*
X110512000Y-77024002D01*
X110561130Y-76996728D01*
X110575500Y-76996000D01*
X110636560Y-77044815D01*
X110639000Y-77063247D01*
X110600098Y-77101172D01*
X110600098Y-77101172D01*
G37*
X110600098Y-77101172D02*
X110575500Y-77091250D01*
X110514923Y-77034188D01*
X110512000Y-77024002D01*
X110561130Y-76996728D01*
X110575500Y-76996000D01*
X110636560Y-77044815D01*
X110639000Y-77063247D01*
X110600098Y-77101172D01*
G36*
X100138750Y-81194000D02*
X100107000Y-81162250D01*
X100138750Y-81130500D01*
X100170500Y-81162250D01*
X100138750Y-81194000D01*
X100138750Y-81194000D01*
G37*
X100138750Y-81194000D02*
X100107000Y-81162250D01*
X100138750Y-81130500D01*
X100170500Y-81162250D01*
X100138750Y-81194000D01*
G36*
X102977755Y-87125779D02*
X102946921Y-87210260D01*
X102910855Y-87329728D01*
X102916105Y-87446463D01*
X102920633Y-87551016D01*
X102891827Y-87570080D01*
X102854508Y-87600422D01*
X102837590Y-87719644D01*
X102837501Y-87730752D01*
X102829768Y-87849411D01*
X102783774Y-87906124D01*
X102665327Y-87923720D01*
X102546570Y-87925000D01*
X102255640Y-87925000D01*
X102287813Y-87718625D01*
X102329735Y-87502475D01*
X102374525Y-87321750D01*
X102416275Y-87027683D01*
X102385190Y-86741297D01*
X102328461Y-86589557D01*
X102263176Y-86497433D01*
X102210825Y-86515043D01*
X102196647Y-86535296D01*
X102150560Y-86588745D01*
X102137860Y-86528000D01*
X102111841Y-86488326D01*
X102033878Y-86554668D01*
X102009888Y-86582659D01*
X101906578Y-86803381D01*
X101885000Y-87011284D01*
X101872090Y-87179243D01*
X101839509Y-87278515D01*
X101821501Y-87290000D01*
X101767742Y-87325503D01*
X101768255Y-87337625D01*
X101749176Y-87451877D01*
X101678843Y-87607874D01*
X101585614Y-87748408D01*
X101543065Y-87791929D01*
X101478211Y-87886936D01*
X101482761Y-87942006D01*
X101486954Y-87982978D01*
X101466187Y-87975348D01*
X101375805Y-87964264D01*
X101202661Y-87969963D01*
X101047913Y-87984286D01*
X100860311Y-87998698D01*
X100741963Y-87993512D01*
X100718285Y-87975499D01*
X100696138Y-87928004D01*
X100650498Y-87917062D01*
X100514624Y-87904859D01*
X100479046Y-87901187D01*
X100391588Y-87843314D01*
X100362749Y-87798000D01*
X100305064Y-87674571D01*
X100228258Y-87512250D01*
X100182608Y-87375551D01*
X100165143Y-87196963D01*
X100173996Y-86943160D01*
X100187305Y-86782000D01*
X100218365Y-86438092D01*
X100243066Y-86200322D01*
X100270173Y-86048733D01*
X100308453Y-85963366D01*
X100365135Y-85925296D01*
X100365135Y-87750068D01*
X100361000Y-87758754D01*
X100405703Y-87816703D01*
X100424500Y-87829750D01*
X100483866Y-87845931D01*
X100488000Y-87837245D01*
X100443298Y-87779296D01*
X100424500Y-87766250D01*
X100365135Y-87750068D01*
X100365135Y-85925296D01*
X100366672Y-85924263D01*
X100453597Y-85911467D01*
X100572342Y-85905395D01*
X100754727Y-85900693D01*
X100842975Y-85924869D01*
X100868604Y-85988381D01*
X100869000Y-86003820D01*
X100835685Y-86139275D01*
X100802845Y-86187755D01*
X100767316Y-86279674D01*
X100734110Y-86461882D01*
X100709616Y-86697733D01*
X100706955Y-86737629D01*
X100694766Y-86985818D01*
X100699743Y-87138147D01*
X100727715Y-87225248D01*
X100784512Y-87277754D01*
X100812798Y-87293905D01*
X100989232Y-87327611D01*
X101148296Y-87253309D01*
X101260744Y-87089436D01*
X101287767Y-86994512D01*
X101305184Y-86821197D01*
X101292760Y-86692743D01*
X101291501Y-86689261D01*
X101292426Y-86586556D01*
X101317236Y-86557441D01*
X101380607Y-86477767D01*
X101457328Y-86330575D01*
X101470927Y-86299122D01*
X101616555Y-86100395D01*
X101838760Y-85962054D01*
X102092440Y-85908109D01*
X102191770Y-85915396D01*
X102460614Y-85984332D01*
X102657589Y-86082883D01*
X102753530Y-86193671D01*
X102829453Y-86338673D01*
X102879497Y-86406657D01*
X102937079Y-86534637D01*
X102975479Y-86730882D01*
X102990453Y-86944794D01*
X102977755Y-87125779D01*
X102977755Y-87125779D01*
G37*
X102977755Y-87125779D02*
X102946921Y-87210260D01*
X102910855Y-87329728D01*
X102916105Y-87446463D01*
X102920633Y-87551016D01*
X102891827Y-87570080D01*
X102854508Y-87600422D01*
X102837590Y-87719644D01*
X102837501Y-87730752D01*
X102829768Y-87849411D01*
X102783774Y-87906124D01*
X102665327Y-87923720D01*
X102546570Y-87925000D01*
X102255640Y-87925000D01*
X102287813Y-87718625D01*
X102329735Y-87502475D01*
X102374525Y-87321750D01*
X102416275Y-87027683D01*
X102385190Y-86741297D01*
X102328461Y-86589557D01*
X102263176Y-86497433D01*
X102210825Y-86515043D01*
X102196647Y-86535296D01*
X102150560Y-86588745D01*
X102137860Y-86528000D01*
X102111841Y-86488326D01*
X102033878Y-86554668D01*
X102009888Y-86582659D01*
X101906578Y-86803381D01*
X101885000Y-87011284D01*
X101872090Y-87179243D01*
X101839509Y-87278515D01*
X101821501Y-87290000D01*
X101767742Y-87325503D01*
X101768255Y-87337625D01*
X101749176Y-87451877D01*
X101678843Y-87607874D01*
X101585614Y-87748408D01*
X101543065Y-87791929D01*
X101478211Y-87886936D01*
X101482761Y-87942006D01*
X101486954Y-87982978D01*
X101466187Y-87975348D01*
X101375805Y-87964264D01*
X101202661Y-87969963D01*
X101047913Y-87984286D01*
X100860311Y-87998698D01*
X100741963Y-87993512D01*
X100718285Y-87975499D01*
X100696138Y-87928004D01*
X100650498Y-87917062D01*
X100514624Y-87904859D01*
X100479046Y-87901187D01*
X100391588Y-87843314D01*
X100362749Y-87798000D01*
X100305064Y-87674571D01*
X100228258Y-87512250D01*
X100182608Y-87375551D01*
X100165143Y-87196963D01*
X100173996Y-86943160D01*
X100187305Y-86782000D01*
X100218365Y-86438092D01*
X100243066Y-86200322D01*
X100270173Y-86048733D01*
X100308453Y-85963366D01*
X100365135Y-85925296D01*
X100365135Y-87750068D01*
X100361000Y-87758754D01*
X100405703Y-87816703D01*
X100424500Y-87829750D01*
X100483866Y-87845931D01*
X100488000Y-87837245D01*
X100443298Y-87779296D01*
X100424500Y-87766250D01*
X100365135Y-87750068D01*
X100365135Y-85925296D01*
X100366672Y-85924263D01*
X100453597Y-85911467D01*
X100572342Y-85905395D01*
X100754727Y-85900693D01*
X100842975Y-85924869D01*
X100868604Y-85988381D01*
X100869000Y-86003820D01*
X100835685Y-86139275D01*
X100802845Y-86187755D01*
X100767316Y-86279674D01*
X100734110Y-86461882D01*
X100709616Y-86697733D01*
X100706955Y-86737629D01*
X100694766Y-86985818D01*
X100699743Y-87138147D01*
X100727715Y-87225248D01*
X100784512Y-87277754D01*
X100812798Y-87293905D01*
X100989232Y-87327611D01*
X101148296Y-87253309D01*
X101260744Y-87089436D01*
X101287767Y-86994512D01*
X101305184Y-86821197D01*
X101292760Y-86692743D01*
X101291501Y-86689261D01*
X101292426Y-86586556D01*
X101317236Y-86557441D01*
X101380607Y-86477767D01*
X101457328Y-86330575D01*
X101470927Y-86299122D01*
X101616555Y-86100395D01*
X101838760Y-85962054D01*
X102092440Y-85908109D01*
X102191770Y-85915396D01*
X102460614Y-85984332D01*
X102657589Y-86082883D01*
X102753530Y-86193671D01*
X102829453Y-86338673D01*
X102879497Y-86406657D01*
X102937079Y-86534637D01*
X102975479Y-86730882D01*
X102990453Y-86944794D01*
X102977755Y-87125779D01*
G36*
X102963401Y-89666856D02*
X102942294Y-89885496D01*
X102910906Y-90054797D01*
X102879475Y-90126691D01*
X102843424Y-90219719D01*
X102837500Y-90285083D01*
X102816978Y-90355679D01*
X102735324Y-90390721D01*
X102562411Y-90401327D01*
X102521993Y-90401500D01*
X102341628Y-90396521D01*
X102254368Y-90365045D01*
X102250533Y-90282260D01*
X102320440Y-90123353D01*
X102373325Y-90020500D01*
X102428654Y-89836171D01*
X102452845Y-89592700D01*
X102444792Y-89346682D01*
X102403391Y-89154712D01*
X102390766Y-89127325D01*
X102286944Y-89012447D01*
X102170132Y-89019269D01*
X102048268Y-89144225D01*
X101953891Y-89323543D01*
X101879824Y-89515354D01*
X101836905Y-89665553D01*
X101832236Y-89720418D01*
X101812749Y-89846846D01*
X101736728Y-90023988D01*
X101629250Y-90205250D01*
X101515390Y-90344038D01*
X101481593Y-90371947D01*
X101286476Y-90447132D01*
X101039674Y-90459229D01*
X100779734Y-90416741D01*
X100545201Y-90328176D01*
X100374624Y-90202037D01*
X100320464Y-90115751D01*
X100261027Y-90051319D01*
X100228074Y-90055912D01*
X100197161Y-90041517D01*
X100207307Y-89998471D01*
X100208118Y-89898072D01*
X100185823Y-89871219D01*
X100160659Y-89793369D01*
X100159010Y-89633228D01*
X100169743Y-89518405D01*
X100182211Y-89312035D01*
X100167924Y-89145932D01*
X100150720Y-89093898D01*
X100122630Y-89020577D01*
X100162471Y-89031287D01*
X100226356Y-89025246D01*
X100234355Y-88992372D01*
X100250744Y-88879894D01*
X100290741Y-88708446D01*
X100300839Y-88671125D01*
X100355036Y-88515878D01*
X100431871Y-88448704D01*
X100578871Y-88433137D01*
X100611191Y-88433000D01*
X100799953Y-88457009D01*
X100890299Y-88523914D01*
X100890389Y-88524147D01*
X100889326Y-88614915D01*
X100864804Y-88635482D01*
X100796190Y-88722890D01*
X100745952Y-88928489D01*
X100715817Y-89244562D01*
X100712512Y-89316341D01*
X100716622Y-89549328D01*
X100757787Y-89698485D01*
X100817172Y-89778171D01*
X100957281Y-89857020D01*
X101090211Y-89821642D01*
X101205483Y-89684766D01*
X101292620Y-89459123D01*
X101341143Y-89157442D01*
X101342402Y-89140077D01*
X101370942Y-88959315D01*
X101420021Y-88835385D01*
X101440821Y-88813801D01*
X101485132Y-88726599D01*
X101470575Y-88684288D01*
X101456354Y-88633405D01*
X101490286Y-88646774D01*
X101576731Y-88639794D01*
X101611223Y-88602355D01*
X101758487Y-88460260D01*
X101971890Y-88375440D01*
X102208283Y-88352682D01*
X102424521Y-88396772D01*
X102565376Y-88496500D01*
X102628485Y-88550501D01*
X102644981Y-88536349D01*
X102685387Y-88523868D01*
X102741551Y-88559419D01*
X102806335Y-88645691D01*
X102805751Y-88687000D01*
X102821564Y-88762286D01*
X102866175Y-88811447D01*
X102927216Y-88916123D01*
X102923349Y-88974351D01*
X102922758Y-89104362D01*
X102939156Y-89141864D01*
X102964419Y-89252342D01*
X102971638Y-89441572D01*
X102963401Y-89666856D01*
X102963401Y-89666856D01*
G37*
X102963401Y-89666856D02*
X102942294Y-89885496D01*
X102910906Y-90054797D01*
X102879475Y-90126691D01*
X102843424Y-90219719D01*
X102837500Y-90285083D01*
X102816978Y-90355679D01*
X102735324Y-90390721D01*
X102562411Y-90401327D01*
X102521993Y-90401500D01*
X102341628Y-90396521D01*
X102254368Y-90365045D01*
X102250533Y-90282260D01*
X102320440Y-90123353D01*
X102373325Y-90020500D01*
X102428654Y-89836171D01*
X102452845Y-89592700D01*
X102444792Y-89346682D01*
X102403391Y-89154712D01*
X102390766Y-89127325D01*
X102286944Y-89012447D01*
X102170132Y-89019269D01*
X102048268Y-89144225D01*
X101953891Y-89323543D01*
X101879824Y-89515354D01*
X101836905Y-89665553D01*
X101832236Y-89720418D01*
X101812749Y-89846846D01*
X101736728Y-90023988D01*
X101629250Y-90205250D01*
X101515390Y-90344038D01*
X101481593Y-90371947D01*
X101286476Y-90447132D01*
X101039674Y-90459229D01*
X100779734Y-90416741D01*
X100545201Y-90328176D01*
X100374624Y-90202037D01*
X100320464Y-90115751D01*
X100261027Y-90051319D01*
X100228074Y-90055912D01*
X100197161Y-90041517D01*
X100207307Y-89998471D01*
X100208118Y-89898072D01*
X100185823Y-89871219D01*
X100160659Y-89793369D01*
X100159010Y-89633228D01*
X100169743Y-89518405D01*
X100182211Y-89312035D01*
X100167924Y-89145932D01*
X100150720Y-89093898D01*
X100122630Y-89020577D01*
X100162471Y-89031287D01*
X100226356Y-89025246D01*
X100234355Y-88992372D01*
X100250744Y-88879894D01*
X100290741Y-88708446D01*
X100300839Y-88671125D01*
X100355036Y-88515878D01*
X100431871Y-88448704D01*
X100578871Y-88433137D01*
X100611191Y-88433000D01*
X100799953Y-88457009D01*
X100890299Y-88523914D01*
X100890389Y-88524147D01*
X100889326Y-88614915D01*
X100864804Y-88635482D01*
X100796190Y-88722890D01*
X100745952Y-88928489D01*
X100715817Y-89244562D01*
X100712512Y-89316341D01*
X100716622Y-89549328D01*
X100757787Y-89698485D01*
X100817172Y-89778171D01*
X100957281Y-89857020D01*
X101090211Y-89821642D01*
X101205483Y-89684766D01*
X101292620Y-89459123D01*
X101341143Y-89157442D01*
X101342402Y-89140077D01*
X101370942Y-88959315D01*
X101420021Y-88835385D01*
X101440821Y-88813801D01*
X101485132Y-88726599D01*
X101470575Y-88684288D01*
X101456354Y-88633405D01*
X101490286Y-88646774D01*
X101576731Y-88639794D01*
X101611223Y-88602355D01*
X101758487Y-88460260D01*
X101971890Y-88375440D01*
X102208283Y-88352682D01*
X102424521Y-88396772D01*
X102565376Y-88496500D01*
X102628485Y-88550501D01*
X102644981Y-88536349D01*
X102685387Y-88523868D01*
X102741551Y-88559419D01*
X102806335Y-88645691D01*
X102805751Y-88687000D01*
X102821564Y-88762286D01*
X102866175Y-88811447D01*
X102927216Y-88916123D01*
X102923349Y-88974351D01*
X102922758Y-89104362D01*
X102939156Y-89141864D01*
X102964419Y-89252342D01*
X102971638Y-89441572D01*
X102963401Y-89666856D01*
G36*
X102883678Y-78112342D02*
X102860255Y-78243893D01*
X102845548Y-78468768D01*
X102838498Y-78800029D01*
X102837500Y-79040291D01*
X102837500Y-79987500D01*
X102393000Y-79987500D01*
X102393000Y-78717500D01*
X101885000Y-78717500D01*
X101885000Y-79860500D01*
X101381945Y-79860500D01*
X101363598Y-79304875D01*
X101345250Y-78749250D01*
X100795364Y-78730986D01*
X100245477Y-78712722D01*
X100223864Y-78365774D01*
X100202250Y-78018826D01*
X101599250Y-78023926D01*
X101999274Y-78026768D01*
X102347524Y-78031912D01*
X102627225Y-78038883D01*
X102821600Y-78047210D01*
X102913873Y-78056420D01*
X102916875Y-78061054D01*
X102883678Y-78112342D01*
X102883678Y-78112342D01*
G37*
X102883678Y-78112342D02*
X102860255Y-78243893D01*
X102845548Y-78468768D01*
X102838498Y-78800029D01*
X102837500Y-79040291D01*
X102837500Y-79987500D01*
X102393000Y-79987500D01*
X102393000Y-78717500D01*
X101885000Y-78717500D01*
X101885000Y-79860500D01*
X101381945Y-79860500D01*
X101363598Y-79304875D01*
X101345250Y-78749250D01*
X100795364Y-78730986D01*
X100245477Y-78712722D01*
X100223864Y-78365774D01*
X100202250Y-78018826D01*
X101599250Y-78023926D01*
X101999274Y-78026768D01*
X102347524Y-78031912D01*
X102627225Y-78038883D01*
X102821600Y-78047210D01*
X102913873Y-78056420D01*
X102916875Y-78061054D01*
X102883678Y-78112342D01*
G36*
X100202250Y-78844500D02*
X100170500Y-78812750D01*
X100202250Y-78781000D01*
X100234000Y-78812750D01*
X100202250Y-78844500D01*
X100202250Y-78844500D01*
G37*
X100202250Y-78844500D02*
X100170500Y-78812750D01*
X100202250Y-78781000D01*
X100234000Y-78812750D01*
X100202250Y-78844500D01*
G36*
X102872399Y-81815213D02*
X102862166Y-82056853D01*
X102846235Y-82251181D01*
X102824840Y-82369177D01*
X102817878Y-82384625D01*
X102724880Y-82437810D01*
X102564805Y-82463554D01*
X102540597Y-82464000D01*
X102392936Y-82455606D01*
X102342210Y-82414917D01*
X102357929Y-82321125D01*
X102385913Y-82183765D01*
X102415338Y-81969741D01*
X102436495Y-81761820D01*
X102450096Y-81519620D01*
X102436958Y-81367299D01*
X102392234Y-81269635D01*
X102364375Y-81237945D01*
X102215163Y-81140784D01*
X102063772Y-81162854D01*
X102021656Y-81186688D01*
X101971113Y-81268695D01*
X101908461Y-81437736D01*
X101843283Y-81656849D01*
X101785161Y-81889074D01*
X101743677Y-82097451D01*
X101728413Y-82245018D01*
X101735865Y-82289056D01*
X101727884Y-82325547D01*
X101713869Y-82322698D01*
X101634688Y-82349353D01*
X101517718Y-82437861D01*
X101514251Y-82441067D01*
X101277801Y-82580963D01*
X101002624Y-82621077D01*
X100724211Y-82564681D01*
X100478053Y-82415049D01*
X100403894Y-82338663D01*
X100299124Y-82225739D01*
X100232500Y-82175356D01*
X100225188Y-82176270D01*
X100208693Y-82138173D01*
X100199444Y-82004501D01*
X100196985Y-81806447D01*
X100200859Y-81575204D01*
X100210608Y-81341963D01*
X100225775Y-81137917D01*
X100242239Y-81012603D01*
X100306105Y-80768116D01*
X100399784Y-80627145D01*
X100544345Y-80566508D01*
X100654526Y-80559000D01*
X100798414Y-80565180D01*
X100867851Y-80580306D01*
X100869000Y-80582766D01*
X100850104Y-80651966D01*
X100802874Y-80796090D01*
X100783428Y-80852641D01*
X100696944Y-81120444D01*
X100648098Y-81313947D01*
X100640273Y-81417124D01*
X100662348Y-81426232D01*
X100705220Y-81449856D01*
X100714786Y-81511500D01*
X100690756Y-81592684D01*
X100658090Y-81594135D01*
X100631972Y-81613146D01*
X100647110Y-81704484D01*
X100691195Y-81825328D01*
X100751919Y-81932853D01*
X100757547Y-81940125D01*
X100847092Y-82011028D01*
X100880523Y-82019500D01*
X100907823Y-81978076D01*
X100892309Y-81940125D01*
X100872832Y-81892615D01*
X100932152Y-81931641D01*
X100942422Y-81939900D01*
X101035364Y-81982771D01*
X101125777Y-81923337D01*
X101139750Y-81908150D01*
X101208970Y-81788025D01*
X101281460Y-81596917D01*
X101346600Y-81374636D01*
X101393768Y-81160995D01*
X101412343Y-80995804D01*
X101401271Y-80927898D01*
X101396264Y-80886513D01*
X101426117Y-80899360D01*
X101497228Y-80884844D01*
X101532355Y-80823697D01*
X101615296Y-80728167D01*
X101772912Y-80646010D01*
X101806802Y-80634878D01*
X101988678Y-80588479D01*
X102174400Y-80552962D01*
X102329316Y-80533162D01*
X102418773Y-80533916D01*
X102424493Y-80548674D01*
X102451364Y-80597857D01*
X102557507Y-80678988D01*
X102583728Y-80695421D01*
X102711221Y-80790633D01*
X102772934Y-80871447D01*
X102774000Y-80879314D01*
X102810776Y-80920650D01*
X102829836Y-80912986D01*
X102851632Y-80955906D01*
X102866551Y-81096607D01*
X102874827Y-81306071D01*
X102876698Y-81555279D01*
X102872399Y-81815213D01*
X102872399Y-81815213D01*
G37*
X102872399Y-81815213D02*
X102862166Y-82056853D01*
X102846235Y-82251181D01*
X102824840Y-82369177D01*
X102817878Y-82384625D01*
X102724880Y-82437810D01*
X102564805Y-82463554D01*
X102540597Y-82464000D01*
X102392936Y-82455606D01*
X102342210Y-82414917D01*
X102357929Y-82321125D01*
X102385913Y-82183765D01*
X102415338Y-81969741D01*
X102436495Y-81761820D01*
X102450096Y-81519620D01*
X102436958Y-81367299D01*
X102392234Y-81269635D01*
X102364375Y-81237945D01*
X102215163Y-81140784D01*
X102063772Y-81162854D01*
X102021656Y-81186688D01*
X101971113Y-81268695D01*
X101908461Y-81437736D01*
X101843283Y-81656849D01*
X101785161Y-81889074D01*
X101743677Y-82097451D01*
X101728413Y-82245018D01*
X101735865Y-82289056D01*
X101727884Y-82325547D01*
X101713869Y-82322698D01*
X101634688Y-82349353D01*
X101517718Y-82437861D01*
X101514251Y-82441067D01*
X101277801Y-82580963D01*
X101002624Y-82621077D01*
X100724211Y-82564681D01*
X100478053Y-82415049D01*
X100403894Y-82338663D01*
X100299124Y-82225739D01*
X100232500Y-82175356D01*
X100225188Y-82176270D01*
X100208693Y-82138173D01*
X100199444Y-82004501D01*
X100196985Y-81806447D01*
X100200859Y-81575204D01*
X100210608Y-81341963D01*
X100225775Y-81137917D01*
X100242239Y-81012603D01*
X100306105Y-80768116D01*
X100399784Y-80627145D01*
X100544345Y-80566508D01*
X100654526Y-80559000D01*
X100798414Y-80565180D01*
X100867851Y-80580306D01*
X100869000Y-80582766D01*
X100850104Y-80651966D01*
X100802874Y-80796090D01*
X100783428Y-80852641D01*
X100696944Y-81120444D01*
X100648098Y-81313947D01*
X100640273Y-81417124D01*
X100662348Y-81426232D01*
X100705220Y-81449856D01*
X100714786Y-81511500D01*
X100690756Y-81592684D01*
X100658090Y-81594135D01*
X100631972Y-81613146D01*
X100647110Y-81704484D01*
X100691195Y-81825328D01*
X100751919Y-81932853D01*
X100757547Y-81940125D01*
X100847092Y-82011028D01*
X100880523Y-82019500D01*
X100907823Y-81978076D01*
X100892309Y-81940125D01*
X100872832Y-81892615D01*
X100932152Y-81931641D01*
X100942422Y-81939900D01*
X101035364Y-81982771D01*
X101125777Y-81923337D01*
X101139750Y-81908150D01*
X101208970Y-81788025D01*
X101281460Y-81596917D01*
X101346600Y-81374636D01*
X101393768Y-81160995D01*
X101412343Y-80995804D01*
X101401271Y-80927898D01*
X101396264Y-80886513D01*
X101426117Y-80899360D01*
X101497228Y-80884844D01*
X101532355Y-80823697D01*
X101615296Y-80728167D01*
X101772912Y-80646010D01*
X101806802Y-80634878D01*
X101988678Y-80588479D01*
X102174400Y-80552962D01*
X102329316Y-80533162D01*
X102418773Y-80533916D01*
X102424493Y-80548674D01*
X102451364Y-80597857D01*
X102557507Y-80678988D01*
X102583728Y-80695421D01*
X102711221Y-80790633D01*
X102772934Y-80871447D01*
X102774000Y-80879314D01*
X102810776Y-80920650D01*
X102829836Y-80912986D01*
X102851632Y-80955906D01*
X102866551Y-81096607D01*
X102874827Y-81306071D01*
X102876698Y-81555279D01*
X102872399Y-81815213D01*
G36*
X102929788Y-84581290D02*
X102858441Y-84824929D01*
X102814537Y-84912140D01*
X102699341Y-85091431D01*
X102616532Y-85173821D01*
X102576718Y-85156102D01*
X102590503Y-85035070D01*
X102607768Y-84974631D01*
X102662988Y-84828808D01*
X102710392Y-84753023D01*
X102717840Y-84750000D01*
X102730408Y-84694222D01*
X102718207Y-84552043D01*
X102701368Y-84448981D01*
X102674047Y-84254839D01*
X102669134Y-84107174D01*
X102675839Y-84067939D01*
X102657028Y-83968877D01*
X102569537Y-83834896D01*
X102446811Y-83702243D01*
X102322293Y-83607165D01*
X102230639Y-83585422D01*
X102151269Y-83581612D01*
X102139000Y-83552286D01*
X102092247Y-83512818D01*
X102037342Y-83522995D01*
X101922218Y-83512931D01*
X101879564Y-83473378D01*
X101833154Y-83421535D01*
X101822473Y-83466908D01*
X101775025Y-83522830D01*
X101672337Y-83522197D01*
X101570852Y-83468911D01*
X101552598Y-83448250D01*
X101511864Y-83436832D01*
X101504000Y-83480000D01*
X101493794Y-83543219D01*
X101450797Y-83495767D01*
X101440500Y-83480000D01*
X101390108Y-83425603D01*
X101377973Y-83467365D01*
X101324061Y-83542864D01*
X101191693Y-83626117D01*
X101151988Y-83643996D01*
X100994491Y-83732572D01*
X100894979Y-83830274D01*
X100886744Y-83847131D01*
X100823248Y-83961012D01*
X100789583Y-83994636D01*
X100714185Y-84108856D01*
X100668726Y-84300464D01*
X100658174Y-84522330D01*
X100687501Y-84727319D01*
X100706504Y-84782578D01*
X100758789Y-84935740D01*
X100746351Y-85001707D01*
X100722885Y-85008463D01*
X100707566Y-85029561D01*
X100762574Y-85058567D01*
X100773750Y-85066065D01*
X100773750Y-85131000D01*
X100742000Y-85162750D01*
X100773750Y-85194500D01*
X100805500Y-85162750D01*
X100773750Y-85131000D01*
X100773750Y-85066065D01*
X100859388Y-85123523D01*
X100879961Y-85165229D01*
X100912152Y-85284272D01*
X100980283Y-85385181D01*
X101050315Y-85420423D01*
X101059891Y-85416508D01*
X101150722Y-85415953D01*
X101303058Y-85459409D01*
X101342455Y-85474989D01*
X101501942Y-85530633D01*
X101559507Y-85528386D01*
X101519396Y-85480048D01*
X101385859Y-85397417D01*
X101298627Y-85353250D01*
X101014514Y-85164268D01*
X100837454Y-84914957D01*
X100760445Y-84631184D01*
X100773185Y-84299632D01*
X100892145Y-84010555D01*
X101099182Y-83784131D01*
X101376152Y-83640533D01*
X101688436Y-83599241D01*
X101735629Y-83608668D01*
X101735629Y-84019750D01*
X101517690Y-84040566D01*
X101353273Y-84120886D01*
X101254170Y-84206255D01*
X101127763Y-84351128D01*
X101071299Y-84502356D01*
X101059500Y-84692735D01*
X101072789Y-84895203D01*
X101128901Y-85029936D01*
X101252202Y-85154854D01*
X101254873Y-85157105D01*
X101513305Y-85304159D01*
X101786099Y-85338862D01*
X102045126Y-85262103D01*
X102218375Y-85126659D01*
X102361250Y-84893847D01*
X102361250Y-85194500D01*
X102329500Y-85226250D01*
X102361250Y-85258000D01*
X102393000Y-85226250D01*
X102361250Y-85194500D01*
X102361250Y-84893847D01*
X102366899Y-84884642D01*
X102395845Y-84621974D01*
X102305465Y-84360063D01*
X102207709Y-84227126D01*
X102064119Y-84091256D01*
X101917974Y-84031720D01*
X101735629Y-84019750D01*
X101735629Y-83608668D01*
X102020289Y-83665537D01*
X102291547Y-83825860D01*
X102488040Y-84058880D01*
X102595600Y-84343271D01*
X102600059Y-84657706D01*
X102537301Y-84877000D01*
X102471781Y-85048870D01*
X102431390Y-85181250D01*
X102428743Y-85194500D01*
X102373697Y-85284104D01*
X102339322Y-85297687D01*
X102211198Y-85312103D01*
X102198753Y-85313562D01*
X102163711Y-85361280D01*
X102176814Y-85394811D01*
X102184257Y-85438483D01*
X102151732Y-85424618D01*
X102041479Y-85405991D01*
X101917731Y-85422178D01*
X101801202Y-85475219D01*
X101787706Y-85566996D01*
X101793372Y-85586911D01*
X101805479Y-85656317D01*
X101766486Y-85688624D01*
X101649654Y-85691640D01*
X101481080Y-85678110D01*
X101266855Y-85644047D01*
X101058573Y-85587828D01*
X100886081Y-85520978D01*
X100779228Y-85455026D01*
X100766997Y-85402336D01*
X100745076Y-85346011D01*
X100645468Y-85250295D01*
X100602019Y-85216672D01*
X100467405Y-85093805D01*
X100389604Y-84978141D01*
X100384079Y-84957680D01*
X100338553Y-84852021D01*
X100304526Y-84826425D01*
X100269150Y-84759915D01*
X100280109Y-84703730D01*
X100286841Y-84635490D01*
X100244792Y-84648080D01*
X100202617Y-84635480D01*
X100178750Y-84524309D01*
X100170559Y-84301307D01*
X100170500Y-84273750D01*
X100178495Y-84033244D01*
X100203388Y-83911461D01*
X100240804Y-83896954D01*
X100284738Y-83892049D01*
X100270864Y-83813610D01*
X100273169Y-83718025D01*
X100329250Y-83619017D01*
X100329250Y-83670500D01*
X100297500Y-83702250D01*
X100329250Y-83734000D01*
X100361000Y-83702250D01*
X100329250Y-83670500D01*
X100329250Y-83619017D01*
X100344479Y-83592130D01*
X100392750Y-83536359D01*
X100392750Y-83543500D01*
X100361000Y-83575250D01*
X100392750Y-83607000D01*
X100424500Y-83575250D01*
X100392750Y-83543500D01*
X100392750Y-83536359D01*
X100498063Y-83414683D01*
X100560509Y-83349912D01*
X100646750Y-83263734D01*
X100646750Y-84877000D01*
X100615000Y-84908750D01*
X100646750Y-84940500D01*
X100678500Y-84908750D01*
X100646750Y-84877000D01*
X100646750Y-83263734D01*
X100710584Y-83199946D01*
X100773750Y-83140890D01*
X100773750Y-83861000D01*
X100742000Y-83892750D01*
X100773750Y-83924500D01*
X100805500Y-83892750D01*
X100773750Y-83861000D01*
X100773750Y-83140890D01*
X100811993Y-83105135D01*
X100847072Y-83081785D01*
X100843903Y-83088235D01*
X100835536Y-83131075D01*
X100914710Y-83109335D01*
X100958214Y-83090196D01*
X101065078Y-83022906D01*
X101089908Y-82969827D01*
X101091250Y-82966689D01*
X101091250Y-83543500D01*
X101059500Y-83575250D01*
X101091250Y-83607000D01*
X101123000Y-83575250D01*
X101091250Y-83543500D01*
X101091250Y-82966689D01*
X101111271Y-82919863D01*
X101218250Y-82889536D01*
X101218250Y-83480000D01*
X101186500Y-83511750D01*
X101218250Y-83543500D01*
X101250000Y-83511750D01*
X101218250Y-83480000D01*
X101218250Y-82889536D01*
X101226304Y-82887252D01*
X101402840Y-82872220D01*
X101608709Y-82874995D01*
X101811743Y-82895801D01*
X101979771Y-82934866D01*
X101980250Y-82935077D01*
X101980250Y-83416500D01*
X101948500Y-83448250D01*
X101980250Y-83480000D01*
X102012000Y-83448250D01*
X101980250Y-83416500D01*
X101980250Y-82935077D01*
X102043750Y-82963118D01*
X102164468Y-83007654D01*
X102191762Y-83012974D01*
X102279082Y-83062778D01*
X102418126Y-83178545D01*
X102541012Y-83297245D01*
X102665236Y-83429807D01*
X102728545Y-83508242D01*
X102720040Y-83516696D01*
X102666860Y-83497470D01*
X102686868Y-83561719D01*
X102706399Y-83599337D01*
X102742250Y-83645500D01*
X102742250Y-84178500D01*
X102710500Y-84210250D01*
X102742250Y-84242000D01*
X102774000Y-84210250D01*
X102742250Y-84178500D01*
X102742250Y-83645500D01*
X102787501Y-83703767D01*
X102846528Y-83734000D01*
X102886410Y-83780535D01*
X102876772Y-83832548D01*
X102871348Y-83898607D01*
X102896981Y-83895233D01*
X102926920Y-83933395D01*
X102946781Y-84071514D01*
X102952665Y-84265387D01*
X102929788Y-84581290D01*
X102929788Y-84581290D01*
G37*
X102929788Y-84581290D02*
X102858441Y-84824929D01*
X102814537Y-84912140D01*
X102699341Y-85091431D01*
X102616532Y-85173821D01*
X102576718Y-85156102D01*
X102590503Y-85035070D01*
X102607768Y-84974631D01*
X102662988Y-84828808D01*
X102710392Y-84753023D01*
X102717840Y-84750000D01*
X102730408Y-84694222D01*
X102718207Y-84552043D01*
X102701368Y-84448981D01*
X102674047Y-84254839D01*
X102669134Y-84107174D01*
X102675839Y-84067939D01*
X102657028Y-83968877D01*
X102569537Y-83834896D01*
X102446811Y-83702243D01*
X102322293Y-83607165D01*
X102230639Y-83585422D01*
X102151269Y-83581612D01*
X102139000Y-83552286D01*
X102092247Y-83512818D01*
X102037342Y-83522995D01*
X101922218Y-83512931D01*
X101879564Y-83473378D01*
X101833154Y-83421535D01*
X101822473Y-83466908D01*
X101775025Y-83522830D01*
X101672337Y-83522197D01*
X101570852Y-83468911D01*
X101552598Y-83448250D01*
X101511864Y-83436832D01*
X101504000Y-83480000D01*
X101493794Y-83543219D01*
X101450797Y-83495767D01*
X101440500Y-83480000D01*
X101390108Y-83425603D01*
X101377973Y-83467365D01*
X101324061Y-83542864D01*
X101191693Y-83626117D01*
X101151988Y-83643996D01*
X100994491Y-83732572D01*
X100894979Y-83830274D01*
X100886744Y-83847131D01*
X100823248Y-83961012D01*
X100789583Y-83994636D01*
X100714185Y-84108856D01*
X100668726Y-84300464D01*
X100658174Y-84522330D01*
X100687501Y-84727319D01*
X100706504Y-84782578D01*
X100758789Y-84935740D01*
X100746351Y-85001707D01*
X100722885Y-85008463D01*
X100707566Y-85029561D01*
X100762574Y-85058567D01*
X100773750Y-85066065D01*
X100773750Y-85131000D01*
X100742000Y-85162750D01*
X100773750Y-85194500D01*
X100805500Y-85162750D01*
X100773750Y-85131000D01*
X100773750Y-85066065D01*
X100859388Y-85123523D01*
X100879961Y-85165229D01*
X100912152Y-85284272D01*
X100980283Y-85385181D01*
X101050315Y-85420423D01*
X101059891Y-85416508D01*
X101150722Y-85415953D01*
X101303058Y-85459409D01*
X101342455Y-85474989D01*
X101501942Y-85530633D01*
X101559507Y-85528386D01*
X101519396Y-85480048D01*
X101385859Y-85397417D01*
X101298627Y-85353250D01*
X101014514Y-85164268D01*
X100837454Y-84914957D01*
X100760445Y-84631184D01*
X100773185Y-84299632D01*
X100892145Y-84010555D01*
X101099182Y-83784131D01*
X101376152Y-83640533D01*
X101688436Y-83599241D01*
X101735629Y-83608668D01*
X101735629Y-84019750D01*
X101517690Y-84040566D01*
X101353273Y-84120886D01*
X101254170Y-84206255D01*
X101127763Y-84351128D01*
X101071299Y-84502356D01*
X101059500Y-84692735D01*
X101072789Y-84895203D01*
X101128901Y-85029936D01*
X101252202Y-85154854D01*
X101254873Y-85157105D01*
X101513305Y-85304159D01*
X101786099Y-85338862D01*
X102045126Y-85262103D01*
X102218375Y-85126659D01*
X102361250Y-84893847D01*
X102361250Y-85194500D01*
X102329500Y-85226250D01*
X102361250Y-85258000D01*
X102393000Y-85226250D01*
X102361250Y-85194500D01*
X102361250Y-84893847D01*
X102366899Y-84884642D01*
X102395845Y-84621974D01*
X102305465Y-84360063D01*
X102207709Y-84227126D01*
X102064119Y-84091256D01*
X101917974Y-84031720D01*
X101735629Y-84019750D01*
X101735629Y-83608668D01*
X102020289Y-83665537D01*
X102291547Y-83825860D01*
X102488040Y-84058880D01*
X102595600Y-84343271D01*
X102600059Y-84657706D01*
X102537301Y-84877000D01*
X102471781Y-85048870D01*
X102431390Y-85181250D01*
X102428743Y-85194500D01*
X102373697Y-85284104D01*
X102339322Y-85297687D01*
X102211198Y-85312103D01*
X102198753Y-85313562D01*
X102163711Y-85361280D01*
X102176814Y-85394811D01*
X102184257Y-85438483D01*
X102151732Y-85424618D01*
X102041479Y-85405991D01*
X101917731Y-85422178D01*
X101801202Y-85475219D01*
X101787706Y-85566996D01*
X101793372Y-85586911D01*
X101805479Y-85656317D01*
X101766486Y-85688624D01*
X101649654Y-85691640D01*
X101481080Y-85678110D01*
X101266855Y-85644047D01*
X101058573Y-85587828D01*
X100886081Y-85520978D01*
X100779228Y-85455026D01*
X100766997Y-85402336D01*
X100745076Y-85346011D01*
X100645468Y-85250295D01*
X100602019Y-85216672D01*
X100467405Y-85093805D01*
X100389604Y-84978141D01*
X100384079Y-84957680D01*
X100338553Y-84852021D01*
X100304526Y-84826425D01*
X100269150Y-84759915D01*
X100280109Y-84703730D01*
X100286841Y-84635490D01*
X100244792Y-84648080D01*
X100202617Y-84635480D01*
X100178750Y-84524309D01*
X100170559Y-84301307D01*
X100170500Y-84273750D01*
X100178495Y-84033244D01*
X100203388Y-83911461D01*
X100240804Y-83896954D01*
X100284738Y-83892049D01*
X100270864Y-83813610D01*
X100273169Y-83718025D01*
X100329250Y-83619017D01*
X100329250Y-83670500D01*
X100297500Y-83702250D01*
X100329250Y-83734000D01*
X100361000Y-83702250D01*
X100329250Y-83670500D01*
X100329250Y-83619017D01*
X100344479Y-83592130D01*
X100392750Y-83536359D01*
X100392750Y-83543500D01*
X100361000Y-83575250D01*
X100392750Y-83607000D01*
X100424500Y-83575250D01*
X100392750Y-83543500D01*
X100392750Y-83536359D01*
X100498063Y-83414683D01*
X100560509Y-83349912D01*
X100646750Y-83263734D01*
X100646750Y-84877000D01*
X100615000Y-84908750D01*
X100646750Y-84940500D01*
X100678500Y-84908750D01*
X100646750Y-84877000D01*
X100646750Y-83263734D01*
X100710584Y-83199946D01*
X100773750Y-83140890D01*
X100773750Y-83861000D01*
X100742000Y-83892750D01*
X100773750Y-83924500D01*
X100805500Y-83892750D01*
X100773750Y-83861000D01*
X100773750Y-83140890D01*
X100811993Y-83105135D01*
X100847072Y-83081785D01*
X100843903Y-83088235D01*
X100835536Y-83131075D01*
X100914710Y-83109335D01*
X100958214Y-83090196D01*
X101065078Y-83022906D01*
X101089908Y-82969827D01*
X101091250Y-82966689D01*
X101091250Y-83543500D01*
X101059500Y-83575250D01*
X101091250Y-83607000D01*
X101123000Y-83575250D01*
X101091250Y-83543500D01*
X101091250Y-82966689D01*
X101111271Y-82919863D01*
X101218250Y-82889536D01*
X101218250Y-83480000D01*
X101186500Y-83511750D01*
X101218250Y-83543500D01*
X101250000Y-83511750D01*
X101218250Y-83480000D01*
X101218250Y-82889536D01*
X101226304Y-82887252D01*
X101402840Y-82872220D01*
X101608709Y-82874995D01*
X101811743Y-82895801D01*
X101979771Y-82934866D01*
X101980250Y-82935077D01*
X101980250Y-83416500D01*
X101948500Y-83448250D01*
X101980250Y-83480000D01*
X102012000Y-83448250D01*
X101980250Y-83416500D01*
X101980250Y-82935077D01*
X102043750Y-82963118D01*
X102164468Y-83007654D01*
X102191762Y-83012974D01*
X102279082Y-83062778D01*
X102418126Y-83178545D01*
X102541012Y-83297245D01*
X102665236Y-83429807D01*
X102728545Y-83508242D01*
X102720040Y-83516696D01*
X102666860Y-83497470D01*
X102686868Y-83561719D01*
X102706399Y-83599337D01*
X102742250Y-83645500D01*
X102742250Y-84178500D01*
X102710500Y-84210250D01*
X102742250Y-84242000D01*
X102774000Y-84210250D01*
X102742250Y-84178500D01*
X102742250Y-83645500D01*
X102787501Y-83703767D01*
X102846528Y-83734000D01*
X102886410Y-83780535D01*
X102876772Y-83832548D01*
X102871348Y-83898607D01*
X102896981Y-83895233D01*
X102926920Y-83933395D01*
X102946781Y-84071514D01*
X102952665Y-84265387D01*
X102929788Y-84581290D01*
G36*
X100202250Y-88750500D02*
X100170500Y-88718750D01*
X100202250Y-88687000D01*
X100234000Y-88718750D01*
X100202250Y-88750500D01*
X100202250Y-88750500D01*
G37*
X100202250Y-88750500D02*
X100170500Y-88718750D01*
X100202250Y-88687000D01*
X100234000Y-88718750D01*
X100202250Y-88750500D01*
G36*
X100329250Y-80559000D02*
X100297500Y-80527250D01*
X100329250Y-80495500D01*
X100361000Y-80527250D01*
X100329250Y-80559000D01*
X100329250Y-80559000D01*
G37*
X100329250Y-80559000D02*
X100297500Y-80527250D01*
X100329250Y-80495500D01*
X100361000Y-80527250D01*
X100329250Y-80559000D01*
G36*
X100658573Y-83195865D02*
X100623100Y-83241875D01*
X100530415Y-83340597D01*
X100489043Y-83340167D01*
X100488000Y-83329025D01*
X100531395Y-83276019D01*
X100599125Y-83217900D01*
X100674341Y-83162982D01*
X100658573Y-83195865D01*
X100658573Y-83195865D01*
G37*
X100658573Y-83195865D02*
X100623100Y-83241875D01*
X100530415Y-83340597D01*
X100489043Y-83340167D01*
X100488000Y-83329025D01*
X100531395Y-83276019D01*
X100599125Y-83217900D01*
X100674341Y-83162982D01*
X100658573Y-83195865D01*
G36*
X100519750Y-90465000D02*
X100488000Y-90433250D01*
X100519750Y-90401500D01*
X100551500Y-90433250D01*
X100519750Y-90465000D01*
X100519750Y-90465000D01*
G37*
X100519750Y-90465000D02*
X100488000Y-90433250D01*
X100519750Y-90401500D01*
X100551500Y-90433250D01*
X100519750Y-90465000D01*
G36*
X100646750Y-90528500D02*
X100615000Y-90496750D01*
X100646750Y-90465000D01*
X100678500Y-90496750D01*
X100646750Y-90528500D01*
X100646750Y-90528500D01*
G37*
X100646750Y-90528500D02*
X100615000Y-90496750D01*
X100646750Y-90465000D01*
X100678500Y-90496750D01*
X100646750Y-90528500D01*
G36*
X100837250Y-82718000D02*
X100805500Y-82686250D01*
X100837250Y-82654500D01*
X100869000Y-82686250D01*
X100837250Y-82718000D01*
X100837250Y-82718000D01*
G37*
X100837250Y-82718000D02*
X100805500Y-82686250D01*
X100837250Y-82654500D01*
X100869000Y-82686250D01*
X100837250Y-82718000D01*
G36*
X100964250Y-80559000D02*
X100932500Y-80527250D01*
X100964250Y-80495500D01*
X100996000Y-80527250D01*
X100964250Y-80559000D01*
X100964250Y-80559000D01*
G37*
X100964250Y-80559000D02*
X100932500Y-80527250D01*
X100964250Y-80495500D01*
X100996000Y-80527250D01*
X100964250Y-80559000D01*
G36*
X100964250Y-83035500D02*
X100932500Y-83003750D01*
X100964250Y-82972000D01*
X100996000Y-83003750D01*
X100964250Y-83035500D01*
X100964250Y-83035500D01*
G37*
X100964250Y-83035500D02*
X100932500Y-83003750D01*
X100964250Y-82972000D01*
X100996000Y-83003750D01*
X100964250Y-83035500D01*
G36*
X100964250Y-88496500D02*
X100932500Y-88464750D01*
X100964250Y-88433000D01*
X100996000Y-88464750D01*
X100964250Y-88496500D01*
X100964250Y-88496500D01*
G37*
X100964250Y-88496500D02*
X100932500Y-88464750D01*
X100964250Y-88433000D01*
X100996000Y-88464750D01*
X100964250Y-88496500D01*
G36*
X100964250Y-89830000D02*
X100932500Y-89798250D01*
X100964250Y-89766500D01*
X100996000Y-89798250D01*
X100964250Y-89830000D01*
X100964250Y-89830000D01*
G37*
X100964250Y-89830000D02*
X100932500Y-89798250D01*
X100964250Y-89766500D01*
X100996000Y-89798250D01*
X100964250Y-89830000D01*
G36*
X101027750Y-81956000D02*
X100996000Y-81924250D01*
X101027750Y-81892500D01*
X101059500Y-81924250D01*
X101027750Y-81956000D01*
X101027750Y-81956000D01*
G37*
X101027750Y-81956000D02*
X100996000Y-81924250D01*
X101027750Y-81892500D01*
X101059500Y-81924250D01*
X101027750Y-81956000D01*
G36*
X101027750Y-85385000D02*
X100996000Y-85353250D01*
X101027750Y-85321500D01*
X101059500Y-85353250D01*
X101027750Y-85385000D01*
X101027750Y-85385000D01*
G37*
X101027750Y-85385000D02*
X100996000Y-85353250D01*
X101027750Y-85321500D01*
X101059500Y-85353250D01*
X101027750Y-85385000D01*
G36*
X101154750Y-81829000D02*
X101123000Y-81797250D01*
X101154750Y-81765500D01*
X101186500Y-81797250D01*
X101154750Y-81829000D01*
X101154750Y-81829000D01*
G37*
X101154750Y-81829000D02*
X101123000Y-81797250D01*
X101154750Y-81765500D01*
X101186500Y-81797250D01*
X101154750Y-81829000D01*
G36*
X101218250Y-82718000D02*
X101186500Y-82686250D01*
X101218250Y-82654500D01*
X101250000Y-82686250D01*
X101218250Y-82718000D01*
X101218250Y-82718000D01*
G37*
X101218250Y-82718000D02*
X101186500Y-82686250D01*
X101218250Y-82654500D01*
X101250000Y-82686250D01*
X101218250Y-82718000D01*
G36*
X101218250Y-89449000D02*
X101186500Y-89417250D01*
X101218250Y-89385500D01*
X101250000Y-89417250D01*
X101218250Y-89449000D01*
X101218250Y-89449000D01*
G37*
X101218250Y-89449000D02*
X101186500Y-89417250D01*
X101218250Y-89385500D01*
X101250000Y-89417250D01*
X101218250Y-89449000D01*
G36*
X101980250Y-86782000D02*
X101948500Y-86750250D01*
X101980250Y-86718500D01*
X102012000Y-86750250D01*
X101980250Y-86782000D01*
X101980250Y-86782000D01*
G37*
X101980250Y-86782000D02*
X101948500Y-86750250D01*
X101980250Y-86718500D01*
X102012000Y-86750250D01*
X101980250Y-86782000D01*
G36*
X102043750Y-86655000D02*
X102012000Y-86623250D01*
X102043750Y-86591500D01*
X102075500Y-86623250D01*
X102043750Y-86655000D01*
X102043750Y-86655000D01*
G37*
X102043750Y-86655000D02*
X102012000Y-86623250D01*
X102043750Y-86591500D01*
X102075500Y-86623250D01*
X102043750Y-86655000D01*
G36*
X102234250Y-82527500D02*
X102202500Y-82495750D01*
X102234250Y-82464000D01*
X102266000Y-82495750D01*
X102234250Y-82527500D01*
X102234250Y-82527500D01*
G37*
X102234250Y-82527500D02*
X102202500Y-82495750D01*
X102234250Y-82464000D01*
X102266000Y-82495750D01*
X102234250Y-82527500D01*
G36*
X102556792Y-83908875D02*
X102501070Y-83888803D01*
X102406703Y-83809832D01*
X102314904Y-83711816D01*
X102266884Y-83634605D01*
X102266000Y-83627681D01*
X102305579Y-83636631D01*
X102402974Y-83713938D01*
X102424500Y-83733764D01*
X102523465Y-83839766D01*
X102558757Y-83904871D01*
X102556792Y-83908875D01*
X102556792Y-83908875D01*
G37*
X102556792Y-83908875D02*
X102501070Y-83888803D01*
X102406703Y-83809832D01*
X102314904Y-83711816D01*
X102266884Y-83634605D01*
X102266000Y-83627681D01*
X102305579Y-83636631D01*
X102402974Y-83713938D01*
X102424500Y-83733764D01*
X102523465Y-83839766D01*
X102558757Y-83904871D01*
X102556792Y-83908875D01*
G36*
X102297750Y-89131500D02*
X102266000Y-89099750D01*
X102297750Y-89068000D01*
X102329500Y-89099750D01*
X102297750Y-89131500D01*
X102297750Y-89131500D01*
G37*
X102297750Y-89131500D02*
X102266000Y-89099750D01*
X102297750Y-89068000D01*
X102329500Y-89099750D01*
X102297750Y-89131500D01*
G36*
X102615250Y-84051500D02*
X102583500Y-84019750D01*
X102615250Y-83988000D01*
X102647000Y-84019750D01*
X102615250Y-84051500D01*
X102615250Y-84051500D01*
G37*
X102615250Y-84051500D02*
X102583500Y-84019750D01*
X102615250Y-83988000D01*
X102647000Y-84019750D01*
X102615250Y-84051500D01*
G36*
X102805750Y-83670500D02*
X102774000Y-83638750D01*
X102805750Y-83607000D01*
X102837500Y-83638750D01*
X102805750Y-83670500D01*
X102805750Y-83670500D01*
G37*
X102805750Y-83670500D02*
X102774000Y-83638750D01*
X102805750Y-83607000D01*
X102837500Y-83638750D01*
X102805750Y-83670500D01*
G36*
X102996250Y-81384500D02*
X102964500Y-81352750D01*
X102996250Y-81321000D01*
X103028000Y-81352750D01*
X102996250Y-81384500D01*
X102996250Y-81384500D01*
G37*
X102996250Y-81384500D02*
X102964500Y-81352750D01*
X102996250Y-81321000D01*
X103028000Y-81352750D01*
X102996250Y-81384500D01*
G36*
X102996250Y-81765500D02*
X102964500Y-81733750D01*
X102996250Y-81702000D01*
X103028000Y-81733750D01*
X102996250Y-81765500D01*
X102996250Y-81765500D01*
G37*
X102996250Y-81765500D02*
X102964500Y-81733750D01*
X102996250Y-81702000D01*
X103028000Y-81733750D01*
X102996250Y-81765500D01*
D17*
X127833334Y-76202381D02*
X127500000Y-75726190D01*
X127261905Y-76202381D02*
X127261905Y-75202381D01*
X127642858Y-75202381D01*
X127738096Y-75250000D01*
X127785715Y-75297619D01*
X127833334Y-75392857D01*
X127833334Y-75535714D01*
X127785715Y-75630952D01*
X127738096Y-75678571D01*
X127642858Y-75726190D01*
X127261905Y-75726190D01*
X128785715Y-76202381D02*
X128214286Y-76202381D01*
X128500000Y-76202381D02*
X128500000Y-75202381D01*
X128404762Y-75345238D01*
X128309524Y-75440476D01*
X128214286Y-75488095D01*
X133833334Y-76202381D02*
X133500000Y-75726190D01*
X133261905Y-76202381D02*
X133261905Y-75202381D01*
X133642858Y-75202381D01*
X133738096Y-75250000D01*
X133785715Y-75297619D01*
X133833334Y-75392857D01*
X133833334Y-75535714D01*
X133785715Y-75630952D01*
X133738096Y-75678571D01*
X133642858Y-75726190D01*
X133261905Y-75726190D01*
X134214286Y-75297619D02*
X134261905Y-75250000D01*
X134357143Y-75202381D01*
X134595239Y-75202381D01*
X134690477Y-75250000D01*
X134738096Y-75297619D01*
X134785715Y-75392857D01*
X134785715Y-75488095D01*
X134738096Y-75630952D01*
X134166667Y-76202381D01*
X134785715Y-76202381D01*
X133833334Y-97702381D02*
X133500000Y-97226190D01*
X133261905Y-97702381D02*
X133261905Y-96702381D01*
X133642858Y-96702381D01*
X133738096Y-96750000D01*
X133785715Y-96797619D01*
X133833334Y-96892857D01*
X133833334Y-97035714D01*
X133785715Y-97130952D01*
X133738096Y-97178571D01*
X133642858Y-97226190D01*
X133261905Y-97226190D01*
X134166667Y-96702381D02*
X134785715Y-96702381D01*
X134452381Y-97083333D01*
X134595239Y-97083333D01*
X134690477Y-97130952D01*
X134738096Y-97178571D01*
X134785715Y-97273810D01*
X134785715Y-97511905D01*
X134738096Y-97607143D01*
X134690477Y-97654762D01*
X134595239Y-97702381D01*
X134309524Y-97702381D01*
X134214286Y-97654762D01*
X134166667Y-97607143D01*
X147833334Y-97702381D02*
X147500000Y-97226190D01*
X147261905Y-97702381D02*
X147261905Y-96702381D01*
X147642858Y-96702381D01*
X147738096Y-96750000D01*
X147785715Y-96797619D01*
X147833334Y-96892857D01*
X147833334Y-97035714D01*
X147785715Y-97130952D01*
X147738096Y-97178571D01*
X147642858Y-97226190D01*
X147261905Y-97226190D01*
X148690477Y-97035714D02*
X148690477Y-97702381D01*
X148452381Y-96654762D02*
X148214286Y-97369048D01*
X148833334Y-97369048D01*
X127833334Y-97702381D02*
X127500000Y-97226190D01*
X127261905Y-97702381D02*
X127261905Y-96702381D01*
X127642858Y-96702381D01*
X127738096Y-96750000D01*
X127785715Y-96797619D01*
X127833334Y-96892857D01*
X127833334Y-97035714D01*
X127785715Y-97130952D01*
X127738096Y-97178571D01*
X127642858Y-97226190D01*
X127261905Y-97226190D01*
X128738096Y-96702381D02*
X128261905Y-96702381D01*
X128214286Y-97178571D01*
X128261905Y-97130952D01*
X128357143Y-97083333D01*
X128595239Y-97083333D01*
X128690477Y-97130952D01*
X128738096Y-97178571D01*
X128785715Y-97273810D01*
X128785715Y-97511905D01*
X128738096Y-97607143D01*
X128690477Y-97654762D01*
X128595239Y-97702381D01*
X128357143Y-97702381D01*
X128261905Y-97654762D01*
X128214286Y-97607143D01*
X123428571Y-87809523D02*
X123476190Y-87666666D01*
X123523810Y-87619047D01*
X123619048Y-87571428D01*
X123761905Y-87571428D01*
X123857143Y-87619047D01*
X123904762Y-87666666D01*
X123952381Y-87761904D01*
X123952381Y-88142857D01*
X122952381Y-88142857D01*
X122952381Y-87809523D01*
X123000000Y-87714285D01*
X123047619Y-87666666D01*
X123142857Y-87619047D01*
X123238095Y-87619047D01*
X123333333Y-87666666D01*
X123380952Y-87714285D01*
X123428571Y-87809523D01*
X123428571Y-88142857D01*
X122952381Y-87285714D02*
X122952381Y-86714285D01*
X123952381Y-87000000D02*
X122952381Y-87000000D01*
X123952381Y-86380952D02*
X122952381Y-86380952D01*
X123952381Y-85809523D01*
X122952381Y-85809523D01*
X123952381Y-84809523D02*
X123952381Y-85380952D01*
X123952381Y-85095238D02*
X122952381Y-85095238D01*
X123095238Y-85190476D01*
X123190476Y-85285714D01*
X123238095Y-85380952D01*
X133678571Y-87809523D02*
X133726190Y-87666666D01*
X133773810Y-87619047D01*
X133869048Y-87571428D01*
X134011905Y-87571428D01*
X134107143Y-87619047D01*
X134154762Y-87666666D01*
X134202381Y-87761904D01*
X134202381Y-88142857D01*
X133202381Y-88142857D01*
X133202381Y-87809523D01*
X133250000Y-87714285D01*
X133297619Y-87666666D01*
X133392857Y-87619047D01*
X133488095Y-87619047D01*
X133583333Y-87666666D01*
X133630952Y-87714285D01*
X133678571Y-87809523D01*
X133678571Y-88142857D01*
X133202381Y-87285714D02*
X133202381Y-86714285D01*
X134202381Y-87000000D02*
X133202381Y-87000000D01*
X134202381Y-86380952D02*
X133202381Y-86380952D01*
X134202381Y-85809523D01*
X133202381Y-85809523D01*
X133297619Y-85380952D02*
X133250000Y-85333333D01*
X133202381Y-85238095D01*
X133202381Y-84999999D01*
X133250000Y-84904761D01*
X133297619Y-84857142D01*
X133392857Y-84809523D01*
X133488095Y-84809523D01*
X133630952Y-84857142D01*
X134202381Y-85428571D01*
X134202381Y-84809523D01*
X113178571Y-87809523D02*
X113226190Y-87666666D01*
X113273810Y-87619047D01*
X113369048Y-87571428D01*
X113511905Y-87571428D01*
X113607143Y-87619047D01*
X113654762Y-87666666D01*
X113702381Y-87761904D01*
X113702381Y-88142857D01*
X112702381Y-88142857D01*
X112702381Y-87809523D01*
X112750000Y-87714285D01*
X112797619Y-87666666D01*
X112892857Y-87619047D01*
X112988095Y-87619047D01*
X113083333Y-87666666D01*
X113130952Y-87714285D01*
X113178571Y-87809523D01*
X113178571Y-88142857D01*
X112702381Y-87285714D02*
X112702381Y-86714285D01*
X113702381Y-87000000D02*
X112702381Y-87000000D01*
X113702381Y-86380952D02*
X112702381Y-86380952D01*
X113702381Y-85809523D01*
X112702381Y-85809523D01*
X112702381Y-85428571D02*
X112702381Y-84809523D01*
X113083333Y-85142857D01*
X113083333Y-84999999D01*
X113130952Y-84904761D01*
X113178571Y-84857142D01*
X113273810Y-84809523D01*
X113511905Y-84809523D01*
X113607143Y-84857142D01*
X113654762Y-84904761D01*
X113702381Y-84999999D01*
X113702381Y-85285714D01*
X113654762Y-85380952D01*
X113607143Y-85428571D01*
M02*
