G04 #@! TF.FileFunction,Soldermask,Top*
%FSLAX46Y46*%
G04 Gerber Fmt 4.6, Leading zero omitted, Abs format (unit mm)*
G04 Created by KiCad (PCBNEW 4.0.5+dfsg1-4) date Sat Sep 16 15:38:21 2017*
%MOMM*%
%LPD*%
G01*
G04 APERTURE LIST*
%ADD10C,0.100000*%
%ADD11R,2.100000X1.600000*%
%ADD12O,2.100000X1.600000*%
%ADD13R,1.500000X2.900000*%
%ADD14R,1.900000X1.700000*%
%ADD15R,1.700000X1.900000*%
%ADD16R,1.900000X1.900000*%
%ADD17R,2.100000X2.100000*%
%ADD18O,2.100000X2.100000*%
%ADD19C,2.600000*%
G04 APERTURE END LIST*
D10*
D11*
X95000000Y-87250000D03*
D12*
X95000000Y-85250000D03*
D13*
X160000000Y-78800000D03*
X158000000Y-78800000D03*
X156000000Y-78800000D03*
X154000000Y-78800000D03*
X152000000Y-78800000D03*
X150000000Y-78800000D03*
X148000000Y-78800000D03*
X146000000Y-78800000D03*
X146000000Y-94200000D03*
X148000000Y-94200000D03*
X150000000Y-94200000D03*
X152000000Y-94200000D03*
X154000000Y-94200000D03*
X156000000Y-94200000D03*
X158000000Y-94200000D03*
X160000000Y-94200000D03*
D14*
X152850000Y-74000000D03*
X150150000Y-74000000D03*
X156400000Y-74000000D03*
X159100000Y-74000000D03*
D15*
X142250000Y-94850000D03*
X142250000Y-92150000D03*
D16*
X131500000Y-88975000D03*
X131500000Y-84525000D03*
X135000000Y-88975000D03*
X135000000Y-84525000D03*
X131500000Y-96225000D03*
X131500000Y-91775000D03*
X135000000Y-96225000D03*
X135000000Y-91775000D03*
X131500000Y-81475000D03*
X131500000Y-77025000D03*
X135000000Y-81475000D03*
X135000000Y-77025000D03*
D17*
X148000000Y-98500000D03*
D18*
X150540000Y-98500000D03*
X153080000Y-98500000D03*
X155620000Y-98500000D03*
X158160000Y-98500000D03*
X160700000Y-98500000D03*
X163240000Y-98500000D03*
X165780000Y-98500000D03*
D19*
X165250000Y-74500000D03*
M02*
