G04 #@! TF.FileFunction,Legend,Bot*
%FSLAX46Y46*%
G04 Gerber Fmt 4.6, Leading zero omitted, Abs format (unit mm)*
G04 Created by KiCad (PCBNEW 4.0.5+dfsg1-4) date Sat Sep 16 14:32:47 2017*
%MOMM*%
%LPD*%
G01*
G04 APERTURE LIST*
%ADD10C,0.100000*%
%ADD11C,0.200000*%
%ADD12C,0.300000*%
%ADD13C,0.250000*%
%ADD14C,0.177800*%
%ADD15C,0.120000*%
G04 APERTURE END LIST*
D10*
D11*
X150500000Y-97500000D02*
X150500000Y-95500000D01*
X163940476Y-96202381D02*
X163369047Y-96202381D01*
X163654762Y-97202381D02*
X163654762Y-96202381D01*
X163130952Y-97202381D02*
X162607142Y-96535714D01*
X163130952Y-96535714D02*
X162607142Y-97202381D01*
X160845238Y-97202381D02*
X161178572Y-96726190D01*
X161416667Y-97202381D02*
X161416667Y-96202381D01*
X161035714Y-96202381D01*
X160940476Y-96250000D01*
X160892857Y-96297619D01*
X160845238Y-96392857D01*
X160845238Y-96535714D01*
X160892857Y-96630952D01*
X160940476Y-96678571D01*
X161035714Y-96726190D01*
X161416667Y-96726190D01*
X160511905Y-97202381D02*
X159988095Y-96535714D01*
X160511905Y-96535714D02*
X159988095Y-97202381D01*
X159190476Y-96202381D02*
X158571428Y-96202381D01*
X158904762Y-96583333D01*
X158761904Y-96583333D01*
X158666666Y-96630952D01*
X158619047Y-96678571D01*
X158571428Y-96773810D01*
X158571428Y-97011905D01*
X158619047Y-97107143D01*
X158666666Y-97154762D01*
X158761904Y-97202381D01*
X159047619Y-97202381D01*
X159142857Y-97154762D01*
X159190476Y-97107143D01*
X158238095Y-96535714D02*
X158000000Y-97202381D01*
X157761904Y-96535714D01*
X157476190Y-96202381D02*
X156857142Y-96202381D01*
X157190476Y-96583333D01*
X157047618Y-96583333D01*
X156952380Y-96630952D01*
X156904761Y-96678571D01*
X156857142Y-96773810D01*
X156857142Y-97011905D01*
X156904761Y-97107143D01*
X156952380Y-97154762D01*
X157047618Y-97202381D01*
X157333333Y-97202381D01*
X157428571Y-97154762D01*
X157476190Y-97107143D01*
X154011904Y-96000000D02*
X154107142Y-95952381D01*
X154249999Y-95952381D01*
X154392857Y-96000000D01*
X154488095Y-96095238D01*
X154535714Y-96190476D01*
X154583333Y-96380952D01*
X154583333Y-96523810D01*
X154535714Y-96714286D01*
X154488095Y-96809524D01*
X154392857Y-96904762D01*
X154249999Y-96952381D01*
X154154761Y-96952381D01*
X154011904Y-96904762D01*
X153964285Y-96857143D01*
X153964285Y-96523810D01*
X154154761Y-96523810D01*
X153535714Y-96952381D02*
X153535714Y-95952381D01*
X152964285Y-96952381D01*
X152964285Y-95952381D01*
X152488095Y-96952381D02*
X152488095Y-95952381D01*
X152250000Y-95952381D01*
X152107142Y-96000000D01*
X152011904Y-96095238D01*
X151964285Y-96190476D01*
X151916666Y-96380952D01*
X151916666Y-96523810D01*
X151964285Y-96714286D01*
X152011904Y-96809524D01*
X152107142Y-96904762D01*
X152250000Y-96952381D01*
X152488095Y-96952381D01*
X148738095Y-90166667D02*
X148261904Y-90166667D01*
X148833333Y-90452381D02*
X148500000Y-89452381D01*
X148166666Y-90452381D01*
X147833333Y-90452381D02*
X147833333Y-89452381D01*
X147595238Y-89452381D01*
X147452380Y-89500000D01*
X147357142Y-89595238D01*
X147309523Y-89690476D01*
X147261904Y-89880952D01*
X147261904Y-90023810D01*
X147309523Y-90214286D01*
X147357142Y-90309524D01*
X147452380Y-90404762D01*
X147595238Y-90452381D01*
X147833333Y-90452381D01*
X146261904Y-90357143D02*
X146309523Y-90404762D01*
X146452380Y-90452381D01*
X146547618Y-90452381D01*
X146690476Y-90404762D01*
X146785714Y-90309524D01*
X146833333Y-90214286D01*
X146880952Y-90023810D01*
X146880952Y-89880952D01*
X146833333Y-89690476D01*
X146785714Y-89595238D01*
X146690476Y-89500000D01*
X146547618Y-89452381D01*
X146452380Y-89452381D01*
X146309523Y-89500000D01*
X146261904Y-89547619D01*
X154976190Y-89500000D02*
X155071428Y-89452381D01*
X155214285Y-89452381D01*
X155357143Y-89500000D01*
X155452381Y-89595238D01*
X155500000Y-89690476D01*
X155547619Y-89880952D01*
X155547619Y-90023810D01*
X155500000Y-90214286D01*
X155452381Y-90309524D01*
X155357143Y-90404762D01*
X155214285Y-90452381D01*
X155119047Y-90452381D01*
X154976190Y-90404762D01*
X154928571Y-90357143D01*
X154928571Y-90023810D01*
X155119047Y-90023810D01*
X154500000Y-90452381D02*
X154500000Y-89452381D01*
X154119047Y-89452381D01*
X154023809Y-89500000D01*
X153976190Y-89547619D01*
X153928571Y-89642857D01*
X153928571Y-89785714D01*
X153976190Y-89880952D01*
X154023809Y-89928571D01*
X154119047Y-89976190D01*
X154500000Y-89976190D01*
X153500000Y-90452381D02*
X153500000Y-89452381D01*
X152833334Y-89452381D02*
X152642857Y-89452381D01*
X152547619Y-89500000D01*
X152452381Y-89595238D01*
X152404762Y-89785714D01*
X152404762Y-90119048D01*
X152452381Y-90309524D01*
X152547619Y-90404762D01*
X152642857Y-90452381D01*
X152833334Y-90452381D01*
X152928572Y-90404762D01*
X153023810Y-90309524D01*
X153071429Y-90119048D01*
X153071429Y-89785714D01*
X153023810Y-89595238D01*
X152928572Y-89500000D01*
X152833334Y-89452381D01*
X151500000Y-89452381D02*
X151976191Y-89452381D01*
X152023810Y-89928571D01*
X151976191Y-89880952D01*
X151880953Y-89833333D01*
X151642857Y-89833333D01*
X151547619Y-89880952D01*
X151500000Y-89928571D01*
X151452381Y-90023810D01*
X151452381Y-90261905D01*
X151500000Y-90357143D01*
X151547619Y-90404762D01*
X151642857Y-90452381D01*
X151880953Y-90452381D01*
X151976191Y-90404762D01*
X152023810Y-90357143D01*
X160976190Y-89500000D02*
X161071428Y-89452381D01*
X161214285Y-89452381D01*
X161357143Y-89500000D01*
X161452381Y-89595238D01*
X161500000Y-89690476D01*
X161547619Y-89880952D01*
X161547619Y-90023810D01*
X161500000Y-90214286D01*
X161452381Y-90309524D01*
X161357143Y-90404762D01*
X161214285Y-90452381D01*
X161119047Y-90452381D01*
X160976190Y-90404762D01*
X160928571Y-90357143D01*
X160928571Y-90023810D01*
X161119047Y-90023810D01*
X160500000Y-90452381D02*
X160500000Y-89452381D01*
X160119047Y-89452381D01*
X160023809Y-89500000D01*
X159976190Y-89547619D01*
X159928571Y-89642857D01*
X159928571Y-89785714D01*
X159976190Y-89880952D01*
X160023809Y-89928571D01*
X160119047Y-89976190D01*
X160500000Y-89976190D01*
X159500000Y-90452381D02*
X159500000Y-89452381D01*
X158833334Y-89452381D02*
X158642857Y-89452381D01*
X158547619Y-89500000D01*
X158452381Y-89595238D01*
X158404762Y-89785714D01*
X158404762Y-90119048D01*
X158452381Y-90309524D01*
X158547619Y-90404762D01*
X158642857Y-90452381D01*
X158833334Y-90452381D01*
X158928572Y-90404762D01*
X159023810Y-90309524D01*
X159071429Y-90119048D01*
X159071429Y-89785714D01*
X159023810Y-89595238D01*
X158928572Y-89500000D01*
X158833334Y-89452381D01*
X157547619Y-89785714D02*
X157547619Y-90452381D01*
X157785715Y-89404762D02*
X158023810Y-90119048D01*
X157404762Y-90119048D01*
X148761904Y-96000000D02*
X148857142Y-95952381D01*
X148999999Y-95952381D01*
X149142857Y-96000000D01*
X149238095Y-96095238D01*
X149285714Y-96190476D01*
X149333333Y-96380952D01*
X149333333Y-96523810D01*
X149285714Y-96714286D01*
X149238095Y-96809524D01*
X149142857Y-96904762D01*
X148999999Y-96952381D01*
X148904761Y-96952381D01*
X148761904Y-96904762D01*
X148714285Y-96857143D01*
X148714285Y-96523810D01*
X148904761Y-96523810D01*
X148285714Y-96952381D02*
X148285714Y-95952381D01*
X147714285Y-96952381D01*
X147714285Y-95952381D01*
X147238095Y-96952381D02*
X147238095Y-95952381D01*
X147000000Y-95952381D01*
X146857142Y-96000000D01*
X146761904Y-96095238D01*
X146714285Y-96190476D01*
X146666666Y-96380952D01*
X146666666Y-96523810D01*
X146714285Y-96714286D01*
X146761904Y-96809524D01*
X146857142Y-96904762D01*
X147000000Y-96952381D01*
X147238095Y-96952381D01*
X150226190Y-94250000D02*
X150321428Y-94202381D01*
X150464285Y-94202381D01*
X150607143Y-94250000D01*
X150702381Y-94345238D01*
X150750000Y-94440476D01*
X150797619Y-94630952D01*
X150797619Y-94773810D01*
X150750000Y-94964286D01*
X150702381Y-95059524D01*
X150607143Y-95154762D01*
X150464285Y-95202381D01*
X150369047Y-95202381D01*
X150226190Y-95154762D01*
X150178571Y-95107143D01*
X150178571Y-94773810D01*
X150369047Y-94773810D01*
X149750000Y-95202381D02*
X149750000Y-94202381D01*
X149369047Y-94202381D01*
X149273809Y-94250000D01*
X149226190Y-94297619D01*
X149178571Y-94392857D01*
X149178571Y-94535714D01*
X149226190Y-94630952D01*
X149273809Y-94678571D01*
X149369047Y-94726190D01*
X149750000Y-94726190D01*
X148750000Y-95202381D02*
X148750000Y-94202381D01*
X148083334Y-94202381D02*
X147892857Y-94202381D01*
X147797619Y-94250000D01*
X147702381Y-94345238D01*
X147654762Y-94535714D01*
X147654762Y-94869048D01*
X147702381Y-95059524D01*
X147797619Y-95154762D01*
X147892857Y-95202381D01*
X148083334Y-95202381D01*
X148178572Y-95154762D01*
X148273810Y-95059524D01*
X148321429Y-94869048D01*
X148321429Y-94535714D01*
X148273810Y-94345238D01*
X148178572Y-94250000D01*
X148083334Y-94202381D01*
X147035715Y-94202381D02*
X146940476Y-94202381D01*
X146845238Y-94250000D01*
X146797619Y-94297619D01*
X146750000Y-94392857D01*
X146702381Y-94583333D01*
X146702381Y-94821429D01*
X146750000Y-95011905D01*
X146797619Y-95107143D01*
X146845238Y-95154762D01*
X146940476Y-95202381D01*
X147035715Y-95202381D01*
X147130953Y-95154762D01*
X147178572Y-95107143D01*
X147226191Y-95011905D01*
X147273810Y-94821429D01*
X147273810Y-94583333D01*
X147226191Y-94392857D01*
X147178572Y-94297619D01*
X147130953Y-94250000D01*
X147035715Y-94202381D01*
D12*
X94607143Y-81428572D02*
X94607143Y-82571429D01*
X95071428Y-90607143D02*
X93928571Y-90607143D01*
X94500000Y-91178571D02*
X94500000Y-90035714D01*
D13*
X143988096Y-85202381D02*
X143988096Y-84202381D01*
X143607143Y-84202381D01*
X143511905Y-84250000D01*
X143464286Y-84297619D01*
X143416667Y-84392857D01*
X143416667Y-84535714D01*
X143464286Y-84630952D01*
X143511905Y-84678571D01*
X143607143Y-84726190D01*
X143988096Y-84726190D01*
X142559524Y-84535714D02*
X142559524Y-85202381D01*
X142988096Y-84535714D02*
X142988096Y-85059524D01*
X142940477Y-85154762D01*
X142845239Y-85202381D01*
X142702381Y-85202381D01*
X142607143Y-85154762D01*
X142559524Y-85107143D01*
X141940477Y-85202381D02*
X142035715Y-85154762D01*
X142083334Y-85059524D01*
X142083334Y-84202381D01*
X141416667Y-85202381D02*
X141511905Y-85154762D01*
X141559524Y-85059524D01*
X141559524Y-84202381D01*
X139749999Y-84250000D02*
X139845237Y-84202381D01*
X139988094Y-84202381D01*
X140130952Y-84250000D01*
X140226190Y-84345238D01*
X140273809Y-84440476D01*
X140321428Y-84630952D01*
X140321428Y-84773810D01*
X140273809Y-84964286D01*
X140226190Y-85059524D01*
X140130952Y-85154762D01*
X139988094Y-85202381D01*
X139892856Y-85202381D01*
X139749999Y-85154762D01*
X139702380Y-85107143D01*
X139702380Y-84773810D01*
X139892856Y-84773810D01*
X139273809Y-85202381D02*
X139273809Y-84202381D01*
X138892856Y-84202381D01*
X138797618Y-84250000D01*
X138749999Y-84297619D01*
X138702380Y-84392857D01*
X138702380Y-84535714D01*
X138749999Y-84630952D01*
X138797618Y-84678571D01*
X138892856Y-84726190D01*
X139273809Y-84726190D01*
X138273809Y-85202381D02*
X138273809Y-84202381D01*
X137607143Y-84202381D02*
X137416666Y-84202381D01*
X137321428Y-84250000D01*
X137226190Y-84345238D01*
X137178571Y-84535714D01*
X137178571Y-84869048D01*
X137226190Y-85059524D01*
X137321428Y-85154762D01*
X137416666Y-85202381D01*
X137607143Y-85202381D01*
X137702381Y-85154762D01*
X137797619Y-85059524D01*
X137845238Y-84869048D01*
X137845238Y-84535714D01*
X137797619Y-84345238D01*
X137702381Y-84250000D01*
X137607143Y-84202381D01*
X136559524Y-84202381D02*
X136464285Y-84202381D01*
X136369047Y-84250000D01*
X136321428Y-84297619D01*
X136273809Y-84392857D01*
X136226190Y-84583333D01*
X136226190Y-84821429D01*
X136273809Y-85011905D01*
X136321428Y-85107143D01*
X136369047Y-85154762D01*
X136464285Y-85202381D01*
X136559524Y-85202381D01*
X136654762Y-85154762D01*
X136702381Y-85107143D01*
X136750000Y-85011905D01*
X136797619Y-84821429D01*
X136797619Y-84583333D01*
X136750000Y-84392857D01*
X136702381Y-84297619D01*
X136654762Y-84250000D01*
X136559524Y-84202381D01*
X142107144Y-86952381D02*
X142202382Y-86904762D01*
X142250001Y-86809524D01*
X142250001Y-85952381D01*
X141583334Y-86952381D02*
X141678572Y-86904762D01*
X141726191Y-86857143D01*
X141773810Y-86761905D01*
X141773810Y-86476190D01*
X141726191Y-86380952D01*
X141678572Y-86333333D01*
X141583334Y-86285714D01*
X141440476Y-86285714D01*
X141345238Y-86333333D01*
X141297619Y-86380952D01*
X141250000Y-86476190D01*
X141250000Y-86761905D01*
X141297619Y-86857143D01*
X141345238Y-86904762D01*
X141440476Y-86952381D01*
X141583334Y-86952381D01*
X140916667Y-86285714D02*
X140726191Y-86952381D01*
X140535714Y-86476190D01*
X140345238Y-86952381D01*
X140154762Y-86285714D01*
X139154762Y-86285714D02*
X138773810Y-86285714D01*
X139011905Y-85952381D02*
X139011905Y-86809524D01*
X138964286Y-86904762D01*
X138869048Y-86952381D01*
X138773810Y-86952381D01*
X138297619Y-86952381D02*
X138392857Y-86904762D01*
X138440476Y-86857143D01*
X138488095Y-86761905D01*
X138488095Y-86476190D01*
X138440476Y-86380952D01*
X138392857Y-86333333D01*
X138297619Y-86285714D01*
X138154761Y-86285714D01*
X138059523Y-86333333D01*
X138011904Y-86380952D01*
X137964285Y-86476190D01*
X137964285Y-86761905D01*
X138011904Y-86857143D01*
X138059523Y-86904762D01*
X138154761Y-86952381D01*
X138297619Y-86952381D01*
X142773810Y-88702381D02*
X142773810Y-87702381D01*
X142773810Y-88083333D02*
X142678572Y-88035714D01*
X142488095Y-88035714D01*
X142392857Y-88083333D01*
X142345238Y-88130952D01*
X142297619Y-88226190D01*
X142297619Y-88511905D01*
X142345238Y-88607143D01*
X142392857Y-88654762D01*
X142488095Y-88702381D01*
X142678572Y-88702381D01*
X142773810Y-88654762D01*
X141726191Y-88702381D02*
X141821429Y-88654762D01*
X141869048Y-88607143D01*
X141916667Y-88511905D01*
X141916667Y-88226190D01*
X141869048Y-88130952D01*
X141821429Y-88083333D01*
X141726191Y-88035714D01*
X141583333Y-88035714D01*
X141488095Y-88083333D01*
X141440476Y-88130952D01*
X141392857Y-88226190D01*
X141392857Y-88511905D01*
X141440476Y-88607143D01*
X141488095Y-88654762D01*
X141583333Y-88702381D01*
X141726191Y-88702381D01*
X140821429Y-88702381D02*
X140916667Y-88654762D01*
X140964286Y-88607143D01*
X141011905Y-88511905D01*
X141011905Y-88226190D01*
X140964286Y-88130952D01*
X140916667Y-88083333D01*
X140821429Y-88035714D01*
X140678571Y-88035714D01*
X140583333Y-88083333D01*
X140535714Y-88130952D01*
X140488095Y-88226190D01*
X140488095Y-88511905D01*
X140535714Y-88607143D01*
X140583333Y-88654762D01*
X140678571Y-88702381D01*
X140821429Y-88702381D01*
X140202381Y-88035714D02*
X139821429Y-88035714D01*
X140059524Y-87702381D02*
X140059524Y-88559524D01*
X140011905Y-88654762D01*
X139916667Y-88702381D01*
X139821429Y-88702381D01*
X139345238Y-88702381D02*
X139440476Y-88654762D01*
X139488095Y-88559524D01*
X139488095Y-87702381D01*
X138821428Y-88702381D02*
X138916666Y-88654762D01*
X138964285Y-88607143D01*
X139011904Y-88511905D01*
X139011904Y-88226190D01*
X138964285Y-88130952D01*
X138916666Y-88083333D01*
X138821428Y-88035714D01*
X138678570Y-88035714D01*
X138583332Y-88083333D01*
X138535713Y-88130952D01*
X138488094Y-88226190D01*
X138488094Y-88511905D01*
X138535713Y-88607143D01*
X138583332Y-88654762D01*
X138678570Y-88702381D01*
X138821428Y-88702381D01*
X137630951Y-88702381D02*
X137630951Y-88178571D01*
X137678570Y-88083333D01*
X137773808Y-88035714D01*
X137964285Y-88035714D01*
X138059523Y-88083333D01*
X137630951Y-88654762D02*
X137726189Y-88702381D01*
X137964285Y-88702381D01*
X138059523Y-88654762D01*
X138107142Y-88559524D01*
X138107142Y-88464286D01*
X138059523Y-88369048D01*
X137964285Y-88321429D01*
X137726189Y-88321429D01*
X137630951Y-88273810D01*
X136726189Y-88702381D02*
X136726189Y-87702381D01*
X136726189Y-88654762D02*
X136821427Y-88702381D01*
X137011904Y-88702381D01*
X137107142Y-88654762D01*
X137154761Y-88607143D01*
X137202380Y-88511905D01*
X137202380Y-88226190D01*
X137154761Y-88130952D01*
X137107142Y-88083333D01*
X137011904Y-88035714D01*
X136821427Y-88035714D01*
X136726189Y-88083333D01*
D14*
X130212528Y-97617886D02*
X130071014Y-97678362D01*
X130023842Y-97738838D01*
X129976671Y-97859790D01*
X129976671Y-98041219D01*
X130023842Y-98162171D01*
X130071014Y-98222648D01*
X130165356Y-98283124D01*
X130542728Y-98283124D01*
X130542728Y-97013124D01*
X130212528Y-97013124D01*
X130118185Y-97073600D01*
X130071014Y-97134076D01*
X130023842Y-97255029D01*
X130023842Y-97375981D01*
X130071014Y-97496933D01*
X130118185Y-97557410D01*
X130212528Y-97617886D01*
X130542728Y-97617886D01*
X129646471Y-97436457D02*
X129410614Y-98283124D01*
X129174756Y-97436457D02*
X129410614Y-98283124D01*
X129504956Y-98585505D01*
X129552128Y-98645981D01*
X129646471Y-98706457D01*
X128797385Y-98162171D02*
X128750213Y-98222648D01*
X128797385Y-98283124D01*
X128844556Y-98222648D01*
X128797385Y-98162171D01*
X128797385Y-98283124D01*
X128797385Y-97496933D02*
X128750213Y-97557410D01*
X128797385Y-97617886D01*
X128844556Y-97557410D01*
X128797385Y-97496933D01*
X128797385Y-97617886D01*
X127570928Y-97617886D02*
X127240728Y-97617886D01*
X127099214Y-98283124D02*
X127570928Y-98283124D01*
X127570928Y-97013124D01*
X127099214Y-97013124D01*
X126816185Y-97436457D02*
X126438814Y-97436457D01*
X126674671Y-97013124D02*
X126674671Y-98101695D01*
X126627499Y-98222648D01*
X126533157Y-98283124D01*
X126438814Y-98283124D01*
X126108614Y-98283124D02*
X126108614Y-97013124D01*
X125684071Y-98283124D02*
X125684071Y-97617886D01*
X125731242Y-97496933D01*
X125825585Y-97436457D01*
X125967100Y-97436457D01*
X126061442Y-97496933D01*
X126108614Y-97557410D01*
X124787814Y-98283124D02*
X124787814Y-97617886D01*
X124834985Y-97496933D01*
X124929328Y-97436457D01*
X125118014Y-97436457D01*
X125212357Y-97496933D01*
X124787814Y-98222648D02*
X124882157Y-98283124D01*
X125118014Y-98283124D01*
X125212357Y-98222648D01*
X125259528Y-98101695D01*
X125259528Y-97980743D01*
X125212357Y-97859790D01*
X125118014Y-97799314D01*
X124882157Y-97799314D01*
X124787814Y-97738838D01*
X124316100Y-97436457D02*
X124316100Y-98283124D01*
X124316100Y-97557410D02*
X124268928Y-97496933D01*
X124174586Y-97436457D01*
X124033071Y-97436457D01*
X123938728Y-97496933D01*
X123891557Y-97617886D01*
X123891557Y-98283124D01*
X122099043Y-98162171D02*
X122146214Y-98222648D01*
X122287728Y-98283124D01*
X122382071Y-98283124D01*
X122523586Y-98222648D01*
X122617928Y-98101695D01*
X122665100Y-97980743D01*
X122712271Y-97738838D01*
X122712271Y-97557410D01*
X122665100Y-97315505D01*
X122617928Y-97194552D01*
X122523586Y-97073600D01*
X122382071Y-97013124D01*
X122287728Y-97013124D01*
X122146214Y-97073600D01*
X122099043Y-97134076D01*
X121674500Y-98283124D02*
X121674500Y-97013124D01*
X121249957Y-98283124D02*
X121249957Y-97617886D01*
X121297128Y-97496933D01*
X121391471Y-97436457D01*
X121532986Y-97436457D01*
X121627328Y-97496933D01*
X121674500Y-97557410D01*
X120778243Y-98283124D02*
X120778243Y-97436457D01*
X120778243Y-97013124D02*
X120825414Y-97073600D01*
X120778243Y-97134076D01*
X120731071Y-97073600D01*
X120778243Y-97013124D01*
X120778243Y-97134076D01*
X120165015Y-98283124D02*
X120259357Y-98222648D01*
X120306529Y-98101695D01*
X120306529Y-97013124D01*
X119363100Y-98283124D02*
X119363100Y-97013124D01*
X119363100Y-98222648D02*
X119457443Y-98283124D01*
X119646129Y-98283124D01*
X119740471Y-98222648D01*
X119787643Y-98162171D01*
X119834814Y-98041219D01*
X119834814Y-97678362D01*
X119787643Y-97557410D01*
X119740471Y-97496933D01*
X119646129Y-97436457D01*
X119457443Y-97436457D01*
X119363100Y-97496933D01*
X118514014Y-98222648D02*
X118608357Y-98283124D01*
X118797043Y-98283124D01*
X118891386Y-98222648D01*
X118938557Y-98101695D01*
X118938557Y-97617886D01*
X118891386Y-97496933D01*
X118797043Y-97436457D01*
X118608357Y-97436457D01*
X118514014Y-97496933D01*
X118466843Y-97617886D01*
X118466843Y-97738838D01*
X118938557Y-97859790D01*
X118042300Y-98283124D02*
X118042300Y-97436457D01*
X118042300Y-97678362D02*
X117995128Y-97557410D01*
X117947957Y-97496933D01*
X117853614Y-97436457D01*
X117759271Y-97436457D01*
X117429071Y-98283124D02*
X117429071Y-97013124D01*
X117004528Y-98283124D02*
X117004528Y-97617886D01*
X117051699Y-97496933D01*
X117146042Y-97436457D01*
X117287557Y-97436457D01*
X117381899Y-97496933D01*
X117429071Y-97557410D01*
X116391300Y-98283124D02*
X116485642Y-98222648D01*
X116532814Y-98162171D01*
X116579985Y-98041219D01*
X116579985Y-97678362D01*
X116532814Y-97557410D01*
X116485642Y-97496933D01*
X116391300Y-97436457D01*
X116249785Y-97436457D01*
X116155442Y-97496933D01*
X116108271Y-97557410D01*
X116061100Y-97678362D01*
X116061100Y-98041219D01*
X116108271Y-98162171D01*
X116155442Y-98222648D01*
X116249785Y-98283124D01*
X116391300Y-98283124D01*
X115683728Y-98222648D02*
X115589385Y-98283124D01*
X115400700Y-98283124D01*
X115306357Y-98222648D01*
X115259185Y-98101695D01*
X115259185Y-98041219D01*
X115306357Y-97920267D01*
X115400700Y-97859790D01*
X115542214Y-97859790D01*
X115636557Y-97799314D01*
X115683728Y-97678362D01*
X115683728Y-97617886D01*
X115636557Y-97496933D01*
X115542214Y-97436457D01*
X115400700Y-97436457D01*
X115306357Y-97496933D01*
X114457271Y-98222648D02*
X114551614Y-98283124D01*
X114740300Y-98283124D01*
X114834643Y-98222648D01*
X114881814Y-98101695D01*
X114881814Y-97617886D01*
X114834643Y-97496933D01*
X114740300Y-97436457D01*
X114551614Y-97436457D01*
X114457271Y-97496933D01*
X114410100Y-97617886D01*
X114410100Y-97738838D01*
X114881814Y-97859790D01*
X135236286Y-100365924D02*
X135236286Y-99700686D01*
X135283457Y-99579733D01*
X135377800Y-99519257D01*
X135566486Y-99519257D01*
X135660829Y-99579733D01*
X135236286Y-100305448D02*
X135330629Y-100365924D01*
X135566486Y-100365924D01*
X135660829Y-100305448D01*
X135708000Y-100184495D01*
X135708000Y-100063543D01*
X135660829Y-99942590D01*
X135566486Y-99882114D01*
X135330629Y-99882114D01*
X135236286Y-99821638D01*
X134764572Y-99519257D02*
X134764572Y-100365924D01*
X134764572Y-99640210D02*
X134717400Y-99579733D01*
X134623058Y-99519257D01*
X134481543Y-99519257D01*
X134387200Y-99579733D01*
X134340029Y-99700686D01*
X134340029Y-100365924D01*
X133443772Y-100365924D02*
X133443772Y-99095924D01*
X133443772Y-100305448D02*
X133538115Y-100365924D01*
X133726801Y-100365924D01*
X133821143Y-100305448D01*
X133868315Y-100244971D01*
X133915486Y-100124019D01*
X133915486Y-99761162D01*
X133868315Y-99640210D01*
X133821143Y-99579733D01*
X133726801Y-99519257D01*
X133538115Y-99519257D01*
X133443772Y-99579733D01*
X132264486Y-100305448D02*
X132122972Y-100365924D01*
X131887115Y-100365924D01*
X131792772Y-100305448D01*
X131745601Y-100244971D01*
X131698429Y-100124019D01*
X131698429Y-100003067D01*
X131745601Y-99882114D01*
X131792772Y-99821638D01*
X131887115Y-99761162D01*
X132075801Y-99700686D01*
X132170143Y-99640210D01*
X132217315Y-99579733D01*
X132264486Y-99458781D01*
X132264486Y-99337829D01*
X132217315Y-99216876D01*
X132170143Y-99156400D01*
X132075801Y-99095924D01*
X131839943Y-99095924D01*
X131698429Y-99156400D01*
X130849343Y-100365924D02*
X130849343Y-99700686D01*
X130896514Y-99579733D01*
X130990857Y-99519257D01*
X131179543Y-99519257D01*
X131273886Y-99579733D01*
X130849343Y-100305448D02*
X130943686Y-100365924D01*
X131179543Y-100365924D01*
X131273886Y-100305448D01*
X131321057Y-100184495D01*
X131321057Y-100063543D01*
X131273886Y-99942590D01*
X131179543Y-99882114D01*
X130943686Y-99882114D01*
X130849343Y-99821638D01*
X130377629Y-100365924D02*
X130377629Y-99519257D01*
X130377629Y-99640210D02*
X130330457Y-99579733D01*
X130236115Y-99519257D01*
X130094600Y-99519257D01*
X130000257Y-99579733D01*
X129953086Y-99700686D01*
X129953086Y-100365924D01*
X129953086Y-99700686D02*
X129905915Y-99579733D01*
X129811572Y-99519257D01*
X129670057Y-99519257D01*
X129575715Y-99579733D01*
X129528543Y-99700686D01*
X129528543Y-100365924D01*
X128632286Y-100365924D02*
X128632286Y-99700686D01*
X128679457Y-99579733D01*
X128773800Y-99519257D01*
X128962486Y-99519257D01*
X129056829Y-99579733D01*
X128632286Y-100305448D02*
X128726629Y-100365924D01*
X128962486Y-100365924D01*
X129056829Y-100305448D01*
X129104000Y-100184495D01*
X129104000Y-100063543D01*
X129056829Y-99942590D01*
X128962486Y-99882114D01*
X128726629Y-99882114D01*
X128632286Y-99821638D01*
X128160572Y-99519257D02*
X128160572Y-100365924D01*
X128160572Y-99640210D02*
X128113400Y-99579733D01*
X128019058Y-99519257D01*
X127877543Y-99519257D01*
X127783200Y-99579733D01*
X127736029Y-99700686D01*
X127736029Y-100365924D01*
X127405829Y-99519257D02*
X127028458Y-99519257D01*
X127264315Y-99095924D02*
X127264315Y-100184495D01*
X127217143Y-100305448D01*
X127122801Y-100365924D01*
X127028458Y-100365924D01*
X126698258Y-100365924D02*
X126698258Y-99095924D01*
X126273715Y-100365924D02*
X126273715Y-99700686D01*
X126320886Y-99579733D01*
X126415229Y-99519257D01*
X126556744Y-99519257D01*
X126651086Y-99579733D01*
X126698258Y-99640210D01*
X125377458Y-100365924D02*
X125377458Y-99700686D01*
X125424629Y-99579733D01*
X125518972Y-99519257D01*
X125707658Y-99519257D01*
X125802001Y-99579733D01*
X125377458Y-100305448D02*
X125471801Y-100365924D01*
X125707658Y-100365924D01*
X125802001Y-100305448D01*
X125849172Y-100184495D01*
X125849172Y-100063543D01*
X125802001Y-99942590D01*
X125707658Y-99882114D01*
X125471801Y-99882114D01*
X125377458Y-99821638D01*
X123962315Y-99761162D02*
X123962315Y-100365924D01*
X124292515Y-99095924D02*
X123962315Y-99761162D01*
X123632115Y-99095924D01*
X122877372Y-100365924D02*
X122877372Y-99700686D01*
X122924543Y-99579733D01*
X123018886Y-99519257D01*
X123207572Y-99519257D01*
X123301915Y-99579733D01*
X122877372Y-100305448D02*
X122971715Y-100365924D01*
X123207572Y-100365924D01*
X123301915Y-100305448D01*
X123349086Y-100184495D01*
X123349086Y-100063543D01*
X123301915Y-99942590D01*
X123207572Y-99882114D01*
X122971715Y-99882114D01*
X122877372Y-99821638D01*
X122264144Y-100365924D02*
X122358486Y-100305448D01*
X122405658Y-100244971D01*
X122452829Y-100124019D01*
X122452829Y-99761162D01*
X122405658Y-99640210D01*
X122358486Y-99579733D01*
X122264144Y-99519257D01*
X122122629Y-99519257D01*
X122028286Y-99579733D01*
X121981115Y-99640210D01*
X121933944Y-99761162D01*
X121933944Y-100124019D01*
X121981115Y-100244971D01*
X122028286Y-100305448D01*
X122122629Y-100365924D01*
X122264144Y-100365924D01*
X120330115Y-100365924D02*
X120330115Y-99700686D01*
X120377286Y-99579733D01*
X120471629Y-99519257D01*
X120660315Y-99519257D01*
X120754658Y-99579733D01*
X120330115Y-100305448D02*
X120424458Y-100365924D01*
X120660315Y-100365924D01*
X120754658Y-100305448D01*
X120801829Y-100184495D01*
X120801829Y-100063543D01*
X120754658Y-99942590D01*
X120660315Y-99882114D01*
X120424458Y-99882114D01*
X120330115Y-99821638D01*
X119858401Y-99519257D02*
X119858401Y-100365924D01*
X119858401Y-99640210D02*
X119811229Y-99579733D01*
X119716887Y-99519257D01*
X119575372Y-99519257D01*
X119481029Y-99579733D01*
X119433858Y-99700686D01*
X119433858Y-100365924D01*
X118537601Y-100365924D02*
X118537601Y-99095924D01*
X118537601Y-100305448D02*
X118631944Y-100365924D01*
X118820630Y-100365924D01*
X118914972Y-100305448D01*
X118962144Y-100244971D01*
X119009315Y-100124019D01*
X119009315Y-99761162D01*
X118962144Y-99640210D01*
X118914972Y-99579733D01*
X118820630Y-99519257D01*
X118631944Y-99519257D01*
X118537601Y-99579733D01*
X117311144Y-99700686D02*
X116980944Y-99700686D01*
X116839430Y-100365924D02*
X117311144Y-100365924D01*
X117311144Y-99095924D01*
X116839430Y-99095924D01*
X116414887Y-100365924D02*
X116414887Y-99519257D01*
X116414887Y-99761162D02*
X116367715Y-99640210D01*
X116320544Y-99579733D01*
X116226201Y-99519257D01*
X116131858Y-99519257D01*
X115801658Y-100365924D02*
X115801658Y-99519257D01*
X115801658Y-99095924D02*
X115848829Y-99156400D01*
X115801658Y-99216876D01*
X115754486Y-99156400D01*
X115801658Y-99095924D01*
X115801658Y-99216876D01*
X114905401Y-100305448D02*
X114999744Y-100365924D01*
X115188430Y-100365924D01*
X115282772Y-100305448D01*
X115329944Y-100244971D01*
X115377115Y-100124019D01*
X115377115Y-99761162D01*
X115329944Y-99640210D01*
X115282772Y-99579733D01*
X115188430Y-99519257D01*
X114999744Y-99519257D01*
X114905401Y-99579733D01*
X113395915Y-99700686D02*
X113254401Y-99761162D01*
X113207229Y-99821638D01*
X113160058Y-99942590D01*
X113160058Y-100124019D01*
X113207229Y-100244971D01*
X113254401Y-100305448D01*
X113348743Y-100365924D01*
X113726115Y-100365924D01*
X113726115Y-99095924D01*
X113395915Y-99095924D01*
X113301572Y-99156400D01*
X113254401Y-99216876D01*
X113207229Y-99337829D01*
X113207229Y-99458781D01*
X113254401Y-99579733D01*
X113301572Y-99640210D01*
X113395915Y-99700686D01*
X113726115Y-99700686D01*
X112735515Y-100365924D02*
X112735515Y-99519257D01*
X112735515Y-99761162D02*
X112688343Y-99640210D01*
X112641172Y-99579733D01*
X112546829Y-99519257D01*
X112452486Y-99519257D01*
X111697743Y-100365924D02*
X111697743Y-99700686D01*
X111744914Y-99579733D01*
X111839257Y-99519257D01*
X112027943Y-99519257D01*
X112122286Y-99579733D01*
X111697743Y-100305448D02*
X111792086Y-100365924D01*
X112027943Y-100365924D01*
X112122286Y-100305448D01*
X112169457Y-100184495D01*
X112169457Y-100063543D01*
X112122286Y-99942590D01*
X112027943Y-99882114D01*
X111792086Y-99882114D01*
X111697743Y-99821638D01*
X110801486Y-99519257D02*
X110801486Y-100365924D01*
X111226029Y-99519257D02*
X111226029Y-100184495D01*
X111178857Y-100305448D01*
X111084515Y-100365924D01*
X110943000Y-100365924D01*
X110848657Y-100305448D01*
X110801486Y-100244971D01*
X109952400Y-100305448D02*
X110046743Y-100365924D01*
X110235429Y-100365924D01*
X110329772Y-100305448D01*
X110376943Y-100184495D01*
X110376943Y-99700686D01*
X110329772Y-99579733D01*
X110235429Y-99519257D01*
X110046743Y-99519257D01*
X109952400Y-99579733D01*
X109905229Y-99700686D01*
X109905229Y-99821638D01*
X110376943Y-99942590D01*
X109480686Y-100365924D02*
X109480686Y-99519257D01*
X109480686Y-99761162D02*
X109433514Y-99640210D01*
X109386343Y-99579733D01*
X109292000Y-99519257D01*
X109197657Y-99519257D01*
D12*
X100964285Y-98178571D02*
X100464285Y-99678571D01*
X99964285Y-98178571D01*
X98892857Y-99607143D02*
X99035714Y-99678571D01*
X99321428Y-99678571D01*
X99464285Y-99607143D01*
X99535714Y-99464286D01*
X99535714Y-98892857D01*
X99464285Y-98750000D01*
X99321428Y-98678571D01*
X99035714Y-98678571D01*
X98892857Y-98750000D01*
X98821428Y-98892857D01*
X98821428Y-99035714D01*
X99535714Y-99178571D01*
X98178571Y-99678571D02*
X98178571Y-98678571D01*
X98178571Y-98964286D02*
X98107143Y-98821429D01*
X98035714Y-98750000D01*
X97892857Y-98678571D01*
X97750000Y-98678571D01*
X95321429Y-99678571D02*
X96178572Y-99678571D01*
X95750000Y-99678571D02*
X95750000Y-98178571D01*
X95892857Y-98392857D01*
X96035715Y-98535714D01*
X96178572Y-98607143D01*
X94678572Y-99535714D02*
X94607144Y-99607143D01*
X94678572Y-99678571D01*
X94750001Y-99607143D01*
X94678572Y-99535714D01*
X94678572Y-99678571D01*
X93178572Y-99678571D02*
X94035715Y-99678571D01*
X93607143Y-99678571D02*
X93607143Y-98178571D01*
X93750000Y-98392857D01*
X93892858Y-98535714D01*
X94035715Y-98607143D01*
D11*
X160666667Y-81316667D02*
X160190476Y-81316667D01*
X160761905Y-81602381D02*
X160428572Y-80602381D01*
X160095238Y-81602381D01*
X159761905Y-81602381D02*
X159761905Y-80602381D01*
X159190476Y-81602381D01*
X159190476Y-80602381D01*
X158761905Y-81316667D02*
X158285714Y-81316667D01*
X158857143Y-81602381D02*
X158523810Y-80602381D01*
X158190476Y-81602381D01*
X157380952Y-81602381D02*
X157857143Y-81602381D01*
X157857143Y-80602381D01*
X156857143Y-80602381D02*
X156666666Y-80602381D01*
X156571428Y-80650000D01*
X156476190Y-80745238D01*
X156428571Y-80935714D01*
X156428571Y-81269048D01*
X156476190Y-81459524D01*
X156571428Y-81554762D01*
X156666666Y-81602381D01*
X156857143Y-81602381D01*
X156952381Y-81554762D01*
X157047619Y-81459524D01*
X157095238Y-81269048D01*
X157095238Y-80935714D01*
X157047619Y-80745238D01*
X156952381Y-80650000D01*
X156857143Y-80602381D01*
X155476190Y-80650000D02*
X155571428Y-80602381D01*
X155714285Y-80602381D01*
X155857143Y-80650000D01*
X155952381Y-80745238D01*
X156000000Y-80840476D01*
X156047619Y-81030952D01*
X156047619Y-81173810D01*
X156000000Y-81364286D01*
X155952381Y-81459524D01*
X155857143Y-81554762D01*
X155714285Y-81602381D01*
X155619047Y-81602381D01*
X155476190Y-81554762D01*
X155428571Y-81507143D01*
X155428571Y-81173810D01*
X155619047Y-81173810D01*
X154333333Y-80602381D02*
X153714285Y-80602381D01*
X154047619Y-80983333D01*
X153904761Y-80983333D01*
X153809523Y-81030952D01*
X153761904Y-81078571D01*
X153714285Y-81173810D01*
X153714285Y-81411905D01*
X153761904Y-81507143D01*
X153809523Y-81554762D01*
X153904761Y-81602381D01*
X154190476Y-81602381D01*
X154285714Y-81554762D01*
X154333333Y-81507143D01*
X153285714Y-81507143D02*
X153238095Y-81554762D01*
X153285714Y-81602381D01*
X153333333Y-81554762D01*
X153285714Y-81507143D01*
X153285714Y-81602381D01*
X152904762Y-80602381D02*
X152285714Y-80602381D01*
X152619048Y-80983333D01*
X152476190Y-80983333D01*
X152380952Y-81030952D01*
X152333333Y-81078571D01*
X152285714Y-81173810D01*
X152285714Y-81411905D01*
X152333333Y-81507143D01*
X152380952Y-81554762D01*
X152476190Y-81602381D01*
X152761905Y-81602381D01*
X152857143Y-81554762D01*
X152904762Y-81507143D01*
X151952381Y-80935714D02*
X151714286Y-81602381D01*
X151476190Y-80935714D01*
X150476190Y-80935714D02*
X150095238Y-80935714D01*
X150333333Y-80602381D02*
X150333333Y-81459524D01*
X150285714Y-81554762D01*
X150190476Y-81602381D01*
X150095238Y-81602381D01*
X149619047Y-81602381D02*
X149714285Y-81554762D01*
X149761904Y-81507143D01*
X149809523Y-81411905D01*
X149809523Y-81126190D01*
X149761904Y-81030952D01*
X149714285Y-80983333D01*
X149619047Y-80935714D01*
X149476189Y-80935714D01*
X149380951Y-80983333D01*
X149333332Y-81030952D01*
X149285713Y-81126190D01*
X149285713Y-81411905D01*
X149333332Y-81507143D01*
X149380951Y-81554762D01*
X149476189Y-81602381D01*
X149619047Y-81602381D01*
X147571427Y-81602381D02*
X148142856Y-81602381D01*
X147857142Y-81602381D02*
X147857142Y-80602381D01*
X147952380Y-80745238D01*
X148047618Y-80840476D01*
X148142856Y-80888095D01*
X147238094Y-80935714D02*
X146999999Y-81602381D01*
X146761903Y-80935714D01*
X146380951Y-81507143D02*
X146333332Y-81554762D01*
X146380951Y-81602381D01*
X146428570Y-81554762D01*
X146380951Y-81507143D01*
X146380951Y-81602381D01*
X146380951Y-80983333D02*
X146333332Y-81030952D01*
X146380951Y-81078571D01*
X146428570Y-81030952D01*
X146380951Y-80983333D01*
X146380951Y-81078571D01*
X160738095Y-83302381D02*
X161071429Y-82826190D01*
X161309524Y-83302381D02*
X161309524Y-82302381D01*
X160928571Y-82302381D01*
X160833333Y-82350000D01*
X160785714Y-82397619D01*
X160738095Y-82492857D01*
X160738095Y-82635714D01*
X160785714Y-82730952D01*
X160833333Y-82778571D01*
X160928571Y-82826190D01*
X161309524Y-82826190D01*
X160357143Y-82397619D02*
X160309524Y-82350000D01*
X160214286Y-82302381D01*
X159976190Y-82302381D01*
X159880952Y-82350000D01*
X159833333Y-82397619D01*
X159785714Y-82492857D01*
X159785714Y-82588095D01*
X159833333Y-82730952D01*
X160404762Y-83302381D01*
X159785714Y-83302381D01*
X158595238Y-82778571D02*
X157833333Y-82778571D01*
X157833333Y-83064286D02*
X158595238Y-83064286D01*
X156071428Y-83302381D02*
X156642857Y-83302381D01*
X156357143Y-83302381D02*
X156357143Y-82302381D01*
X156452381Y-82445238D01*
X156547619Y-82540476D01*
X156642857Y-82588095D01*
X155452381Y-82302381D02*
X155357142Y-82302381D01*
X155261904Y-82350000D01*
X155214285Y-82397619D01*
X155166666Y-82492857D01*
X155119047Y-82683333D01*
X155119047Y-82921429D01*
X155166666Y-83111905D01*
X155214285Y-83207143D01*
X155261904Y-83254762D01*
X155357142Y-83302381D01*
X155452381Y-83302381D01*
X155547619Y-83254762D01*
X155595238Y-83207143D01*
X155642857Y-83111905D01*
X155690476Y-82921429D01*
X155690476Y-82683333D01*
X155642857Y-82492857D01*
X155595238Y-82397619D01*
X155547619Y-82350000D01*
X155452381Y-82302381D01*
X154690476Y-83302381D02*
X154690476Y-82302381D01*
X154595238Y-82921429D02*
X154309523Y-83302381D01*
X154309523Y-82635714D02*
X154690476Y-83016667D01*
X153833333Y-83254762D02*
X153833333Y-83302381D01*
X153880952Y-83397619D01*
X153928571Y-83445238D01*
X152071428Y-83302381D02*
X152404762Y-82826190D01*
X152642857Y-83302381D02*
X152642857Y-82302381D01*
X152261904Y-82302381D01*
X152166666Y-82350000D01*
X152119047Y-82397619D01*
X152071428Y-82492857D01*
X152071428Y-82635714D01*
X152119047Y-82730952D01*
X152166666Y-82778571D01*
X152261904Y-82826190D01*
X152642857Y-82826190D01*
X151119047Y-83302381D02*
X151690476Y-83302381D01*
X151404762Y-83302381D02*
X151404762Y-82302381D01*
X151500000Y-82445238D01*
X151595238Y-82540476D01*
X151690476Y-82588095D01*
X149928571Y-82778571D02*
X149166666Y-82778571D01*
X149166666Y-83064286D02*
X149928571Y-83064286D01*
X147976190Y-82397619D02*
X147928571Y-82350000D01*
X147833333Y-82302381D01*
X147595237Y-82302381D01*
X147499999Y-82350000D01*
X147452380Y-82397619D01*
X147404761Y-82492857D01*
X147404761Y-82588095D01*
X147452380Y-82730952D01*
X148023809Y-83302381D01*
X147404761Y-83302381D01*
X146499999Y-82302381D02*
X146976190Y-82302381D01*
X147023809Y-82778571D01*
X146976190Y-82730952D01*
X146880952Y-82683333D01*
X146642856Y-82683333D01*
X146547618Y-82730952D01*
X146499999Y-82778571D01*
X146452380Y-82873810D01*
X146452380Y-83111905D01*
X146499999Y-83207143D01*
X146547618Y-83254762D01*
X146642856Y-83302381D01*
X146880952Y-83302381D01*
X146976190Y-83254762D01*
X147023809Y-83207143D01*
X146023809Y-83302381D02*
X146023809Y-82302381D01*
X145928571Y-82921429D02*
X145642856Y-83302381D01*
X145642856Y-82635714D02*
X146023809Y-83016667D01*
D15*
X96800000Y-89300000D02*
X92100000Y-89300000D01*
X92100000Y-89300000D02*
X92100000Y-83200000D01*
X92100000Y-83200000D02*
X96800000Y-83200000D01*
X96800000Y-83200000D02*
X96800000Y-89300000D01*
X96800000Y-86750000D02*
X96200000Y-86750000D01*
X96200000Y-86750000D02*
X96200000Y-88700000D01*
X96200000Y-88700000D02*
X92700000Y-88700000D01*
X92700000Y-88700000D02*
X92700000Y-83800000D01*
X92700000Y-83800000D02*
X96200000Y-83800000D01*
X96200000Y-83800000D02*
X96200000Y-85750000D01*
X96200000Y-85750000D02*
X96800000Y-85750000D01*
X95500000Y-89300000D02*
X95500000Y-88700000D01*
X94200000Y-89300000D02*
X94200000Y-88700000D01*
X95500000Y-83200000D02*
X95500000Y-83800000D01*
X94200000Y-83200000D02*
X94200000Y-83800000D01*
X96800000Y-87550000D02*
X97000000Y-87550000D01*
X97000000Y-87550000D02*
X97000000Y-87850000D01*
X97000000Y-87850000D02*
X96800000Y-87850000D01*
X96900000Y-87550000D02*
X96900000Y-87850000D01*
X92700000Y-86350000D02*
X93200000Y-86350000D01*
X93200000Y-86350000D02*
X93200000Y-86150000D01*
X93200000Y-86150000D02*
X92700000Y-86150000D01*
X92700000Y-86250000D02*
X93200000Y-86250000D01*
X97100000Y-88350000D02*
X97100000Y-89600000D01*
X97100000Y-89600000D02*
X95850000Y-89600000D01*
M02*
