G04 #@! TF.FileFunction,Legend,Bot*
%FSLAX46Y46*%
G04 Gerber Fmt 4.6, Leading zero omitted, Abs format (unit mm)*
G04 Created by KiCad (PCBNEW 4.0.5+dfsg1-4) date Thu Sep 14 16:41:18 2017*
%MOMM*%
%LPD*%
G01*
G04 APERTURE LIST*
%ADD10C,0.100000*%
%ADD11C,0.300000*%
%ADD12C,0.250000*%
%ADD13C,0.177800*%
%ADD14C,0.200000*%
%ADD15C,0.500000*%
%ADD16C,0.120000*%
G04 APERTURE END LIST*
D10*
D11*
X98321428Y-74107143D02*
X97178571Y-74107143D01*
X106321428Y-74107143D02*
X105178571Y-74107143D01*
X105750000Y-74678571D02*
X105750000Y-73535714D01*
D12*
X139238096Y-96952381D02*
X139238096Y-95952381D01*
X138857143Y-95952381D01*
X138761905Y-96000000D01*
X138714286Y-96047619D01*
X138666667Y-96142857D01*
X138666667Y-96285714D01*
X138714286Y-96380952D01*
X138761905Y-96428571D01*
X138857143Y-96476190D01*
X139238096Y-96476190D01*
X137809524Y-96285714D02*
X137809524Y-96952381D01*
X138238096Y-96285714D02*
X138238096Y-96809524D01*
X138190477Y-96904762D01*
X138095239Y-96952381D01*
X137952381Y-96952381D01*
X137857143Y-96904762D01*
X137809524Y-96857143D01*
X137190477Y-96952381D02*
X137285715Y-96904762D01*
X137333334Y-96809524D01*
X137333334Y-95952381D01*
X136666667Y-96952381D02*
X136761905Y-96904762D01*
X136809524Y-96809524D01*
X136809524Y-95952381D01*
X134999999Y-96000000D02*
X135095237Y-95952381D01*
X135238094Y-95952381D01*
X135380952Y-96000000D01*
X135476190Y-96095238D01*
X135523809Y-96190476D01*
X135571428Y-96380952D01*
X135571428Y-96523810D01*
X135523809Y-96714286D01*
X135476190Y-96809524D01*
X135380952Y-96904762D01*
X135238094Y-96952381D01*
X135142856Y-96952381D01*
X134999999Y-96904762D01*
X134952380Y-96857143D01*
X134952380Y-96523810D01*
X135142856Y-96523810D01*
X134523809Y-96952381D02*
X134523809Y-95952381D01*
X134142856Y-95952381D01*
X134047618Y-96000000D01*
X133999999Y-96047619D01*
X133952380Y-96142857D01*
X133952380Y-96285714D01*
X133999999Y-96380952D01*
X134047618Y-96428571D01*
X134142856Y-96476190D01*
X134523809Y-96476190D01*
X133523809Y-96952381D02*
X133523809Y-95952381D01*
X132857143Y-95952381D02*
X132666666Y-95952381D01*
X132571428Y-96000000D01*
X132476190Y-96095238D01*
X132428571Y-96285714D01*
X132428571Y-96619048D01*
X132476190Y-96809524D01*
X132571428Y-96904762D01*
X132666666Y-96952381D01*
X132857143Y-96952381D01*
X132952381Y-96904762D01*
X133047619Y-96809524D01*
X133095238Y-96619048D01*
X133095238Y-96285714D01*
X133047619Y-96095238D01*
X132952381Y-96000000D01*
X132857143Y-95952381D01*
X131809524Y-95952381D02*
X131714285Y-95952381D01*
X131619047Y-96000000D01*
X131571428Y-96047619D01*
X131523809Y-96142857D01*
X131476190Y-96333333D01*
X131476190Y-96571429D01*
X131523809Y-96761905D01*
X131571428Y-96857143D01*
X131619047Y-96904762D01*
X131714285Y-96952381D01*
X131809524Y-96952381D01*
X131904762Y-96904762D01*
X131952381Y-96857143D01*
X132000000Y-96761905D01*
X132047619Y-96571429D01*
X132047619Y-96333333D01*
X132000000Y-96142857D01*
X131952381Y-96047619D01*
X131904762Y-96000000D01*
X131809524Y-95952381D01*
X137357144Y-98702381D02*
X137452382Y-98654762D01*
X137500001Y-98559524D01*
X137500001Y-97702381D01*
X136833334Y-98702381D02*
X136928572Y-98654762D01*
X136976191Y-98607143D01*
X137023810Y-98511905D01*
X137023810Y-98226190D01*
X136976191Y-98130952D01*
X136928572Y-98083333D01*
X136833334Y-98035714D01*
X136690476Y-98035714D01*
X136595238Y-98083333D01*
X136547619Y-98130952D01*
X136500000Y-98226190D01*
X136500000Y-98511905D01*
X136547619Y-98607143D01*
X136595238Y-98654762D01*
X136690476Y-98702381D01*
X136833334Y-98702381D01*
X136166667Y-98035714D02*
X135976191Y-98702381D01*
X135785714Y-98226190D01*
X135595238Y-98702381D01*
X135404762Y-98035714D01*
X134404762Y-98035714D02*
X134023810Y-98035714D01*
X134261905Y-97702381D02*
X134261905Y-98559524D01*
X134214286Y-98654762D01*
X134119048Y-98702381D01*
X134023810Y-98702381D01*
X133547619Y-98702381D02*
X133642857Y-98654762D01*
X133690476Y-98607143D01*
X133738095Y-98511905D01*
X133738095Y-98226190D01*
X133690476Y-98130952D01*
X133642857Y-98083333D01*
X133547619Y-98035714D01*
X133404761Y-98035714D01*
X133309523Y-98083333D01*
X133261904Y-98130952D01*
X133214285Y-98226190D01*
X133214285Y-98511905D01*
X133261904Y-98607143D01*
X133309523Y-98654762D01*
X133404761Y-98702381D01*
X133547619Y-98702381D01*
X138023810Y-100452381D02*
X138023810Y-99452381D01*
X138023810Y-99833333D02*
X137928572Y-99785714D01*
X137738095Y-99785714D01*
X137642857Y-99833333D01*
X137595238Y-99880952D01*
X137547619Y-99976190D01*
X137547619Y-100261905D01*
X137595238Y-100357143D01*
X137642857Y-100404762D01*
X137738095Y-100452381D01*
X137928572Y-100452381D01*
X138023810Y-100404762D01*
X136976191Y-100452381D02*
X137071429Y-100404762D01*
X137119048Y-100357143D01*
X137166667Y-100261905D01*
X137166667Y-99976190D01*
X137119048Y-99880952D01*
X137071429Y-99833333D01*
X136976191Y-99785714D01*
X136833333Y-99785714D01*
X136738095Y-99833333D01*
X136690476Y-99880952D01*
X136642857Y-99976190D01*
X136642857Y-100261905D01*
X136690476Y-100357143D01*
X136738095Y-100404762D01*
X136833333Y-100452381D01*
X136976191Y-100452381D01*
X136071429Y-100452381D02*
X136166667Y-100404762D01*
X136214286Y-100357143D01*
X136261905Y-100261905D01*
X136261905Y-99976190D01*
X136214286Y-99880952D01*
X136166667Y-99833333D01*
X136071429Y-99785714D01*
X135928571Y-99785714D01*
X135833333Y-99833333D01*
X135785714Y-99880952D01*
X135738095Y-99976190D01*
X135738095Y-100261905D01*
X135785714Y-100357143D01*
X135833333Y-100404762D01*
X135928571Y-100452381D01*
X136071429Y-100452381D01*
X135452381Y-99785714D02*
X135071429Y-99785714D01*
X135309524Y-99452381D02*
X135309524Y-100309524D01*
X135261905Y-100404762D01*
X135166667Y-100452381D01*
X135071429Y-100452381D01*
X134595238Y-100452381D02*
X134690476Y-100404762D01*
X134738095Y-100309524D01*
X134738095Y-99452381D01*
X134071428Y-100452381D02*
X134166666Y-100404762D01*
X134214285Y-100357143D01*
X134261904Y-100261905D01*
X134261904Y-99976190D01*
X134214285Y-99880952D01*
X134166666Y-99833333D01*
X134071428Y-99785714D01*
X133928570Y-99785714D01*
X133833332Y-99833333D01*
X133785713Y-99880952D01*
X133738094Y-99976190D01*
X133738094Y-100261905D01*
X133785713Y-100357143D01*
X133833332Y-100404762D01*
X133928570Y-100452381D01*
X134071428Y-100452381D01*
X132880951Y-100452381D02*
X132880951Y-99928571D01*
X132928570Y-99833333D01*
X133023808Y-99785714D01*
X133214285Y-99785714D01*
X133309523Y-99833333D01*
X132880951Y-100404762D02*
X132976189Y-100452381D01*
X133214285Y-100452381D01*
X133309523Y-100404762D01*
X133357142Y-100309524D01*
X133357142Y-100214286D01*
X133309523Y-100119048D01*
X133214285Y-100071429D01*
X132976189Y-100071429D01*
X132880951Y-100023810D01*
X131976189Y-100452381D02*
X131976189Y-99452381D01*
X131976189Y-100404762D02*
X132071427Y-100452381D01*
X132261904Y-100452381D01*
X132357142Y-100404762D01*
X132404761Y-100357143D01*
X132452380Y-100261905D01*
X132452380Y-99976190D01*
X132404761Y-99880952D01*
X132357142Y-99833333D01*
X132261904Y-99785714D01*
X132071427Y-99785714D01*
X131976189Y-99833333D01*
D13*
X118462528Y-96867886D02*
X118321014Y-96928362D01*
X118273842Y-96988838D01*
X118226671Y-97109790D01*
X118226671Y-97291219D01*
X118273842Y-97412171D01*
X118321014Y-97472648D01*
X118415356Y-97533124D01*
X118792728Y-97533124D01*
X118792728Y-96263124D01*
X118462528Y-96263124D01*
X118368185Y-96323600D01*
X118321014Y-96384076D01*
X118273842Y-96505029D01*
X118273842Y-96625981D01*
X118321014Y-96746933D01*
X118368185Y-96807410D01*
X118462528Y-96867886D01*
X118792728Y-96867886D01*
X117896471Y-96686457D02*
X117660614Y-97533124D01*
X117424756Y-96686457D02*
X117660614Y-97533124D01*
X117754956Y-97835505D01*
X117802128Y-97895981D01*
X117896471Y-97956457D01*
X117047385Y-97412171D02*
X117000213Y-97472648D01*
X117047385Y-97533124D01*
X117094556Y-97472648D01*
X117047385Y-97412171D01*
X117047385Y-97533124D01*
X117047385Y-96746933D02*
X117000213Y-96807410D01*
X117047385Y-96867886D01*
X117094556Y-96807410D01*
X117047385Y-96746933D01*
X117047385Y-96867886D01*
X115820928Y-96867886D02*
X115490728Y-96867886D01*
X115349214Y-97533124D02*
X115820928Y-97533124D01*
X115820928Y-96263124D01*
X115349214Y-96263124D01*
X115066185Y-96686457D02*
X114688814Y-96686457D01*
X114924671Y-96263124D02*
X114924671Y-97351695D01*
X114877499Y-97472648D01*
X114783157Y-97533124D01*
X114688814Y-97533124D01*
X114358614Y-97533124D02*
X114358614Y-96263124D01*
X113934071Y-97533124D02*
X113934071Y-96867886D01*
X113981242Y-96746933D01*
X114075585Y-96686457D01*
X114217100Y-96686457D01*
X114311442Y-96746933D01*
X114358614Y-96807410D01*
X113037814Y-97533124D02*
X113037814Y-96867886D01*
X113084985Y-96746933D01*
X113179328Y-96686457D01*
X113368014Y-96686457D01*
X113462357Y-96746933D01*
X113037814Y-97472648D02*
X113132157Y-97533124D01*
X113368014Y-97533124D01*
X113462357Y-97472648D01*
X113509528Y-97351695D01*
X113509528Y-97230743D01*
X113462357Y-97109790D01*
X113368014Y-97049314D01*
X113132157Y-97049314D01*
X113037814Y-96988838D01*
X112566100Y-96686457D02*
X112566100Y-97533124D01*
X112566100Y-96807410D02*
X112518928Y-96746933D01*
X112424586Y-96686457D01*
X112283071Y-96686457D01*
X112188728Y-96746933D01*
X112141557Y-96867886D01*
X112141557Y-97533124D01*
X110349043Y-97412171D02*
X110396214Y-97472648D01*
X110537728Y-97533124D01*
X110632071Y-97533124D01*
X110773586Y-97472648D01*
X110867928Y-97351695D01*
X110915100Y-97230743D01*
X110962271Y-96988838D01*
X110962271Y-96807410D01*
X110915100Y-96565505D01*
X110867928Y-96444552D01*
X110773586Y-96323600D01*
X110632071Y-96263124D01*
X110537728Y-96263124D01*
X110396214Y-96323600D01*
X110349043Y-96384076D01*
X109924500Y-97533124D02*
X109924500Y-96263124D01*
X109499957Y-97533124D02*
X109499957Y-96867886D01*
X109547128Y-96746933D01*
X109641471Y-96686457D01*
X109782986Y-96686457D01*
X109877328Y-96746933D01*
X109924500Y-96807410D01*
X109028243Y-97533124D02*
X109028243Y-96686457D01*
X109028243Y-96263124D02*
X109075414Y-96323600D01*
X109028243Y-96384076D01*
X108981071Y-96323600D01*
X109028243Y-96263124D01*
X109028243Y-96384076D01*
X108415015Y-97533124D02*
X108509357Y-97472648D01*
X108556529Y-97351695D01*
X108556529Y-96263124D01*
X107613100Y-97533124D02*
X107613100Y-96263124D01*
X107613100Y-97472648D02*
X107707443Y-97533124D01*
X107896129Y-97533124D01*
X107990471Y-97472648D01*
X108037643Y-97412171D01*
X108084814Y-97291219D01*
X108084814Y-96928362D01*
X108037643Y-96807410D01*
X107990471Y-96746933D01*
X107896129Y-96686457D01*
X107707443Y-96686457D01*
X107613100Y-96746933D01*
X106764014Y-97472648D02*
X106858357Y-97533124D01*
X107047043Y-97533124D01*
X107141386Y-97472648D01*
X107188557Y-97351695D01*
X107188557Y-96867886D01*
X107141386Y-96746933D01*
X107047043Y-96686457D01*
X106858357Y-96686457D01*
X106764014Y-96746933D01*
X106716843Y-96867886D01*
X106716843Y-96988838D01*
X107188557Y-97109790D01*
X106292300Y-97533124D02*
X106292300Y-96686457D01*
X106292300Y-96928362D02*
X106245128Y-96807410D01*
X106197957Y-96746933D01*
X106103614Y-96686457D01*
X106009271Y-96686457D01*
X105679071Y-97533124D02*
X105679071Y-96263124D01*
X105254528Y-97533124D02*
X105254528Y-96867886D01*
X105301699Y-96746933D01*
X105396042Y-96686457D01*
X105537557Y-96686457D01*
X105631899Y-96746933D01*
X105679071Y-96807410D01*
X104641300Y-97533124D02*
X104735642Y-97472648D01*
X104782814Y-97412171D01*
X104829985Y-97291219D01*
X104829985Y-96928362D01*
X104782814Y-96807410D01*
X104735642Y-96746933D01*
X104641300Y-96686457D01*
X104499785Y-96686457D01*
X104405442Y-96746933D01*
X104358271Y-96807410D01*
X104311100Y-96928362D01*
X104311100Y-97291219D01*
X104358271Y-97412171D01*
X104405442Y-97472648D01*
X104499785Y-97533124D01*
X104641300Y-97533124D01*
X103933728Y-97472648D02*
X103839385Y-97533124D01*
X103650700Y-97533124D01*
X103556357Y-97472648D01*
X103509185Y-97351695D01*
X103509185Y-97291219D01*
X103556357Y-97170267D01*
X103650700Y-97109790D01*
X103792214Y-97109790D01*
X103886557Y-97049314D01*
X103933728Y-96928362D01*
X103933728Y-96867886D01*
X103886557Y-96746933D01*
X103792214Y-96686457D01*
X103650700Y-96686457D01*
X103556357Y-96746933D01*
X102707271Y-97472648D02*
X102801614Y-97533124D01*
X102990300Y-97533124D01*
X103084643Y-97472648D01*
X103131814Y-97351695D01*
X103131814Y-96867886D01*
X103084643Y-96746933D01*
X102990300Y-96686457D01*
X102801614Y-96686457D01*
X102707271Y-96746933D01*
X102660100Y-96867886D01*
X102660100Y-96988838D01*
X103131814Y-97109790D01*
X123486286Y-99615924D02*
X123486286Y-98950686D01*
X123533457Y-98829733D01*
X123627800Y-98769257D01*
X123816486Y-98769257D01*
X123910829Y-98829733D01*
X123486286Y-99555448D02*
X123580629Y-99615924D01*
X123816486Y-99615924D01*
X123910829Y-99555448D01*
X123958000Y-99434495D01*
X123958000Y-99313543D01*
X123910829Y-99192590D01*
X123816486Y-99132114D01*
X123580629Y-99132114D01*
X123486286Y-99071638D01*
X123014572Y-98769257D02*
X123014572Y-99615924D01*
X123014572Y-98890210D02*
X122967400Y-98829733D01*
X122873058Y-98769257D01*
X122731543Y-98769257D01*
X122637200Y-98829733D01*
X122590029Y-98950686D01*
X122590029Y-99615924D01*
X121693772Y-99615924D02*
X121693772Y-98345924D01*
X121693772Y-99555448D02*
X121788115Y-99615924D01*
X121976801Y-99615924D01*
X122071143Y-99555448D01*
X122118315Y-99494971D01*
X122165486Y-99374019D01*
X122165486Y-99011162D01*
X122118315Y-98890210D01*
X122071143Y-98829733D01*
X121976801Y-98769257D01*
X121788115Y-98769257D01*
X121693772Y-98829733D01*
X120514486Y-99555448D02*
X120372972Y-99615924D01*
X120137115Y-99615924D01*
X120042772Y-99555448D01*
X119995601Y-99494971D01*
X119948429Y-99374019D01*
X119948429Y-99253067D01*
X119995601Y-99132114D01*
X120042772Y-99071638D01*
X120137115Y-99011162D01*
X120325801Y-98950686D01*
X120420143Y-98890210D01*
X120467315Y-98829733D01*
X120514486Y-98708781D01*
X120514486Y-98587829D01*
X120467315Y-98466876D01*
X120420143Y-98406400D01*
X120325801Y-98345924D01*
X120089943Y-98345924D01*
X119948429Y-98406400D01*
X119099343Y-99615924D02*
X119099343Y-98950686D01*
X119146514Y-98829733D01*
X119240857Y-98769257D01*
X119429543Y-98769257D01*
X119523886Y-98829733D01*
X119099343Y-99555448D02*
X119193686Y-99615924D01*
X119429543Y-99615924D01*
X119523886Y-99555448D01*
X119571057Y-99434495D01*
X119571057Y-99313543D01*
X119523886Y-99192590D01*
X119429543Y-99132114D01*
X119193686Y-99132114D01*
X119099343Y-99071638D01*
X118627629Y-99615924D02*
X118627629Y-98769257D01*
X118627629Y-98890210D02*
X118580457Y-98829733D01*
X118486115Y-98769257D01*
X118344600Y-98769257D01*
X118250257Y-98829733D01*
X118203086Y-98950686D01*
X118203086Y-99615924D01*
X118203086Y-98950686D02*
X118155915Y-98829733D01*
X118061572Y-98769257D01*
X117920057Y-98769257D01*
X117825715Y-98829733D01*
X117778543Y-98950686D01*
X117778543Y-99615924D01*
X116882286Y-99615924D02*
X116882286Y-98950686D01*
X116929457Y-98829733D01*
X117023800Y-98769257D01*
X117212486Y-98769257D01*
X117306829Y-98829733D01*
X116882286Y-99555448D02*
X116976629Y-99615924D01*
X117212486Y-99615924D01*
X117306829Y-99555448D01*
X117354000Y-99434495D01*
X117354000Y-99313543D01*
X117306829Y-99192590D01*
X117212486Y-99132114D01*
X116976629Y-99132114D01*
X116882286Y-99071638D01*
X116410572Y-98769257D02*
X116410572Y-99615924D01*
X116410572Y-98890210D02*
X116363400Y-98829733D01*
X116269058Y-98769257D01*
X116127543Y-98769257D01*
X116033200Y-98829733D01*
X115986029Y-98950686D01*
X115986029Y-99615924D01*
X115655829Y-98769257D02*
X115278458Y-98769257D01*
X115514315Y-98345924D02*
X115514315Y-99434495D01*
X115467143Y-99555448D01*
X115372801Y-99615924D01*
X115278458Y-99615924D01*
X114948258Y-99615924D02*
X114948258Y-98345924D01*
X114523715Y-99615924D02*
X114523715Y-98950686D01*
X114570886Y-98829733D01*
X114665229Y-98769257D01*
X114806744Y-98769257D01*
X114901086Y-98829733D01*
X114948258Y-98890210D01*
X113627458Y-99615924D02*
X113627458Y-98950686D01*
X113674629Y-98829733D01*
X113768972Y-98769257D01*
X113957658Y-98769257D01*
X114052001Y-98829733D01*
X113627458Y-99555448D02*
X113721801Y-99615924D01*
X113957658Y-99615924D01*
X114052001Y-99555448D01*
X114099172Y-99434495D01*
X114099172Y-99313543D01*
X114052001Y-99192590D01*
X113957658Y-99132114D01*
X113721801Y-99132114D01*
X113627458Y-99071638D01*
X112212315Y-99011162D02*
X112212315Y-99615924D01*
X112542515Y-98345924D02*
X112212315Y-99011162D01*
X111882115Y-98345924D01*
X111127372Y-99615924D02*
X111127372Y-98950686D01*
X111174543Y-98829733D01*
X111268886Y-98769257D01*
X111457572Y-98769257D01*
X111551915Y-98829733D01*
X111127372Y-99555448D02*
X111221715Y-99615924D01*
X111457572Y-99615924D01*
X111551915Y-99555448D01*
X111599086Y-99434495D01*
X111599086Y-99313543D01*
X111551915Y-99192590D01*
X111457572Y-99132114D01*
X111221715Y-99132114D01*
X111127372Y-99071638D01*
X110514144Y-99615924D02*
X110608486Y-99555448D01*
X110655658Y-99494971D01*
X110702829Y-99374019D01*
X110702829Y-99011162D01*
X110655658Y-98890210D01*
X110608486Y-98829733D01*
X110514144Y-98769257D01*
X110372629Y-98769257D01*
X110278286Y-98829733D01*
X110231115Y-98890210D01*
X110183944Y-99011162D01*
X110183944Y-99374019D01*
X110231115Y-99494971D01*
X110278286Y-99555448D01*
X110372629Y-99615924D01*
X110514144Y-99615924D01*
X108580115Y-99615924D02*
X108580115Y-98950686D01*
X108627286Y-98829733D01*
X108721629Y-98769257D01*
X108910315Y-98769257D01*
X109004658Y-98829733D01*
X108580115Y-99555448D02*
X108674458Y-99615924D01*
X108910315Y-99615924D01*
X109004658Y-99555448D01*
X109051829Y-99434495D01*
X109051829Y-99313543D01*
X109004658Y-99192590D01*
X108910315Y-99132114D01*
X108674458Y-99132114D01*
X108580115Y-99071638D01*
X108108401Y-98769257D02*
X108108401Y-99615924D01*
X108108401Y-98890210D02*
X108061229Y-98829733D01*
X107966887Y-98769257D01*
X107825372Y-98769257D01*
X107731029Y-98829733D01*
X107683858Y-98950686D01*
X107683858Y-99615924D01*
X106787601Y-99615924D02*
X106787601Y-98345924D01*
X106787601Y-99555448D02*
X106881944Y-99615924D01*
X107070630Y-99615924D01*
X107164972Y-99555448D01*
X107212144Y-99494971D01*
X107259315Y-99374019D01*
X107259315Y-99011162D01*
X107212144Y-98890210D01*
X107164972Y-98829733D01*
X107070630Y-98769257D01*
X106881944Y-98769257D01*
X106787601Y-98829733D01*
X105561144Y-98950686D02*
X105230944Y-98950686D01*
X105089430Y-99615924D02*
X105561144Y-99615924D01*
X105561144Y-98345924D01*
X105089430Y-98345924D01*
X104664887Y-99615924D02*
X104664887Y-98769257D01*
X104664887Y-99011162D02*
X104617715Y-98890210D01*
X104570544Y-98829733D01*
X104476201Y-98769257D01*
X104381858Y-98769257D01*
X104051658Y-99615924D02*
X104051658Y-98769257D01*
X104051658Y-98345924D02*
X104098829Y-98406400D01*
X104051658Y-98466876D01*
X104004486Y-98406400D01*
X104051658Y-98345924D01*
X104051658Y-98466876D01*
X103155401Y-99555448D02*
X103249744Y-99615924D01*
X103438430Y-99615924D01*
X103532772Y-99555448D01*
X103579944Y-99494971D01*
X103627115Y-99374019D01*
X103627115Y-99011162D01*
X103579944Y-98890210D01*
X103532772Y-98829733D01*
X103438430Y-98769257D01*
X103249744Y-98769257D01*
X103155401Y-98829733D01*
X101645915Y-98950686D02*
X101504401Y-99011162D01*
X101457229Y-99071638D01*
X101410058Y-99192590D01*
X101410058Y-99374019D01*
X101457229Y-99494971D01*
X101504401Y-99555448D01*
X101598743Y-99615924D01*
X101976115Y-99615924D01*
X101976115Y-98345924D01*
X101645915Y-98345924D01*
X101551572Y-98406400D01*
X101504401Y-98466876D01*
X101457229Y-98587829D01*
X101457229Y-98708781D01*
X101504401Y-98829733D01*
X101551572Y-98890210D01*
X101645915Y-98950686D01*
X101976115Y-98950686D01*
X100985515Y-99615924D02*
X100985515Y-98769257D01*
X100985515Y-99011162D02*
X100938343Y-98890210D01*
X100891172Y-98829733D01*
X100796829Y-98769257D01*
X100702486Y-98769257D01*
X99947743Y-99615924D02*
X99947743Y-98950686D01*
X99994914Y-98829733D01*
X100089257Y-98769257D01*
X100277943Y-98769257D01*
X100372286Y-98829733D01*
X99947743Y-99555448D02*
X100042086Y-99615924D01*
X100277943Y-99615924D01*
X100372286Y-99555448D01*
X100419457Y-99434495D01*
X100419457Y-99313543D01*
X100372286Y-99192590D01*
X100277943Y-99132114D01*
X100042086Y-99132114D01*
X99947743Y-99071638D01*
X99051486Y-98769257D02*
X99051486Y-99615924D01*
X99476029Y-98769257D02*
X99476029Y-99434495D01*
X99428857Y-99555448D01*
X99334515Y-99615924D01*
X99193000Y-99615924D01*
X99098657Y-99555448D01*
X99051486Y-99494971D01*
X98202400Y-99555448D02*
X98296743Y-99615924D01*
X98485429Y-99615924D01*
X98579772Y-99555448D01*
X98626943Y-99434495D01*
X98626943Y-98950686D01*
X98579772Y-98829733D01*
X98485429Y-98769257D01*
X98296743Y-98769257D01*
X98202400Y-98829733D01*
X98155229Y-98950686D01*
X98155229Y-99071638D01*
X98626943Y-99192590D01*
X97730686Y-99615924D02*
X97730686Y-98769257D01*
X97730686Y-99011162D02*
X97683514Y-98890210D01*
X97636343Y-98829733D01*
X97542000Y-98769257D01*
X97447657Y-98769257D01*
D11*
X168214285Y-73178571D02*
X167714285Y-74678571D01*
X167214285Y-73178571D01*
X166142857Y-74607143D02*
X166285714Y-74678571D01*
X166571428Y-74678571D01*
X166714285Y-74607143D01*
X166785714Y-74464286D01*
X166785714Y-73892857D01*
X166714285Y-73750000D01*
X166571428Y-73678571D01*
X166285714Y-73678571D01*
X166142857Y-73750000D01*
X166071428Y-73892857D01*
X166071428Y-74035714D01*
X166785714Y-74178571D01*
X165428571Y-74678571D02*
X165428571Y-73678571D01*
X165428571Y-73964286D02*
X165357143Y-73821429D01*
X165285714Y-73750000D01*
X165142857Y-73678571D01*
X165000000Y-73678571D01*
X162571429Y-74678571D02*
X163428572Y-74678571D01*
X163000000Y-74678571D02*
X163000000Y-73178571D01*
X163142857Y-73392857D01*
X163285715Y-73535714D01*
X163428572Y-73607143D01*
X161928572Y-74535714D02*
X161857144Y-74607143D01*
X161928572Y-74678571D01*
X162000001Y-74607143D01*
X161928572Y-74535714D01*
X161928572Y-74678571D01*
X160428572Y-74678571D02*
X161285715Y-74678571D01*
X160857143Y-74678571D02*
X160857143Y-73178571D01*
X161000000Y-73392857D01*
X161142858Y-73535714D01*
X161285715Y-73607143D01*
D14*
X137916667Y-73316667D02*
X137440476Y-73316667D01*
X138011905Y-73602381D02*
X137678572Y-72602381D01*
X137345238Y-73602381D01*
X137011905Y-73602381D02*
X137011905Y-72602381D01*
X136440476Y-73602381D01*
X136440476Y-72602381D01*
X136011905Y-73316667D02*
X135535714Y-73316667D01*
X136107143Y-73602381D02*
X135773810Y-72602381D01*
X135440476Y-73602381D01*
X134630952Y-73602381D02*
X135107143Y-73602381D01*
X135107143Y-72602381D01*
X134107143Y-72602381D02*
X133916666Y-72602381D01*
X133821428Y-72650000D01*
X133726190Y-72745238D01*
X133678571Y-72935714D01*
X133678571Y-73269048D01*
X133726190Y-73459524D01*
X133821428Y-73554762D01*
X133916666Y-73602381D01*
X134107143Y-73602381D01*
X134202381Y-73554762D01*
X134297619Y-73459524D01*
X134345238Y-73269048D01*
X134345238Y-72935714D01*
X134297619Y-72745238D01*
X134202381Y-72650000D01*
X134107143Y-72602381D01*
X132726190Y-72650000D02*
X132821428Y-72602381D01*
X132964285Y-72602381D01*
X133107143Y-72650000D01*
X133202381Y-72745238D01*
X133250000Y-72840476D01*
X133297619Y-73030952D01*
X133297619Y-73173810D01*
X133250000Y-73364286D01*
X133202381Y-73459524D01*
X133107143Y-73554762D01*
X132964285Y-73602381D01*
X132869047Y-73602381D01*
X132726190Y-73554762D01*
X132678571Y-73507143D01*
X132678571Y-73173810D01*
X132869047Y-73173810D01*
X131583333Y-72602381D02*
X130964285Y-72602381D01*
X131297619Y-72983333D01*
X131154761Y-72983333D01*
X131059523Y-73030952D01*
X131011904Y-73078571D01*
X130964285Y-73173810D01*
X130964285Y-73411905D01*
X131011904Y-73507143D01*
X131059523Y-73554762D01*
X131154761Y-73602381D01*
X131440476Y-73602381D01*
X131535714Y-73554762D01*
X131583333Y-73507143D01*
X130535714Y-73507143D02*
X130488095Y-73554762D01*
X130535714Y-73602381D01*
X130583333Y-73554762D01*
X130535714Y-73507143D01*
X130535714Y-73602381D01*
X130154762Y-72602381D02*
X129535714Y-72602381D01*
X129869048Y-72983333D01*
X129726190Y-72983333D01*
X129630952Y-73030952D01*
X129583333Y-73078571D01*
X129535714Y-73173810D01*
X129535714Y-73411905D01*
X129583333Y-73507143D01*
X129630952Y-73554762D01*
X129726190Y-73602381D01*
X130011905Y-73602381D01*
X130107143Y-73554762D01*
X130154762Y-73507143D01*
X129202381Y-72935714D02*
X128964286Y-73602381D01*
X128726190Y-72935714D01*
X127726190Y-72935714D02*
X127345238Y-72935714D01*
X127583333Y-72602381D02*
X127583333Y-73459524D01*
X127535714Y-73554762D01*
X127440476Y-73602381D01*
X127345238Y-73602381D01*
X126869047Y-73602381D02*
X126964285Y-73554762D01*
X127011904Y-73507143D01*
X127059523Y-73411905D01*
X127059523Y-73126190D01*
X127011904Y-73030952D01*
X126964285Y-72983333D01*
X126869047Y-72935714D01*
X126726189Y-72935714D01*
X126630951Y-72983333D01*
X126583332Y-73030952D01*
X126535713Y-73126190D01*
X126535713Y-73411905D01*
X126583332Y-73507143D01*
X126630951Y-73554762D01*
X126726189Y-73602381D01*
X126869047Y-73602381D01*
X124821427Y-73602381D02*
X125392856Y-73602381D01*
X125107142Y-73602381D02*
X125107142Y-72602381D01*
X125202380Y-72745238D01*
X125297618Y-72840476D01*
X125392856Y-72888095D01*
X124488094Y-72935714D02*
X124249999Y-73602381D01*
X124011903Y-72935714D01*
X123630951Y-73507143D02*
X123583332Y-73554762D01*
X123630951Y-73602381D01*
X123678570Y-73554762D01*
X123630951Y-73507143D01*
X123630951Y-73602381D01*
X123630951Y-72983333D02*
X123583332Y-73030952D01*
X123630951Y-73078571D01*
X123678570Y-73030952D01*
X123630951Y-72983333D01*
X123630951Y-73078571D01*
X137988095Y-75302381D02*
X138321429Y-74826190D01*
X138559524Y-75302381D02*
X138559524Y-74302381D01*
X138178571Y-74302381D01*
X138083333Y-74350000D01*
X138035714Y-74397619D01*
X137988095Y-74492857D01*
X137988095Y-74635714D01*
X138035714Y-74730952D01*
X138083333Y-74778571D01*
X138178571Y-74826190D01*
X138559524Y-74826190D01*
X137607143Y-74397619D02*
X137559524Y-74350000D01*
X137464286Y-74302381D01*
X137226190Y-74302381D01*
X137130952Y-74350000D01*
X137083333Y-74397619D01*
X137035714Y-74492857D01*
X137035714Y-74588095D01*
X137083333Y-74730952D01*
X137654762Y-75302381D01*
X137035714Y-75302381D01*
X135845238Y-74778571D02*
X135083333Y-74778571D01*
X135083333Y-75064286D02*
X135845238Y-75064286D01*
X133321428Y-75302381D02*
X133892857Y-75302381D01*
X133607143Y-75302381D02*
X133607143Y-74302381D01*
X133702381Y-74445238D01*
X133797619Y-74540476D01*
X133892857Y-74588095D01*
X132702381Y-74302381D02*
X132607142Y-74302381D01*
X132511904Y-74350000D01*
X132464285Y-74397619D01*
X132416666Y-74492857D01*
X132369047Y-74683333D01*
X132369047Y-74921429D01*
X132416666Y-75111905D01*
X132464285Y-75207143D01*
X132511904Y-75254762D01*
X132607142Y-75302381D01*
X132702381Y-75302381D01*
X132797619Y-75254762D01*
X132845238Y-75207143D01*
X132892857Y-75111905D01*
X132940476Y-74921429D01*
X132940476Y-74683333D01*
X132892857Y-74492857D01*
X132845238Y-74397619D01*
X132797619Y-74350000D01*
X132702381Y-74302381D01*
X131940476Y-75302381D02*
X131940476Y-74302381D01*
X131845238Y-74921429D02*
X131559523Y-75302381D01*
X131559523Y-74635714D02*
X131940476Y-75016667D01*
X131083333Y-75254762D02*
X131083333Y-75302381D01*
X131130952Y-75397619D01*
X131178571Y-75445238D01*
X129321428Y-75302381D02*
X129654762Y-74826190D01*
X129892857Y-75302381D02*
X129892857Y-74302381D01*
X129511904Y-74302381D01*
X129416666Y-74350000D01*
X129369047Y-74397619D01*
X129321428Y-74492857D01*
X129321428Y-74635714D01*
X129369047Y-74730952D01*
X129416666Y-74778571D01*
X129511904Y-74826190D01*
X129892857Y-74826190D01*
X128369047Y-75302381D02*
X128940476Y-75302381D01*
X128654762Y-75302381D02*
X128654762Y-74302381D01*
X128750000Y-74445238D01*
X128845238Y-74540476D01*
X128940476Y-74588095D01*
X127178571Y-74778571D02*
X126416666Y-74778571D01*
X126416666Y-75064286D02*
X127178571Y-75064286D01*
X125226190Y-74397619D02*
X125178571Y-74350000D01*
X125083333Y-74302381D01*
X124845237Y-74302381D01*
X124749999Y-74350000D01*
X124702380Y-74397619D01*
X124654761Y-74492857D01*
X124654761Y-74588095D01*
X124702380Y-74730952D01*
X125273809Y-75302381D01*
X124654761Y-75302381D01*
X123749999Y-74302381D02*
X124226190Y-74302381D01*
X124273809Y-74778571D01*
X124226190Y-74730952D01*
X124130952Y-74683333D01*
X123892856Y-74683333D01*
X123797618Y-74730952D01*
X123749999Y-74778571D01*
X123702380Y-74873810D01*
X123702380Y-75111905D01*
X123749999Y-75207143D01*
X123797618Y-75254762D01*
X123892856Y-75302381D01*
X124130952Y-75302381D01*
X124226190Y-75254762D01*
X124273809Y-75207143D01*
X123273809Y-75302381D02*
X123273809Y-74302381D01*
X123178571Y-74921429D02*
X122892856Y-75302381D01*
X122892856Y-74635714D02*
X123273809Y-75016667D01*
D15*
X167513143Y-39584286D02*
X169798857Y-39584286D01*
X168656000Y-40727143D02*
X168656000Y-38441429D01*
X205867143Y-39584286D02*
X208152857Y-39584286D01*
D12*
X222249904Y-30488000D02*
X222345142Y-30440381D01*
X222487999Y-30440381D01*
X222630857Y-30488000D01*
X222726095Y-30583238D01*
X222773714Y-30678476D01*
X222821333Y-30868952D01*
X222821333Y-31011810D01*
X222773714Y-31202286D01*
X222726095Y-31297524D01*
X222630857Y-31392762D01*
X222487999Y-31440381D01*
X222392761Y-31440381D01*
X222249904Y-31392762D01*
X222202285Y-31345143D01*
X222202285Y-31011810D01*
X222392761Y-31011810D01*
X221773714Y-31440381D02*
X221773714Y-30440381D01*
X221202285Y-31440381D01*
X221202285Y-30440381D01*
X220726095Y-31440381D02*
X220726095Y-30440381D01*
X220488000Y-30440381D01*
X220345142Y-30488000D01*
X220249904Y-30583238D01*
X220202285Y-30678476D01*
X220154666Y-30868952D01*
X220154666Y-31011810D01*
X220202285Y-31202286D01*
X220249904Y-31297524D01*
X220345142Y-31392762D01*
X220488000Y-31440381D01*
X220726095Y-31440381D01*
D16*
X104800000Y-72200000D02*
X104800000Y-76900000D01*
X104800000Y-76900000D02*
X98700000Y-76900000D01*
X98700000Y-76900000D02*
X98700000Y-72200000D01*
X98700000Y-72200000D02*
X104800000Y-72200000D01*
X102250000Y-72200000D02*
X102250000Y-72800000D01*
X102250000Y-72800000D02*
X104200000Y-72800000D01*
X104200000Y-72800000D02*
X104200000Y-76300000D01*
X104200000Y-76300000D02*
X99300000Y-76300000D01*
X99300000Y-76300000D02*
X99300000Y-72800000D01*
X99300000Y-72800000D02*
X101250000Y-72800000D01*
X101250000Y-72800000D02*
X101250000Y-72200000D01*
X104800000Y-73500000D02*
X104200000Y-73500000D01*
X104800000Y-74800000D02*
X104200000Y-74800000D01*
X98700000Y-73500000D02*
X99300000Y-73500000D01*
X98700000Y-74800000D02*
X99300000Y-74800000D01*
X103050000Y-72200000D02*
X103050000Y-72000000D01*
X103050000Y-72000000D02*
X103350000Y-72000000D01*
X103350000Y-72000000D02*
X103350000Y-72200000D01*
X103050000Y-72100000D02*
X103350000Y-72100000D01*
X101850000Y-76300000D02*
X101850000Y-75800000D01*
X101850000Y-75800000D02*
X101650000Y-75800000D01*
X101650000Y-75800000D02*
X101650000Y-76300000D01*
X101750000Y-76300000D02*
X101750000Y-75800000D01*
X103850000Y-71900000D02*
X105100000Y-71900000D01*
X105100000Y-71900000D02*
X105100000Y-73150000D01*
M02*
